  0
SECTION
  2
HEADER
  9
$ACADVER
  1
AC1014
  9
$HANDSEED
  5
FFFF
  9
$INSUNITS
 70
     4
  9
$MEASUREMENT
 70
     1
  0
ENDSEC
  0
SECTION
  2
TABLES
  0
TABLE
  2
VPORT
  5
8
330
0
100
AcDbSymbolTable
 70
     4
  0
VPORT
  5
2E
330
8
100
AcDbSymbolTableRecord
100
AcDbViewportTableRecord
  2
*ACTIVE
 70
     0
 10
0.0
 20
0.0
 11
1.0
 21
1.0
 12
210.0
 22
148.5
 13
0.0
 23
0.0
 14
10.0
 24
10.0
 15
10.0
 25
10.0
 16
0.0
 26
0.0
 36
1.0
 17
0.0
 27
0.0
 37
0.0
 40
341.0
 41
1.24
 42
50.0
 43
0.0
 44
0.0
 50
0.0
 51
0.0
 71
     0
 72
   100
 73
     1
 74
     3
 75
     0
 76
     0
 77
     0
 78
     0
  0
ENDTAB
  0
TABLE
  2
LTYPE
  5
5
330
0
100
AcDbSymbolTable
 70
     1
  0
LTYPE
  5
14
330
5
100
AcDbSymbolTableRecord
100
AcDbLinetypeTableRecord
  2
BYBLOCK
 70
     0
  3

 72
    65
 73
     0
 40
0.0
  0
LTYPE
  5
15
330
5
100
AcDbSymbolTableRecord
100
AcDbLinetypeTableRecord
  2
BYLAYER
 70
     0
  3

 72
    65
 73
     0
 40
0.0
  0
LTYPE
  5
16
330
5
100
AcDbSymbolTableRecord
100
AcDbLinetypeTableRecord
  2
CONTINUOUS
 70
     0
  3
Solid line
 72
    65
 73
     0
 40
0.0
  0
ENDTAB
  0
TABLE
  2
LAYER
  5
2
100
AcDbSymbolTable
 70
2
  0
LAYER
  5
50
100
AcDbSymbolTableRecord
100
AcDbLayerTableRecord
  2
0
 70
0
  6
CONTINUOUS
  0
LAYER
  5
51
100
AcDbSymbolTableRecord
100
AcDbLayerTableRecord
  2
Layer_1
 70
0
  6
CONTINUOUS
  0
ENDTAB
  0
TABLE
  2
STYLE
  5
3
330
0
100
AcDbSymbolTable
 70
     1
  0
STYLE
  5
11
330
3
100
AcDbSymbolTableRecord
100
AcDbTextStyleTableRecord
  2
STANDARD
 70
     0
 40
0.0
 41
1.0
 50
0.0
 71
     0
 42
2.5
  3
txt
  4

  0
ENDTAB
  0
TABLE
  2
VIEW
  5
6
330
0
100
AcDbSymbolTable
 70
     0
  0
ENDTAB
  0
TABLE
  2
UCS
  5
7
330
0
100
AcDbSymbolTable
 70
     0
  0
ENDTAB
  0
TABLE
  2
APPID
  5
9
330
0
100
AcDbSymbolTable
 70
     2
  0
APPID
  5
12
330
9
100
AcDbSymbolTableRecord
100
AcDbRegAppTableRecord
  2
ACAD
 70
     0
  0
ENDTAB
  0
TABLE
  2
DIMSTYLE
  5
A
330
0
100
AcDbSymbolTable
 70
     1
  0
DIMSTYLE
105
27
330
A
100
AcDbSymbolTableRecord
100
AcDbDimStyleTableRecord
  2
ISO-25
 70
     0
  3

  4

  5

  6

  7

 40
1.0
 41
2.5
 42
0.625
 43
3.75
 44
1.25
 45
0.0
 46
0.0
 47
0.0
 48
0.0
140
2.5
141
2.5
142
0.0
143
0.03937007874016
144
1.0
145
0.0
146
1.0
147
0.625
 71
     0
 72
     0
 73
     0
 74
     0
 75
     0
 76
     0
 77
     1
 78
     8
170
     0
171
     3
172
     1
173
     0
174
     0
175
     0
176
     0
177
     0
178
     0
270
     2
271
     2
272
     2
273
     2
274
     3
340
11
275
     0
280
     0
281
     0
282
     0
283
     0
284
     8
285
     0
286
     0
287
     3
288
     0
  0
ENDTAB
  0
TABLE
  2
BLOCK_RECORD
  5
1
330
0
100
AcDbSymbolTable
 70
     1
  0
BLOCK_RECORD
  5
1F
330
1
100
AcDbSymbolTableRecord
100
AcDbBlockTableRecord
  2
*MODEL_SPACE
  0
BLOCK_RECORD
  5
1B
330
1
100
AcDbSymbolTableRecord
100
AcDbBlockTableRecord
  2
*PAPER_SPACE
  0
ENDTAB
  0
ENDSEC
  0
SECTION
  2
BLOCKS
  0
BLOCK
  5
20
330
1F
100
AcDbEntity
  8
0
100
AcDbBlockBegin
  2
*MODEL_SPACE
 70
     0
 10
0.0
 20
0.0
 30
0.0
  3
*MODEL_SPACE
  1

  0
ENDBLK
  5
21
330
1F
100
AcDbEntity
  8
0
100
AcDbBlockEnd
  0
BLOCK
  5
1C
330
1B
100
AcDbEntity
 67
     1
  8
0
100
AcDbBlockBegin
  2
*PAPER_SPACE
  1

  0
ENDBLK
  5
1D
330
1B
100
AcDbEntity
 67
     1
  8
0
100
AcDbBlockEnd
  0
ENDSEC
  0
SECTION
  2
ENTITIES
  0
SPLINE
  5
100
100
AcDbEntity
  8
Layer_1
 62
1
100
AcDbSpline
 70
8
 71
3
 72
8
 73
4
 74
0
 40
0
 40
0
 40
0
 40
0
 40
1
 40
1
 40
1
 40
1
 10
108.037110
 20
243.263672
 30
0.0
 10
102.909000
 20
243.136684
 30
0.0
 10
97.665101
 20
241.514411
 30
0.0
 10
93.376988
 20
238.805397
 30
0.0
  0
SPLINE
  5
101
100
AcDbEntity
  8
Layer_1
 62
1
100
AcDbSpline
 70
8
 71
3
 72
8
 73
4
 74
0
 40
0
 40
0
 40
0
 40
0
 40
1
 40
1
 40
1
 40
1
 10
93.376988
 20
238.805397
 30
0.0
 10
86.989359
 20
234.770015
 30
0.0
 10
82.402038
 20
227.862748
 30
0.0
 10
81.630331
 20
220.297980
 30
0.0
  0
SPLINE
  5
102
100
AcDbEntity
  8
Layer_1
 62
1
100
AcDbSpline
 70
8
 71
3
 72
8
 73
4
 74
0
 40
0
 40
0
 40
0
 40
0
 40
1
 40
1
 40
1
 40
1
 10
81.630331
 20
220.297980
 30
0.0
 10
81.168919
 20
215.774925
 30
0.0
 10
82.007557
 20
211.196285
 30
0.0
 10
83.954513
 20
207.119984
 30
0.0
  0
SPLINE
  5
103
100
AcDbEntity
  8
Layer_1
 62
1
100
AcDbSpline
 70
8
 71
3
 72
8
 73
4
 74
0
 40
0
 40
0
 40
0
 40
0
 40
1
 40
1
 40
1
 40
1
 10
83.954513
 20
207.119984
 30
0.0
 10
84.931465
 20
205.074560
 30
0.0
 10
86.195660
 20
203.139345
 30
0.0
 10
86.873047
 20
200.974609
 30
0.0
  0
SPLINE
  5
104
100
AcDbEntity
  8
Layer_1
 62
1
100
AcDbSpline
 70
8
 71
3
 72
8
 73
4
 74
0
 40
0
 40
0
 40
0
 40
0
 40
1
 40
1
 40
1
 40
1
 10
86.873047
 20
200.974609
 30
0.0
 10
87.587952
 20
198.689976
 30
0.0
 10
86.500396
 20
195.924640
 30
0.0
 10
84.236725
 20
194.853800
 30
0.0
  0
SPLINE
  5
105
100
AcDbEntity
  8
Layer_1
 62
1
100
AcDbSpline
 70
8
 71
3
 72
8
 73
4
 74
0
 40
0
 40
0
 40
0
 40
0
 40
1
 40
1
 40
1
 40
1
 10
84.236725
 20
194.853800
 30
0.0
 10
81.536982
 20
193.576670
 30
0.0
 10
78.317748
 20
194.187480
 30
0.0
 10
75.867636
 20
195.654140
 30
0.0
  0
SPLINE
  5
106
100
AcDbEntity
  8
Layer_1
 62
1
100
AcDbSpline
 70
8
 71
3
 72
8
 73
4
 74
0
 40
0
 40
0
 40
0
 40
0
 40
1
 40
1
 40
1
 40
1
 10
75.867636
 20
195.654140
 30
0.0
 10
73.106179
 20
197.307175
 30
0.0
 10
70.150943
 20
199.439770
 30
0.0
 10
69.474902
 20
202.755218
 30
0.0
  0
SPLINE
  5
107
100
AcDbEntity
  8
Layer_1
 62
1
100
AcDbSpline
 70
8
 71
3
 72
8
 73
4
 74
0
 40
0
 40
0
 40
0
 40
0
 40
1
 40
1
 40
1
 40
1
 10
69.474902
 20
202.755218
 30
0.0
 10
68.740197
 20
206.358365
 30
0.0
 10
70.267495
 20
209.884175
 30
0.0
 10
71.522911
 20
213.187992
 30
0.0
  0
SPLINE
  5
108
100
AcDbEntity
  8
Layer_1
 62
1
100
AcDbSpline
 70
8
 71
3
 72
8
 73
4
 74
0
 40
0
 40
0
 40
0
 40
0
 40
1
 40
1
 40
1
 40
1
 10
71.522911
 20
213.187992
 30
0.0
 10
72.600956
 20
216.025030
 30
0.0
 10
74.162707
 20
218.699701
 30
0.0
 10
74.908093
 20
221.643854
 30
0.0
  0
SPLINE
  5
109
100
AcDbEntity
  8
Layer_1
 62
1
100
AcDbSpline
 70
8
 71
3
 72
8
 73
4
 74
0
 40
0
 40
0
 40
0
 40
0
 40
1
 40
1
 40
1
 40
1
 10
74.908093
 20
221.643854
 30
0.0
 10
75.763612
 20
225.023014
 30
0.0
 10
74.254112
 20
229.100085
 30
0.0
 10
71.015625
 20
230.734375
 30
0.0
  0
SPLINE
  5
10a
100
AcDbEntity
  8
Layer_1
 62
1
100
AcDbSpline
 70
8
 71
3
 72
8
 73
4
 74
0
 40
0
 40
0
 40
0
 40
0
 40
1
 40
1
 40
1
 40
1
 10
71.015625
 20
230.734375
 30
0.0
 10
67.495100
 20
232.510994
 30
0.0
 10
62.536233
 20
231.475804
 30
0.0
 10
60.559547
 20
227.938511
 30
0.0
  0
SPLINE
  5
10b
100
AcDbEntity
  8
Layer_1
 62
1
100
AcDbSpline
 70
8
 71
3
 72
8
 73
4
 74
0
 40
0
 40
0
 40
0
 40
0
 40
1
 40
1
 40
1
 40
1
 10
60.559547
 20
227.938511
 30
0.0
 10
60.141852
 20
227.191043
 30
0.0
 10
59.554017
 20
225.826832
 30
0.0
 10
60.326172
 20
225.363281
 30
0.0
  0
SPLINE
  5
10c
100
AcDbEntity
  8
Layer_1
 62
1
100
AcDbSpline
 70
8
 71
3
 72
8
 73
4
 74
0
 40
0
 40
0
 40
0
 40
0
 40
1
 40
1
 40
1
 40
1
 10
60.326172
 20
225.363281
 30
0.0
 10
61.346027
 20
224.751027
 30
0.0
 10
62.623727
 20
225.791570
 30
0.0
 10
63.770631
 20
225.994241
 30
0.0
  0
SPLINE
  5
10d
100
AcDbEntity
  8
Layer_1
 62
1
100
AcDbSpline
 70
8
 71
3
 72
8
 73
4
 74
0
 40
0
 40
0
 40
0
 40
0
 40
1
 40
1
 40
1
 40
1
 10
63.770631
 20
225.994241
 30
0.0
 10
65.331739
 20
226.270106
 30
0.0
 10
67.206719
 20
225.793078
 30
0.0
 10
67.829858
 20
224.206170
 30
0.0
  0
SPLINE
  5
10e
100
AcDbEntity
  8
Layer_1
 62
1
100
AcDbSpline
 70
8
 71
3
 72
8
 73
4
 74
0
 40
0
 40
0
 40
0
 40
0
 40
1
 40
1
 40
1
 40
1
 10
67.829858
 20
224.206170
 30
0.0
 10
68.627217
 20
222.175589
 30
0.0
 10
67.733998
 20
220.008020
 30
0.0
 10
66.974609
 20
218.119141
 30
0.0
  0
SPLINE
  5
10f
100
AcDbEntity
  8
Layer_1
 62
1
100
AcDbSpline
 70
8
 71
3
 72
8
 73
4
 74
0
 40
0
 40
0
 40
0
 40
0
 40
1
 40
1
 40
1
 40
1
 10
66.974609
 20
218.119141
 30
0.0
 10
65.820914
 20
215.249487
 30
0.0
 10
63.815056
 20
212.810708
 30
0.0
 10
62.597656
 20
209.978516
 30
0.0
  0
SPLINE
  5
110
100
AcDbEntity
  8
Layer_1
 62
1
100
AcDbSpline
 70
8
 71
3
 72
8
 73
4
 74
0
 40
0
 40
0
 40
0
 40
0
 40
1
 40
1
 40
1
 40
1
 10
62.597656
 20
209.978516
 30
0.0
 10
60.472534
 20
205.034576
 30
0.0
 10
60.374646
 20
198.986223
 30
0.0
 10
63.172685
 20
194.271010
 30
0.0
  0
SPLINE
  5
111
100
AcDbEntity
  8
Layer_1
 62
1
100
AcDbSpline
 70
8
 71
3
 72
8
 73
4
 74
0
 40
0
 40
0
 40
0
 40
0
 40
1
 40
1
 40
1
 40
1
 10
63.172685
 20
194.271010
 30
0.0
 10
65.335939
 20
190.625530
 30
0.0
 10
69.246384
 20
188.381210
 30
0.0
 10
73.275498
 20
187.339690
 30
0.0
  0
SPLINE
  5
112
100
AcDbEntity
  8
Layer_1
 62
1
100
AcDbSpline
 70
8
 71
3
 72
8
 73
4
 74
0
 40
0
 40
0
 40
0
 40
0
 40
1
 40
1
 40
1
 40
1
 10
73.275498
 20
187.339690
 30
0.0
 10
75.660580
 20
186.723150
 30
0.0
 10
78.136837
 20
186.644090
 30
0.0
 10
80.558594
 20
186.267580
 30
0.0
  0
SPLINE
  5
113
100
AcDbEntity
  8
Layer_1
 62
1
100
AcDbSpline
 70
8
 71
3
 72
8
 73
4
 74
0
 40
0
 40
0
 40
0
 40
0
 40
1
 40
1
 40
1
 40
1
 10
80.558594
 20
186.267580
 30
0.0
 10
81.985092
 20
186.045800
 30
0.0
 10
82.347530
 20
184.203840
 30
0.0
 10
81.881594
 20
182.955550
 30
0.0
  0
SPLINE
  5
114
100
AcDbEntity
  8
Layer_1
 62
1
100
AcDbSpline
 70
8
 71
3
 72
8
 73
4
 74
0
 40
0
 40
0
 40
0
 40
0
 40
1
 40
1
 40
1
 40
1
 10
81.881594
 20
182.955550
 30
0.0
 10
81.040579
 20
180.702380
 30
0.0
 10
79.602880
 20
178.755410
 30
0.0
 10
78.293056
 20
176.770660
 30
0.0
  0
SPLINE
  5
115
100
AcDbEntity
  8
Layer_1
 62
1
100
AcDbSpline
 70
8
 71
3
 72
8
 73
4
 74
0
 40
0
 40
0
 40
0
 40
0
 40
1
 40
1
 40
1
 40
1
 10
78.293056
 20
176.770660
 30
0.0
 10
76.499961
 20
174.053620
 30
0.0
 10
74.016891
 20
171.564550
 30
0.0
 10
70.757070
 20
170.727750
 30
0.0
  0
SPLINE
  5
116
100
AcDbEntity
  8
Layer_1
 62
1
100
AcDbSpline
 70
8
 71
3
 72
8
 73
4
 74
0
 40
0
 40
0
 40
0
 40
0
 40
1
 40
1
 40
1
 40
1
 10
70.757070
 20
170.727750
 30
0.0
 10
69.011283
 20
170.279610
 30
0.0
 10
66.904219
 20
170.567950
 30
0.0
 10
65.824140
 20
172.175470
 30
0.0
  0
SPLINE
  5
117
100
AcDbEntity
  8
Layer_1
 62
1
100
AcDbSpline
 70
8
 71
3
 72
8
 73
4
 74
0
 40
0
 40
0
 40
0
 40
0
 40
1
 40
1
 40
1
 40
1
 10
65.824140
 20
172.175470
 30
0.0
 10
64.748899
 20
173.775790
 30
0.0
 10
64.903861
 20
176.030940
 30
0.0
 10
66.320449
 20
177.393240
 30
0.0
  0
SPLINE
  5
118
100
AcDbEntity
  8
Layer_1
 62
1
100
AcDbSpline
 70
8
 71
3
 72
8
 73
4
 74
0
 40
0
 40
0
 40
0
 40
0
 40
1
 40
1
 40
1
 40
1
 10
66.320449
 20
177.393240
 30
0.0
 10
67.631130
 20
178.653690
 30
0.0
 10
70.524706
 20
178.917730
 30
0.0
 10
70.554688
 20
180.755860
 30
0.0
  0
SPLINE
  5
119
100
AcDbEntity
  8
Layer_1
 62
1
100
AcDbSpline
 70
8
 71
3
 72
8
 73
4
 74
0
 40
0
 40
0
 40
0
 40
0
 40
1
 40
1
 40
1
 40
1
 10
70.554688
 20
180.755860
 30
0.0
 10
70.576598
 20
182.099230
 30
0.0
 10
68.014104
 20
181.620220
 30
0.0
 10
66.722656
 20
181.546880
 30
0.0
  0
SPLINE
  5
11a
100
AcDbEntity
  8
Layer_1
 62
1
100
AcDbSpline
 70
8
 71
3
 72
8
 73
4
 74
0
 40
0
 40
0
 40
0
 40
0
 40
1
 40
1
 40
1
 40
1
 10
66.722656
 20
181.546880
 30
0.0
 10
63.881334
 20
181.385520
 30
0.0
 10
61.131054
 20
179.819940
 30
0.0
 10
59.730469
 20
177.271480
 30
0.0
  0
SPLINE
  5
11b
100
AcDbEntity
  8
Layer_1
 62
1
100
AcDbSpline
 70
8
 71
3
 72
8
 73
4
 74
0
 40
0
 40
0
 40
0
 40
0
 40
1
 40
1
 40
1
 40
1
 10
59.730469
 20
177.271480
 30
0.0
 10
57.642896
 20
173.473000
 30
0.0
 10
59.061304
 20
168.503370
 30
0.0
 10
62.277125
 20
165.760580
 30
0.0
  0
SPLINE
  5
11c
100
AcDbEntity
  8
Layer_1
 62
1
100
AcDbSpline
 70
8
 71
3
 72
8
 73
4
 74
0
 40
0
 40
0
 40
0
 40
0
 40
1
 40
1
 40
1
 40
1
 10
62.277125
 20
165.760580
 30
0.0
 10
65.355751
 20
163.134810
 30
0.0
 10
69.831046
 20
162.535050
 30
0.0
 10
73.579211
 20
163.974470
 30
0.0
  0
SPLINE
  5
11d
100
AcDbEntity
  8
Layer_1
 62
1
100
AcDbSpline
 70
8
 71
3
 72
8
 73
4
 74
0
 40
0
 40
0
 40
0
 40
0
 40
1
 40
1
 40
1
 40
1
 10
73.579211
 20
163.974470
 30
0.0
 10
75.839917
 20
164.842660
 30
0.0
 10
77.752764
 20
166.354240
 30
0.0
 10
79.397913
 20
168.106350
 30
0.0
  0
SPLINE
  5
11e
100
AcDbEntity
  8
Layer_1
 62
1
100
AcDbSpline
 70
8
 71
3
 72
8
 73
4
 74
0
 40
0
 40
0
 40
0
 40
0
 40
1
 40
1
 40
1
 40
1
 10
79.397913
 20
168.106350
 30
0.0
 10
82.313569
 20
171.211580
 30
0.0
 10
84.871694
 20
174.672290
 30
0.0
 10
88.060547
 20
177.496090
 30
0.0
  0
SPLINE
  5
11f
100
AcDbEntity
  8
Layer_1
 62
1
100
AcDbSpline
 70
8
 71
3
 72
8
 73
4
 74
0
 40
0
 40
0
 40
0
 40
0
 40
1
 40
1
 40
1
 40
1
 10
88.060547
 20
177.496090
 30
0.0
 10
89.010623
 20
178.337400
 30
0.0
 10
90.854122
 20
177.455790
 30
0.0
 10
90.687186
 20
176.080200
 30
0.0
  0
SPLINE
  5
120
100
AcDbEntity
  8
Layer_1
 62
1
100
AcDbSpline
 70
8
 71
3
 72
8
 73
4
 74
0
 40
0
 40
0
 40
0
 40
0
 40
1
 40
1
 40
1
 40
1
 10
90.687186
 20
176.080200
 30
0.0
 10
90.436436
 20
174.013910
 30
0.0
 10
89.762865
 20
172.070440
 30
0.0
 10
89.245862
 20
170.067940
 30
0.0
  0
SPLINE
  5
121
100
AcDbEntity
  8
Layer_1
 62
1
100
AcDbSpline
 70
8
 71
3
 72
8
 73
4
 74
0
 40
0
 40
0
 40
0
 40
0
 40
1
 40
1
 40
1
 40
1
 10
89.245862
 20
170.067940
 30
0.0
 10
88.249949
 20
166.210490
 30
0.0
 10
87.385958
 20
162.301220
 30
0.0
 10
86.051827
 20
158.549550
 30
0.0
  0
SPLINE
  5
122
100
AcDbEntity
  8
Layer_1
 62
1
100
AcDbSpline
 70
8
 71
3
 72
8
 73
4
 74
0
 40
0
 40
0
 40
0
 40
0
 40
1
 40
1
 40
1
 40
1
 10
86.051827
 20
158.549550
 30
0.0
 10
85.180505
 20
156.099330
 30
0.0
 10
82.401147
 20
154.104210
 30
0.0
 10
79.724748
 20
154.759920
 30
0.0
  0
SPLINE
  5
123
100
AcDbEntity
  8
Layer_1
 62
1
100
AcDbSpline
 70
8
 71
3
 72
8
 73
4
 74
0
 40
0
 40
0
 40
0
 40
0
 40
1
 40
1
 40
1
 40
1
 10
79.724748
 20
154.759920
 30
0.0
 10
78.145442
 20
155.146850
 30
0.0
 10
78.465461
 20
157.672190
 30
0.0
 10
77.019531
 20
158.382810
 30
0.0
  0
SPLINE
  5
124
100
AcDbEntity
  8
Layer_1
 62
1
100
AcDbSpline
 70
8
 71
3
 72
8
 73
4
 74
0
 40
0
 40
0
 40
0
 40
0
 40
1
 40
1
 40
1
 40
1
 10
77.019531
 20
158.382810
 30
0.0
 10
75.583510
 20
159.088560
 30
0.0
 10
75.126275
 20
155.697630
 30
0.0
 10
75.171875
 20
154.140620
 30
0.0
  0
SPLINE
  5
125
100
AcDbEntity
  8
Layer_1
 62
1
100
AcDbSpline
 70
8
 71
3
 72
8
 73
4
 74
0
 40
0
 40
0
 40
0
 40
0
 40
1
 40
1
 40
1
 40
1
 10
75.171875
 20
154.140620
 30
0.0
 10
75.232105
 20
152.083980
 30
0.0
 10
76.691258
 20
150.260040
 30
0.0
 10
78.550781
 20
149.421880
 30
0.0
  0
SPLINE
  5
126
100
AcDbEntity
  8
Layer_1
 62
1
100
AcDbSpline
 70
8
 71
3
 72
8
 73
4
 74
0
 40
0
 40
0
 40
0
 40
0
 40
1
 40
1
 40
1
 40
1
 10
78.550781
 20
149.421880
 30
0.0
 10
80.005564
 20
148.766150
 30
0.0
 10
81.865365
 20
148.573290
 30
0.0
 10
83.500980
 20
148.913470
 30
0.0
  0
SPLINE
  5
127
100
AcDbEntity
  8
Layer_1
 62
1
100
AcDbSpline
 70
8
 71
3
 72
8
 73
4
 74
0
 40
0
 40
0
 40
0
 40
0
 40
1
 40
1
 40
1
 40
1
 10
83.500980
 20
148.913470
 30
0.0
 10
87.061941
 20
149.654080
 30
0.0
 10
89.754184
 20
152.516150
 30
0.0
 10
91.426059
 20
155.596720
 30
0.0
  0
SPLINE
  5
128
100
AcDbEntity
  8
Layer_1
 62
1
100
AcDbSpline
 70
8
 71
3
 72
8
 73
4
 74
0
 40
0
 40
0
 40
0
 40
0
 40
1
 40
1
 40
1
 40
1
 10
91.426059
 20
155.596720
 30
0.0
 10
94.566106
 20
161.382520
 30
0.0
 10
95.181525
 20
168.196890
 30
0.0
 10
98.449852
 20
173.921390
 30
0.0
  0
SPLINE
  5
129
100
AcDbEntity
  8
Layer_1
 62
1
100
AcDbSpline
 70
8
 71
3
 72
8
 73
4
 74
0
 40
0
 40
0
 40
0
 40
0
 40
1
 40
1
 40
1
 40
1
 10
98.449852
 20
173.921390
 30
0.0
 10
99.251687
 20
175.325810
 30
0.0
 10
100.992640
 20
176.653130
 30
0.0
 10
102.650520
 20
175.958300
 30
0.0
  0
SPLINE
  5
12a
100
AcDbEntity
  8
Layer_1
 62
1
100
AcDbSpline
 70
8
 71
3
 72
8
 73
4
 74
0
 40
0
 40
0
 40
0
 40
0
 40
1
 40
1
 40
1
 40
1
 10
102.650520
 20
175.958300
 30
0.0
 10
103.986260
 20
175.398480
 30
0.0
 10
103.782190
 20
173.715670
 30
0.0
 10
103.862020
 20
172.515120
 30
0.0
  0
SPLINE
  5
12b
100
AcDbEntity
  8
Layer_1
 62
1
100
AcDbSpline
 70
8
 71
3
 72
8
 73
4
 74
0
 40
0
 40
0
 40
0
 40
0
 40
1
 40
1
 40
1
 40
1
 10
103.862020
 20
172.515120
 30
0.0
 10
104.235880
 20
166.893000
 30
0.0
 10
103.969700
 20
161.196960
 30
0.0
 10
104.663570
 20
155.638040
 30
0.0
  0
SPLINE
  5
12c
100
AcDbEntity
  8
Layer_1
 62
1
100
AcDbSpline
 70
8
 71
3
 72
8
 73
4
 74
0
 40
0
 40
0
 40
0
 40
0
 40
1
 40
1
 40
1
 40
1
 10
104.663570
 20
155.638040
 30
0.0
 10
105.106570
 20
152.088950
 30
0.0
 10
107.511100
 20
148.606650
 30
0.0
 10
111.060480
 20
147.507870
 30
0.0
  0
SPLINE
  5
12d
100
AcDbEntity
  8
Layer_1
 62
1
100
AcDbSpline
 70
8
 71
3
 72
8
 73
4
 74
0
 40
0
 40
0
 40
0
 40
0
 40
1
 40
1
 40
1
 40
1
 10
111.060480
 20
147.507870
 30
0.0
 10
112.653820
 20
147.014620
 30
0.0
 10
114.886380
 20
146.831170
 30
0.0
 10
116.164060
 20
148.210940
 30
0.0
  0
SPLINE
  5
12e
100
AcDbEntity
  8
Layer_1
 62
1
100
AcDbSpline
 70
8
 71
3
 72
8
 73
4
 74
0
 40
0
 40
0
 40
0
 40
0
 40
1
 40
1
 40
1
 40
1
 10
116.164060
 20
148.210940
 30
0.0
 10
116.399130
 20
148.464790
 30
0.0
 10
116.889810
 20
149.340760
 30
0.0
 10
116.472660
 20
149.408200
 30
0.0
  0
SPLINE
  5
12f
100
AcDbEntity
  8
Layer_1
 62
1
100
AcDbSpline
 70
8
 71
3
 72
8
 73
4
 74
0
 40
0
 40
0
 40
0
 40
0
 40
1
 40
1
 40
1
 40
1
 10
116.472660
 20
149.408200
 30
0.0
 10
114.617760
 20
149.708060
 30
0.0
 10
112.831510
 20
150.726870
 30
0.0
 10
112.029300
 20
152.492190
 30
0.0
  0
SPLINE
  5
130
100
AcDbEntity
  8
Layer_1
 62
1
100
AcDbSpline
 70
8
 71
3
 72
8
 73
4
 74
0
 40
0
 40
0
 40
0
 40
0
 40
1
 40
1
 40
1
 40
1
 10
112.029300
 20
152.492190
 30
0.0
 10
110.848500
 20
155.090600
 30
0.0
 10
110.898900
 20
157.989930
 30
0.0
 10
110.747950
 20
160.768370
 30
0.0
  0
SPLINE
  5
131
100
AcDbEntity
  8
Layer_1
 62
1
100
AcDbSpline
 70
8
 71
3
 72
8
 73
4
 74
0
 40
0
 40
0
 40
0
 40
0
 40
1
 40
1
 40
1
 40
1
 10
110.747950
 20
160.768370
 30
0.0
 10
110.505840
 20
165.224920
 30
0.0
 10
110.406700
 20
169.768130
 30
0.0
 10
111.381510
 20
174.147510
 30
0.0
  0
SPLINE
  5
132
100
AcDbEntity
  8
Layer_1
 62
1
100
AcDbSpline
 70
8
 71
3
 72
8
 73
4
 74
0
 40
0
 40
0
 40
0
 40
0
 40
1
 40
1
 40
1
 40
1
 10
111.381510
 20
174.147510
 30
0.0
 10
111.662550
 20
175.410110
 30
0.0
 10
113.118570
 20
176.479500
 30
0.0
 10
114.407980
 20
175.822490
 30
0.0
  0
SPLINE
  5
133
100
AcDbEntity
  8
Layer_1
 62
1
100
AcDbSpline
 70
8
 71
3
 72
8
 73
4
 74
0
 40
0
 40
0
 40
0
 40
0
 40
1
 40
1
 40
1
 40
1
 10
114.407980
 20
175.822490
 30
0.0
 10
116.040690
 20
174.990560
 30
0.0
 10
116.675430
 20
173.136490
 30
0.0
 10
117.384770
 20
171.583980
 30
0.0
  0
SPLINE
  5
134
100
AcDbEntity
  8
Layer_1
 62
1
100
AcDbSpline
 70
8
 71
3
 72
8
 73
4
 74
0
 40
0
 40
0
 40
0
 40
0
 40
1
 40
1
 40
1
 40
1
 10
117.384770
 20
171.583980
 30
0.0
 10
119.848670
 20
166.191340
 30
0.0
 10
121.380300
 20
160.434920
 30
0.0
 10
123.401040
 20
154.872250
 30
0.0
  0
SPLINE
  5
135
100
AcDbEntity
  8
Layer_1
 62
1
100
AcDbSpline
 70
8
 71
3
 72
8
 73
4
 74
0
 40
0
 40
0
 40
0
 40
0
 40
1
 40
1
 40
1
 40
1
 10
123.401040
 20
154.872250
 30
0.0
 10
124.367060
 20
152.212990
 30
0.0
 10
126.210770
 20
149.743860
 30
0.0
 10
128.894050
 20
148.632520
 30
0.0
  0
SPLINE
  5
136
100
AcDbEntity
  8
Layer_1
 62
1
100
AcDbSpline
 70
8
 71
3
 72
8
 73
4
 74
0
 40
0
 40
0
 40
0
 40
0
 40
1
 40
1
 40
1
 40
1
 10
128.894050
 20
148.632520
 30
0.0
 10
132.632810
 20
147.084030
 30
0.0
 10
137.507750
 20
148.329220
 30
0.0
 10
139.688980
 20
151.839710
 30
0.0
  0
SPLINE
  5
137
100
AcDbEntity
  8
Layer_1
 62
1
100
AcDbSpline
 70
8
 71
3
 72
8
 73
4
 74
0
 40
0
 40
0
 40
0
 40
0
 40
1
 40
1
 40
1
 40
1
 10
139.688980
 20
151.839710
 30
0.0
 10
140.955690
 20
153.878360
 30
0.0
 10
140.584930
 20
159.404810
 30
0.0
 10
138.466800
 20
158.216800
 30
0.0
  0
SPLINE
  5
138
100
AcDbEntity
  8
Layer_1
 62
1
100
AcDbSpline
 70
8
 71
3
 72
8
 73
4
 74
0
 40
0
 40
0
 40
0
 40
0
 40
1
 40
1
 40
1
 40
1
 10
138.466800
 20
158.216800
 30
0.0
 10
136.156800
 20
156.921170
 30
0.0
 10
135.260400
 20
153.482060
 30
0.0
 10
132.674070
 20
154.469080
 30
0.0
  0
SPLINE
  5
139
100
AcDbEntity
  8
Layer_1
 62
1
100
AcDbSpline
 70
8
 71
3
 72
8
 73
4
 74
0
 40
0
 40
0
 40
0
 40
0
 40
1
 40
1
 40
1
 40
1
 10
132.674070
 20
154.469080
 30
0.0
 10
130.490320
 20
155.302470
 30
0.0
 10
129.480910
 20
157.590970
 30
0.0
 10
128.975250
 20
159.707440
 30
0.0
  0
SPLINE
  5
13a
100
AcDbEntity
  8
Layer_1
 62
1
100
AcDbSpline
 70
8
 71
3
 72
8
 73
4
 74
0
 40
0
 40
0
 40
0
 40
0
 40
1
 40
1
 40
1
 40
1
 10
128.975250
 20
159.707440
 30
0.0
 10
128.054310
 20
163.562060
 30
0.0
 10
127.390070
 20
167.602980
 30
0.0
 10
125.849980
 20
171.172480
 30
0.0
  0
SPLINE
  5
13b
100
AcDbEntity
  8
Layer_1
 62
1
100
AcDbSpline
 70
8
 71
3
 72
8
 73
4
 74
0
 40
0
 40
0
 40
0
 40
0
 40
1
 40
1
 40
1
 40
1
 10
125.849980
 20
171.172480
 30
0.0
 10
125.084560
 20
172.946500
 30
0.0
 10
123.840340
 20
174.666860
 30
0.0
 10
123.857420
 20
176.642580
 30
0.0
  0
SPLINE
  5
13c
100
AcDbEntity
  8
Layer_1
 62
1
100
AcDbSpline
 70
8
 71
3
 72
8
 73
4
 74
0
 40
0
 40
0
 40
0
 40
0
 40
1
 40
1
 40
1
 40
1
 10
123.857420
 20
176.642580
 30
0.0
 10
123.870820
 20
178.188760
 30
0.0
 10
125.925410
 20
178.955420
 30
0.0
 10
127.241840
 20
178.125500
 30
0.0
  0
SPLINE
  5
13d
100
AcDbEntity
  8
Layer_1
 62
1
100
AcDbSpline
 70
8
 71
3
 72
8
 73
4
 74
0
 40
0
 40
0
 40
0
 40
0
 40
1
 40
1
 40
1
 40
1
 10
127.241840
 20
178.125500
 30
0.0
 10
129.643280
 20
176.611550
 30
0.0
 10
131.538860
 20
174.493430
 30
0.0
 10
133.443850
 20
172.447940
 30
0.0
  0
SPLINE
  5
13e
100
AcDbEntity
  8
Layer_1
 62
1
100
AcDbSpline
 70
8
 71
3
 72
8
 73
4
 74
0
 40
0
 40
0
 40
0
 40
0
 40
1
 40
1
 40
1
 40
1
 10
133.443850
 20
172.447940
 30
0.0
 10
136.245740
 20
169.439400
 30
0.0
 10
138.572600
 20
166.018850
 30
0.0
 10
141.310550
 20
162.958980
 30
0.0
  0
SPLINE
  5
13f
100
AcDbEntity
  8
Layer_1
 62
1
100
AcDbSpline
 70
8
 71
3
 72
8
 73
4
 74
0
 40
0
 40
0
 40
0
 40
0
 40
1
 40
1
 40
1
 40
1
 10
141.310550
 20
162.958980
 30
0.0
 10
143.159170
 20
160.893000
 30
0.0
 10
146.054480
 20
159.345160
 30
0.0
 10
148.900390
 20
160.089840
 30
0.0
  0
SPLINE
  5
140
100
AcDbEntity
  8
Layer_1
 62
1
100
AcDbSpline
 70
8
 71
3
 72
8
 73
4
 74
0
 40
0
 40
0
 40
0
 40
0
 40
1
 40
1
 40
1
 40
1
 10
148.900390
 20
160.089840
 30
0.0
 10
152.404120
 20
161.006650
 30
0.0
 10
154.817010
 20
164.111780
 30
0.0
 10
156.246090
 20
167.275390
 30
0.0
  0
SPLINE
  5
141
100
AcDbEntity
  8
Layer_1
 62
1
100
AcDbSpline
 70
8
 71
3
 72
8
 73
4
 74
0
 40
0
 40
0
 40
0
 40
0
 40
1
 40
1
 40
1
 40
1
 10
156.246090
 20
167.275390
 30
0.0
 10
157.660900
 20
170.407430
 30
0.0
 10
158.352890
 20
174.223430
 30
0.0
 10
156.819930
 20
177.419680
 30
0.0
  0
SPLINE
  5
142
100
AcDbEntity
  8
Layer_1
 62
1
100
AcDbSpline
 70
8
 71
3
 72
8
 73
4
 74
0
 40
0
 40
0
 40
0
 40
0
 40
1
 40
1
 40
1
 40
1
 10
156.819930
 20
177.419680
 30
0.0
 10
155.595440
 20
179.972760
 30
0.0
 10
152.453500
 20
181.188220
 30
0.0
 10
149.742590
 20
180.736510
 30
0.0
  0
SPLINE
  5
143
100
AcDbEntity
  8
Layer_1
 62
1
100
AcDbSpline
 70
8
 71
3
 72
8
 73
4
 74
0
 40
0
 40
0
 40
0
 40
0
 40
1
 40
1
 40
1
 40
1
 10
149.742590
 20
180.736510
 30
0.0
 10
149.181600
 20
180.643010
 30
0.0
 10
148.339680
 20
180.203640
 30
0.0
 10
148.720940
 20
179.510750
 30
0.0
  0
SPLINE
  5
144
100
AcDbEntity
  8
Layer_1
 62
1
100
AcDbSpline
 70
8
 71
3
 72
8
 73
4
 74
0
 40
0
 40
0
 40
0
 40
0
 40
1
 40
1
 40
1
 40
1
 10
148.720940
 20
179.510750
 30
0.0
 10
149.401470
 20
178.273990
 30
0.0
 10
150.734350
 20
177.614690
 30
0.0
 10
151.501950
 20
176.412110
 30
0.0
  0
SPLINE
  5
145
100
AcDbEntity
  8
Layer_1
 62
1
100
AcDbSpline
 70
8
 71
3
 72
8
 73
4
 74
0
 40
0
 40
0
 40
0
 40
0
 40
1
 40
1
 40
1
 40
1
 10
151.501950
 20
176.412110
 30
0.0
 10
152.651550
 20
174.611050
 30
0.0
 10
152.578000
 20
172.125170
 30
0.0
 10
151.040730
 20
170.584640
 30
0.0
  0
SPLINE
  5
146
100
AcDbEntity
  8
Layer_1
 62
1
100
AcDbSpline
 70
8
 71
3
 72
8
 73
4
 74
0
 40
0
 40
0
 40
0
 40
0
 40
1
 40
1
 40
1
 40
1
 10
151.040730
 20
170.584640
 30
0.0
 10
149.515570
 20
169.056250
 30
0.0
 10
147.078450
 20
168.817350
 30
0.0
 10
145.216910
 20
169.813600
 30
0.0
  0
SPLINE
  5
147
100
AcDbEntity
  8
Layer_1
 62
1
100
AcDbSpline
 70
8
 71
3
 72
8
 73
4
 74
0
 40
0
 40
0
 40
0
 40
0
 40
1
 40
1
 40
1
 40
1
 10
145.216910
 20
169.813600
 30
0.0
 10
142.789860
 20
171.112500
 30
0.0
 10
141.372560
 20
173.583850
 30
0.0
 10
139.829070
 20
175.749070
 30
0.0
  0
SPLINE
  5
148
100
AcDbEntity
  8
Layer_1
 62
1
100
AcDbSpline
 70
8
 71
3
 72
8
 73
4
 74
0
 40
0
 40
0
 40
0
 40
0
 40
1
 40
1
 40
1
 40
1
 10
139.829070
 20
175.749070
 30
0.0
 10
138.348320
 20
177.826280
 30
0.0
 10
137.134770
 20
180.053980
 30
0.0
 10
135.267580
 20
181.820310
 30
0.0
  0
SPLINE
  5
149
100
AcDbEntity
  8
Layer_1
 62
1
100
AcDbSpline
 70
8
 71
3
 72
8
 73
4
 74
0
 40
0
 40
0
 40
0
 40
0
 40
1
 40
1
 40
1
 40
1
 10
135.267580
 20
181.820310
 30
0.0
 10
134.550540
 20
182.498610
 30
0.0
 10
133.210240
 20
182.880140
 30
0.0
 10
133.318220
 20
184.093850
 30
0.0
  0
SPLINE
  5
14a
100
AcDbEntity
  8
Layer_1
 62
1
100
AcDbSpline
 70
8
 71
3
 72
8
 73
4
 74
0
 40
0
 40
0
 40
0
 40
0
 40
1
 40
1
 40
1
 40
1
 10
133.318220
 20
184.093850
 30
0.0
 10
133.417120
 20
185.205630
 30
0.0
 10
134.572790
 20
185.789350
 30
0.0
 10
135.685590
 20
185.612730
 30
0.0
  0
SPLINE
  5
14b
100
AcDbEntity
  8
Layer_1
 62
1
100
AcDbSpline
 70
8
 71
3
 72
8
 73
4
 74
0
 40
0
 40
0
 40
0
 40
0
 40
1
 40
1
 40
1
 40
1
 10
135.685590
 20
185.612730
 30
0.0
 10
139.203400
 20
185.054400
 30
0.0
 10
142.884230
 20
185.485820
 30
0.0
 10
146.281190
 20
186.837170
 30
0.0
  0
SPLINE
  5
14c
100
AcDbEntity
  8
Layer_1
 62
1
100
AcDbSpline
 70
8
 71
3
 72
8
 73
4
 74
0
 40
0
 40
0
 40
0
 40
0
 40
1
 40
1
 40
1
 40
1
 10
146.281190
 20
186.837170
 30
0.0
 10
149.469170
 20
188.105390
 30
0.0
 10
152.089180
 20
190.776560
 30
0.0
 10
153.020120
 20
194.108060
 30
0.0
  0
SPLINE
  5
14d
100
AcDbEntity
  8
Layer_1
 62
1
100
AcDbSpline
 70
8
 71
3
 72
8
 73
4
 74
0
 40
0
 40
0
 40
0
 40
0
 40
1
 40
1
 40
1
 40
1
 10
153.020120
 20
194.108060
 30
0.0
 10
154.377770
 20
198.966599
 30
0.0
 10
152.870000
 20
204.156597
 30
0.0
 10
150.596000
 20
208.441402
 30
0.0
  0
SPLINE
  5
14e
100
AcDbEntity
  8
Layer_1
 62
1
100
AcDbSpline
 70
8
 71
3
 72
8
 73
4
 74
0
 40
0
 40
0
 40
0
 40
0
 40
1
 40
1
 40
1
 40
1
 10
150.596000
 20
208.441402
 30
0.0
 10
149.707100
 20
210.116333
 30
0.0
 10
148.545920
 20
211.733548
 30
0.0
 10
148.458920
 20
213.719120
 30
0.0
  0
SPLINE
  5
14f
100
AcDbEntity
  8
Layer_1
 62
1
100
AcDbSpline
 70
8
 71
3
 72
8
 73
4
 74
0
 40
0
 40
0
 40
0
 40
0
 40
1
 40
1
 40
1
 40
1
 10
148.458920
 20
213.719120
 30
0.0
 10
148.374620
 20
215.642360
 30
0.0
 10
149.563930
 20
217.574135
 30
0.0
 10
151.492730
 20
218.015816
 30
0.0
  0
SPLINE
  5
150
100
AcDbEntity
  8
Layer_1
 62
1
100
AcDbSpline
 70
8
 71
3
 72
8
 73
4
 74
0
 40
0
 40
0
 40
0
 40
0
 40
1
 40
1
 40
1
 40
1
 10
151.492730
 20
218.015816
 30
0.0
 10
153.126510
 20
218.389940
 30
0.0
 10
154.734990
 20
217.832008
 30
0.0
 10
156.276440
 20
217.386304
 30
0.0
  0
SPLINE
  5
151
100
AcDbEntity
  8
Layer_1
 62
1
100
AcDbSpline
 70
8
 71
3
 72
8
 73
4
 74
0
 40
0
 40
0
 40
0
 40
0
 40
1
 40
1
 40
1
 40
1
 10
156.276440
 20
217.386304
 30
0.0
 10
156.843120
 20
217.222451
 30
0.0
 10
157.986660
 20
217.262194
 30
0.0
 10
157.871090
 20
218.119141
 30
0.0
  0
SPLINE
  5
152
100
AcDbEntity
  8
Layer_1
 62
1
100
AcDbSpline
 70
8
 71
3
 72
8
 73
4
 74
0
 40
0
 40
0
 40
0
 40
0
 40
1
 40
1
 40
1
 40
1
 10
157.871090
 20
218.119141
 30
0.0
 10
157.687040
 20
219.483875
 30
0.0
 10
156.668920
 20
220.571993
 30
0.0
 10
155.724260
 20
221.490081
 30
0.0
  0
SPLINE
  5
153
100
AcDbEntity
  8
Layer_1
 62
1
100
AcDbSpline
 70
8
 71
3
 72
8
 73
4
 74
0
 40
0
 40
0
 40
0
 40
0
 40
1
 40
1
 40
1
 40
1
 10
155.724260
 20
221.490081
 30
0.0
 10
153.735090
 20
223.423306
 30
0.0
 10
150.572750
 20
223.850037
 30
0.0
 10
148.023240
 20
222.754278
 30
0.0
  0
SPLINE
  5
154
100
AcDbEntity
  8
Layer_1
 62
1
100
AcDbSpline
 70
8
 71
3
 72
8
 73
4
 74
0
 40
0
 40
0
 40
0
 40
0
 40
1
 40
1
 40
1
 40
1
 10
148.023240
 20
222.754278
 30
0.0
 10
145.438600
 20
221.643422
 30
0.0
 10
142.983780
 20
219.430224
 30
0.0
 10
142.714140
 20
216.496253
 30
0.0
  0
SPLINE
  5
155
100
AcDbEntity
  8
Layer_1
 62
1
100
AcDbSpline
 70
8
 71
3
 72
8
 73
4
 74
0
 40
0
 40
0
 40
0
 40
0
 40
1
 40
1
 40
1
 40
1
 10
142.714140
 20
216.496253
 30
0.0
 10
142.426950
 20
213.371357
 30
0.0
 10
143.336860
 20
210.324711
 30
0.0
 10
144.144220
 20
207.369385
 30
0.0
  0
SPLINE
  5
156
100
AcDbEntity
  8
Layer_1
 62
1
100
AcDbSpline
 70
8
 71
3
 72
8
 73
4
 74
0
 40
0
 40
0
 40
0
 40
0
 40
1
 40
1
 40
1
 40
1
 10
144.144220
 20
207.369385
 30
0.0
 10
144.972300
 20
204.338205
 30
0.0
 10
145.985360
 20
201.130412
 30
0.0
 10
145.103520
 20
197.974609
 30
0.0
  0
SPLINE
  5
157
100
AcDbEntity
  8
Layer_1
 62
1
100
AcDbSpline
 70
8
 71
3
 72
8
 73
4
 74
0
 40
0
 40
0
 40
0
 40
0
 40
1
 40
1
 40
1
 40
1
 10
145.103520
 20
197.974609
 30
0.0
 10
144.382860
 20
195.395630
 30
0.0
 10
142.138570
 20
193.429400
 30
0.0
 10
139.531130
 20
192.947620
 30
0.0
  0
SPLINE
  5
158
100
AcDbEntity
  8
Layer_1
 62
1
100
AcDbSpline
 70
8
 71
3
 72
8
 73
4
 74
0
 40
0
 40
0
 40
0
 40
0
 40
1
 40
1
 40
1
 40
1
 10
139.531130
 20
192.947620
 30
0.0
 10
136.397380
 20
192.368590
 30
0.0
 10
132.767980
 20
193.495770
 30
0.0
 10
131.003910
 20
196.240230
 30
0.0
  0
SPLINE
  5
159
100
AcDbEntity
  8
Layer_1
 62
1
100
AcDbSpline
 70
8
 71
3
 72
8
 73
4
 74
0
 40
0
 40
0
 40
0
 40
0
 40
1
 40
1
 40
1
 40
1
 10
131.003910
 20
196.240230
 30
0.0
 10
129.950870
 20
197.878503
 30
0.0
 10
130.055620
 20
199.966568
 30
0.0
 10
130.746090
 20
201.759766
 30
0.0
  0
SPLINE
  5
15a
100
AcDbEntity
  8
Layer_1
 62
1
100
AcDbSpline
 70
8
 71
3
 72
8
 73
4
 74
0
 40
0
 40
0
 40
0
 40
0
 40
1
 40
1
 40
1
 40
1
 10
130.746090
 20
201.759766
 30
0.0
 10
132.533600
 20
206.402024
 30
0.0
 10
134.757270
 20
210.997764
 30
0.0
 10
135.135760
 20
216.049897
 30
0.0
  0
SPLINE
  5
15b
100
AcDbEntity
  8
Layer_1
 62
1
100
AcDbSpline
 70
8
 71
3
 72
8
 73
4
 74
0
 40
0
 40
0
 40
0
 40
0
 40
1
 40
1
 40
1
 40
1
 10
135.135760
 20
216.049897
 30
0.0
 10
135.415830
 20
219.788362
 30
0.0
 10
135.168160
 20
223.450056
 30
0.0
 10
133.739350
 20
226.946191
 30
0.0
  0
SPLINE
  5
15c
100
AcDbEntity
  8
Layer_1
 62
1
100
AcDbSpline
 70
8
 71
3
 72
8
 73
4
 74
0
 40
0
 40
0
 40
0
 40
0
 40
1
 40
1
 40
1
 40
1
 10
133.739350
 20
226.946191
 30
0.0
 10
131.267300
 20
232.994951
 30
0.0
 10
126.442340
 20
237.962238
 30
0.0
 10
120.467670
 20
240.626046
 30
0.0
  0
SPLINE
  5
15d
100
AcDbEntity
  8
Layer_1
 62
1
100
AcDbSpline
 70
8
 71
3
 72
8
 73
4
 74
0
 40
0
 40
0
 40
0
 40
0
 40
1
 40
1
 40
1
 40
1
 10
120.467670
 20
240.626046
 30
0.0
 10
117.941490
 20
241.752342
 30
0.0
 10
115.412840
 20
242.539508
 30
0.0
 10
112.645870
 20
242.958181
 30
0.0
  0
SPLINE
  5
15e
100
AcDbEntity
  8
Layer_1
 62
1
100
AcDbSpline
 70
8
 71
3
 72
8
 73
4
 74
0
 40
0
 40
0
 40
0
 40
0
 40
1
 40
1
 40
1
 40
1
 10
112.645870
 20
242.958181
 30
0.0
 10
111.101930
 20
243.191795
 30
0.0
 10
109.616370
 20
243.302780
 30
0.0
 10
108.037110
 20
243.263672
 30
0.0
  0
LWPOLYLINE
  5
15f
100
AcDbEntity
  8
Layer_1
 62
1
100
AcDbPolyline
 90
1
 70
1
 10
108.037110
 20
243.263672
 30
0.0
  0
SPLINE
  5
160
100
AcDbEntity
  8
Layer_1
 62
1
100
AcDbSpline
 70
8
 71
3
 72
8
 73
4
 74
0
 40
0
 40
0
 40
0
 40
0
 40
1
 40
1
 40
1
 40
1
 10
108.553110
 20
175.627760
 30
0.0
 10
108.884130
 20
175.590360
 30
0.0
 10
109.300270
 20
175.166270
 30
0.0
 10
109.311380
 20
174.691010
 30
0.0
  0
LWPOLYLINE
  5
161
100
AcDbEntity
  8
Layer_1
 62
1
100
AcDbPolyline
 90
2
 70
0
 10
106.662340
 20
175.841260
 30
0.0
 10
108.553110
 20
175.627760
 30
0.0
  0
SPLINE
  5
162
100
AcDbEntity
  8
Layer_1
 62
1
100
AcDbSpline
 70
8
 71
3
 72
8
 73
4
 74
0
 40
0
 40
0
 40
0
 40
0
 40
1
 40
1
 40
1
 40
1
 10
109.356380
 20
172.766850
 30
0.0
 10
109.367180
 20
172.291590
 30
0.0
 10
108.972400
 20
171.874120
 30
0.0
 10
108.498270
 20
171.908740
 30
0.0
  0
LWPOLYLINE
  5
163
100
AcDbEntity
  8
Layer_1
 62
1
100
AcDbPolyline
 90
2
 70
0
 10
109.311380
 20
174.691010
 30
0.0
 10
109.356380
 20
172.766850
 30
0.0
  0
SPLINE
  5
164
100
AcDbEntity
  8
Layer_1
 62
1
100
AcDbSpline
 70
8
 71
3
 72
8
 73
4
 74
0
 40
0
 40
0
 40
0
 40
0
 40
1
 40
1
 40
1
 40
1
 10
106.651180
 20
172.043600
 30
0.0
 10
106.232740
 20
172.074100
 30
0.0
 10
106.107400
 20
172.312560
 30
0.0
 10
106.051510
 20
172.766880
 30
0.0
  0
LWPOLYLINE
  5
165
100
AcDbEntity
  8
Layer_1
 62
1
100
AcDbPolyline
 90
2
 70
0
 10
108.498270
 20
171.908740
 30
0.0
 10
106.651180
 20
172.043600
 30
0.0
  0
SPLINE
  5
166
100
AcDbEntity
  8
Layer_1
 62
1
100
AcDbSpline
 70
8
 71
3
 72
8
 73
4
 74
0
 40
0
 40
0
 40
0
 40
0
 40
1
 40
1
 40
1
 40
1
 10
105.770600
 20
175.050600
 30
0.0
 10
105.712600
 20
175.522440
 30
0.0
 10
106.248710
 20
175.888000
 30
0.0
 10
106.662410
 20
175.841290
 30
0.0
  0
LWPOLYLINE
  5
167
100
AcDbEntity
  8
Layer_1
 62
1
100
AcDbPolyline
 90
2
 70
0
 10
106.051510
 20
172.766880
 30
0.0
 10
105.770600
 20
175.050600
 30
0.0
  0
SPLINE
  5
168
100
AcDbEntity
  8
Layer_1
 62
1
100
AcDbSpline
 70
8
 71
3
 72
8
 73
4
 74
0
 40
0
 40
0
 40
0
 40
0
 40
1
 40
1
 40
1
 40
1
 10
108.077710
 20
166.302490
 30
0.0
 10
107.998810
 20
166.066910
 30
0.0
 10
107.734160
 20
165.840610
 30
0.0
 10
107.515580
 20
165.925780
 30
0.0
  0
LWPOLYLINE
  5
169
100
AcDbEntity
  8
Layer_1
 62
1
100
AcDbPolyline
 90
1
 70
1
 10
106.662410
 20
175.841290
 30
0.0
  0
SPLINE
  5
16a
100
AcDbEntity
  8
Layer_1
 62
1
100
AcDbSpline
 70
8
 71
3
 72
8
 73
4
 74
0
 40
0
 40
0
 40
0
 40
0
 40
1
 40
1
 40
1
 40
1
 10
106.630720
 20
166.270570
 30
0.0
 10
106.412210
 20
166.355970
 30
0.0
 10
106.292380
 20
166.729920
 30
0.0
 10
106.392720
 20
167.073740
 30
0.0
  0
LWPOLYLINE
  5
16b
100
AcDbEntity
  8
Layer_1
 62
1
100
AcDbPolyline
 90
2
 70
0
 10
107.515580
 20
165.925780
 30
0.0
 10
106.630720
 20
166.270570
 30
0.0
  0
SPLINE
  5
16c
100
AcDbEntity
  8
Layer_1
 62
1
100
AcDbSpline
 70
8
 71
3
 72
8
 73
4
 74
0
 40
0
 40
0
 40
0
 40
0
 40
1
 40
1
 40
1
 40
1
 10
106.783560
 20
168.413190
 30
0.0
 10
106.872060
 20
168.716640
 30
0.0
 10
106.998130
 20
168.628530
 30
0.0
 10
107.220110
 20
168.714550
 30
0.0
  0
SPLINE
  5
16d
100
AcDbEntity
  8
Layer_1
 62
1
100
AcDbSpline
 70
8
 71
3
 72
8
 73
4
 74
0
 40
0
 40
0
 40
0
 40
0
 40
1
 40
1
 40
1
 40
1
 10
107.220110
 20
168.714550
 30
0.0
 10
109.489680
 20
168.607720
 30
0.0
 10
108.786320
 20
166.798980
 30
0.0
 10
108.077710
 20
166.302490
 30
0.0
  0
LWPOLYLINE
  5
16e
100
AcDbEntity
  8
Layer_1
 62
1
100
AcDbPolyline
 90
2
 70
0
 10
106.392720
 20
167.073740
 30
0.0
 10
106.783560
 20
168.413190
 30
0.0
  0
LWPOLYLINE
  5
16f
100
AcDbEntity
  8
Layer_1
 62
1
100
AcDbPolyline
 90
1
 70
1
 10
108.077710
 20
166.302490
 30
0.0
  0
SPLINE
  5
170
100
AcDbEntity
  8
Layer_1
 62
1
100
AcDbSpline
 70
8
 71
3
 72
8
 73
4
 74
0
 40
0
 40
0
 40
0
 40
0
 40
1
 40
1
 40
1
 40
1
 10
110.614950
 20
181.574570
 30
0.0
 10
110.881310
 20
181.550870
 30
0.0
 10
111.804080
 20
181.115530
 30
0.0
 10
111.728770
 20
180.741430
 30
0.0
  0
LWPOLYLINE
  5
171
100
AcDbEntity
  8
Layer_1
 62
1
100
AcDbPolyline
 90
2
 70
0
 10
109.602280
 20
181.664670
 30
0.0
 10
110.614950
 20
181.574570
 30
0.0
  0
SPLINE
  5
172
100
AcDbEntity
  8
Layer_1
 62
1
100
AcDbSpline
 70
8
 71
3
 72
8
 73
4
 74
0
 40
0
 40
0
 40
0
 40
0
 40
1
 40
1
 40
1
 40
1
 10
111.521310
 20
179.710960
 30
0.0
 10
111.446010
 20
179.336850
 30
0.0
 10
111.195950
 20
178.706580
 30
0.0
 10
110.814440
 20
178.715440
 30
0.0
  0
LWPOLYLINE
  5
173
100
AcDbEntity
  8
Layer_1
 62
1
100
AcDbPolyline
 90
2
 70
0
 10
111.728770
 20
180.741430
 30
0.0
 10
111.521310
 20
179.710960
 30
0.0
  0
SPLINE
  5
174
100
AcDbEntity
  8
Layer_1
 62
1
100
AcDbSpline
 70
8
 71
3
 72
8
 73
4
 74
0
 40
0
 40
0
 40
0
 40
0
 40
1
 40
1
 40
1
 40
1
 10
109.647390
 20
178.742540
 30
0.0
 10
109.310700
 20
178.750540
 30
0.0
 10
109.021960
 20
178.860570
 30
0.0
 10
108.967570
 20
179.223940
 30
0.0
  0
LWPOLYLINE
  5
175
100
AcDbEntity
  8
Layer_1
 62
1
100
AcDbPolyline
 90
2
 70
0
 10
110.814440
 20
178.715440
 30
0.0
 10
109.647390
 20
178.742540
 30
0.0
  0
SPLINE
  5
176
100
AcDbEntity
  8
Layer_1
 62
1
100
AcDbSpline
 70
8
 71
3
 72
8
 73
4
 74
0
 40
0
 40
0
 40
0
 40
0
 40
1
 40
1
 40
1
 40
1
 10
108.832280
 20
180.128100
 30
0.0
 10
108.775780
 20
180.505530
 30
0.0
 10
109.270190
 20
181.702320
 30
0.0
 10
109.602290
 20
181.664820
 30
0.0
  0
LWPOLYLINE
  5
177
100
AcDbEntity
  8
Layer_1
 62
1
100
AcDbPolyline
 90
2
 70
0
 10
108.967570
 20
179.223940
 30
0.0
 10
108.832280
 20
180.128100
 30
0.0
  0
SPLINE
  5
178
100
AcDbEntity
  8
Layer_1
 62
1
100
AcDbSpline
 70
8
 71
3
 72
8
 73
4
 74
0
 40
0
 40
0
 40
0
 40
0
 40
1
 40
1
 40
1
 40
1
 10
105.438330
 20
183.372090
 30
0.0
 10
104.990590
 20
183.386490
 30
0.0
 10
104.646050
 20
183.477520
 30
0.0
 10
104.562990
 20
183.943400
 30
0.0
  0
LWPOLYLINE
  5
179
100
AcDbEntity
  8
Layer_1
 62
1
100
AcDbPolyline
 90
2
 70
0
 10
109.602290
 20
181.664820
 30
0.0
 10
109.602280
 20
181.664670
 30
0.0
  0
SPLINE
  5
17a
100
AcDbEntity
  8
Layer_1
 62
1
100
AcDbSpline
 70
8
 71
3
 72
8
 73
4
 74
0
 40
0
 40
0
 40
0
 40
0
 40
1
 40
1
 40
1
 40
1
 10
104.592890
 20
184.400570
 30
0.0
 10
105.502320
 20
186.284590
 30
0.0
 10
106.996610
 20
183.640290
 30
0.0
 10
105.438340
 20
183.372090
 30
0.0
  0
LWPOLYLINE
  5
17b
100
AcDbEntity
  8
Layer_1
 62
1
100
AcDbPolyline
 90
2
 70
0
 10
104.562990
 20
183.943400
 30
0.0
 10
104.592890
 20
184.400570
 30
0.0
  0
SPLINE
  5
17c
100
AcDbEntity
  8
Layer_1
 62
1
100
AcDbSpline
 70
8
 71
3
 72
8
 73
4
 74
0
 40
0
 40
0
 40
0
 40
0
 40
1
 40
1
 40
1
 40
1
 10
124.873620
 20
185.828550
 30
0.0
 10
124.425880
 20
185.842950
 30
0.0
 10
124.081340
 20
185.933980
 30
0.0
 10
123.998280
 20
186.399860
 30
0.0
  0
LWPOLYLINE
  5
17d
100
AcDbEntity
  8
Layer_1
 62
1
100
AcDbPolyline
 90
1
 70
1
 10
105.438340
 20
183.372090
 30
0.0
  0
SPLINE
  5
17e
100
AcDbEntity
  8
Layer_1
 62
1
100
AcDbSpline
 70
8
 71
3
 72
8
 73
4
 74
0
 40
0
 40
0
 40
0
 40
0
 40
1
 40
1
 40
1
 40
1
 10
124.028180
 20
186.857030
 30
0.0
 10
124.937610
 20
188.741050
 30
0.0
 10
126.431900
 20
186.096750
 30
0.0
 10
124.873630
 20
185.828550
 30
0.0
  0
LWPOLYLINE
  5
17f
100
AcDbEntity
  8
Layer_1
 62
1
100
AcDbPolyline
 90
2
 70
0
 10
123.998280
 20
186.399860
 30
0.0
 10
124.028180
 20
186.857030
 30
0.0
  0
LWPOLYLINE
  5
180
100
AcDbEntity
  8
Layer_1
 62
1
100
AcDbPolyline
 90
1
 70
1
 10
124.873630
 20
185.828550
 30
0.0
  0
SPLINE
  5
181
100
AcDbEntity
  8
Layer_1
 62
1
100
AcDbSpline
 70
8
 71
3
 72
8
 73
4
 74
0
 40
0
 40
0
 40
0
 40
0
 40
1
 40
1
 40
1
 40
1
 10
107.119640
 20
159.202580
 30
0.0
 10
106.852570
 20
159.188980
 30
0.0
 10
105.878140
 20
159.491400
 30
0.0
 10
105.900570
 20
159.872350
 30
0.0
  0
LWPOLYLINE
  5
182
100
AcDbEntity
  8
Layer_1
 62
1
100
AcDbPolyline
 90
2
 70
0
 10
108.134980
 20
159.254480
 30
0.0
 10
107.119640
 20
159.202580
 30
0.0
  0
SPLINE
  5
183
100
AcDbEntity
  8
Layer_1
 62
1
100
AcDbSpline
 70
8
 71
3
 72
8
 73
4
 74
0
 40
0
 40
0
 40
0
 40
0
 40
1
 40
1
 40
1
 40
1
 10
105.962370
 20
160.921680
 30
0.0
 10
105.984770
 20
161.302630
 30
0.0
 10
106.144570
 20
161.961600
 30
0.0
 10
106.523590
 20
162.006000
 30
0.0
  0
LWPOLYLINE
  5
184
100
AcDbEntity
  8
Layer_1
 62
1
100
AcDbPolyline
 90
2
 70
0
 10
105.900570
 20
159.872350
 30
0.0
 10
105.962370
 20
160.921680
 30
0.0
  0
SPLINE
  5
185
100
AcDbEntity
  8
Layer_1
 62
1
100
AcDbSpline
 70
8
 71
3
 72
8
 73
4
 74
0
 40
0
 40
0
 40
0
 40
0
 40
1
 40
1
 40
1
 40
1
 10
107.683020
 20
162.141830
 30
0.0
 10
108.017540
 20
162.180830
 30
0.0
 10
108.318800
 20
162.112130
 30
0.0
 10
108.423310
 20
161.759880
 30
0.0
  0
LWPOLYLINE
  5
186
100
AcDbEntity
  8
Layer_1
 62
1
100
AcDbPolyline
 90
2
 70
0
 10
106.523590
 20
162.006000
 30
0.0
 10
107.683020
 20
162.141830
 30
0.0
  0
SPLINE
  5
187
100
AcDbEntity
  8
Layer_1
 62
1
100
AcDbSpline
 70
8
 71
3
 72
8
 73
4
 74
0
 40
0
 40
0
 40
0
 40
0
 40
1
 40
1
 40
1
 40
1
 10
108.683290
 20
160.883400
 30
0.0
 10
108.791850
 20
160.517530
 30
0.0
 10
108.469070
 20
159.263510
 30
0.0
 10
108.134980
 20
159.254350
 30
0.0
  0
LWPOLYLINE
  5
188
100
AcDbEntity
  8
Layer_1
 62
1
100
AcDbPolyline
 90
2
 70
0
 10
108.423310
 20
161.759880
 30
0.0
 10
108.683290
 20
160.883400
 30
0.0
  0
SPLINE
  5
189
100
AcDbEntity
  8
Layer_1
 62
1
100
AcDbSpline
 70
8
 71
3
 72
8
 73
4
 74
0
 40
0
 40
0
 40
0
 40
0
 40
1
 40
1
 40
1
 40
1
 10
107.619560
 20
156.982200
 30
0.0
 10
108.064930
 20
157.030300
 30
0.0
 10
108.418800
 20
156.988200
 30
0.0
 10
108.565980
 20
156.538470
 30
0.0
  0
LWPOLYLINE
  5
18a
100
AcDbEntity
  8
Layer_1
 62
1
100
AcDbPolyline
 90
2
 70
0
 10
108.134980
 20
159.254350
 30
0.0
 10
108.134980
 20
159.254480
 30
0.0
  0
SPLINE
  5
18b
100
AcDbEntity
  8
Layer_1
 62
1
100
AcDbSpline
 70
8
 71
3
 72
8
 73
4
 74
0
 40
0
 40
0
 40
0
 40
0
 40
1
 40
1
 40
1
 40
1
 10
108.600080
 20
156.081590
 30
0.0
 10
107.962120
 20
154.089210
 30
0.0
 10
106.113860
 20
156.499430
 30
0.0
 10
107.619540
 20
156.982200
 30
0.0
  0
LWPOLYLINE
  5
18c
100
AcDbEntity
  8
Layer_1
 62
1
100
AcDbPolyline
 90
2
 70
0
 10
108.565980
 20
156.538470
 30
0.0
 10
108.600080
 20
156.081590
 30
0.0
  0
LWPOLYLINE
  5
18d
100
AcDbEntity
  8
Layer_1
 62
1
100
AcDbPolyline
 90
1
 70
1
 10
107.619540
 20
156.982200
 30
0.0
  0
SPLINE
  5
18e
100
AcDbEntity
  8
Layer_1
 62
1
100
AcDbSpline
 70
8
 71
3
 72
8
 73
4
 74
0
 40
0
 40
0
 40
0
 40
0
 40
1
 40
1
 40
1
 40
1
 10
96.163087
 20
177.339290
 30
0.0
 10
96.481031
 20
177.143340
 30
0.0
 10
96.700744
 20
176.514500
 30
0.0
 10
96.485154
 20
176.027070
 30
0.0
  0
LWPOLYLINE
  5
18f
100
AcDbEntity
  8
Layer_1
 62
1
100
AcDbPolyline
 90
2
 70
0
 10
94.346938
 20
178.458410
 30
0.0
 10
96.163087
 20
177.339290
 30
0.0
  0
SPLINE
  5
190
100
AcDbEntity
  8
Layer_1
 62
1
100
AcDbSpline
 70
8
 71
3
 72
8
 73
4
 74
0
 40
0
 40
0
 40
0
 40
0
 40
1
 40
1
 40
1
 40
1
 10
95.612329
 20
174.053670
 30
0.0
 10
95.396424
 20
173.566390
 30
0.0
 10
94.796673
 20
173.331330
 30
0.0
 10
94.332225
 20
173.592780
 30
0.0
  0
LWPOLYLINE
  5
191
100
AcDbEntity
  8
Layer_1
 62
1
100
AcDbPolyline
 90
2
 70
0
 10
96.485154
 20
176.027070
 30
0.0
 10
95.612329
 20
174.053670
 30
0.0
  0
SPLINE
  5
192
100
AcDbEntity
  8
Layer_1
 62
1
100
AcDbSpline
 70
8
 71
3
 72
8
 73
4
 74
0
 40
0
 40
0
 40
0
 40
0
 40
1
 40
1
 40
1
 40
1
 10
92.522850
 20
174.611270
 30
0.0
 10
92.112930
 20
174.841940
 30
0.0
 10
92.099607
 20
175.143670
 30
0.0
 10
92.259775
 20
175.631230
 30
0.0
  0
LWPOLYLINE
  5
193
100
AcDbEntity
  8
Layer_1
 62
1
100
AcDbPolyline
 90
2
 70
0
 10
94.332225
 20
173.592780
 30
0.0
 10
92.522850
 20
174.611270
 30
0.0
  0
SPLINE
  5
194
100
AcDbEntity
  8
Layer_1
 62
1
100
AcDbSpline
 70
8
 71
3
 72
8
 73
4
 74
0
 40
0
 40
0
 40
0
 40
0
 40
1
 40
1
 40
1
 40
1
 10
93.064915
 20
178.082000
 30
0.0
 10
93.231306
 20
178.588340
 30
0.0
 10
93.949648
 20
178.703270
 30
0.0
 10
94.347023
 20
178.458400
 30
0.0
  0
LWPOLYLINE
  5
195
100
AcDbEntity
  8
Layer_1
 62
1
100
AcDbPolyline
 90
2
 70
0
 10
92.259775
 20
175.631230
 30
0.0
 10
93.064915
 20
178.082000
 30
0.0
  0
SPLINE
  5
196
100
AcDbEntity
  8
Layer_1
 62
1
100
AcDbSpline
 70
8
 71
3
 72
8
 73
4
 74
0
 40
0
 40
0
 40
0
 40
0
 40
1
 40
1
 40
1
 40
1
 10
91.714576
 20
165.157540
 30
0.0
 10
91.522086
 20
164.956210
 30
0.0
 10
91.145596
 20
164.852970
 30
0.0
 10
90.964516
 20
165.043690
 30
0.0
  0
LWPOLYLINE
  5
197
100
AcDbEntity
  8
Layer_1
 62
1
100
AcDbPolyline
 90
1
 70
1
 10
94.347023
 20
178.458400
 30
0.0
  0
SPLINE
  5
198
100
AcDbEntity
  8
Layer_1
 62
1
100
AcDbSpline
 70
8
 71
3
 72
8
 73
4
 74
0
 40
0
 40
0
 40
0
 40
0
 40
1
 40
1
 40
1
 40
1
 10
90.231466
 20
165.815830
 30
0.0
 10
90.050568
 20
166.006770
 30
0.0
 10
90.107508
 20
166.443320
 30
0.0
 10
90.373414
 20
166.744210
 30
0.0
  0
LWPOLYLINE
  5
199
100
AcDbEntity
  8
Layer_1
 62
1
100
AcDbPolyline
 90
2
 70
0
 10
90.964516
 20
165.043690
 30
0.0
 10
90.231466
 20
165.815830
 30
0.0
  0
SPLINE
  5
19a
100
AcDbEntity
  8
Layer_1
 62
1
100
AcDbSpline
 70
8
 71
3
 72
8
 73
4
 74
0
 40
0
 40
0
 40
0
 40
0
 40
1
 40
1
 40
1
 40
1
 10
91.409265
 20
167.916430
 30
0.0
 10
91.643891
 20
168.182000
 30
0.0
 10
91.729720
 20
168.032470
 30
0.0
 10
91.995968
 20
168.013730
 30
0.0
  0
SPLINE
  5
19b
100
AcDbEntity
  8
Layer_1
 62
1
100
AcDbSpline
 70
8
 71
3
 72
8
 73
4
 74
0
 40
0
 40
0
 40
0
 40
0
 40
1
 40
1
 40
1
 40
1
 10
91.995968
 20
168.013730
 30
0.0
 10
94.247301
 20
166.822010
 30
0.0
 10
92.670409
 20
165.322900
 30
0.0
 10
91.714579
 20
165.157500
 30
0.0
  0
LWPOLYLINE
  5
19c
100
AcDbEntity
  8
Layer_1
 62
1
100
AcDbPolyline
 90
2
 70
0
 10
90.373414
 20
166.744210
 30
0.0
 10
91.409265
 20
167.916430
 30
0.0
  0
LWPOLYLINE
  5
19d
100
AcDbEntity
  8
Layer_1
 62
1
100
AcDbPolyline
 90
1
 70
1
 10
91.714579
 20
165.157500
 30
0.0
  0
SPLINE
  5
19e
100
AcDbEntity
  8
Layer_1
 62
1
100
AcDbSpline
 70
8
 71
3
 72
8
 73
4
 74
0
 40
0
 40
0
 40
0
 40
0
 40
1
 40
1
 40
1
 40
1
 10
99.373465
 20
184.850930
 30
0.0
 10
99.632359
 20
184.699730
 30
0.0
 10
100.360640
 20
183.817640
 30
0.0
 10
100.105680
 20
183.474090
 30
0.0
  0
LWPOLYLINE
  5
19f
100
AcDbEntity
  8
Layer_1
 62
1
100
AcDbPolyline
 90
2
 70
0
 10
98.389189
 20
185.425700
 30
0.0
 10
99.373465
 20
184.850930
 30
0.0
  0
SPLINE
  5
1a0
100
AcDbEntity
  8
Layer_1
 62
1
100
AcDbSpline
 70
8
 71
3
 72
8
 73
4
 74
0
 40
0
 40
0
 40
0
 40
0
 40
1
 40
1
 40
1
 40
1
 10
99.403338
 20
182.527780
 30
0.0
 10
99.148373
 20
182.184200
 30
0.0
 10
98.593851
 20
181.664210
 30
0.0
 10
98.211065
 20
181.855300
 30
0.0
  0
LWPOLYLINE
  5
1a1
100
AcDbEntity
  8
Layer_1
 62
1
100
AcDbPolyline
 90
2
 70
0
 10
100.105680
 20
183.474090
 30
0.0
 10
99.403338
 20
182.527780
 30
0.0
  0
SPLINE
  5
1a2
100
AcDbEntity
  8
Layer_1
 62
1
100
AcDbSpline
 70
8
 71
3
 72
8
 73
4
 74
0
 40
0
 40
0
 40
0
 40
0
 40
1
 40
1
 40
1
 40
1
 10
97.040106
 20
182.439870
 30
0.0
 10
96.702375
 20
182.608700
 30
0.0
 10
96.461989
 20
182.858140
 30
0.0
 10
96.580265
 20
183.252720
 30
0.0
  0
LWPOLYLINE
  5
1a3
100
AcDbEntity
  8
Layer_1
 62
1
100
AcDbPolyline
 90
2
 70
0
 10
98.211065
 20
181.855300
 30
0.0
 10
97.040106
 20
182.439870
 30
0.0
  0
SPLINE
  5
1a4
100
AcDbEntity
  8
Layer_1
 62
1
100
AcDbSpline
 70
8
 71
3
 72
8
 73
4
 74
0
 40
0
 40
0
 40
0
 40
0
 40
1
 40
1
 40
1
 40
1
 10
96.874612
 20
184.234510
 30
0.0
 10
96.997457
 20
184.644360
 30
0.0
 10
98.070276
 20
185.622430
 30
0.0
 10
98.389270
 20
185.425850
 30
0.0
  0
LWPOLYLINE
  5
1a5
100
AcDbEntity
  8
Layer_1
 62
1
100
AcDbPolyline
 90
2
 70
0
 10
96.580265
 20
183.252720
 30
0.0
 10
96.874612
 20
184.234510
 30
0.0
  0
LWPOLYLINE
  5
1a6
100
AcDbEntity
  8
Layer_1
 62
1
100
AcDbPolyline
 90
2
 70
0
 10
98.389270
 20
185.425850
 30
0.0
 10
98.389189
 20
185.425700
 30
0.0
  0
SPLINE
  5
1a7
100
AcDbEntity
  8
Layer_1
 62
1
100
AcDbSpline
 70
8
 71
3
 72
8
 73
4
 74
0
 40
0
 40
0
 40
0
 40
0
 40
1
 40
1
 40
1
 40
1
 10
88.764446
 20
158.265250
 30
0.0
 10
88.487029
 20
158.378930
 30
0.0
 10
87.642891
 20
159.150850
 30
0.0
 10
87.847489
 20
159.526590
 30
0.0
  0
LWPOLYLINE
  5
1a8
100
AcDbEntity
  8
Layer_1
 62
1
100
AcDbPolyline
 90
2
 70
0
 10
89.819215
 20
157.833240
 30
0.0
 10
88.764446
 20
158.265250
 30
0.0
  0
SPLINE
  5
1a9
100
AcDbEntity
  8
Layer_1
 62
1
100
AcDbSpline
 70
8
 71
3
 72
8
 73
4
 74
0
 40
0
 40
0
 40
0
 40
0
 40
1
 40
1
 40
1
 40
1
 10
88.411064
 20
160.561570
 30
0.0
 10
88.615630
 20
160.937320
 30
0.0
 10
89.092286
 20
161.529530
 30
0.0
 10
89.497970
 20
161.393650
 30
0.0
  0
LWPOLYLINE
  5
1aa
100
AcDbEntity
  8
Layer_1
 62
1
100
AcDbPolyline
 90
2
 70
0
 10
87.847489
 20
159.526590
 30
0.0
 10
88.411064
 20
160.561570
 30
0.0
  0
SPLINE
  5
1ab
100
AcDbEntity
  8
Layer_1
 62
1
100
AcDbSpline
 70
8
 71
3
 72
8
 73
4
 74
0
 40
0
 40
0
 40
0
 40
0
 40
1
 40
1
 40
1
 40
1
 10
90.738971
 20
160.978010
 30
0.0
 10
91.096937
 20
160.857880
 30
0.0
 10
91.369751
 20
160.644390
 30
0.0
 10
91.307628
 20
160.237160
 30
0.0
  0
LWPOLYLINE
  5
1ac
100
AcDbEntity
  8
Layer_1
 62
1
100
AcDbPolyline
 90
2
 70
0
 10
89.497970
 20
161.393650
 30
0.0
 10
90.738971
 20
160.978010
 30
0.0
  0
SPLINE
  5
1ad
100
AcDbEntity
  8
Layer_1
 62
1
100
AcDbSpline
 70
8
 71
3
 72
8
 73
4
 74
0
 40
0
 40
0
 40
0
 40
0
 40
1
 40
1
 40
1
 40
1
 10
91.152982
 20
159.223940
 30
0.0
 10
91.088462
 20
158.800970
 30
0.0
 10
90.162436
 20
157.682920
 30
0.0
 10
89.819153
 20
157.833100
 30
0.0
  0
LWPOLYLINE
  5
1ae
100
AcDbEntity
  8
Layer_1
 62
1
100
AcDbPolyline
 90
2
 70
0
 10
91.307628
 20
160.237160
 30
0.0
 10
91.152982
 20
159.223940
 30
0.0
  0
SPLINE
  5
1af
100
AcDbEntity
  8
Layer_1
 62
1
100
AcDbSpline
 70
8
 71
3
 72
8
 73
4
 74
0
 40
0
 40
0
 40
0
 40
0
 40
1
 40
1
 40
1
 40
1
 10
86.273056
 20
154.655600
 30
0.0
 10
86.747815
 20
154.491800
 30
0.0
 10
87.086697
 20
154.280160
 30
0.0
 10
87.021327
 20
153.753690
 30
0.0
  0
LWPOLYLINE
  5
1b0
100
AcDbEntity
  8
Layer_1
 62
1
100
AcDbPolyline
 90
2
 70
0
 10
89.819153
 20
157.833100
 30
0.0
 10
89.819215
 20
157.833240
 30
0.0
  0
SPLINE
  5
1b1
100
AcDbEntity
  8
Layer_1
 62
1
100
AcDbSpline
 70
8
 71
3
 72
8
 73
4
 74
0
 40
0
 40
0
 40
0
 40
0
 40
1
 40
1
 40
1
 40
1
 10
86.837833
 20
153.273940
 30
0.0
 10
85.239628
 20
151.557330
 30
0.0
 10
84.515180
 20
154.884590
 30
0.0
 10
86.273036
 20
154.655610
 30
0.0
  0
LWPOLYLINE
  5
1b2
100
AcDbEntity
  8
Layer_1
 62
1
100
AcDbPolyline
 90
2
 70
0
 10
87.021327
 20
153.753690
 30
0.0
 10
86.837833
 20
153.273940
 30
0.0
  0
LWPOLYLINE
  5
1b3
100
AcDbEntity
  8
Layer_1
 62
1
100
AcDbPolyline
 90
1
 70
1
 10
86.273036
 20
154.655610
 30
0.0
  0
SPLINE
  5
1b4
100
AcDbEntity
  8
Layer_1
 62
1
100
AcDbSpline
 70
8
 71
3
 72
8
 73
4
 74
0
 40
0
 40
0
 40
0
 40
0
 40
1
 40
1
 40
1
 40
1
 10
85.481493
 20
179.146280
 30
0.0
 10
85.722641
 20
178.861090
 30
0.0
 10
85.735683
 20
178.195110
 30
0.0
 10
85.379072
 20
177.799010
 30
0.0
  0
LWPOLYLINE
  5
1b5
100
AcDbEntity
  8
Layer_1
 62
1
100
AcDbPolyline
 90
2
 70
0
 10
84.103952
 20
180.775150
 30
0.0
 10
85.481493
 20
179.146280
 30
0.0
  0
SPLINE
  5
1b6
100
AcDbEntity
  8
Layer_1
 62
1
100
AcDbSpline
 70
8
 71
3
 72
8
 73
4
 74
0
 40
0
 40
0
 40
0
 40
0
 40
1
 40
1
 40
1
 40
1
 10
83.935317
 20
176.195360
 30
0.0
 10
83.578447
 20
175.799490
 30
0.0
 10
82.935325
 20
175.762820
 30
0.0
 10
82.575338
 20
176.155860
 30
0.0
  0
LWPOLYLINE
  5
1b7
100
AcDbEntity
  8
Layer_1
 62
1
100
AcDbPolyline
 90
2
 70
0
 10
85.379072
 20
177.799010
 30
0.0
 10
83.935317
 20
176.195360
 30
0.0
  0
SPLINE
  5
1b8
100
AcDbEntity
  8
Layer_1
 62
1
100
AcDbSpline
 70
8
 71
3
 72
8
 73
4
 74
0
 40
0
 40
0
 40
0
 40
0
 40
1
 40
1
 40
1
 40
1
 10
81.172912
 20
177.686990
 30
0.0
 10
80.855166
 20
178.033800
 30
0.0
 10
80.936429
 20
178.324680
 30
0.0
 10
81.240412
 20
178.738160
 30
0.0
  0
LWPOLYLINE
  5
1b9
100
AcDbEntity
  8
Layer_1
 62
1
100
AcDbPolyline
 90
2
 70
0
 10
82.575338
 20
176.155860
 30
0.0
 10
81.172912
 20
177.686990
 30
0.0
  0
SPLINE
  5
1ba
100
AcDbEntity
  8
Layer_1
 62
1
100
AcDbSpline
 70
8
 71
3
 72
8
 73
4
 74
0
 40
0
 40
0
 40
0
 40
0
 40
1
 40
1
 40
1
 40
1
 10
82.768449
 20
180.816530
 30
0.0
 10
83.084189
 20
181.245920
 30
0.0
 10
83.802623
 20
181.131520
 30
0.0
 10
84.104025
 20
180.775130
 30
0.0
  0
LWPOLYLINE
  5
1bb
100
AcDbEntity
  8
Layer_1
 62
1
100
AcDbPolyline
 90
2
 70
0
 10
81.240412
 20
178.738160
 30
0.0
 10
82.768449
 20
180.816530
 30
0.0
  0
SPLINE
  5
1bc
100
AcDbEntity
  8
Layer_1
 62
1
100
AcDbSpline
 70
8
 71
3
 72
8
 73
4
 74
0
 40
0
 40
0
 40
0
 40
0
 40
1
 40
1
 40
1
 40
1
 10
78.071917
 20
170.739100
 30
0.0
 10
77.826317
 20
170.607690
 30
0.0
 10
77.436398
 20
170.626780
 30
0.0
 10
77.323684
 20
170.864390
 30
0.0
  0
LWPOLYLINE
  5
1bd
100
AcDbEntity
  8
Layer_1
 62
1
100
AcDbPolyline
 90
1
 70
1
 10
84.104025
 20
180.775130
 30
0.0
  0
SPLINE
  5
1be
100
AcDbEntity
  8
Layer_1
 62
1
100
AcDbSpline
 70
8
 71
3
 72
8
 73
4
 74
0
 40
0
 40
0
 40
0
 40
0
 40
1
 40
1
 40
1
 40
1
 10
76.867416
 20
171.826360
 30
0.0
 10
76.754943
 20
172.064120
 30
0.0
 10
76.944946
 20
172.461260
 30
0.0
 10
77.291307
 20
172.664430
 30
0.0
  0
LWPOLYLINE
  5
1bf
100
AcDbEntity
  8
Layer_1
 62
1
100
AcDbPolyline
 90
2
 70
0
 10
77.323684
 20
170.864390
 30
0.0
 10
76.867416
 20
171.826360
 30
0.0
  0
SPLINE
  5
1c0
100
AcDbEntity
  8
Layer_1
 62
1
100
AcDbSpline
 70
8
 71
3
 72
8
 73
4
 74
0
 40
0
 40
0
 40
0
 40
0
 40
1
 40
1
 40
1
 40
1
 10
78.640592
 20
173.455950
 30
0.0
 10
78.946229
 20
173.635280
 30
0.0
 10
78.981249
 20
173.466450
 30
0.0
 10
79.228422
 20
173.365750
 30
0.0
  0
SPLINE
  5
1c1
100
AcDbEntity
  8
Layer_1
 62
1
100
AcDbSpline
 70
8
 71
3
 72
8
 73
4
 74
0
 40
0
 40
0
 40
0
 40
0
 40
1
 40
1
 40
1
 40
1
 10
79.228422
 20
173.365750
 30
0.0
 10
80.996921
 20
171.532420
 30
0.0
 10
79.031722
 20
170.598670
 30
0.0
 10
78.071895
 20
170.739030
 30
0.0
  0
LWPOLYLINE
  5
1c2
100
AcDbEntity
  8
Layer_1
 62
1
100
AcDbPolyline
 90
2
 70
0
 10
77.291307
 20
172.664430
 30
0.0
 10
78.640592
 20
173.455950
 30
0.0
  0
LWPOLYLINE
  5
1c3
100
AcDbEntity
  8
Layer_1
 62
1
100
AcDbPolyline
 90
1
 70
1
 10
78.071895
 20
170.739030
 30
0.0
  0
SPLINE
  5
1c4
100
AcDbEntity
  8
Layer_1
 62
1
100
AcDbSpline
 70
8
 71
3
 72
8
 73
4
 74
0
 40
0
 40
0
 40
0
 40
0
 40
1
 40
1
 40
1
 40
1
 10
89.594033
 20
186.059200
 30
0.0
 10
89.793002
 20
185.834920
 30
0.0
 10
90.210510
 20
184.769950
 30
0.0
 10
89.861272
 20
184.522830
 30
0.0
  0
LWPOLYLINE
  5
1c5
100
AcDbEntity
  8
Layer_1
 62
1
100
AcDbPolyline
 90
2
 70
0
 10
88.837586
 20
186.911800
 30
0.0
 10
89.594033
 20
186.059200
 30
0.0
  0
SPLINE
  5
1c6
100
AcDbEntity
  8
Layer_1
 62
1
100
AcDbSpline
 70
8
 71
3
 72
8
 73
4
 74
0
 40
0
 40
0
 40
0
 40
0
 40
1
 40
1
 40
1
 40
1
 10
88.899253
 20
183.842170
 30
0.0
 10
88.549996
 20
183.595030
 30
0.0
 10
87.861160
 20
183.273500
 30
0.0
 10
87.556874
 20
183.574250
 30
0.0
  0
LWPOLYLINE
  5
1c7
100
AcDbEntity
  8
Layer_1
 62
1
100
AcDbPolyline
 90
2
 70
0
 10
89.861272
 20
184.522830
 30
0.0
 10
88.899253
 20
183.842170
 30
0.0
  0
SPLINE
  5
1c8
100
AcDbEntity
  8
Layer_1
 62
1
100
AcDbSpline
 70
8
 71
3
 72
8
 73
4
 74
0
 40
0
 40
0
 40
0
 40
0
 40
1
 40
1
 40
1
 40
1
 10
86.626073
 20
184.494280
 30
0.0
 10
86.357671
 20
184.759860
 30
0.0
 10
86.206882
 20
185.071730
 30
0.0
 10
86.442104
 20
185.409890
 30
0.0
  0
LWPOLYLINE
  5
1c9
100
AcDbEntity
  8
Layer_1
 62
1
100
AcDbPolyline
 90
2
 70
0
 10
87.556874
 20
183.574250
 30
0.0
 10
86.626073
 20
184.494280
 30
0.0
  0
SPLINE
  5
1ca
100
AcDbEntity
  8
Layer_1
 62
1
100
AcDbSpline
 70
8
 71
3
 72
8
 73
4
 74
0
 40
0
 40
0
 40
0
 40
0
 40
1
 40
1
 40
1
 40
1
 10
87.027452
 20
186.251270
 30
0.0
 10
87.271780
 20
186.602510
 30
0.0
 10
88.595761
 20
187.198030
 30
0.0
 10
88.837709
 20
186.911920
 30
0.0
  0
LWPOLYLINE
  5
1cb
100
AcDbEntity
  8
Layer_1
 62
1
100
AcDbPolyline
 90
2
 70
0
 10
86.442104
 20
185.409890
 30
0.0
 10
87.027452
 20
186.251270
 30
0.0
  0
SPLINE
  5
1cc
100
AcDbEntity
  8
Layer_1
 62
1
100
AcDbSpline
 70
8
 71
3
 72
8
 73
4
 74
0
 40
0
 40
0
 40
0
 40
0
 40
1
 40
1
 40
1
 40
1
 10
90.884457
 20
190.543140
 30
0.0
 10
90.530432
 20
190.899390
 30
0.0
 10
90.319517
 20
191.238690
 30
0.0
 10
90.610246
 20
191.682510
 30
0.0
  0
LWPOLYLINE
  5
1cd
100
AcDbEntity
  8
Layer_1
 62
1
100
AcDbPolyline
 90
2
 70
0
 10
88.837709
 20
186.911920
 30
0.0
 10
88.837586
 20
186.911800
 30
0.0
  0
SPLINE
  5
1ce
100
AcDbEntity
  8
Layer_1
 62
1
100
AcDbSpline
 70
8
 71
3
 72
8
 73
4
 74
0
 40
0
 40
0
 40
0
 40
0
 40
1
 40
1
 40
1
 40
1
 10
90.986372
 20
192.032300
 30
0.0
 10
93.177529
 20
192.868880
 30
0.0
 10
92.361499
 20
189.562890
 30
0.0
 10
90.884466
 20
190.543140
 30
0.0
  0
LWPOLYLINE
  5
1cf
100
AcDbEntity
  8
Layer_1
 62
1
100
AcDbPolyline
 90
2
 70
0
 10
90.610246
 20
191.682510
 30
0.0
 10
90.986372
 20
192.032300
 30
0.0
  0
LWPOLYLINE
  5
1d0
100
AcDbEntity
  8
Layer_1
 62
1
100
AcDbPolyline
 90
1
 70
1
 10
90.884466
 20
190.543140
 30
0.0
  0
SPLINE
  5
1d1
100
AcDbEntity
  8
Layer_1
 62
1
100
AcDbSpline
 70
8
 71
3
 72
8
 73
4
 74
0
 40
0
 40
0
 40
0
 40
0
 40
1
 40
1
 40
1
 40
1
 10
69.120607
 20
165.955130
 30
0.0
 10
68.892362
 20
166.149520
 30
0.0
 10
68.330456
 20
167.145860
 30
0.0
 10
68.641851
 20
167.439240
 30
0.0
  0
LWPOLYLINE
  5
1d2
100
AcDbEntity
  8
Layer_1
 62
1
100
AcDbPolyline
 90
2
 70
0
 10
69.988489
 20
165.216250
 30
0.0
 10
69.120607
 20
165.955130
 30
0.0
  0
SPLINE
  5
1d3
100
AcDbEntity
  8
Layer_1
 62
1
100
AcDbSpline
 70
8
 71
3
 72
8
 73
4
 74
0
 40
0
 40
0
 40
0
 40
0
 40
1
 40
1
 40
1
 40
1
 10
69.499605
 20
168.247360
 30
0.0
 10
69.810975
 20
168.540760
 30
0.0
 10
70.448297
 20
168.955170
 30
0.0
 10
70.791528
 20
168.699760
 30
0.0
  0
LWPOLYLINE
  5
1d4
100
AcDbEntity
  8
Layer_1
 62
1
100
AcDbPolyline
 90
2
 70
0
 10
68.641851
 20
167.439240
 30
0.0
 10
69.499605
 20
168.247360
 30
0.0
  0
SPLINE
  5
1d5
100
AcDbEntity
  8
Layer_1
 62
1
100
AcDbSpline
 70
8
 71
3
 72
8
 73
4
 74
0
 40
0
 40
0
 40
0
 40
0
 40
1
 40
1
 40
1
 40
1
 10
71.841484
 20
167.918450
 30
0.0
 10
72.144270
 20
167.692860
 30
0.0
 10
72.337069
 20
167.405050
 30
0.0
 10
72.151267
 20
167.037400
 30
0.0
  0
LWPOLYLINE
  5
1d6
100
AcDbEntity
  8
Layer_1
 62
1
100
AcDbPolyline
 90
2
 70
0
 10
70.791528
 20
168.699760
 30
0.0
 10
71.841484
 20
167.918450
 30
0.0
  0
SPLINE
  5
1d7
100
AcDbEntity
  8
Layer_1
 62
1
100
AcDbSpline
 70
8
 71
3
 72
8
 73
4
 74
0
 40
0
 40
0
 40
0
 40
0
 40
1
 40
1
 40
1
 40
1
 10
71.688899
 20
166.122660
 30
0.0
 10
71.495917
 20
165.740790
 30
0.0
 10
70.267864
 20
164.966560
 30
0.0
 10
69.988385
 20
165.216130
 30
0.0
  0
LWPOLYLINE
  5
1d8
100
AcDbEntity
  8
Layer_1
 62
1
100
AcDbPolyline
 90
2
 70
0
 10
72.151267
 20
167.037400
 30
0.0
 10
71.688899
 20
166.122660
 30
0.0
  0
SPLINE
  5
1d9
100
AcDbEntity
  8
Layer_1
 62
1
100
AcDbSpline
 70
8
 71
3
 72
8
 73
4
 74
0
 40
0
 40
0
 40
0
 40
0
 40
1
 40
1
 40
1
 40
1
 10
64.358048
 20
170.457330
 30
0.0
 10
64.758228
 20
170.153880
 30
0.0
 10
65.014393
 20
169.847270
 30
0.0
 10
64.788385
 20
169.367310
 30
0.0
  0
LWPOLYLINE
  5
1da
100
AcDbEntity
  8
Layer_1
 62
1
100
AcDbPolyline
 90
2
 70
0
 10
69.988385
 20
165.216130
 30
0.0
 10
69.988489
 20
165.216250
 30
0.0
  0
SPLINE
  5
1db
100
AcDbEntity
  8
Layer_1
 62
1
100
AcDbSpline
 70
8
 71
3
 72
8
 73
4
 74
0
 40
0
 40
0
 40
0
 40
0
 40
1
 40
1
 40
1
 40
1
 10
64.464667
 20
168.968520
 30
0.0
 10
62.411503
 20
167.834700
 30
0.0
 10
62.758796
 20
171.222160
 30
0.0
 10
64.358032
 20
170.457350
 30
0.0
  0
LWPOLYLINE
  5
1dc
100
AcDbEntity
  8
Layer_1
 62
1
100
AcDbPolyline
 90
2
 70
0
 10
64.788385
 20
169.367310
 30
0.0
 10
64.464667
 20
168.968520
 30
0.0
  0
LWPOLYLINE
  5
1dd
100
AcDbEntity
  8
Layer_1
 62
1
100
AcDbPolyline
 90
1
 70
1
 10
64.358032
 20
170.457350
 30
0.0
  0
SPLINE
  5
1de
100
AcDbEntity
  8
Layer_1
 62
1
100
AcDbSpline
 70
8
 71
3
 72
8
 73
4
 74
0
 40
0
 40
0
 40
0
 40
0
 40
1
 40
1
 40
1
 40
1
 10
125.332820
 20
161.795100
 30
0.0
 10
125.585160
 20
161.882900
 30
0.0
 10
126.033210
 20
161.720600
 30
0.0
 10
126.206130
 20
161.380810
 30
0.0
  0
LWPOLYLINE
  5
1df
100
AcDbEntity
  8
Layer_1
 62
1
100
AcDbPolyline
 90
2
 70
0
 10
123.891510
 20
161.293510
 30
0.0
 10
125.332820
 20
161.795100
 30
0.0
  0
SPLINE
  5
1e0
100
AcDbEntity
  8
Layer_1
 62
1
100
AcDbSpline
 70
8
 71
3
 72
8
 73
4
 74
0
 40
0
 40
0
 40
0
 40
0
 40
1
 40
1
 40
1
 40
1
 10
126.906240
 20
160.005040
 30
0.0
 10
127.078940
 20
159.665120
 30
0.0
 10
126.938340
 20
159.226280
 30
0.0
 10
126.583440
 20
159.086820
 30
0.0
  0
LWPOLYLINE
  5
1e1
100
AcDbEntity
  8
Layer_1
 62
1
100
AcDbPolyline
 90
2
 70
0
 10
126.206130
 20
161.380810
 30
0.0
 10
126.906240
 20
160.005040
 30
0.0
  0
SPLINE
  5
1e2
100
AcDbEntity
  8
Layer_1
 62
1
100
AcDbSpline
 70
8
 71
3
 72
8
 73
4
 74
0
 40
0
 40
0
 40
0
 40
0
 40
1
 40
1
 40
1
 40
1
 10
125.201000
 20
158.543500
 30
0.0
 10
124.887850
 20
158.420380
 30
0.0
 10
124.714480
 20
158.549500
 30
0.0
 10
124.516440
 20
158.858460
 30
0.0
  0
LWPOLYLINE
  5
1e3
100
AcDbEntity
  8
Layer_1
 62
1
100
AcDbPolyline
 90
2
 70
0
 10
126.583440
 20
159.086820
 30
0.0
 10
125.201000
 20
158.543500
 30
0.0
  0
SPLINE
  5
1e4
100
AcDbEntity
  8
Layer_1
 62
1
100
AcDbSpline
 70
8
 71
3
 72
8
 73
4
 74
0
 40
0
 40
0
 40
0
 40
0
 40
1
 40
1
 40
1
 40
1
 10
123.521000
 20
160.412380
 30
0.0
 10
123.315360
 20
160.733450
 30
0.0
 10
123.576200
 20
161.183800
 30
0.0
 10
123.891550
 20
161.293550
 30
0.0
  0
LWPOLYLINE
  5
1e5
100
AcDbEntity
  8
Layer_1
 62
1
100
AcDbPolyline
 90
2
 70
0
 10
124.516440
 20
158.858460
 30
0.0
 10
123.521000
 20
160.412380
 30
0.0
  0
SPLINE
  5
1e6
100
AcDbEntity
  8
Layer_1
 62
1
100
AcDbSpline
 70
8
 71
3
 72
8
 73
4
 74
0
 40
0
 40
0
 40
0
 40
0
 40
1
 40
1
 40
1
 40
1
 10
124.045930
 20
166.229490
 30
0.0
 10
124.076730
 20
165.982960
 30
0.0
 10
123.935980
 20
165.664450
 30
0.0
 10
123.702070
 20
165.646680
 30
0.0
  0
LWPOLYLINE
  5
1e7
100
AcDbEntity
  8
Layer_1
 62
1
100
AcDbPolyline
 90
1
 70
1
 10
123.891550
 20
161.293550
 30
0.0
  0
SPLINE
  5
1e8
100
AcDbEntity
  8
Layer_1
 62
1
100
AcDbSpline
 70
8
 71
3
 72
8
 73
4
 74
0
 40
0
 40
0
 40
0
 40
0
 40
1
 40
1
 40
1
 40
1
 10
122.755130
 20
165.574780
 30
0.0
 10
122.521180
 20
165.557280
 30
0.0
 10
122.251380
 20
165.842570
 30
0.0
 10
122.193120
 20
166.195960
 30
0.0
  0
LWPOLYLINE
  5
1e9
100
AcDbEntity
  8
Layer_1
 62
1
100
AcDbPolyline
 90
2
 70
0
 10
123.702070
 20
165.646680
 30
0.0
 10
122.755130
 20
165.574780
 30
0.0
  0
SPLINE
  5
1ea
100
AcDbEntity
  8
Layer_1
 62
1
100
AcDbSpline
 70
8
 71
3
 72
8
 73
4
 74
0
 40
0
 40
0
 40
0
 40
0
 40
1
 40
1
 40
1
 40
1
 10
121.966080
 20
167.572670
 30
0.0
 10
121.914580
 20
167.884540
 30
0.0
 10
122.066390
 20
167.859640
 30
0.0
 10
122.229310
 20
168.033220
 30
0.0
  0
SPLINE
  5
1eb
100
AcDbEntity
  8
Layer_1
 62
1
100
AcDbSpline
 70
8
 71
3
 72
8
 73
4
 74
0
 40
0
 40
0
 40
0
 40
0
 40
1
 40
1
 40
1
 40
1
 10
122.229310
 20
168.033220
 30
0.0
 10
124.321760
 20
168.918660
 30
0.0
 10
124.470040
 20
166.983650
 30
0.0
 10
124.045930
 20
166.229490
 30
0.0
  0
LWPOLYLINE
  5
1ec
100
AcDbEntity
  8
Layer_1
 62
1
100
AcDbPolyline
 90
2
 70
0
 10
122.193120
 20
166.195960
 30
0.0
 10
121.966080
 20
167.572670
 30
0.0
  0
SPLINE
  5
1ed
100
AcDbEntity
  8
Layer_1
 62
1
100
AcDbSpline
 70
8
 71
3
 72
8
 73
4
 74
0
 40
0
 40
0
 40
0
 40
0
 40
1
 40
1
 40
1
 40
1
 10
132.403110
 20
151.265580
 30
0.0
 10
132.427810
 20
151.112650
 30
0.0
 10
132.315010
 20
150.915080
 30
0.0
 10
132.127700
 20
150.904060
 30
0.0
  0
LWPOLYLINE
  5
1ee
100
AcDbEntity
  8
Layer_1
 62
1
100
AcDbPolyline
 90
1
 70
1
 10
124.045930
 20
166.229490
 30
0.0
  0
SPLINE
  5
1ef
100
AcDbEntity
  8
Layer_1
 62
1
100
AcDbSpline
 70
8
 71
3
 72
8
 73
4
 74
0
 40
0
 40
0
 40
0
 40
0
 40
1
 40
1
 40
1
 40
1
 10
131.369270
 20
150.859460
 30
0.0
 10
131.181890
 20
150.848560
 30
0.0
 10
130.965800
 20
151.025570
 30
0.0
 10
130.919140
 20
151.244780
 30
0.0
  0
LWPOLYLINE
  5
1f0
100
AcDbEntity
  8
Layer_1
 62
1
100
AcDbPolyline
 90
2
 70
0
 10
132.127700
 20
150.904060
 30
0.0
 10
131.369270
 20
150.859460
 30
0.0
  0
SPLINE
  5
1f1
100
AcDbEntity
  8
Layer_1
 62
1
100
AcDbSpline
 70
8
 71
3
 72
8
 73
4
 74
0
 40
0
 40
0
 40
0
 40
0
 40
1
 40
1
 40
1
 40
1
 10
130.737300
 20
152.098750
 30
0.0
 10
130.696000
 20
152.292210
 30
0.0
 10
130.817600
 20
152.276760
 30
0.0
 10
130.948130
 20
152.384440
 30
0.0
  0
SPLINE
  5
1f2
100
AcDbEntity
  8
Layer_1
 62
1
100
AcDbSpline
 70
8
 71
3
 72
8
 73
4
 74
0
 40
0
 40
0
 40
0
 40
0
 40
1
 40
1
 40
1
 40
1
 10
130.948130
 20
152.384440
 30
0.0
 10
132.624030
 20
152.933670
 30
0.0
 10
132.742790
 20
151.733380
 30
0.0
 10
132.403110
 20
151.265580
 30
0.0
  0
LWPOLYLINE
  5
1f3
100
AcDbEntity
  8
Layer_1
 62
1
100
AcDbPolyline
 90
2
 70
0
 10
130.919140
 20
151.244780
 30
0.0
 10
130.737300
 20
152.098750
 30
0.0
  0
LWPOLYLINE
  5
1f4
100
AcDbEntity
  8
Layer_1
 62
1
100
AcDbPolyline
 90
1
 70
1
 10
132.403110
 20
151.265580
 30
0.0
  0
SPLINE
  5
1f5
100
AcDbEntity
  8
Layer_1
 62
1
100
AcDbSpline
 70
8
 71
3
 72
8
 73
4
 74
0
 40
0
 40
0
 40
0
 40
0
 40
1
 40
1
 40
1
 40
1
 10
116.696400
 20
183.542660
 30
0.0
 10
116.946810
 20
183.636560
 30
0.0
 10
117.967090
 20
183.643190
 30
0.0
 10
118.061020
 20
183.273320
 30
0.0
  0
LWPOLYLINE
  5
1f6
100
AcDbEntity
  8
Layer_1
 62
1
100
AcDbPolyline
 90
2
 70
0
 10
115.744410
 20
183.185840
 30
0.0
 10
116.696400
 20
183.542660
 30
0.0
  0
SPLINE
  5
1f7
100
AcDbEntity
  8
Layer_1
 62
1
100
AcDbSpline
 70
8
 71
3
 72
8
 73
4
 74
0
 40
0
 40
0
 40
0
 40
0
 40
1
 40
1
 40
1
 40
1
 10
118.319730
 20
182.254510
 30
0.0
 10
118.413630
 20
181.884640
 30
0.0
 10
118.460860
 20
181.208220
 30
0.0
 10
118.113060
 20
181.051180
 30
0.0
  0
LWPOLYLINE
  5
1f8
100
AcDbEntity
  8
Layer_1
 62
1
100
AcDbPolyline
 90
2
 70
0
 10
118.061020
 20
183.273320
 30
0.0
 10
118.319730
 20
182.254510
 30
0.0
  0
SPLINE
  5
1f9
100
AcDbEntity
  8
Layer_1
 62
1
100
AcDbSpline
 70
8
 71
3
 72
8
 73
4
 74
0
 40
0
 40
0
 40
0
 40
0
 40
1
 40
1
 40
1
 40
1
 10
117.049130
 20
180.570770
 30
0.0
 10
116.742110
 20
180.432340
 30
0.0
 10
116.434190
 20
180.406640
 30
0.0
 10
116.227960
 20
180.710720
 30
0.0
  0
LWPOLYLINE
  5
1fa
100
AcDbEntity
  8
Layer_1
 62
1
100
AcDbPolyline
 90
2
 70
0
 10
118.113060
 20
181.051180
 30
0.0
 10
117.049130
 20
180.570770
 30
0.0
  0
SPLINE
  5
1fb
100
AcDbEntity
  8
Layer_1
 62
1
100
AcDbSpline
 70
8
 71
3
 72
8
 73
4
 74
0
 40
0
 40
0
 40
0
 40
0
 40
1
 40
1
 40
1
 40
1
 10
115.714870
 20
181.467390
 30
0.0
 10
115.500660
 20
181.783240
 30
0.0
 10
115.428710
 20
183.076130
 30
0.0
 10
115.744370
 20
183.185980
 30
0.0
  0
LWPOLYLINE
  5
1fc
100
AcDbEntity
  8
Layer_1
 62
1
100
AcDbPolyline
 90
2
 70
0
 10
116.227960
 20
180.710720
 30
0.0
 10
115.714870
 20
181.467390
 30
0.0
  0
LWPOLYLINE
  5
1fd
100
AcDbEntity
  8
Layer_1
 62
1
100
AcDbPolyline
 90
2
 70
0
 10
115.744370
 20
183.185980
 30
0.0
 10
115.744410
 20
183.185840
 30
0.0
  0
SPLINE
  5
1fe
100
AcDbEntity
  8
Layer_1
 62
1
100
AcDbSpline
 70
8
 71
3
 72
8
 73
4
 74
0
 40
0
 40
0
 40
0
 40
0
 40
1
 40
1
 40
1
 40
1
 10
121.577480
 20
172.049970
 30
0.0
 10
121.342570
 20
171.922180
 30
0.0
 10
120.333210
 20
171.773320
 30
0.0
 10
120.188640
 20
172.126470
 30
0.0
  0
LWPOLYLINE
  5
1ff
100
AcDbEntity
  8
Layer_1
 62
1
100
AcDbPolyline
 90
2
 70
0
 10
122.470450
 20
172.535970
 30
0.0
 10
121.577480
 20
172.049970
 30
0.0
  0
SPLINE
  5
200
100
AcDbEntity
  8
Layer_1
 62
1
100
AcDbSpline
 70
8
 71
3
 72
8
 73
4
 74
0
 40
0
 40
0
 40
0
 40
0
 40
1
 40
1
 40
1
 40
1
 10
119.790440
 20
173.099270
 30
0.0
 10
119.645850
 20
173.452420
 30
0.0
 10
119.504870
 20
174.115680
 30
0.0
 10
119.827340
 20
174.319660
 30
0.0
  0
LWPOLYLINE
  5
201
100
AcDbEntity
  8
Layer_1
 62
1
100
AcDbPolyline
 90
2
 70
0
 10
120.188640
 20
172.126470
 30
0.0
 10
119.790440
 20
173.099270
 30
0.0
  0
SPLINE
  5
202
100
AcDbEntity
  8
Layer_1
 62
1
100
AcDbSpline
 70
8
 71
3
 72
8
 73
4
 74
0
 40
0
 40
0
 40
0
 40
0
 40
1
 40
1
 40
1
 40
1
 10
120.813920
 20
174.943670
 30
0.0
 10
121.098660
 20
175.123540
 30
0.0
 10
121.399990
 20
175.191920
 30
0.0
 10
121.646590
 20
174.919570
 30
0.0
  0
LWPOLYLINE
  5
203
100
AcDbEntity
  8
Layer_1
 62
1
100
AcDbPolyline
 90
2
 70
0
 10
119.827340
 20
174.319660
 30
0.0
 10
120.813920
 20
174.943670
 30
0.0
  0
SPLINE
  5
204
100
AcDbEntity
  8
Layer_1
 62
1
100
AcDbSpline
 70
8
 71
3
 72
8
 73
4
 74
0
 40
0
 40
0
 40
0
 40
0
 40
1
 40
1
 40
1
 40
1
 10
122.260130
 20
174.241800
 30
0.0
 10
122.516280
 20
173.958890
 30
0.0
 10
122.767720
 20
172.688640
 30
0.0
 10
122.470470
 20
172.535860
 30
0.0
  0
LWPOLYLINE
  5
205
100
AcDbEntity
  8
Layer_1
 62
1
100
AcDbPolyline
 90
2
 70
0
 10
121.646590
 20
174.919570
 30
0.0
 10
122.260130
 20
174.241800
 30
0.0
  0
LWPOLYLINE
  5
206
100
AcDbEntity
  8
Layer_1
 62
1
100
AcDbPolyline
 90
2
 70
0
 10
122.470470
 20
172.535860
 30
0.0
 10
122.470450
 20
172.535970
 30
0.0
  0
SPLINE
  5
207
100
AcDbEntity
  8
Layer_1
 62
1
100
AcDbSpline
 70
8
 71
3
 72
8
 73
4
 74
0
 40
0
 40
0
 40
0
 40
0
 40
1
 40
1
 40
1
 40
1
 10
139.866690
 20
171.426240
 30
0.0
 10
140.068440
 20
171.601400
 30
0.0
 10
140.544730
 20
171.616930
 30
0.0
 10
140.831380
 20
171.365540
 30
0.0
  0
LWPOLYLINE
  5
208
100
AcDbEntity
  8
Layer_1
 62
1
100
AcDbPolyline
 90
2
 70
0
 10
138.714370
 20
170.425680
 30
0.0
 10
139.866690
 20
171.426240
 30
0.0
  0
SPLINE
  5
209
100
AcDbEntity
  8
Layer_1
 62
1
100
AcDbSpline
 70
8
 71
3
 72
8
 73
4
 74
0
 40
0
 40
0
 40
0
 40
0
 40
1
 40
1
 40
1
 40
1
 10
141.991970
 20
170.347740
 30
0.0
 10
142.278470
 20
170.096160
 30
0.0
 10
142.310730
 20
169.636480
 30
0.0
 10
142.032870
 20
169.375290
 30
0.0
  0
LWPOLYLINE
  5
20a
100
AcDbEntity
  8
Layer_1
 62
1
100
AcDbPolyline
 90
2
 70
0
 10
140.831380
 20
171.365540
 30
0.0
 10
141.991970
 20
170.347740
 30
0.0
  0
SPLINE
  5
20b
100
AcDbEntity
  8
Layer_1
 62
1
100
AcDbSpline
 70
8
 71
3
 72
8
 73
4
 74
0
 40
0
 40
0
 40
0
 40
0
 40
1
 40
1
 40
1
 40
1
 10
140.950700
 20
168.357820
 30
0.0
 10
140.705580
 20
168.127300
 30
0.0
 10
140.496680
 20
168.182880
 30
0.0
 10
140.198140
 20
168.396320
 30
0.0
  0
LWPOLYLINE
  5
20c
100
AcDbEntity
  8
Layer_1
 62
1
100
AcDbPolyline
 90
2
 70
0
 10
142.032870
 20
169.375290
 30
0.0
 10
140.950700
 20
168.357820
 30
0.0
  0
SPLINE
  5
20d
100
AcDbEntity
  8
Layer_1
 62
1
100
AcDbSpline
 70
8
 71
3
 72
8
 73
4
 74
0
 40
0
 40
0
 40
0
 40
0
 40
1
 40
1
 40
1
 40
1
 10
138.697200
 20
169.469980
 30
0.0
 10
138.387110
 20
169.691830
 30
0.0
 10
138.462230
 20
170.206820
 30
0.0
 10
138.714400
 20
170.425740
 30
0.0
  0
LWPOLYLINE
  5
20e
100
AcDbEntity
  8
Layer_1
 62
1
100
AcDbPolyline
 90
2
 70
0
 10
140.198140
 20
168.396320
 30
0.0
 10
138.697200
 20
169.469980
 30
0.0
  0
SPLINE
  5
20f
100
AcDbEntity
  8
Layer_1
 62
1
100
AcDbSpline
 70
8
 71
3
 72
8
 73
4
 74
0
 40
0
 40
0
 40
0
 40
0
 40
1
 40
1
 40
1
 40
1
 10
135.860960
 20
176.331800
 30
0.0
 10
135.981030
 20
176.114300
 30
0.0
 10
135.968500
 20
175.766300
 30
0.0
 10
135.757880
 20
175.663010
 30
0.0
  0
LWPOLYLINE
  5
210
100
AcDbEntity
  8
Layer_1
 62
1
100
AcDbPolyline
 90
1
 70
1
 10
138.714400
 20
170.425740
 30
0.0
  0
SPLINE
  5
211
100
AcDbEntity
  8
Layer_1
 62
1
100
AcDbSpline
 70
8
 71
3
 72
8
 73
4
 74
0
 40
0
 40
0
 40
0
 40
0
 40
1
 40
1
 40
1
 40
1
 10
134.905210
 20
175.244900
 30
0.0
 10
134.694460
 20
175.141840
 30
0.0
 10
134.338060
 20
175.306700
 30
0.0
 10
134.152840
 20
175.613210
 30
0.0
  0
LWPOLYLINE
  5
212
100
AcDbEntity
  8
Layer_1
 62
1
100
AcDbPolyline
 90
2
 70
0
 10
135.757880
 20
175.663010
 30
0.0
 10
134.905210
 20
175.244900
 30
0.0
  0
SPLINE
  5
213
100
AcDbEntity
  8
Layer_1
 62
1
100
AcDbSpline
 70
8
 71
3
 72
8
 73
4
 74
0
 40
0
 40
0
 40
0
 40
0
 40
1
 40
1
 40
1
 40
1
 10
133.431200
 20
176.807410
 30
0.0
 10
133.267660
 20
177.077910
 30
0.0
 10
133.417900
 20
177.111110
 30
0.0
 10
133.504800
 20
177.332750
 30
0.0
  0
SPLINE
  5
214
100
AcDbEntity
  8
Layer_1
 62
1
100
AcDbSpline
 70
8
 71
3
 72
8
 73
4
 74
0
 40
0
 40
0
 40
0
 40
0
 40
1
 40
1
 40
1
 40
1
 10
133.504800
 20
177.332750
 30
0.0
 10
135.119360
 20
178.931360
 30
0.0
 10
135.975010
 20
177.189490
 30
0.0
 10
135.861000
 20
176.331800
 30
0.0
  0
LWPOLYLINE
  5
215
100
AcDbEntity
  8
Layer_1
 62
1
100
AcDbPolyline
 90
2
 70
0
 10
134.152840
 20
175.613210
 30
0.0
 10
133.431200
 20
176.807410
 30
0.0
  0
SPLINE
  5
216
100
AcDbEntity
  8
Layer_1
 62
1
100
AcDbSpline
 70
8
 71
3
 72
8
 73
4
 74
0
 40
0
 40
0
 40
0
 40
0
 40
1
 40
1
 40
1
 40
1
 10
132.773520
 20
191.471530
 30
0.0
 10
132.994450
 20
191.585180
 30
0.0
 10
133.341930
 20
191.562430
 30
0.0
 10
133.439010
 20
191.348910
 30
0.0
  0
LWPOLYLINE
  5
217
100
AcDbEntity
  8
Layer_1
 62
1
100
AcDbPolyline
 90
1
 70
1
 10
135.861000
 20
176.331800
 30
0.0
  0
SPLINE
  5
218
100
AcDbEntity
  8
Layer_1
 62
1
100
AcDbSpline
 70
8
 71
3
 72
8
 73
4
 74
0
 40
0
 40
0
 40
0
 40
0
 40
1
 40
1
 40
1
 40
1
 10
133.831960
 20
190.484360
 30
0.0
 10
133.928760
 20
190.270680
 30
0.0
 10
133.753560
 20
189.919260
 30
0.0
 10
133.441780
 20
189.743100
 30
0.0
  0
LWPOLYLINE
  5
219
100
AcDbEntity
  8
Layer_1
 62
1
100
AcDbPolyline
 90
2
 70
0
 10
133.439010
 20
191.348910
 30
0.0
 10
133.831960
 20
190.484360
 30
0.0
  0
SPLINE
  5
21a
100
AcDbEntity
  8
Layer_1
 62
1
100
AcDbSpline
 70
8
 71
3
 72
8
 73
4
 74
0
 40
0
 40
0
 40
0
 40
0
 40
1
 40
1
 40
1
 40
1
 10
132.226950
 20
189.056750
 30
0.0
 10
131.951780
 20
188.901200
 30
0.0
 10
131.922990
 20
189.052750
 30
0.0
 10
131.703990
 20
189.145750
 30
0.0
  0
SPLINE
  5
21b
100
AcDbEntity
  8
Layer_1
 62
1
100
AcDbSpline
 70
8
 71
3
 72
8
 73
4
 74
0
 40
0
 40
0
 40
0
 40
0
 40
1
 40
1
 40
1
 40
1
 10
131.703990
 20
189.145750
 30
0.0
 10
130.153360
 20
190.806440
 30
0.0
 10
131.919540
 20
191.610710
 30
0.0
 10
132.773520
 20
191.471620
 30
0.0
  0
LWPOLYLINE
  5
21c
100
AcDbEntity
  8
Layer_1
 62
1
100
AcDbPolyline
 90
2
 70
0
 10
133.441780
 20
189.743100
 30
0.0
 10
132.226950
 20
189.056750
 30
0.0
  0
SPLINE
  5
21d
100
AcDbEntity
  8
Layer_1
 62
1
100
AcDbSpline
 70
8
 71
3
 72
8
 73
4
 74
0
 40
0
 40
0
 40
0
 40
0
 40
1
 40
1
 40
1
 40
1
 10
146.304360
 20
214.465554
 30
0.0
 10
146.411150
 20
214.520494
 30
0.0
 10
146.579130
 20
214.509494
 30
0.0
 10
146.626050
 20
214.406284
 30
0.0
  0
LWPOLYLINE
  5
21e
100
AcDbEntity
  8
Layer_1
 62
1
100
AcDbPolyline
 90
1
 70
1
 10
132.773520
 20
191.471620
 30
0.0
  0
SPLINE
  5
21f
100
AcDbEntity
  8
Layer_1
 62
1
100
AcDbSpline
 70
8
 71
3
 72
8
 73
4
 74
0
 40
0
 40
0
 40
0
 40
0
 40
1
 40
1
 40
1
 40
1
 10
146.816000
 20
213.988364
 30
0.0
 10
146.862800
 20
213.885072
 30
0.0
 10
146.778100
 20
213.715197
 30
0.0
 10
146.627390
 20
213.630041
 30
0.0
  0
LWPOLYLINE
  5
220
100
AcDbEntity
  8
Layer_1
 62
1
100
AcDbPolyline
 90
2
 70
0
 10
146.626050
 20
214.406284
 30
0.0
 10
146.816000
 20
213.988364
 30
0.0
  0
SPLINE
  5
221
100
AcDbEntity
  8
Layer_1
 62
1
100
AcDbSpline
 70
8
 71
3
 72
8
 73
4
 74
0
 40
0
 40
0
 40
0
 40
0
 40
1
 40
1
 40
1
 40
1
 10
146.040150
 20
213.298262
 30
0.0
 10
145.907130
 20
213.223072
 30
0.0
 10
145.893210
 20
213.296362
 30
0.0
 10
145.787350
 20
213.341282
 30
0.0
  0
SPLINE
  5
222
100
AcDbEntity
  8
Layer_1
 62
1
100
AcDbSpline
 70
8
 71
3
 72
8
 73
4
 74
0
 40
0
 40
0
 40
0
 40
0
 40
1
 40
1
 40
1
 40
1
 10
145.787350
 20
213.341282
 30
0.0
 10
145.037780
 20
214.144053
 30
0.0
 10
145.891550
 20
214.532835
 30
0.0
 10
146.304360
 20
214.465599
 30
0.0
  0
LWPOLYLINE
  5
223
100
AcDbEntity
  8
Layer_1
 62
1
100
AcDbPolyline
 90
2
 70
0
 10
146.627390
 20
213.630041
 30
0.0
 10
146.040150
 20
213.298262
 30
0.0
  0
LWPOLYLINE
  5
224
100
AcDbEntity
  8
Layer_1
 62
1
100
AcDbPolyline
 90
1
 70
1
 10
146.304360
 20
214.465599
 30
0.0
  0
SPLINE
  5
225
100
AcDbEntity
  8
Layer_1
 62
1
100
AcDbSpline
 70
8
 71
3
 72
8
 73
4
 74
0
 40
0
 40
0
 40
0
 40
0
 40
1
 40
1
 40
1
 40
1
 10
131.409100
 20
180.820930
 30
0.0
 10
131.238380
 20
180.615100
 30
0.0
 10
130.356300
 20
180.102360
 30
0.0
 10
130.091020
 20
180.376660
 30
0.0
  0
LWPOLYLINE
  5
226
100
AcDbEntity
  8
Layer_1
 62
1
100
AcDbPolyline
 90
2
 70
0
 10
132.058010
 20
181.603560
 30
0.0
 10
131.409100
 20
180.820930
 30
0.0
  0
SPLINE
  5
227
100
AcDbEntity
  8
Layer_1
 62
1
100
AcDbSpline
 70
8
 71
3
 72
8
 73
4
 74
0
 40
0
 40
0
 40
0
 40
0
 40
1
 40
1
 40
1
 40
1
 10
129.360300
 20
181.132280
 30
0.0
 10
129.095000
 20
181.406570
 30
0.0
 10
128.717990
 20
181.970180
 30
0.0
 10
128.941760
 20
182.279240
 30
0.0
  0
LWPOLYLINE
  5
228
100
AcDbEntity
  8
Layer_1
 62
1
100
AcDbPolyline
 90
2
 70
0
 10
130.091020
 20
180.376660
 30
0.0
 10
129.360300
 20
181.132280
 30
0.0
  0
SPLINE
  5
229
100
AcDbEntity
  8
Layer_1
 62
1
100
AcDbSpline
 70
8
 71
3
 72
8
 73
4
 74
0
 40
0
 40
0
 40
0
 40
0
 40
1
 40
1
 40
1
 40
1
 10
129.626380
 20
183.224770
 30
0.0
 10
129.824060
 20
183.497450
 30
0.0
 10
130.078510
 20
183.672750
 30
0.0
 10
130.408560
 20
183.511340
 30
0.0
  0
LWPOLYLINE
  5
22a
100
AcDbEntity
  8
Layer_1
 62
1
100
AcDbPolyline
 90
2
 70
0
 10
128.941760
 20
182.279240
 30
0.0
 10
129.626380
 20
183.224770
 30
0.0
  0
SPLINE
  5
22b
100
AcDbEntity
  8
Layer_1
 62
1
100
AcDbSpline
 70
8
 71
3
 72
8
 73
4
 74
0
 40
0
 40
0
 40
0
 40
0
 40
1
 40
1
 40
1
 40
1
 10
131.229780
 20
183.109590
 30
0.0
 10
131.572620
 20
182.941920
 30
0.0
 10
132.277410
 20
181.855630
 30
0.0
 10
132.058070
 20
181.603470
 30
0.0
  0
LWPOLYLINE
  5
22c
100
AcDbEntity
  8
Layer_1
 62
1
100
AcDbPolyline
 90
2
 70
0
 10
130.408560
 20
183.511340
 30
0.0
 10
131.229780
 20
183.109590
 30
0.0
  0
LWPOLYLINE
  5
22d
100
AcDbEntity
  8
Layer_1
 62
1
100
AcDbPolyline
 90
1
 70
1
 10
132.058070
 20
181.603470
 30
0.0
  0
SPLINE
  5
22e
100
AcDbEntity
  8
Layer_1
 62
1
100
AcDbSpline
 70
8
 71
3
 72
8
 73
4
 74
0
 40
0
 40
0
 40
0
 40
0
 40
1
 40
1
 40
1
 40
1
 10
147.043330
 20
196.225650
 30
0.0
 10
146.934150
 20
196.469500
 30
0.0
 10
147.057330
 20
196.929850
 30
0.0
 10
147.381000
 20
197.131355
 30
0.0
  0
LWPOLYLINE
  5
22f
100
AcDbEntity
  8
Layer_1
 62
1
100
AcDbPolyline
 90
2
 70
0
 10
147.667000
 20
194.832810
 30
0.0
 10
147.043330
 20
196.225650
 30
0.0
  0
SPLINE
  5
230
100
AcDbEntity
  8
Layer_1
 62
1
100
AcDbSpline
 70
8
 71
3
 72
8
 73
4
 74
0
 40
0
 40
0
 40
0
 40
0
 40
1
 40
1
 40
1
 40
1
 10
148.691470
 20
197.947165
 30
0.0
 10
149.015280
 20
198.148465
 30
0.0
 10
149.464580
 20
198.046165
 30
0.0
 10
149.634040
 20
197.704485
 30
0.0
  0
LWPOLYLINE
  5
231
100
AcDbEntity
  8
Layer_1
 62
1
100
AcDbPolyline
 90
2
 70
0
 10
147.381000
 20
197.131355
 30
0.0
 10
148.691470
 20
197.947165
 30
0.0
  0
SPLINE
  5
232
100
AcDbEntity
  8
Layer_1
 62
1
100
AcDbSpline
 70
8
 71
3
 72
8
 73
4
 74
0
 40
0
 40
0
 40
0
 40
0
 40
1
 40
1
 40
1
 40
1
 10
150.294220
 20
196.373890
 30
0.0
 10
150.443810
 20
196.072480
 30
0.0
 10
150.330120
 20
195.888650
 30
0.0
 10
150.039270
 20
195.664780
 30
0.0
  0
LWPOLYLINE
  5
233
100
AcDbEntity
  8
Layer_1
 62
1
100
AcDbPolyline
 90
2
 70
0
 10
149.634040
 20
197.704485
 30
0.0
 10
150.294220
 20
196.373890
 30
0.0
  0
SPLINE
  5
234
100
AcDbEntity
  8
Layer_1
 62
1
100
AcDbSpline
 70
8
 71
3
 72
8
 73
4
 74
0
 40
0
 40
0
 40
0
 40
0
 40
1
 40
1
 40
1
 40
1
 10
148.576710
 20
194.539410
 30
0.0
 10
148.274510
 20
194.306920
 30
0.0
 10
147.803390
 20
194.528010
 30
0.0
 10
147.666950
 20
194.832860
 30
0.0
  0
LWPOLYLINE
  5
235
100
AcDbEntity
  8
Layer_1
 62
1
100
AcDbPolyline
 90
2
 70
0
 10
150.039270
 20
195.664780
 30
0.0
 10
148.576710
 20
194.539410
 30
0.0
  0
SPLINE
  5
236
100
AcDbEntity
  8
Layer_1
 62
1
100
AcDbSpline
 70
8
 71
3
 72
8
 73
4
 74
0
 40
0
 40
0
 40
0
 40
0
 40
1
 40
1
 40
1
 40
1
 10
145.804320
 20
191.299370
 30
0.0
 10
146.047280
 20
191.351270
 30
0.0
 10
146.376720
 20
191.238370
 30
0.0
 10
146.414540
 20
191.006890
 30
0.0
  0
LWPOLYLINE
  5
237
100
AcDbEntity
  8
Layer_1
 62
1
100
AcDbPolyline
 90
1
 70
1
 10
147.666950
 20
194.832860
 30
0.0
  0
SPLINE
  5
238
100
AcDbEntity
  8
Layer_1
 62
1
100
AcDbSpline
 70
8
 71
3
 72
8
 73
4
 74
0
 40
0
 40
0
 40
0
 40
0
 40
1
 40
1
 40
1
 40
1
 10
146.567590
 20
190.069640
 30
0.0
 10
146.605190
 20
189.838070
 30
0.0
 10
146.344080
 20
189.544740
 30
0.0
 10
145.997050
 20
189.456300
 30
0.0
  0
LWPOLYLINE
  5
239
100
AcDbEntity
  8
Layer_1
 62
1
100
AcDbPolyline
 90
2
 70
0
 10
146.414540
 20
191.006890
 30
0.0
 10
146.567590
 20
190.069640
 30
0.0
  0
SPLINE
  5
23a
100
AcDbEntity
  8
Layer_1
 62
1
100
AcDbSpline
 70
8
 71
3
 72
8
 73
4
 74
0
 40
0
 40
0
 40
0
 40
0
 40
1
 40
1
 40
1
 40
1
 10
144.644960
 20
189.111720
 30
0.0
 10
144.338670
 20
189.033620
 30
0.0
 10
144.350440
 20
189.187020
 30
0.0
 10
144.163490
 20
189.334410
 30
0.0
  0
SPLINE
  5
23b
100
AcDbEntity
  8
Layer_1
 62
1
100
AcDbSpline
 70
8
 71
3
 72
8
 73
4
 74
0
 40
0
 40
0
 40
0
 40
0
 40
1
 40
1
 40
1
 40
1
 10
144.163490
 20
189.334410
 30
0.0
 10
143.101400
 20
191.342970
 30
0.0
 10
145.016490
 20
191.657090
 30
0.0
 10
145.804330
 20
191.299410
 30
0.0
  0
LWPOLYLINE
  5
23c
100
AcDbEntity
  8
Layer_1
 62
1
100
AcDbPolyline
 90
2
 70
0
 10
145.997050
 20
189.456300
 30
0.0
 10
144.644960
 20
189.111720
 30
0.0
  0
LWPOLYLINE
  5
23d
100
AcDbEntity
  8
Layer_1
 62
1
100
AcDbPolyline
 90
1
 70
1
 10
145.804330
 20
191.299410
 30
0.0
  0
SPLINE
  5
23e
100
AcDbEntity
  8
Layer_1
 62
1
100
AcDbSpline
 70
8
 71
3
 72
8
 73
4
 74
0
 40
0
 40
0
 40
0
 40
0
 40
1
 40
1
 40
1
 40
1
 10
125.254700
 20
193.658320
 30
0.0
 10
125.139610
 20
193.899740
 30
0.0
 10
125.045270
 20
194.915670
 30
0.0
 10
125.405700
 20
195.041060
 30
0.0
  0
LWPOLYLINE
  5
23f
100
AcDbEntity
  8
Layer_1
 62
1
100
AcDbPolyline
 90
2
 70
0
 10
125.692060
 20
192.740550
 30
0.0
 10
125.254700
 20
193.658320
 30
0.0
  0
SPLINE
  5
240
100
AcDbEntity
  8
Layer_1
 62
1
100
AcDbSpline
 70
8
 71
3
 72
8
 73
4
 74
0
 40
0
 40
0
 40
0
 40
0
 40
1
 40
1
 40
1
 40
1
 10
126.398480
 20
195.386420
 30
0.0
 10
126.758910
 20
195.511770
 30
0.0
 10
127.428760
 20
195.616990
 30
0.0
 10
127.615130
 20
195.283990
 30
0.0
  0
LWPOLYLINE
  5
241
100
AcDbEntity
  8
Layer_1
 62
1
100
AcDbPolyline
 90
2
 70
0
 10
125.405700
 20
195.041060
 30
0.0
 10
126.398480
 20
195.386420
 30
0.0
  0
SPLINE
  5
242
100
AcDbEntity
  8
Layer_1
 62
1
100
AcDbSpline
 70
8
 71
3
 72
8
 73
4
 74
0
 40
0
 40
0
 40
0
 40
0
 40
1
 40
1
 40
1
 40
1
 10
128.185240
 20
194.265310
 30
0.0
 10
128.349570
 20
193.971330
 30
0.0
 10
128.401650
 20
193.666760
 30
0.0
 10
128.116440
 20
193.435140
 30
0.0
  0
LWPOLYLINE
  5
243
100
AcDbEntity
  8
Layer_1
 62
1
100
AcDbPolyline
 90
2
 70
0
 10
127.615130
 20
195.283990
 30
0.0
 10
128.185240
 20
194.265310
 30
0.0
  0
SPLINE
  5
244
100
AcDbEntity
  8
Layer_1
 62
1
100
AcDbSpline
 70
8
 71
3
 72
8
 73
4
 74
0
 40
0
 40
0
 40
0
 40
0
 40
1
 40
1
 40
1
 40
1
 10
127.406690
 20
192.858890
 30
0.0
 10
127.110430
 20
192.618310
 30
0.0
 10
125.828520
 20
192.435450
 30
0.0
 10
125.691930
 20
192.740500
 30
0.0
  0
LWPOLYLINE
  5
245
100
AcDbEntity
  8
Layer_1
 62
1
100
AcDbPolyline
 90
2
 70
0
 10
128.116440
 20
193.435140
 30
0.0
 10
127.406690
 20
192.858890
 30
0.0
  0
LWPOLYLINE
  5
246
100
AcDbEntity
  8
Layer_1
 62
1
100
AcDbPolyline
 90
2
 70
0
 10
125.691930
 20
192.740500
 30
0.0
 10
125.692060
 20
192.740550
 30
0.0
  0
SPLINE
  5
247
100
AcDbEntity
  8
Layer_1
 62
1
100
AcDbSpline
 70
8
 71
3
 72
8
 73
4
 74
0
 40
0
 40
0
 40
0
 40
0
 40
1
 40
1
 40
1
 40
1
 10
139.641380
 20
189.804500
 30
0.0
 10
139.788900
 20
189.581450
 30
0.0
 10
140.024000
 20
188.588630
 30
0.0
 10
139.684580
 20
188.414230
 30
0.0
  0
LWPOLYLINE
  5
248
100
AcDbEntity
  8
Layer_1
 62
1
100
AcDbPolyline
 90
2
 70
0
 10
139.080400
 20
190.652370
 30
0.0
 10
139.641380
 20
189.804500
 30
0.0
  0
SPLINE
  5
249
100
AcDbEntity
  8
Layer_1
 62
1
100
AcDbSpline
 70
8
 71
3
 72
8
 73
4
 74
0
 40
0
 40
0
 40
0
 40
0
 40
1
 40
1
 40
1
 40
1
 10
138.749620
 20
187.933850
 30
0.0
 10
138.410220
 20
187.759430
 30
0.0
 10
137.761540
 20
187.561940
 30
0.0
 10
137.530590
 20
187.865650
 30
0.0
  0
LWPOLYLINE
  5
24a
100
AcDbEntity
  8
Layer_1
 62
1
100
AcDbPolyline
 90
2
 70
0
 10
139.684580
 20
188.414230
 30
0.0
 10
138.749620
 20
187.933850
 30
0.0
  0
SPLINE
  5
24b
100
AcDbEntity
  8
Layer_1
 62
1
100
AcDbSpline
 70
8
 71
3
 72
8
 73
4
 74
0
 40
0
 40
0
 40
0
 40
0
 40
1
 40
1
 40
1
 40
1
 10
136.824040
 20
188.794910
 30
0.0
 10
136.620360
 20
189.063130
 30
0.0
 10
136.526320
 20
189.357470
 30
0.0
 10
136.776440
 20
189.626580
 30
0.0
  0
LWPOLYLINE
  5
24c
100
AcDbEntity
  8
Layer_1
 62
1
100
AcDbPolyline
 90
2
 70
0
 10
137.530590
 20
187.865650
 30
0.0
 10
136.824040
 20
188.794910
 30
0.0
  0
SPLINE
  5
24d
100
AcDbEntity
  8
Layer_1
 62
1
100
AcDbSpline
 70
8
 71
3
 72
8
 73
4
 74
0
 40
0
 40
0
 40
0
 40
0
 40
1
 40
1
 40
1
 40
1
 10
137.398950
 20
190.296120
 30
0.0
 10
137.658780
 20
190.575660
 30
0.0
 10
138.902710
 20
190.935390
 30
0.0
 10
139.080480
 20
190.652380
 30
0.0
  0
LWPOLYLINE
  5
24e
100
AcDbEntity
  8
Layer_1
 62
1
100
AcDbPolyline
 90
2
 70
0
 10
136.776440
 20
189.626580
 30
0.0
 10
137.398950
 20
190.296120
 30
0.0
  0
SPLINE
  5
24f
100
AcDbEntity
  8
Layer_1
 62
1
100
AcDbSpline
 70
8
 71
3
 72
8
 73
4
 74
0
 40
0
 40
0
 40
0
 40
0
 40
1
 40
1
 40
1
 40
1
 10
126.872890
 20
155.686490
 30
0.0
 10
127.253630
 20
155.922520
 30
0.0
 10
127.590890
 20
156.037640
 30
0.0
 10
127.918130
 20
155.695490
 30
0.0
  0
LWPOLYLINE
  5
250
100
AcDbEntity
  8
Layer_1
 62
1
100
AcDbPolyline
 90
1
 70
1
 10
139.080480
 20
190.652380
 30
0.0
  0
SPLINE
  5
251
100
AcDbEntity
  8
Layer_1
 62
1
100
AcDbSpline
 70
8
 71
3
 72
8
 73
4
 74
0
 40
0
 40
0
 40
0
 40
0
 40
1
 40
1
 40
1
 40
1
 10
128.146510
 20
155.298320
 30
0.0
 10
128.433180
 20
153.226030
 30
0.0
 10
125.724190
 20
154.599560
 30
0.0
 10
126.872870
 20
155.686140
 30
0.0
  0
LWPOLYLINE
  5
252
100
AcDbEntity
  8
Layer_1
 62
1
100
AcDbPolyline
 90
2
 70
0
 10
127.918130
 20
155.695490
 30
0.0
 10
128.146510
 20
155.298320
 30
0.0
  0
SPLINE
  5
253
100
AcDbEntity
  8
Layer_1
 62
1
100
AcDbSpline
 70
8
 71
3
 72
8
 73
4
 74
0
 40
0
 40
0
 40
0
 40
0
 40
1
 40
1
 40
1
 40
1
 10
144.502880
 20
166.194660
 30
0.0
 10
144.883620
 20
166.430690
 30
0.0
 10
145.220880
 20
166.545810
 30
0.0
 10
145.548120
 20
166.203660
 30
0.0
  0
LWPOLYLINE
  5
254
100
AcDbEntity
  8
Layer_1
 62
1
100
AcDbPolyline
 90
2
 70
0
 10
126.872870
 20
155.686140
 30
0.0
 10
126.872890
 20
155.686490
 30
0.0
  0
SPLINE
  5
255
100
AcDbEntity
  8
Layer_1
 62
1
100
AcDbSpline
 70
8
 71
3
 72
8
 73
4
 74
0
 40
0
 40
0
 40
0
 40
0
 40
1
 40
1
 40
1
 40
1
 10
145.776500
 20
165.806490
 30
0.0
 10
146.063170
 20
163.734200
 30
0.0
 10
143.354180
 20
165.107730
 30
0.0
 10
144.502860
 20
166.194310
 30
0.0
  0
LWPOLYLINE
  5
256
100
AcDbEntity
  8
Layer_1
 62
1
100
AcDbPolyline
 90
2
 70
0
 10
145.548120
 20
166.203660
 30
0.0
 10
145.776500
 20
165.806490
 30
0.0
  0
SPLINE
  5
257
100
AcDbEntity
  8
Layer_1
 62
1
100
AcDbSpline
 70
8
 71
3
 72
8
 73
4
 74
0
 40
0
 40
0
 40
0
 40
0
 40
1
 40
1
 40
1
 40
1
 10
150.647870
 20
166.588290
 30
0.0
 10
151.028610
 20
166.824320
 30
0.0
 10
151.365870
 20
166.939440
 30
0.0
 10
151.693110
 20
166.597290
 30
0.0
  0
LWPOLYLINE
  5
258
100
AcDbEntity
  8
Layer_1
 62
1
100
AcDbPolyline
 90
2
 70
0
 10
144.502860
 20
166.194310
 30
0.0
 10
144.502880
 20
166.194660
 30
0.0
  0
SPLINE
  5
259
100
AcDbEntity
  8
Layer_1
 62
1
100
AcDbSpline
 70
8
 71
3
 72
8
 73
4
 74
0
 40
0
 40
0
 40
0
 40
0
 40
1
 40
1
 40
1
 40
1
 10
151.921490
 20
166.200120
 30
0.0
 10
152.208160
 20
164.127830
 30
0.0
 10
149.499170
 20
165.501360
 30
0.0
 10
150.647850
 20
166.587940
 30
0.0
  0
LWPOLYLINE
  5
25a
100
AcDbEntity
  8
Layer_1
 62
1
100
AcDbPolyline
 90
2
 70
0
 10
151.693110
 20
166.597290
 30
0.0
 10
151.921490
 20
166.200120
 30
0.0
  0
SPLINE
  5
25b
100
AcDbEntity
  8
Layer_1
 62
1
100
AcDbSpline
 70
8
 71
3
 72
8
 73
4
 74
0
 40
0
 40
0
 40
0
 40
0
 40
1
 40
1
 40
1
 40
1
 10
147.848840
 20
203.397616
 30
0.0
 10
148.229580
 20
203.633646
 30
0.0
 10
148.566840
 20
203.748766
 30
0.0
 10
148.894080
 20
203.406616
 30
0.0
  0
LWPOLYLINE
  5
25c
100
AcDbEntity
  8
Layer_1
 62
1
100
AcDbPolyline
 90
2
 70
0
 10
150.647850
 20
166.587940
 30
0.0
 10
150.647870
 20
166.588290
 30
0.0
  0
SPLINE
  5
25d
100
AcDbEntity
  8
Layer_1
 62
1
100
AcDbSpline
 70
8
 71
3
 72
8
 73
4
 74
0
 40
0
 40
0
 40
0
 40
0
 40
1
 40
1
 40
1
 40
1
 10
149.122460
 20
203.009446
 30
0.0
 10
149.409130
 20
200.937156
 30
0.0
 10
146.700140
 20
202.310686
 30
0.0
 10
147.848820
 20
203.397266
 30
0.0
  0
LWPOLYLINE
  5
25e
100
AcDbEntity
  8
Layer_1
 62
1
100
AcDbPolyline
 90
2
 70
0
 10
148.894080
 20
203.406616
 30
0.0
 10
149.122460
 20
203.009446
 30
0.0
  0
SPLINE
  5
25f
100
AcDbEntity
  8
Layer_1
 62
1
100
AcDbSpline
 70
8
 71
3
 72
8
 73
4
 74
0
 40
0
 40
0
 40
0
 40
0
 40
1
 40
1
 40
1
 40
1
 10
146.938950
 20
208.513735
 30
0.0
 10
147.240060
 20
208.700403
 30
0.0
 10
147.506790
 20
208.791448
 30
0.0
 10
147.765600
 20
208.520835
 30
0.0
  0
LWPOLYLINE
  5
260
100
AcDbEntity
  8
Layer_1
 62
1
100
AcDbPolyline
 90
2
 70
0
 10
147.848820
 20
203.397266
 30
0.0
 10
147.848840
 20
203.397616
 30
0.0
  0
SPLINE
  5
261
100
AcDbEntity
  8
Layer_1
 62
1
100
AcDbSpline
 70
8
 71
3
 72
8
 73
4
 74
0
 40
0
 40
0
 40
0
 40
0
 40
1
 40
1
 40
1
 40
1
 10
147.946210
 20
208.206726
 30
0.0
 10
148.172930
 20
206.567819
 30
0.0
 10
146.030480
 20
207.654100
 30
0.0
 10
146.938930
 20
208.513441
 30
0.0
  0
LWPOLYLINE
  5
262
100
AcDbEntity
  8
Layer_1
 62
1
100
AcDbPolyline
 90
2
 70
0
 10
147.765600
 20
208.520835
 30
0.0
 10
147.946210
 20
208.206726
 30
0.0
  0
SPLINE
  5
263
100
AcDbEntity
  8
Layer_1
 62
1
100
AcDbSpline
 70
8
 71
3
 72
8
 73
4
 74
0
 40
0
 40
0
 40
0
 40
0
 40
1
 40
1
 40
1
 40
1
 10
83.816207
 20
191.721290
 30
0.0
 10
83.602900
 20
191.835000
 30
0.0
 10
83.267409
 20
191.812190
 30
0.0
 10
83.173679
 20
191.598610
 30
0.0
  0
LWPOLYLINE
  5
264
100
AcDbEntity
  8
Layer_1
 62
1
100
AcDbPolyline
 90
2
 70
0
 10
146.938930
 20
208.513441
 30
0.0
 10
146.938950
 20
208.513735
 30
0.0
  0
SPLINE
  5
265
100
AcDbEntity
  8
Layer_1
 62
1
100
AcDbSpline
 70
8
 71
3
 72
8
 73
4
 74
0
 40
0
 40
0
 40
0
 40
0
 40
1
 40
1
 40
1
 40
1
 10
82.794287
 20
190.733610
 30
0.0
 10
82.700827
 20
190.519810
 30
0.0
 10
82.869987
 20
190.168210
 30
0.0
 10
83.170995
 20
189.991960
 30
0.0
  0
LWPOLYLINE
  5
266
100
AcDbEntity
  8
Layer_1
 62
1
100
AcDbPolyline
 90
2
 70
0
 10
83.173679
 20
191.598610
 30
0.0
 10
82.794287
 20
190.733610
 30
0.0
  0
SPLINE
  5
267
100
AcDbEntity
  8
Layer_1
 62
1
100
AcDbSpline
 70
8
 71
3
 72
8
 73
4
 74
0
 40
0
 40
0
 40
0
 40
0
 40
1
 40
1
 40
1
 40
1
 10
84.343908
 20
189.305250
 30
0.0
 10
84.609583
 20
189.149620
 30
0.0
 10
84.637380
 20
189.301250
 30
0.0
 10
84.848833
 20
189.394350
 30
0.0
  0
SPLINE
  5
268
100
AcDbEntity
  8
Layer_1
 62
1
100
AcDbSpline
 70
8
 71
3
 72
8
 73
4
 74
0
 40
0
 40
0
 40
0
 40
0
 40
1
 40
1
 40
1
 40
1
 10
84.848833
 20
189.394350
 30
0.0
 10
86.345960
 20
191.055910
 30
0.0
 10
84.640721
 20
191.860600
 30
0.0
 10
83.816207
 20
191.721430
 30
0.0
  0
LWPOLYLINE
  5
269
100
AcDbEntity
  8
Layer_1
 62
1
100
AcDbPolyline
 90
2
 70
0
 10
83.170995
 20
189.991960
 30
0.0
 10
84.343908
 20
189.305250
 30
0.0
  0
SPLINE
  5
26a
100
AcDbEntity
  8
Layer_1
 62
1
100
AcDbSpline
 70
8
 71
3
 72
8
 73
4
 74
0
 40
0
 40
0
 40
0
 40
0
 40
1
 40
1
 40
1
 40
1
 10
70.658069
 20
222.826035
 30
0.0
 10
70.554964
 20
222.881005
 30
0.0
 10
70.392780
 20
222.869995
 30
0.0
 10
70.347479
 20
222.766735
 30
0.0
  0
LWPOLYLINE
  5
26b
100
AcDbEntity
  8
Layer_1
 62
1
100
AcDbPolyline
 90
2
 70
0
 10
83.816207
 20
191.721430
 30
0.0
 10
83.816207
 20
191.721290
 30
0.0
  0
SPLINE
  5
26c
100
AcDbEntity
  8
Layer_1
 62
1
100
AcDbSpline
 70
8
 71
3
 72
8
 73
4
 74
0
 40
0
 40
0
 40
0
 40
0
 40
1
 40
1
 40
1
 40
1
 10
70.164083
 20
222.348596
 30
0.0
 10
70.118903
 20
222.245250
 30
0.0
 10
70.200673
 20
222.075286
 30
0.0
 10
70.346185
 20
221.990085
 30
0.0
  0
LWPOLYLINE
  5
26d
100
AcDbEntity
  8
Layer_1
 62
1
100
AcDbPolyline
 90
2
 70
0
 10
70.347479
 20
222.766735
 30
0.0
 10
70.164083
 20
222.348596
 30
0.0
  0
SPLINE
  5
26e
100
AcDbEntity
  8
Layer_1
 62
1
100
AcDbSpline
 70
8
 71
3
 72
8
 73
4
 74
0
 40
0
 40
0
 40
0
 40
0
 40
1
 40
1
 40
1
 40
1
 10
70.913163
 20
221.658132
 30
0.0
 10
71.041593
 20
221.582902
 30
0.0
 10
71.055033
 20
221.656232
 30
0.0
 10
71.157240
 20
221.701172
 30
0.0
  0
SPLINE
  5
26f
100
AcDbEntity
  8
Layer_1
 62
1
100
AcDbSpline
 70
8
 71
3
 72
8
 73
4
 74
0
 40
0
 40
0
 40
0
 40
0
 40
1
 40
1
 40
1
 40
1
 10
71.157240
 20
221.701172
 30
0.0
 10
71.880947
 20
222.504363
 30
0.0
 10
71.056636
 20
222.893349
 30
0.0
 10
70.658069
 20
222.826078
 30
0.0
  0
LWPOLYLINE
  5
270
100
AcDbEntity
  8
Layer_1
 62
1
100
AcDbPolyline
 90
2
 70
0
 10
70.346185
 20
221.990085
 30
0.0
 10
70.913163
 20
221.658132
 30
0.0
  0
LWPOLYLINE
  5
271
100
AcDbEntity
  8
Layer_1
 62
1
100
AcDbPolyline
 90
1
 70
1
 10
70.658069
 20
222.826078
 30
0.0
  0
SPLINE
  5
272
100
AcDbEntity
  8
Layer_1
 62
1
100
AcDbSpline
 70
8
 71
3
 72
8
 73
4
 74
0
 40
0
 40
0
 40
0
 40
0
 40
1
 40
1
 40
1
 40
1
 10
67.967014
 20
198.361313
 30
0.0
 10
68.072427
 20
198.605295
 30
0.0
 10
67.953494
 20
199.065886
 30
0.0
 10
67.640995
 20
199.267497
 30
0.0
  0
LWPOLYLINE
  5
273
100
AcDbEntity
  8
Layer_1
 62
1
100
AcDbPolyline
 90
2
 70
0
 10
67.364863
 20
196.967740
 30
0.0
 10
67.967014
 20
198.361313
 30
0.0
  0
SPLINE
  5
274
100
AcDbEntity
  8
Layer_1
 62
1
100
AcDbSpline
 70
8
 71
3
 72
8
 73
4
 74
0
 40
0
 40
0
 40
0
 40
0
 40
1
 40
1
 40
1
 40
1
 10
66.375742
 20
200.083734
 30
0.0
 10
66.063095
 20
200.285139
 30
0.0
 10
65.629308
 20
200.182784
 30
0.0
 10
65.465695
 20
199.840927
 30
0.0
  0
LWPOLYLINE
  5
275
100
AcDbEntity
  8
Layer_1
 62
1
100
AcDbPolyline
 90
2
 70
0
 10
67.640995
 20
199.267497
 30
0.0
 10
66.375742
 20
200.083734
 30
0.0
  0
SPLINE
  5
276
100
AcDbEntity
  8
Layer_1
 62
1
100
AcDbSpline
 70
8
 71
3
 72
8
 73
4
 74
0
 40
0
 40
0
 40
0
 40
0
 40
1
 40
1
 40
1
 40
1
 10
64.828294
 20
198.509631
 30
0.0
 10
64.683865
 20
198.208063
 30
0.0
 10
64.793634
 20
198.024137
 30
0.0
 10
65.074447
 20
197.800150
 30
0.0
  0
LWPOLYLINE
  5
277
100
AcDbEntity
  8
Layer_1
 62
1
100
AcDbPolyline
 90
2
 70
0
 10
65.465695
 20
199.840927
 30
0.0
 10
64.828294
 20
198.509631
 30
0.0
  0
SPLINE
  5
278
100
AcDbEntity
  8
Layer_1
 62
1
100
AcDbSpline
 70
8
 71
3
 72
8
 73
4
 74
0
 40
0
 40
0
 40
0
 40
0
 40
1
 40
1
 40
1
 40
1
 10
66.486542
 20
196.674190
 30
0.0
 10
66.778315
 20
196.441580
 30
0.0
 10
67.233179
 20
196.662790
 30
0.0
 10
67.364912
 20
196.967790
 30
0.0
  0
LWPOLYLINE
  5
279
100
AcDbEntity
  8
Layer_1
 62
1
100
AcDbPolyline
 90
2
 70
0
 10
65.074447
 20
197.800150
 30
0.0
 10
66.486542
 20
196.674190
 30
0.0
  0
SPLINE
  5
27a
100
AcDbEntity
  8
Layer_1
 62
1
100
AcDbSpline
 70
8
 71
3
 72
8
 73
4
 74
0
 40
0
 40
0
 40
0
 40
0
 40
1
 40
1
 40
1
 40
1
 10
68.786590
 20
193.149940
 30
0.0
 10
68.552013
 20
193.201840
 30
0.0
 10
68.233940
 20
193.088940
 30
0.0
 10
68.197425
 20
192.857310
 30
0.0
  0
LWPOLYLINE
  5
27b
100
AcDbEntity
  8
Layer_1
 62
1
100
AcDbPolyline
 90
1
 70
1
 10
67.364912
 20
196.967790
 30
0.0
  0
SPLINE
  5
27c
100
AcDbEntity
  8
Layer_1
 62
1
100
AcDbSpline
 70
8
 71
3
 72
8
 73
4
 74
0
 40
0
 40
0
 40
0
 40
0
 40
1
 40
1
 40
1
 40
1
 10
68.049656
 20
191.919570
 30
0.0
 10
68.013356
 20
191.687880
 30
0.0
 10
68.265454
 20
191.394390
 30
0.0
 10
68.600510
 20
191.305910
 30
0.0
  0
LWPOLYLINE
  5
27d
100
AcDbEntity
  8
Layer_1
 62
1
100
AcDbPolyline
 90
2
 70
0
 10
68.197425
 20
192.857310
 30
0.0
 10
68.049656
 20
191.919570
 30
0.0
  0
SPLINE
  5
27e
100
AcDbEntity
  8
Layer_1
 62
1
100
AcDbSpline
 70
8
 71
3
 72
8
 73
4
 74
0
 40
0
 40
0
 40
0
 40
0
 40
1
 40
1
 40
1
 40
1
 10
69.905947
 20
190.961150
 30
0.0
 10
70.201669
 20
190.883050
 30
0.0
 10
70.190305
 20
191.036450
 30
0.0
 10
70.370804
 20
191.183950
 30
0.0
  0
SPLINE
  5
27f
100
AcDbEntity
  8
Layer_1
 62
1
100
AcDbSpline
 70
8
 71
3
 72
8
 73
4
 74
0
 40
0
 40
0
 40
0
 40
0
 40
1
 40
1
 40
1
 40
1
 10
70.370804
 20
191.183950
 30
0.0
 10
71.396248
 20
193.193570
 30
0.0
 10
69.547236
 20
193.507850
 30
0.0
 10
68.786580
 20
193.149980
 30
0.0
  0
LWPOLYLINE
  5
280
100
AcDbEntity
  8
Layer_1
 62
1
100
AcDbPolyline
 90
2
 70
0
 10
68.600510
 20
191.305910
 30
0.0
 10
69.905947
 20
190.961150
 30
0.0
  0
LWPOLYLINE
  5
281
100
AcDbEntity
  8
Layer_1
 62
1
100
AcDbPolyline
 90
1
 70
1
 10
68.786580
 20
193.149980
 30
0.0
  0
SPLINE
  5
282
100
AcDbEntity
  8
Layer_1
 62
1
100
AcDbSpline
 70
8
 71
3
 72
8
 73
4
 74
0
 40
0
 40
0
 40
0
 40
0
 40
1
 40
1
 40
1
 40
1
 10
74.736882
 20
191.654290
 30
0.0
 10
74.594452
 20
191.431120
 30
0.0
 10
74.367464
 20
190.437780
 30
0.0
 10
74.695172
 20
190.263290
 30
0.0
  0
LWPOLYLINE
  5
283
100
AcDbEntity
  8
Layer_1
 62
1
100
AcDbPolyline
 90
2
 70
0
 10
75.278506
 20
192.502600
 30
0.0
 10
74.736882
 20
191.654290
 30
0.0
  0
SPLINE
  5
284
100
AcDbEntity
  8
Layer_1
 62
1
100
AcDbSpline
 70
8
 71
3
 72
8
 73
4
 74
0
 40
0
 40
0
 40
0
 40
0
 40
1
 40
1
 40
1
 40
1
 10
75.597862
 20
189.782660
 30
0.0
 10
75.925561
 20
189.608150
 30
0.0
 10
76.551849
 20
189.410560
 30
0.0
 10
76.774830
 20
189.714460
 30
0.0
  0
LWPOLYLINE
  5
285
100
AcDbEntity
  8
Layer_1
 62
1
100
AcDbPolyline
 90
2
 70
0
 10
74.695172
 20
190.263290
 30
0.0
 10
75.597862
 20
189.782660
 30
0.0
  0
SPLINE
  5
286
100
AcDbEntity
  8
Layer_1
 62
1
100
AcDbSpline
 70
8
 71
3
 72
8
 73
4
 74
0
 40
0
 40
0
 40
0
 40
0
 40
1
 40
1
 40
1
 40
1
 10
77.457001
 20
190.644200
 30
0.0
 10
77.653653
 20
190.912560
 30
0.0
 10
77.744448
 20
191.207060
 30
0.0
 10
77.502961
 20
191.476310
 30
0.0
  0
LWPOLYLINE
  5
287
100
AcDbEntity
  8
Layer_1
 62
1
100
AcDbPolyline
 90
2
 70
0
 10
76.774830
 20
189.714460
 30
0.0
 10
77.457001
 20
190.644200
 30
0.0
  0
SPLINE
  5
288
100
AcDbEntity
  8
Layer_1
 62
1
100
AcDbSpline
 70
8
 71
3
 72
8
 73
4
 74
0
 40
0
 40
0
 40
0
 40
0
 40
1
 40
1
 40
1
 40
1
 10
76.901930
 20
192.146200
 30
0.0
 10
76.651065
 20
192.425880
 30
0.0
 10
75.450056
 20
192.785800
 30
0.0
 10
75.278420
 20
192.502640
 30
0.0
  0
LWPOLYLINE
  5
289
100
AcDbEntity
  8
Layer_1
 62
1
100
AcDbPolyline
 90
2
 70
0
 10
77.502961
 20
191.476310
 30
0.0
 10
76.901930
 20
192.146200
 30
0.0
  0
SPLINE
  5
28a
100
AcDbEntity
  8
Layer_1
 62
1
100
AcDbSpline
 70
8
 71
3
 72
8
 73
4
 74
0
 40
0
 40
0
 40
0
 40
0
 40
1
 40
1
 40
1
 40
1
 10
65.870909
 20
206.761257
 30
0.0
 10
65.503306
 20
206.997411
 30
0.0
 10
65.177683
 20
207.112591
 30
0.0
 10
64.861734
 20
206.770257
 30
0.0
  0
LWPOLYLINE
  5
28b
100
AcDbEntity
  8
Layer_1
 62
1
100
AcDbPolyline
 90
1
 70
1
 10
75.278420
 20
192.502640
 30
0.0
  0
SPLINE
  5
28c
100
AcDbEntity
  8
Layer_1
 62
1
100
AcDbSpline
 70
8
 71
3
 72
8
 73
4
 74
0
 40
0
 40
0
 40
0
 40
0
 40
1
 40
1
 40
1
 40
1
 10
64.641234
 20
206.372879
 30
0.0
 10
64.364455
 20
204.299504
 30
0.0
 10
66.979974
 20
205.673753
 30
0.0
 10
65.870928
 20
206.760902
 30
0.0
  0
LWPOLYLINE
  5
28d
100
AcDbEntity
  8
Layer_1
 62
1
100
AcDbPolyline
 90
2
 70
0
 10
64.861734
 20
206.770257
 30
0.0
 10
64.641234
 20
206.372879
 30
0.0
  0
SPLINE
  5
28e
100
AcDbEntity
  8
Layer_1
 62
1
100
AcDbSpline
 70
8
 71
3
 72
8
 73
4
 74
0
 40
0
 40
0
 40
0
 40
0
 40
1
 40
1
 40
1
 40
1
 10
68.915327
 20
212.727592
 30
0.0
 10
68.624607
 20
212.914357
 30
0.0
 10
68.367080
 20
213.005450
 30
0.0
 10
68.117200
 20
212.734692
 30
0.0
  0
LWPOLYLINE
  5
28f
100
AcDbEntity
  8
Layer_1
 62
1
100
AcDbPolyline
 90
2
 70
0
 10
65.870928
 20
206.760902
 30
0.0
 10
65.870909
 20
206.761257
 30
0.0
  0
SPLINE
  5
290
100
AcDbEntity
  8
Layer_1
 62
1
100
AcDbSpline
 70
8
 71
3
 72
8
 73
4
 74
0
 40
0
 40
0
 40
0
 40
0
 40
1
 40
1
 40
1
 40
1
 10
67.942822
 20
212.420419
 30
0.0
 10
67.723925
 20
210.780654
 30
0.0
 10
69.792451
 20
211.867503
 30
0.0
 10
68.915347
 20
212.727294
 30
0.0
  0
LWPOLYLINE
  5
291
100
AcDbEntity
  8
Layer_1
 62
1
100
AcDbPolyline
 90
2
 70
0
 10
68.117200
 20
212.734692
 30
0.0
 10
67.942822
 20
212.420419
 30
0.0
  0
LWPOLYLINE
  5
292
100
AcDbEntity
  8
Layer_1
 62
1
100
AcDbPolyline
 90
2
 70
0
 10
68.915347
 20
212.727294
 30
0.0
 10
68.915327
 20
212.727592
 30
0.0
  0
ENDSEC
  0
SECTION
  2
OBJECTS
  0
DICTIONARY
  5
C
330
0
100
AcDbDictionary
  3
ACAD_GROUP
350
D
  3
ACAD_MLINESTYLE
350
17
  0
DICTIONARY
  5
D
330
C
100
AcDbDictionary
  0
DICTIONARY
  5
1A
330
C
100
AcDbDictionary
  0
DICTIONARY
  5
17
330
C
100
AcDbDictionary
  3
STANDARD
350
18
  0
DICTIONARY
  5
19
330
C
100
AcDbDictionary
  0
ENDSEC
  0
EOF
