  0
SECTION
  2
HEADER
  9
$ACADVER
  1
AC1014
  9
$HANDSEED
  5
FFFF
  9
$INSUNITS
 70
     4
  9
$MEASUREMENT
 70
     1
  0
ENDSEC
  0
SECTION
  2
TABLES
  0
TABLE
  2
VPORT
  5
8
330
0
100
AcDbSymbolTable
 70
     4
  0
VPORT
  5
2E
330
8
100
AcDbSymbolTableRecord
100
AcDbViewportTableRecord
  2
*ACTIVE
 70
     0
 10
0.0
 20
0.0
 11
1.0
 21
1.0
 12
210.0
 22
148.5
 13
0.0
 23
0.0
 14
10.0
 24
10.0
 15
10.0
 25
10.0
 16
0.0
 26
0.0
 36
1.0
 17
0.0
 27
0.0
 37
0.0
 40
341.0
 41
1.24
 42
50.0
 43
0.0
 44
0.0
 50
0.0
 51
0.0
 71
     0
 72
   100
 73
     1
 74
     3
 75
     0
 76
     0
 77
     0
 78
     0
  0
ENDTAB
  0
TABLE
  2
LTYPE
  5
5
330
0
100
AcDbSymbolTable
 70
     1
  0
LTYPE
  5
14
330
5
100
AcDbSymbolTableRecord
100
AcDbLinetypeTableRecord
  2
BYBLOCK
 70
     0
  3

 72
    65
 73
     0
 40
0.0
  0
LTYPE
  5
15
330
5
100
AcDbSymbolTableRecord
100
AcDbLinetypeTableRecord
  2
BYLAYER
 70
     0
  3

 72
    65
 73
     0
 40
0.0
  0
LTYPE
  5
16
330
5
100
AcDbSymbolTableRecord
100
AcDbLinetypeTableRecord
  2
CONTINUOUS
 70
     0
  3
Solid line
 72
    65
 73
     0
 40
0.0
  0
ENDTAB
  0
TABLE
  2
LAYER
  5
2
100
AcDbSymbolTable
 70
2
  0
LAYER
  5
50
100
AcDbSymbolTableRecord
100
AcDbLayerTableRecord
  2
0
 70
0
  6
CONTINUOUS
  0
LAYER
  5
51
100
AcDbSymbolTableRecord
100
AcDbLayerTableRecord
  2
Layer_1
 70
0
  6
CONTINUOUS
  0
ENDTAB
  0
TABLE
  2
STYLE
  5
3
330
0
100
AcDbSymbolTable
 70
     1
  0
STYLE
  5
11
330
3
100
AcDbSymbolTableRecord
100
AcDbTextStyleTableRecord
  2
STANDARD
 70
     0
 40
0.0
 41
1.0
 50
0.0
 71
     0
 42
2.5
  3
txt
  4

  0
ENDTAB
  0
TABLE
  2
VIEW
  5
6
330
0
100
AcDbSymbolTable
 70
     0
  0
ENDTAB
  0
TABLE
  2
UCS
  5
7
330
0
100
AcDbSymbolTable
 70
     0
  0
ENDTAB
  0
TABLE
  2
APPID
  5
9
330
0
100
AcDbSymbolTable
 70
     2
  0
APPID
  5
12
330
9
100
AcDbSymbolTableRecord
100
AcDbRegAppTableRecord
  2
ACAD
 70
     0
  0
ENDTAB
  0
TABLE
  2
DIMSTYLE
  5
A
330
0
100
AcDbSymbolTable
 70
     1
  0
DIMSTYLE
105
27
330
A
100
AcDbSymbolTableRecord
100
AcDbDimStyleTableRecord
  2
ISO-25
 70
     0
  3

  4

  5

  6

  7

 40
1.0
 41
2.5
 42
0.625
 43
3.75
 44
1.25
 45
0.0
 46
0.0
 47
0.0
 48
0.0
140
2.5
141
2.5
142
0.0
143
0.03937007874016
144
1.0
145
0.0
146
1.0
147
0.625
 71
     0
 72
     0
 73
     0
 74
     0
 75
     0
 76
     0
 77
     1
 78
     8
170
     0
171
     3
172
     1
173
     0
174
     0
175
     0
176
     0
177
     0
178
     0
270
     2
271
     2
272
     2
273
     2
274
     3
340
11
275
     0
280
     0
281
     0
282
     0
283
     0
284
     8
285
     0
286
     0
287
     3
288
     0
  0
ENDTAB
  0
TABLE
  2
BLOCK_RECORD
  5
1
330
0
100
AcDbSymbolTable
 70
     1
  0
BLOCK_RECORD
  5
1F
330
1
100
AcDbSymbolTableRecord
100
AcDbBlockTableRecord
  2
*MODEL_SPACE
  0
BLOCK_RECORD
  5
1B
330
1
100
AcDbSymbolTableRecord
100
AcDbBlockTableRecord
  2
*PAPER_SPACE
  0
ENDTAB
  0
ENDSEC
  0
SECTION
  2
BLOCKS
  0
BLOCK
  5
20
330
1F
100
AcDbEntity
  8
0
100
AcDbBlockBegin
  2
*MODEL_SPACE
 70
     0
 10
0.0
 20
0.0
 30
0.0
  3
*MODEL_SPACE
  1

  0
ENDBLK
  5
21
330
1F
100
AcDbEntity
  8
0
100
AcDbBlockEnd
  0
BLOCK
  5
1C
330
1B
100
AcDbEntity
 67
     1
  8
0
100
AcDbBlockBegin
  2
*PAPER_SPACE
  1

  0
ENDBLK
  5
1D
330
1B
100
AcDbEntity
 67
     1
  8
0
100
AcDbBlockEnd
  0
ENDSEC
  0
SECTION
  2
ENTITIES
  0
SPLINE
  5
100
100
AcDbEntity
  8
Layer_1
 62
7
100
AcDbSpline
 70
8
 71
3
 72
8
 73
4
 74
0
 40
0
 40
0
 40
0
 40
0
 40
1
 40
1
 40
1
 40
1
 10
109.678790
 20
244.849388
 30
0.0
 10
107.514430
 20
244.904548
 30
0.0
 10
105.350440
 20
244.727253
 30
0.0
 10
103.227510
 20
244.320829
 30
0.0
  0
SPLINE
  5
101
100
AcDbEntity
  8
Layer_1
 62
7
100
AcDbSpline
 70
8
 71
3
 72
8
 73
4
 74
0
 40
0
 40
0
 40
0
 40
0
 40
1
 40
1
 40
1
 40
1
 10
103.227510
 20
244.320829
 30
0.0
 10
87.569397
 20
241.323638
 30
0.0
 10
77.418387
 20
227.286879
 30
0.0
 10
80.554167
 20
212.324440
 30
0.0
  0
SPLINE
  5
102
100
AcDbEntity
  8
Layer_1
 62
7
100
AcDbSpline
 70
8
 71
3
 72
8
 73
4
 74
0
 40
0
 40
0
 40
0
 40
0
 40
1
 40
1
 40
1
 40
1
 10
80.554167
 20
212.324440
 30
0.0
 10
81.363877
 20
208.491723
 30
0.0
 10
83.179177
 20
205.153903
 30
0.0
 10
85.139337
 20
201.428492
 30
0.0
  0
SPLINE
  5
103
100
AcDbEntity
  8
Layer_1
 62
7
100
AcDbSpline
 70
8
 71
3
 72
8
 73
4
 74
0
 40
0
 40
0
 40
0
 40
0
 40
1
 40
1
 40
1
 40
1
 10
85.139337
 20
201.428492
 30
0.0
 10
86.953817
 20
196.549360
 30
0.0
 10
82.413297
 20
194.850410
 30
0.0
 10
78.620277
 20
196.035480
 30
0.0
  0
SPLINE
  5
104
100
AcDbEntity
  8
Layer_1
 62
7
100
AcDbSpline
 70
8
 71
3
 72
8
 73
4
 74
0
 40
0
 40
0
 40
0
 40
0
 40
1
 40
1
 40
1
 40
1
 10
78.620277
 20
196.035480
 30
0.0
 10
67.451457
 20
201.473670
 30
0.0
 10
70.159517
 20
205.663189
 30
0.0
 10
76.110697
 20
219.802272
 30
0.0
  0
SPLINE
  5
105
100
AcDbEntity
  8
Layer_1
 62
7
100
AcDbSpline
 70
8
 71
3
 72
8
 73
4
 74
0
 40
0
 40
0
 40
0
 40
0
 40
1
 40
1
 40
1
 40
1
 10
76.110697
 20
219.802272
 30
0.0
 10
77.601227
 20
223.343534
 30
0.0
 10
76.715227
 20
229.574548
 30
0.0
 10
72.016307
 20
232.046730
 30
0.0
  0
SPLINE
  5
106
100
AcDbEntity
  8
Layer_1
 62
7
100
AcDbSpline
 70
8
 71
3
 72
8
 73
4
 74
0
 40
0
 40
0
 40
0
 40
0
 40
1
 40
1
 40
1
 40
1
 10
72.016307
 20
232.046730
 30
0.0
 10
68.102047
 20
234.106091
 30
0.0
 10
62.464057
 20
233.524560
 30
0.0
 10
59.392947
 20
228.991509
 30
0.0
  0
SPLINE
  5
107
100
AcDbEntity
  8
Layer_1
 62
7
100
AcDbSpline
 70
8
 71
3
 72
8
 73
4
 74
0
 40
0
 40
0
 40
0
 40
0
 40
1
 40
1
 40
1
 40
1
 10
59.392947
 20
228.991509
 30
0.0
 10
58.414087
 20
227.546681
 30
0.0
 10
57.306127
 20
222.172689
 30
0.0
 10
62.861897
 20
224.120067
 30
0.0
  0
SPLINE
  5
108
100
AcDbEntity
  8
Layer_1
 62
7
100
AcDbSpline
 70
8
 71
3
 72
8
 73
4
 74
0
 40
0
 40
0
 40
0
 40
0
 40
1
 40
1
 40
1
 40
1
 10
62.861897
 20
224.120067
 30
0.0
 10
70.106987
 20
226.467778
 30
0.0
 10
65.179517
 20
217.207118
 30
0.0
 10
62.603667
 20
213.270107
 30
0.0
  0
SPLINE
  5
109
100
AcDbEntity
  8
Layer_1
 62
7
100
AcDbSpline
 70
8
 71
3
 72
8
 73
4
 74
0
 40
0
 40
0
 40
0
 40
0
 40
1
 40
1
 40
1
 40
1
 10
62.603667
 20
213.270107
 30
0.0
 10
57.471927
 20
205.426609
 30
0.0
 10
56.302359
 20
185.895880
 30
0.0
 10
80.011665
 20
184.773780
 30
0.0
  0
SPLINE
  5
10a
100
AcDbEntity
  8
Layer_1
 62
7
100
AcDbSpline
 70
8
 71
3
 72
8
 73
4
 74
0
 40
0
 40
0
 40
0
 40
0
 40
1
 40
1
 40
1
 40
1
 10
80.011665
 20
184.773780
 30
0.0
 10
81.981041
 20
184.680580
 30
0.0
 10
78.653571
 20
179.851320
 30
0.0
 10
76.160114
 20
176.408330
 30
0.0
  0
SPLINE
  5
10b
100
AcDbEntity
  8
Layer_1
 62
7
100
AcDbSpline
 70
8
 71
3
 72
8
 73
4
 74
0
 40
0
 40
0
 40
0
 40
0
 40
1
 40
1
 40
1
 40
1
 10
76.160114
 20
176.408330
 30
0.0
 10
73.170439
 20
172.280150
 30
0.0
 10
68.603577
 20
171.169960
 30
0.0
 10
67.401577
 20
172.826220
 30
0.0
  0
SPLINE
  5
10c
100
AcDbEntity
  8
Layer_1
 62
7
100
AcDbSpline
 70
8
 71
3
 72
8
 73
4
 74
0
 40
0
 40
0
 40
0
 40
0
 40
1
 40
1
 40
1
 40
1
 10
67.401577
 20
172.826220
 30
0.0
 10
64.405707
 20
176.954310
 30
0.0
 10
72.175677
 20
177.666780
 30
0.0
 10
72.272587
 20
180.867510
 30
0.0
  0
SPLINE
  5
10d
100
AcDbEntity
  8
Layer_1
 62
7
100
AcDbSpline
 70
8
 71
3
 72
8
 73
4
 74
0
 40
0
 40
0
 40
0
 40
0
 40
1
 40
1
 40
1
 40
1
 10
72.272587
 20
180.867510
 30
0.0
 10
72.358187
 20
183.693190
 30
0.0
 10
61.632607
 20
185.230660
 30
0.0
 10
58.027437
 20
177.213870
 30
0.0
  0
SPLINE
  5
10e
100
AcDbEntity
  8
Layer_1
 62
7
100
AcDbSpline
 70
8
 71
3
 72
8
 73
4
 74
0
 40
0
 40
0
 40
0
 40
0
 40
1
 40
1
 40
1
 40
1
 10
58.027437
 20
177.213870
 30
0.0
 10
54.001087
 20
167.511460
 30
0.0
 10
65.844037
 20
155.979540
 30
0.0
 10
78.177577
 20
164.592460
 30
0.0
  0
SPLINE
  5
10f
100
AcDbEntity
  8
Layer_1
 62
7
100
AcDbSpline
 70
8
 71
3
 72
8
 73
4
 74
0
 40
0
 40
0
 40
0
 40
0
 40
1
 40
1
 40
1
 40
1
 10
78.177577
 20
164.592460
 30
0.0
 10
83.051417
 20
169.009100
 30
0.0
 10
89.464338
 20
177.471630
 30
0.0
 10
89.230732
 20
176.051270
 30
0.0
  0
SPLINE
  5
110
100
AcDbEntity
  8
Layer_1
 62
7
100
AcDbSpline
 70
8
 71
3
 72
8
 73
4
 74
0
 40
0
 40
0
 40
0
 40
0
 40
1
 40
1
 40
1
 40
1
 10
89.230732
 20
176.051270
 30
0.0
 10
88.992643
 20
174.603660
 30
0.0
 10
86.499043
 20
165.842860
 30
0.0
 10
85.041717
 20
160.200700
 30
0.0
  0
SPLINE
  5
111
100
AcDbEntity
  8
Layer_1
 62
7
100
AcDbSpline
 70
8
 71
3
 72
8
 73
4
 74
0
 40
0
 40
0
 40
0
 40
0
 40
1
 40
1
 40
1
 40
1
 10
85.041717
 20
160.200700
 30
0.0
 10
84.161245
 20
156.791880
 30
0.0
 10
81.073697
 20
155.699470
 30
0.0
 10
79.916157
 20
156.410390
 30
0.0
  0
SPLINE
  5
112
100
AcDbEntity
  8
Layer_1
 62
7
100
AcDbSpline
 70
8
 71
3
 72
8
 73
4
 74
0
 40
0
 40
0
 40
0
 40
0
 40
1
 40
1
 40
1
 40
1
 10
79.916157
 20
156.410390
 30
0.0
 10
77.475607
 20
157.909270
 30
0.0
 10
79.744877
 20
159.920450
 30
0.0
 10
78.325067
 20
160.274670
 30
0.0
  0
SPLINE
  5
113
100
AcDbEntity
  8
Layer_1
 62
7
100
AcDbSpline
 70
8
 71
3
 72
8
 73
4
 74
0
 40
0
 40
0
 40
0
 40
0
 40
1
 40
1
 40
1
 40
1
 10
78.325067
 20
160.274670
 30
0.0
 10
76.395767
 20
160.755980
 30
0.0
 10
73.865097
 20
158.035660
 30
0.0
 10
73.675087
 20
154.591140
 30
0.0
  0
SPLINE
  5
114
100
AcDbEntity
  8
Layer_1
 62
7
100
AcDbSpline
 70
8
 71
3
 72
8
 73
4
 74
0
 40
0
 40
0
 40
0
 40
0
 40
1
 40
1
 40
1
 40
1
 10
73.675087
 20
154.591140
 30
0.0
 10
73.377657
 20
146.459870
 30
0.0
 10
87.629707
 20
141.990240
 30
0.0
 10
94.046687
 20
157.174680
 30
0.0
  0
SPLINE
  5
115
100
AcDbEntity
  8
Layer_1
 62
7
100
AcDbSpline
 70
8
 71
3
 72
8
 73
4
 74
0
 40
0
 40
0
 40
0
 40
0
 40
1
 40
1
 40
1
 40
1
 10
94.046687
 20
157.174680
 30
0.0
 10
96.919587
 20
163.972800
 30
0.0
 10
98.756950
 20
175.098780
 30
0.0
 10
102.130350
 20
174.528650
 30
0.0
  0
SPLINE
  5
116
100
AcDbEntity
  8
Layer_1
 62
7
100
AcDbSpline
 70
8
 71
3
 72
8
 73
4
 74
0
 40
0
 40
0
 40
0
 40
0
 40
1
 40
1
 40
1
 40
1
 10
102.130350
 20
174.528650
 30
0.0
 10
102.461240
 20
174.472750
 30
0.0
 10
102.653090
 20
163.136180
 30
0.0
 10
102.940720
 20
157.543630
 30
0.0
  0
SPLINE
  5
117
100
AcDbEntity
  8
Layer_1
 62
7
100
AcDbSpline
 70
8
 71
3
 72
8
 73
4
 74
0
 40
0
 40
0
 40
0
 40
0
 40
1
 40
1
 40
1
 40
1
 10
102.940720
 20
157.543630
 30
0.0
 10
103.252610
 20
151.479450
 30
0.0
 10
106.372530
 20
147.554730
 30
0.0
 10
110.211010
 20
146.140030
 30
0.0
  0
SPLINE
  5
118
100
AcDbEntity
  8
Layer_1
 62
7
100
AcDbSpline
 70
8
 71
3
 72
8
 73
4
 74
0
 40
0
 40
0
 40
0
 40
0
 40
1
 40
1
 40
1
 40
1
 10
110.211010
 20
146.140030
 30
0.0
 10
114.214550
 20
144.664480
 30
0.0
 10
118.788810
 20
145.953740
 30
0.0
 10
118.330150
 20
150.494800
 30
0.0
  0
SPLINE
  5
119
100
AcDbEntity
  8
Layer_1
 62
7
100
AcDbSpline
 70
8
 71
3
 72
8
 73
4
 74
0
 40
0
 40
0
 40
0
 40
0
 40
1
 40
1
 40
1
 40
1
 10
118.330150
 20
150.494800
 30
0.0
 10
118.208550
 20
151.698750
 30
0.0
 10
113.516190
 20
149.298620
 30
0.0
 10
112.757350
 20
156.067380
 30
0.0
  0
SPLINE
  5
11a
100
AcDbEntity
  8
Layer_1
 62
7
100
AcDbSpline
 70
8
 71
3
 72
8
 73
4
 74
0
 40
0
 40
0
 40
0
 40
0
 40
1
 40
1
 40
1
 40
1
 10
112.757350
 20
156.067380
 30
0.0
 10
112.044150
 20
162.429060
 30
0.0
 10
112.114710
 20
173.544750
 30
0.0
 10
113.421730
 20
174.382440
 30
0.0
  0
SPLINE
  5
11b
100
AcDbEntity
  8
Layer_1
 62
7
100
AcDbSpline
 70
8
 71
3
 72
8
 73
4
 74
0
 40
0
 40
0
 40
0
 40
0
 40
1
 40
1
 40
1
 40
1
 10
113.421730
 20
174.382440
 30
0.0
 10
115.173280
 20
175.505040
 30
0.0
 10
119.261860
 20
162.247830
 30
0.0
 10
121.792480
 20
154.865020
 30
0.0
  0
SPLINE
  5
11c
100
AcDbEntity
  8
Layer_1
 62
7
100
AcDbSpline
 70
8
 71
3
 72
8
 73
4
 74
0
 40
0
 40
0
 40
0
 40
0
 40
1
 40
1
 40
1
 40
1
 10
121.792480
 20
154.865020
 30
0.0
 10
126.784540
 20
140.301200
 30
0.0
 10
144.362350
 20
146.973380
 30
0.0
 10
141.837880
 20
156.162180
 30
0.0
  0
SPLINE
  5
11d
100
AcDbEntity
  8
Layer_1
 62
7
100
AcDbSpline
 70
8
 71
3
 72
8
 73
4
 74
0
 40
0
 40
0
 40
0
 40
0
 40
1
 40
1
 40
1
 40
1
 10
141.837880
 20
156.162180
 30
0.0
 10
140.827590
 20
159.839510
 30
0.0
 10
136.563030
 20
161.389370
 30
0.0
 10
136.949870
 20
159.175130
 30
0.0
  0
SPLINE
  5
11e
100
AcDbEntity
  8
Layer_1
 62
7
100
AcDbSpline
 70
8
 71
3
 72
8
 73
4
 74
0
 40
0
 40
0
 40
0
 40
0
 40
1
 40
1
 40
1
 40
1
 10
136.949870
 20
159.175130
 30
0.0
 10
137.338300
 20
156.951820
 30
0.0
 10
134.695700
 20
154.413140
 30
0.0
 10
132.142740
 20
156.670660
 30
0.0
  0
SPLINE
  5
11f
100
AcDbEntity
  8
Layer_1
 62
7
100
AcDbSpline
 70
8
 71
3
 72
8
 73
4
 74
0
 40
0
 40
0
 40
0
 40
0
 40
1
 40
1
 40
1
 40
1
 10
132.142740
 20
156.670660
 30
0.0
 10
130.408460
 20
158.204250
 30
0.0
 10
130.027720
 20
163.880410
 30
0.0
 10
128.560400
 20
168.608040
 30
0.0
  0
SPLINE
  5
120
100
AcDbEntity
  8
Layer_1
 62
7
100
AcDbSpline
 70
8
 71
3
 72
8
 73
4
 74
0
 40
0
 40
0
 40
0
 40
0
 40
1
 40
1
 40
1
 40
1
 10
128.560400
 20
168.608040
 30
0.0
 10
127.024480
 20
173.556710
 30
0.0
 10
124.701330
 20
176.448460
 30
0.0
 10
125.846020
 20
176.888120
 30
0.0
  0
SPLINE
  5
121
100
AcDbEntity
  8
Layer_1
 62
7
100
AcDbSpline
 70
8
 71
3
 72
8
 73
4
 74
0
 40
0
 40
0
 40
0
 40
0
 40
1
 40
1
 40
1
 40
1
 10
125.846020
 20
176.888120
 30
0.0
 10
127.434920
 20
177.498380
 30
0.0
 10
135.025540
 20
168.520360
 30
0.0
 10
138.517060
 20
163.891320
 30
0.0
  0
SPLINE
  5
122
100
AcDbEntity
  8
Layer_1
 62
7
100
AcDbSpline
 70
8
 71
3
 72
8
 73
4
 74
0
 40
0
 40
0
 40
0
 40
0
 40
1
 40
1
 40
1
 40
1
 10
138.517060
 20
163.891320
 30
0.0
 10
152.283710
 20
145.639560
 30
0.0
 10
168.045900
 20
177.574800
 30
0.0
 10
153.611280
 20
181.974800
 30
0.0
  0
SPLINE
  5
123
100
AcDbEntity
  8
Layer_1
 62
7
100
AcDbSpline
 70
8
 71
3
 72
8
 73
4
 74
0
 40
0
 40
0
 40
0
 40
0
 40
1
 40
1
 40
1
 40
1
 10
153.611280
 20
181.974800
 30
0.0
 10
148.089850
 20
183.657860
 30
0.0
 10
144.751800
 20
180.280130
 30
0.0
 10
149.071810
 20
176.844920
 30
0.0
  0
SPLINE
  5
124
100
AcDbEntity
  8
Layer_1
 62
7
100
AcDbSpline
 70
8
 71
3
 72
8
 73
4
 74
0
 40
0
 40
0
 40
0
 40
0
 40
1
 40
1
 40
1
 40
1
 10
149.071810
 20
176.844920
 30
0.0
 10
153.756520
 20
173.119700
 30
0.0
 10
148.136470
 20
167.528640
 30
0.0
 10
143.752700
 20
173.178520
 30
0.0
  0
SPLINE
  5
125
100
AcDbEntity
  8
Layer_1
 62
7
100
AcDbSpline
 70
8
 71
3
 72
8
 73
4
 74
0
 40
0
 40
0
 40
0
 40
0
 40
1
 40
1
 40
1
 40
1
 10
143.752700
 20
173.178520
 30
0.0
 10
139.132800
 20
179.132720
 30
0.0
 10
138.176140
 20
182.288420
 30
0.0
 10
134.793350
 20
184.107210
 30
0.0
  0
SPLINE
  5
126
100
AcDbEntity
  8
Layer_1
 62
7
100
AcDbSpline
 70
8
 71
3
 72
8
 73
4
 74
0
 40
0
 40
0
 40
0
 40
0
 40
1
 40
1
 40
1
 40
1
 10
134.793350
 20
184.107210
 30
0.0
 10
154.595030
 20
181.860610
 30
0.0
 10
160.195160
 20
196.642620
 30
0.0
 10
150.763890
 20
211.455401
 30
0.0
  0
SPLINE
  5
127
100
AcDbEntity
  8
Layer_1
 62
7
100
AcDbSpline
 70
8
 71
3
 72
8
 73
4
 74
0
 40
0
 40
0
 40
0
 40
0
 40
1
 40
1
 40
1
 40
1
 10
150.763890
 20
211.455401
 30
0.0
 10
148.903900
 20
215.517351
 30
0.0
 10
151.304910
 20
217.613467
 30
0.0
 10
155.127970
 20
216.066239
 30
0.0
  0
SPLINE
  5
128
100
AcDbEntity
  8
Layer_1
 62
7
100
AcDbSpline
 70
8
 71
3
 72
8
 73
4
 74
0
 40
0
 40
0
 40
0
 40
0
 40
1
 40
1
 40
1
 40
1
 10
155.127970
 20
216.066239
 30
0.0
 10
158.353080
 20
214.907101
 30
0.0
 10
161.565360
 20
216.880798
 30
0.0
 10
158.070730
 20
221.371947
 30
0.0
  0
SPLINE
  5
129
100
AcDbEntity
  8
Layer_1
 62
7
100
AcDbSpline
 70
8
 71
3
 72
8
 73
4
 74
0
 40
0
 40
0
 40
0
 40
0
 40
1
 40
1
 40
1
 40
1
 10
158.070730
 20
221.371947
 30
0.0
 10
154.712460
 20
225.687854
 30
0.0
 10
148.575020
 20
226.521751
 30
0.0
 10
143.530340
 20
221.516908
 30
0.0
  0
SPLINE
  5
12a
100
AcDbEntity
  8
Layer_1
 62
7
100
AcDbSpline
 70
8
 71
3
 72
8
 73
4
 74
0
 40
0
 40
0
 40
0
 40
0
 40
1
 40
1
 40
1
 40
1
 10
143.530340
 20
221.516908
 30
0.0
 10
139.463600
 20
217.482275
 30
0.0
 10
141.404840
 20
211.517472
 30
0.0
 10
143.397560
 20
204.385290
 30
0.0
  0
SPLINE
  5
12b
100
AcDbEntity
  8
Layer_1
 62
7
100
AcDbSpline
 70
8
 71
3
 72
8
 73
4
 74
0
 40
0
 40
0
 40
0
 40
0
 40
1
 40
1
 40
1
 40
1
 10
143.397560
 20
204.385290
 30
0.0
 10
147.326000
 20
190.324870
 30
0.0
 10
129.554070
 20
193.027360
 30
0.0
 10
132.096330
 20
200.586654
 30
0.0
  0
SPLINE
  5
12c
100
AcDbEntity
  8
Layer_1
 62
7
100
AcDbSpline
 70
8
 71
3
 72
8
 73
4
 74
0
 40
0
 40
0
 40
0
 40
0
 40
1
 40
1
 40
1
 40
1
 10
132.096330
 20
200.586654
 30
0.0
 10
134.330320
 20
207.229330
 30
0.0
 10
138.203290
 20
212.598143
 30
0.0
 10
136.529600
 20
223.695436
 30
0.0
  0
SPLINE
  5
12d
100
AcDbEntity
  8
Layer_1
 62
7
100
AcDbSpline
 70
8
 71
3
 72
8
 73
4
 74
0
 40
0
 40
0
 40
0
 40
0
 40
1
 40
1
 40
1
 40
1
 10
136.529600
 20
223.695436
 30
0.0
 10
132.990480
 20
237.986835
 30
0.0
 10
120.387300
 20
244.404836
 30
0.0
 10
109.678750
 20
244.849388
 30
0.0
  0
SPLINE
  5
12e
100
AcDbEntity
  8
Layer_1
 62
7
100
AcDbSpline
 70
8
 71
3
 72
8
 73
4
 74
0
 40
0
 40
0
 40
0
 40
0
 40
1
 40
1
 40
1
 40
1
 10
94.503276
 20
218.230131
 30
0.0
 10
93.964567
 20
218.244096
 30
0.0
 10
93.425996
 20
218.197467
 30
0.0
 10
92.897689
 20
218.091121
 30
0.0
  0
SPLINE
  5
12f
100
AcDbEntity
  8
Layer_1
 62
7
100
AcDbSpline
 70
8
 71
3
 72
8
 73
4
 74
0
 40
0
 40
0
 40
0
 40
0
 40
1
 40
1
 40
1
 40
1
 10
92.897689
 20
218.091121
 30
0.0
 10
89.001875
 20
217.307498
 30
0.0
 10
86.478001
 20
213.512434
 30
0.0
 10
87.259790
 20
209.613603
 30
0.0
  0
SPLINE
  5
130
100
AcDbEntity
  8
Layer_1
 62
7
100
AcDbSpline
 70
8
 71
3
 72
8
 73
4
 74
0
 40
0
 40
0
 40
0
 40
0
 40
1
 40
1
 40
1
 40
1
 10
87.259790
 20
209.613603
 30
0.0
 10
88.041597
 20
205.714504
 30
0.0
 10
91.833553
 20
203.187536
 30
0.0
 10
95.730074
 20
203.968986
 30
0.0
  0
SPLINE
  5
131
100
AcDbEntity
  8
Layer_1
 62
7
100
AcDbSpline
 70
8
 71
3
 72
8
 73
4
 74
0
 40
0
 40
0
 40
0
 40
0
 40
1
 40
1
 40
1
 40
1
 10
95.730074
 20
203.968986
 30
0.0
 10
99.626803
 20
204.750454
 30
0.0
 10
102.152911
 20
208.544823
 30
0.0
 10
101.372620
 20
212.444438
 30
0.0
  0
LWPOLYLINE
  5
132
100
AcDbEntity
  8
Layer_1
 62
7
100
AcDbPolyline
 90
1
 70
1
 10
109.678750
 20
244.849388
 30
0.0
  0
SPLINE
  5
133
100
AcDbEntity
  8
Layer_1
 62
7
100
AcDbSpline
 70
8
 71
3
 72
8
 73
4
 74
0
 40
0
 40
0
 40
0
 40
0
 40
1
 40
1
 40
1
 40
1
 10
101.370620
 20
212.451138
 30
0.0
 10
100.708490
 20
215.744650
 30
0.0
 10
97.858810
 20
218.142543
 30
0.0
 10
94.502826
 20
218.230113
 30
0.0
  0
LWPOLYLINE
  5
134
100
AcDbEntity
  8
Layer_1
 62
7
100
AcDbPolyline
 90
2
 70
0
 10
101.372620
 20
212.444438
 30
0.0
 10
101.370620
 20
212.451138
 30
0.0
  0
SPLINE
  5
135
100
AcDbEntity
  8
Layer_1
 62
7
100
AcDbSpline
 70
8
 71
3
 72
8
 73
4
 74
0
 40
0
 40
0
 40
0
 40
0
 40
1
 40
1
 40
1
 40
1
 10
96.235470
 20
213.203564
 30
0.0
 10
97.750755
 20
213.164081
 30
0.0
 10
99.037490
 20
212.081474
 30
0.0
 10
99.336572
 20
210.594421
 30
0.0
  0
LWPOLYLINE
  5
136
100
AcDbEntity
  8
Layer_1
 62
7
100
AcDbPolyline
 90
2
 70
0
 10
94.502826
 20
218.230113
 30
0.0
 10
94.503276
 20
218.230131
 30
0.0
  0
SPLINE
  5
137
100
AcDbEntity
  8
Layer_1
 62
7
100
AcDbSpline
 70
8
 71
3
 72
8
 73
4
 74
0
 40
0
 40
0
 40
0
 40
0
 40
1
 40
1
 40
1
 40
1
 10
99.337089
 20
210.591321
 30
0.0
 10
99.689556
 20
208.830491
 30
0.0
 10
98.548984
 20
207.117086
 30
0.0
 10
96.789441
 20
206.764164
 30
0.0
  0
SPLINE
  5
138
100
AcDbEntity
  8
Layer_1
 62
7
100
AcDbSpline
 70
8
 71
3
 72
8
 73
4
 74
0
 40
0
 40
0
 40
0
 40
0
 40
1
 40
1
 40
1
 40
1
 10
96.789441
 20
206.764164
 30
0.0
 10
95.030062
 20
206.411333
 30
0.0
 10
93.317901
 20
207.552311
 30
0.0
 10
92.964868
 20
209.312846
 30
0.0
  0
SPLINE
  5
139
100
AcDbEntity
  8
Layer_1
 62
7
100
AcDbSpline
 70
8
 71
3
 72
8
 73
4
 74
0
 40
0
 40
0
 40
0
 40
0
 40
1
 40
1
 40
1
 40
1
 10
92.964868
 20
209.312846
 30
0.0
 10
92.611688
 20
211.073533
 30
0.0
 10
93.751566
 20
212.787400
 30
0.0
 10
95.510966
 20
213.141036
 30
0.0
  0
SPLINE
  5
13a
100
AcDbEntity
  8
Layer_1
 62
7
100
AcDbSpline
 70
8
 71
3
 72
8
 73
4
 74
0
 40
0
 40
0
 40
0
 40
0
 40
1
 40
1
 40
1
 40
1
 10
95.510966
 20
213.141036
 30
0.0
 10
95.749369
 20
213.188940
 30
0.0
 10
95.992391
 20
213.209914
 30
0.0
 10
96.235470
 20
213.203566
 30
0.0
  0
LWPOLYLINE
  5
13b
100
AcDbEntity
  8
Layer_1
 62
7
100
AcDbPolyline
 90
2
 70
0
 10
99.336572
 20
210.594421
 30
0.0
 10
99.337089
 20
210.591321
 30
0.0
  0
SPLINE
  5
13c
100
AcDbEntity
  8
Layer_1
 62
7
100
AcDbSpline
 70
8
 71
3
 72
8
 73
4
 74
0
 40
0
 40
0
 40
0
 40
0
 40
1
 40
1
 40
1
 40
1
 10
122.651940
 20
218.399113
 30
0.0
 10
122.113423
 20
218.413209
 30
0.0
 10
121.575027
 20
218.366754
 30
0.0
 10
121.046870
 20
218.260620
 30
0.0
  0
SPLINE
  5
13d
100
AcDbEntity
  8
Layer_1
 62
7
100
AcDbSpline
 70
8
 71
3
 72
8
 73
4
 74
0
 40
0
 40
0
 40
0
 40
0
 40
1
 40
1
 40
1
 40
1
 10
121.046870
 20
218.260620
 30
0.0
 10
117.150604
 20
217.477245
 30
0.0
 10
114.626374
 20
213.681758
 30
0.0
 10
115.408460
 20
209.782585
 30
0.0
  0
SPLINE
  5
13e
100
AcDbEntity
  8
Layer_1
 62
7
100
AcDbSpline
 70
8
 71
3
 72
8
 73
4
 74
0
 40
0
 40
0
 40
0
 40
0
 40
1
 40
1
 40
1
 40
1
 10
115.408460
 20
209.782585
 30
0.0
 10
116.190502
 20
205.883452
 30
0.0
 10
119.982727
 20
203.356691
 30
0.0
 10
123.879260
 20
204.138485
 30
0.0
  0
SPLINE
  5
13f
100
AcDbEntity
  8
Layer_1
 62
7
100
AcDbSpline
 70
8
 71
3
 72
8
 73
4
 74
0
 40
0
 40
0
 40
0
 40
0
 40
1
 40
1
 40
1
 40
1
 10
123.879260
 20
204.138485
 30
0.0
 10
127.775535
 20
204.920204
 30
0.0
 10
130.301284
 20
208.714150
 30
0.0
 10
129.521290
 20
212.613420
 30
0.0
  0
LWPOLYLINE
  5
140
100
AcDbEntity
  8
Layer_1
 62
7
100
AcDbPolyline
 90
1
 70
1
 10
96.235470
 20
213.203566
 30
0.0
  0
SPLINE
  5
141
100
AcDbEntity
  8
Layer_1
 62
7
100
AcDbSpline
 70
8
 71
3
 72
8
 73
4
 74
0
 40
0
 40
0
 40
0
 40
0
 40
1
 40
1
 40
1
 40
1
 10
129.520290
 20
212.620620
 30
0.0
 10
128.857905
 20
215.914115
 30
0.0
 10
126.007996
 20
218.311803
 30
0.0
 10
122.651970
 20
218.399079
 30
0.0
  0
LWPOLYLINE
  5
142
100
AcDbEntity
  8
Layer_1
 62
7
100
AcDbPolyline
 90
2
 70
0
 10
129.521290
 20
212.613420
 30
0.0
 10
129.520290
 20
212.620620
 30
0.0
  0
SPLINE
  5
143
100
AcDbEntity
  8
Layer_1
 62
7
100
AcDbSpline
 70
8
 71
3
 72
8
 73
4
 74
0
 40
0
 40
0
 40
0
 40
0
 40
1
 40
1
 40
1
 40
1
 10
120.696510
 20
213.261442
 30
0.0
 10
122.211795
 20
213.221958
 30
0.0
 10
123.498529
 20
212.139351
 30
0.0
 10
123.797610
 20
210.652299
 30
0.0
  0
LWPOLYLINE
  5
144
100
AcDbEntity
  8
Layer_1
 62
7
100
AcDbPolyline
 90
1
 70
1
 10
122.651970
 20
218.399079
 30
0.0
  0
SPLINE
  5
145
100
AcDbEntity
  8
Layer_1
 62
7
100
AcDbSpline
 70
8
 71
3
 72
8
 73
4
 74
0
 40
0
 40
0
 40
0
 40
0
 40
1
 40
1
 40
1
 40
1
 10
123.798130
 20
210.648699
 30
0.0
 10
124.150276
 20
208.888046
 30
0.0
 10
123.009780
 20
207.174989
 30
0.0
 10
121.250480
 20
206.822059
 30
0.0
  0
SPLINE
  5
146
100
AcDbEntity
  8
Layer_1
 62
7
100
AcDbSpline
 70
8
 71
3
 72
8
 73
4
 74
0
 40
0
 40
0
 40
0
 40
0
 40
1
 40
1
 40
1
 40
1
 10
121.250480
 20
206.822059
 30
0.0
 10
119.491102
 20
206.469230
 30
0.0
 10
117.778944
 20
207.610207
 30
0.0
 10
117.425910
 20
209.370740
 30
0.0
  0
SPLINE
  5
147
100
AcDbEntity
  8
Layer_1
 62
7
100
AcDbSpline
 70
8
 71
3
 72
8
 73
4
 74
0
 40
0
 40
0
 40
0
 40
0
 40
1
 40
1
 40
1
 40
1
 10
117.425910
 20
209.370740
 30
0.0
 10
117.072705
 20
211.131261
 30
0.0
 10
118.212301
 20
212.845051
 30
0.0
 10
119.971490
 20
213.198931
 30
0.0
  0
SPLINE
  5
148
100
AcDbEntity
  8
Layer_1
 62
7
100
AcDbSpline
 70
8
 71
3
 72
8
 73
4
 74
0
 40
0
 40
0
 40
0
 40
0
 40
1
 40
1
 40
1
 40
1
 10
119.971490
 20
213.198931
 30
0.0
 10
120.210062
 20
213.246873
 30
0.0
 10
120.453259
 20
213.267848
 30
0.0
 10
120.696510
 20
213.261461
 30
0.0
  0
LWPOLYLINE
  5
149
100
AcDbEntity
  8
Layer_1
 62
7
100
AcDbPolyline
 90
2
 70
0
 10
123.797610
 20
210.652299
 30
0.0
 10
123.798130
 20
210.648699
 30
0.0
  0
LWPOLYLINE
  5
14a
100
AcDbEntity
  8
Layer_1
 62
7
100
AcDbPolyline
 90
1
 70
1
 10
120.696510
 20
213.261461
 30
0.0
  0
ENDSEC
  0
SECTION
  2
OBJECTS
  0
DICTIONARY
  5
C
330
0
100
AcDbDictionary
  3
ACAD_GROUP
350
D
  3
ACAD_MLINESTYLE
350
17
  0
DICTIONARY
  5
D
330
C
100
AcDbDictionary
  0
DICTIONARY
  5
1A
330
C
100
AcDbDictionary
  0
DICTIONARY
  5
17
330
C
100
AcDbDictionary
  3
STANDARD
350
18
  0
DICTIONARY
  5
19
330
C
100
AcDbDictionary
  0
ENDSEC
  0
EOF
