  0
SECTION
  2
HEADER
  9
$ACADVER
  1
AC1014
  9
$HANDSEED
  5
FFFF
  9
$INSUNITS
 70
     4
  9
$MEASUREMENT
 70
     1
  0
ENDSEC
  0
SECTION
  2
TABLES
  0
TABLE
  2
VPORT
  5
8
330
0
100
AcDbSymbolTable
 70
     4
  0
VPORT
  5
2E
330
8
100
AcDbSymbolTableRecord
100
AcDbViewportTableRecord
  2
*ACTIVE
 70
     0
 10
0.0
 20
0.0
 11
1.0
 21
1.0
 12
210.0
 22
148.5
 13
0.0
 23
0.0
 14
10.0
 24
10.0
 15
10.0
 25
10.0
 16
0.0
 26
0.0
 36
1.0
 17
0.0
 27
0.0
 37
0.0
 40
341.0
 41
1.24
 42
50.0
 43
0.0
 44
0.0
 50
0.0
 51
0.0
 71
     0
 72
   100
 73
     1
 74
     3
 75
     0
 76
     0
 77
     0
 78
     0
  0
ENDTAB
  0
TABLE
  2
LTYPE
  5
5
330
0
100
AcDbSymbolTable
 70
     1
  0
LTYPE
  5
14
330
5
100
AcDbSymbolTableRecord
100
AcDbLinetypeTableRecord
  2
BYBLOCK
 70
     0
  3

 72
    65
 73
     0
 40
0.0
  0
LTYPE
  5
15
330
5
100
AcDbSymbolTableRecord
100
AcDbLinetypeTableRecord
  2
BYLAYER
 70
     0
  3

 72
    65
 73
     0
 40
0.0
  0
LTYPE
  5
16
330
5
100
AcDbSymbolTableRecord
100
AcDbLinetypeTableRecord
  2
CONTINUOUS
 70
     0
  3
Solid line
 72
    65
 73
     0
 40
0.0
  0
ENDTAB
  0
TABLE
  2
LAYER
  5
2
100
AcDbSymbolTable
 70
3
  0
LAYER
  5
50
100
AcDbSymbolTableRecord
100
AcDbLayerTableRecord
  2
0
 70
0
  6
CONTINUOUS
  0
LAYER
  5
51
100
AcDbSymbolTableRecord
100
AcDbLayerTableRecord
  2
Image
 70
0
  6
CONTINUOUS
  0
LAYER
  5
52
100
AcDbSymbolTableRecord
100
AcDbLayerTableRecord
  2
Layer_2
 70
0
  6
CONTINUOUS
  0
ENDTAB
  0
TABLE
  2
STYLE
  5
3
330
0
100
AcDbSymbolTable
 70
     1
  0
STYLE
  5
11
330
3
100
AcDbSymbolTableRecord
100
AcDbTextStyleTableRecord
  2
STANDARD
 70
     0
 40
0.0
 41
1.0
 50
0.0
 71
     0
 42
2.5
  3
txt
  4

  0
ENDTAB
  0
TABLE
  2
VIEW
  5
6
330
0
100
AcDbSymbolTable
 70
     0
  0
ENDTAB
  0
TABLE
  2
UCS
  5
7
330
0
100
AcDbSymbolTable
 70
     0
  0
ENDTAB
  0
TABLE
  2
APPID
  5
9
330
0
100
AcDbSymbolTable
 70
     2
  0
APPID
  5
12
330
9
100
AcDbSymbolTableRecord
100
AcDbRegAppTableRecord
  2
ACAD
 70
     0
  0
ENDTAB
  0
TABLE
  2
DIMSTYLE
  5
A
330
0
100
AcDbSymbolTable
 70
     1
  0
DIMSTYLE
105
27
330
A
100
AcDbSymbolTableRecord
100
AcDbDimStyleTableRecord
  2
ISO-25
 70
     0
  3

  4

  5

  6

  7

 40
1.0
 41
2.5
 42
0.625
 43
3.75
 44
1.25
 45
0.0
 46
0.0
 47
0.0
 48
0.0
140
2.5
141
2.5
142
0.0
143
0.03937007874016
144
1.0
145
0.0
146
1.0
147
0.625
 71
     0
 72
     0
 73
     0
 74
     0
 75
     0
 76
     0
 77
     1
 78
     8
170
     0
171
     3
172
     1
173
     0
174
     0
175
     0
176
     0
177
     0
178
     0
270
     2
271
     2
272
     2
273
     2
274
     3
340
11
275
     0
280
     0
281
     0
282
     0
283
     0
284
     8
285
     0
286
     0
287
     3
288
     0
  0
ENDTAB
  0
TABLE
  2
BLOCK_RECORD
  5
1
330
0
100
AcDbSymbolTable
 70
     1
  0
BLOCK_RECORD
  5
1F
330
1
100
AcDbSymbolTableRecord
100
AcDbBlockTableRecord
  2
*MODEL_SPACE
  0
BLOCK_RECORD
  5
1B
330
1
100
AcDbSymbolTableRecord
100
AcDbBlockTableRecord
  2
*PAPER_SPACE
  0
ENDTAB
  0
ENDSEC
  0
SECTION
  2
BLOCKS
  0
BLOCK
  5
20
330
1F
100
AcDbEntity
  8
0
100
AcDbBlockBegin
  2
*MODEL_SPACE
 70
     0
 10
0.0
 20
0.0
 30
0.0
  3
*MODEL_SPACE
  1

  0
ENDBLK
  5
21
330
1F
100
AcDbEntity
  8
0
100
AcDbBlockEnd
  0
BLOCK
  5
1C
330
1B
100
AcDbEntity
 67
     1
  8
0
100
AcDbBlockBegin
  2
*PAPER_SPACE
  1

  0
ENDBLK
  5
1D
330
1B
100
AcDbEntity
 67
     1
  8
0
100
AcDbBlockEnd
  0
ENDSEC
  0
SECTION
  2
ENTITIES
  0
SPLINE
  5
100
100
AcDbEntity
  8
Layer_2
 62
2
100
AcDbSpline
 70
8
 71
3
 72
8
 73
4
 74
0
 40
0
 40
0
 40
0
 40
0
 40
1
 40
1
 40
1
 40
1
 10
-279.932075
 20
252.996628
 30
0.0
 10
-280.127167
 20
251.621871
 30
0.0
 10
-281.656634
 20
240.828958
 30
0.0
 10
-281.918363
 20
239.231470
 30
0.0
  0
SPLINE
  5
101
100
AcDbEntity
  8
Layer_2
 62
2
100
AcDbSpline
 70
8
 71
3
 72
8
 73
4
 74
0
 40
0
 40
0
 40
0
 40
0
 40
1
 40
1
 40
1
 40
1
 10
-281.918363
 20
239.231470
 30
0.0
 10
-282.048185
 20
238.439097
 30
0.0
 10
-284.183367
 20
237.838325
 30
0.0
 10
-284.845272
 20
236.741740
 30
0.0
  0
SPLINE
  5
102
100
AcDbEntity
  8
Layer_2
 62
2
100
AcDbSpline
 70
8
 71
3
 72
8
 73
4
 74
0
 40
0
 40
0
 40
0
 40
0
 40
1
 40
1
 40
1
 40
1
 10
-284.845272
 20
236.741740
 30
0.0
 10
-285.445812
 20
235.746815
 30
0.0
 10
-285.874648
 20
234.488120
 30
0.0
 10
-285.606770
 20
233.339563
 30
0.0
  0
SPLINE
  5
103
100
AcDbEntity
  8
Layer_2
 62
2
100
AcDbSpline
 70
8
 71
3
 72
8
 73
4
 74
0
 40
0
 40
0
 40
0
 40
0
 40
1
 40
1
 40
1
 40
1
 10
-285.606770
 20
233.339563
 30
0.0
 10
-285.343868
 20
232.482550
 30
0.0
 10
-284.450255
 20
231.986988
 30
0.0
 10
-283.596528
 20
231.927162
 30
0.0
  0
SPLINE
  5
104
100
AcDbEntity
  8
Layer_2
 62
2
100
AcDbSpline
 70
8
 71
3
 72
8
 73
4
 74
0
 40
0
 40
0
 40
0
 40
0
 40
1
 40
1
 40
1
 40
1
 10
-283.596528
 20
231.927162
 30
0.0
 10
-282.153307
 20
231.721738
 30
0.0
 10
-280.693356
 20
231.883749
 30
0.0
 10
-279.242576
 20
231.866025
 30
0.0
  0
SPLINE
  5
105
100
AcDbEntity
  8
Layer_2
 62
2
100
AcDbSpline
 70
8
 71
3
 72
8
 73
4
 74
0
 40
0
 40
0
 40
0
 40
0
 40
1
 40
1
 40
1
 40
1
 10
-279.242576
 20
231.866025
 30
0.0
 10
-278.378226
 20
231.877577
 30
0.0
 10
-277.456433
 20
232.047730
 30
0.0
 10
-276.811336
 20
232.669581
 30
0.0
  0
SPLINE
  5
106
100
AcDbEntity
  8
Layer_2
 62
2
100
AcDbSpline
 70
8
 71
3
 72
8
 73
4
 74
0
 40
0
 40
0
 40
0
 40
0
 40
1
 40
1
 40
1
 40
1
 10
-276.811336
 20
232.669581
 30
0.0
 10
-276.399965
 20
233.010883
 30
0.0
 10
-276.143178
 20
233.490877
 30
0.0
 10
-275.923866
 20
233.965714
 30
0.0
  0
SPLINE
  5
107
100
AcDbEntity
  8
Layer_2
 62
2
100
AcDbSpline
 70
8
 71
3
 72
8
 73
4
 74
0
 40
0
 40
0
 40
0
 40
0
 40
1
 40
1
 40
1
 40
1
 10
-290.041602
 20
253.482642
 30
0.0
 10
-290.212655
 20
251.191503
 30
0.0
 10
-289.881894
 20
243.227389
 30
0.0
 10
-289.786007
 20
241.002802
 30
0.0
  0
SPLINE
  5
108
100
AcDbEntity
  8
Layer_2
 62
2
100
AcDbSpline
 70
8
 71
3
 72
8
 73
4
 74
0
 40
0
 40
0
 40
0
 40
0
 40
1
 40
1
 40
1
 40
1
 10
-289.786007
 20
241.002802
 30
0.0
 10
-289.713694
 20
239.325121
 30
0.0
 10
-289.946504
 20
236.569620
 30
0.0
 10
-290.372536
 20
234.931669
 30
0.0
  0
SPLINE
  5
109
100
AcDbEntity
  8
Layer_2
 62
2
100
AcDbSpline
 70
8
 71
3
 72
8
 73
4
 74
0
 40
0
 40
0
 40
0
 40
0
 40
1
 40
1
 40
1
 40
1
 10
-290.372536
 20
234.931669
 30
0.0
 10
-290.671536
 20
233.571801
 30
0.0
 10
-291.770177
 20
232.333867
 30
0.0
 10
-293.182239
 20
232.121066
 30
0.0
  0
SPLINE
  5
10a
100
AcDbEntity
  8
Layer_2
 62
2
100
AcDbSpline
 70
8
 71
3
 72
8
 73
4
 74
0
 40
0
 40
0
 40
0
 40
0
 40
1
 40
1
 40
1
 40
1
 10
-293.182239
 20
232.121066
 30
0.0
 10
-293.967126
 20
231.986486
 30
0.0
 10
-294.775795
 20
232.006860
 30
0.0
 10
-295.611913
 20
231.995160
 30
0.0
  0
SPLINE
  5
10b
100
AcDbEntity
  8
Layer_2
 62
2
100
AcDbSpline
 70
8
 71
3
 72
8
 73
4
 74
0
 40
0
 40
0
 40
0
 40
0
 40
1
 40
1
 40
1
 40
1
 10
-295.611913
 20
231.995160
 30
0.0
 10
-296.678801
 20
232.029080
 30
0.0
 10
-297.776589
 20
231.931332
 30
0.0
 10
-298.823464
 20
232.042463
 30
0.0
  0
SPLINE
  5
10c
100
AcDbEntity
  8
Layer_2
 62
2
100
AcDbSpline
 70
8
 71
3
 72
8
 73
4
 74
0
 40
0
 40
0
 40
0
 40
0
 40
1
 40
1
 40
1
 40
1
 10
-298.823464
 20
232.042463
 30
0.0
 10
-299.740005
 20
232.074464
 30
0.0
 10
-300.631709
 20
232.670087
 30
0.0
 10
-300.950485
 20
233.545248
 30
0.0
  0
SPLINE
  5
10d
100
AcDbEntity
  8
Layer_2
 62
2
100
AcDbSpline
 70
8
 71
3
 72
8
 73
4
 74
0
 40
0
 40
0
 40
0
 40
0
 40
1
 40
1
 40
1
 40
1
 10
-300.950485
 20
233.545248
 30
0.0
 10
-301.313206
 20
234.615845
 30
0.0
 10
-300.872565
 20
235.794450
 30
0.0
 10
-300.193549
 20
236.641398
 30
0.0
  0
SPLINE
  5
10e
100
AcDbEntity
  8
Layer_2
 62
2
100
AcDbSpline
 70
8
 71
3
 72
8
 73
4
 74
0
 40
0
 40
0
 40
0
 40
0
 40
1
 40
1
 40
1
 40
1
 10
-300.193549
 20
236.641398
 30
0.0
 10
-299.677871
 20
237.361133
 30
0.0
 10
-298.846149
 20
237.726954
 30
0.0
 10
-298.208072
 20
238.313609
 30
0.0
  0
SPLINE
  5
10f
100
AcDbEntity
  8
Layer_2
 62
2
100
AcDbSpline
 70
8
 71
3
 72
8
 73
4
 74
0
 40
0
 40
0
 40
0
 40
0
 40
1
 40
1
 40
1
 40
1
 10
-298.208072
 20
238.313609
 30
0.0
 10
-297.762445
 20
238.673735
 30
0.0
 10
-297.551467
 20
239.238524
 30
0.0
 10
-297.531204
 20
239.799186
 30
0.0
  0
SPLINE
  5
110
100
AcDbEntity
  8
Layer_2
 62
2
100
AcDbSpline
 70
8
 71
3
 72
8
 73
4
 74
0
 40
0
 40
0
 40
0
 40
0
 40
1
 40
1
 40
1
 40
1
 10
-297.531204
 20
239.799186
 30
0.0
 10
-297.423779
 20
242.511677
 30
0.0
 10
-297.586568
 20
245.226791
 30
0.0
 10
-297.774504
 20
247.932313
 30
0.0
  0
SPLINE
  5
111
100
AcDbEntity
  8
Layer_2
 62
2
100
AcDbSpline
 70
8
 71
3
 72
8
 73
4
 74
0
 40
0
 40
0
 40
0
 40
0
 40
1
 40
1
 40
1
 40
1
 10
-297.774504
 20
247.932313
 30
0.0
 10
-297.979148
 20
251.219934
 30
0.0
 10
-298.331734
 20
254.499454
 30
0.0
 10
-298.454956
 20
257.785917
 30
0.0
  0
SPLINE
  5
112
100
AcDbEntity
  8
Layer_2
 62
2
100
AcDbSpline
 70
8
 71
3
 72
8
 73
4
 74
0
 40
0
 40
0
 40
0
 40
0
 40
1
 40
1
 40
1
 40
1
 10
-298.454956
 20
257.785917
 30
0.0
 10
-298.622702
 20
260.659218
 30
0.0
 10
-297.986885
 20
263.490284
 30
0.0
 10
-297.365163
 20
266.270266
 30
0.0
  0
SPLINE
  5
113
100
AcDbEntity
  8
Layer_2
 62
2
100
AcDbSpline
 70
8
 71
3
 72
8
 73
4
 74
0
 40
0
 40
0
 40
0
 40
0
 40
1
 40
1
 40
1
 40
1
 10
-297.365163
 20
266.270266
 30
0.0
 10
-296.588255
 20
268.363784
 30
0.0
 10
-297.937585
 20
268.102908
 30
0.0
 10
-298.852265
 20
268.426161
 30
0.0
  0
SPLINE
  5
114
100
AcDbEntity
  8
Layer_2
 62
2
100
AcDbSpline
 70
8
 71
3
 72
8
 73
4
 74
0
 40
0
 40
0
 40
0
 40
0
 40
1
 40
1
 40
1
 40
1
 10
-298.852265
 20
268.426161
 30
0.0
 10
-312.790436
 20
273.351974
 30
0.0
 10
-315.195577
 20
281.663967
 30
0.0
 10
-309.297845
 20
295.332836
 30
0.0
  0
SPLINE
  5
115
100
AcDbEntity
  8
Layer_2
 62
2
100
AcDbSpline
 70
8
 71
3
 72
8
 73
4
 74
0
 40
0
 40
0
 40
0
 40
0
 40
1
 40
1
 40
1
 40
1
 10
-309.297845
 20
295.332836
 30
0.0
 10
-308.972798
 20
296.160753
 30
0.0
 10
-308.090550
 20
297.618192
 30
0.0
 10
-307.894406
 20
298.494699
 30
0.0
  0
SPLINE
  5
116
100
AcDbEntity
  8
Layer_2
 62
2
100
AcDbSpline
 70
8
 71
3
 72
8
 73
4
 74
0
 40
0
 40
0
 40
0
 40
0
 40
1
 40
1
 40
1
 40
1
 10
-307.894406
 20
298.494699
 30
0.0
 10
-307.872334
 20
299.426679
 30
0.0
 10
-308.150539
 20
300.343552
 30
0.0
 10
-308.247641
 20
301.239122
 30
0.0
  0
SPLINE
  5
117
100
AcDbEntity
  8
Layer_2
 62
2
100
AcDbSpline
 70
8
 71
3
 72
8
 73
4
 74
0
 40
0
 40
0
 40
0
 40
0
 40
1
 40
1
 40
1
 40
1
 10
-308.247641
 20
301.239122
 30
0.0
 10
-308.479126
 20
304.198855
 30
0.0
 10
-308.466961
 20
307.201325
 30
0.0
 10
-307.988842
 20
310.136330
 30
0.0
  0
SPLINE
  5
118
100
AcDbEntity
  8
Layer_2
 62
2
100
AcDbSpline
 70
8
 71
3
 72
8
 73
4
 74
0
 40
0
 40
0
 40
0
 40
0
 40
1
 40
1
 40
1
 40
1
 10
-307.988842
 20
310.136330
 30
0.0
 10
-307.637040
 20
312.265368
 30
0.0
 10
-307.090056
 20
314.344707
 30
0.0
 10
-306.232973
 20
316.317130
 30
0.0
  0
SPLINE
  5
119
100
AcDbEntity
  8
Layer_2
 62
2
100
AcDbSpline
 70
8
 71
3
 72
8
 73
4
 74
0
 40
0
 40
0
 40
0
 40
0
 40
1
 40
1
 40
1
 40
1
 10
-306.232973
 20
316.317130
 30
0.0
 10
-305.945772
 20
316.911876
 30
0.0
 10
-305.706259
 20
317.674088
 30
0.0
 10
-305.019499
 20
317.912556
 30
0.0
  0
SPLINE
  5
11a
100
AcDbEntity
  8
Layer_2
 62
2
100
AcDbSpline
 70
8
 71
3
 72
8
 73
4
 74
0
 40
0
 40
0
 40
0
 40
0
 40
1
 40
1
 40
1
 40
1
 10
-305.019484
 20
317.912543
 30
0.0
 10
-304.908741
 20
317.919128
 30
0.0
 10
-304.798939
 20
317.915422
 30
0.0
 10
-304.688598
 20
317.904611
 30
0.0
  0
SPLINE
  5
11b
100
AcDbEntity
  8
Layer_2
 62
2
100
AcDbSpline
 70
8
 71
3
 72
8
 73
4
 74
0
 40
0
 40
0
 40
0
 40
0
 40
1
 40
1
 40
1
 40
1
 10
-304.688598
 20
317.904611
 30
0.0
 10
-303.912889
 20
317.768631
 30
0.0
 10
-303.205412
 20
317.385590
 30
0.0
 10
-302.507911
 20
317.035220
 30
0.0
  0
SPLINE
  5
11c
100
AcDbEntity
  8
Layer_2
 62
2
100
AcDbSpline
 70
8
 71
3
 72
8
 73
4
 74
0
 40
0
 40
0
 40
0
 40
0
 40
1
 40
1
 40
1
 40
1
 10
-302.507911
 20
317.035220
 30
0.0
 10
-299.449110
 20
315.326623
 30
0.0
 10
-296.848090
 20
312.931482
 30
0.0
 10
-294.392054
 20
310.460432
 30
0.0
  0
SPLINE
  5
11d
100
AcDbEntity
  8
Layer_2
 62
2
100
AcDbSpline
 70
8
 71
3
 72
8
 73
4
 74
0
 40
0
 40
0
 40
0
 40
0
 40
1
 40
1
 40
1
 40
1
 10
-294.392054
 20
310.460432
 30
0.0
 10
-293.912644
 20
310.025492
 30
0.0
 10
-293.519137
 20
309.497438
 30
0.0
 10
-292.995129
 20
309.113348
 30
0.0
  0
SPLINE
  5
11e
100
AcDbEntity
  8
Layer_2
 62
2
100
AcDbSpline
 70
8
 71
3
 72
8
 73
4
 74
0
 40
0
 40
0
 40
0
 40
0
 40
1
 40
1
 40
1
 40
1
 10
-292.995129
 20
309.113348
 30
0.0
 10
-292.617464
 20
308.801751
 30
0.0
 10
-292.096058
 20
308.843417
 30
0.0
 10
-291.663254
 20
309.000833
 30
0.0
  0
SPLINE
  5
11f
100
AcDbEntity
  8
Layer_2
 62
2
100
AcDbSpline
 70
8
 71
3
 72
8
 73
4
 74
0
 40
0
 40
0
 40
0
 40
0
 40
1
 40
1
 40
1
 40
1
 10
-291.663254
 20
309.000833
 30
0.0
 10
-288.945260
 20
309.889385
 30
0.0
 10
-286.166761
 20
310.531558
 30
0.0
 10
-283.320736
 20
310.785115
 30
0.0
  0
SPLINE
  5
120
100
AcDbEntity
  8
Layer_2
 62
2
100
AcDbSpline
 70
8
 71
3
 72
8
 73
4
 74
0
 40
0
 40
0
 40
0
 40
0
 40
1
 40
1
 40
1
 40
1
 10
-283.320736
 20
310.785115
 30
0.0
 10
-281.087221
 20
310.948678
 30
0.0
 10
-278.754241
 20
310.961598
 30
0.0
 10
-276.500370
 20
310.720297
 30
0.0
  0
SPLINE
  5
121
100
AcDbEntity
  8
Layer_2
 62
2
100
AcDbSpline
 70
8
 71
3
 72
8
 73
4
 74
0
 40
0
 40
0
 40
0
 40
0
 40
1
 40
1
 40
1
 40
1
 10
-276.500370
 20
310.720297
 30
0.0
 10
-273.688364
 20
310.396693
 30
0.0
 10
-270.897024
 20
309.692568
 30
0.0
 10
-268.240467
 20
308.697421
 30
0.0
  0
SPLINE
  5
122
100
AcDbEntity
  8
Layer_2
 62
2
100
AcDbSpline
 70
8
 71
3
 72
8
 73
4
 74
0
 40
0
 40
0
 40
0
 40
0
 40
1
 40
1
 40
1
 40
1
 10
-268.240467
 20
308.697421
 30
0.0
 10
-267.838031
 20
308.991058
 30
0.0
 10
-267.441044
 20
309.293065
 30
0.0
 10
-267.071185
 20
309.627368
 30
0.0
  0
SPLINE
  5
123
100
AcDbEntity
  8
Layer_2
 62
2
100
AcDbSpline
 70
8
 71
3
 72
8
 73
4
 74
0
 40
0
 40
0
 40
0
 40
0
 40
1
 40
1
 40
1
 40
1
 10
-267.071185
 20
309.627368
 30
0.0
 10
-264.433577
 20
312.171976
 30
0.0
 10
-261.692899
 20
314.683472
 30
0.0
 10
-258.500662
 20
316.496444
 30
0.0
  0
SPLINE
  5
124
100
AcDbEntity
  8
Layer_2
 62
2
100
AcDbSpline
 70
8
 71
3
 72
8
 73
4
 74
0
 40
0
 40
0
 40
0
 40
0
 40
1
 40
1
 40
1
 40
1
 10
-258.500662
 20
316.496444
 30
0.0
 10
-257.708330
 20
316.895266
 30
0.0
 10
-256.967530
 20
317.447991
 30
0.0
 10
-256.082680
 20
317.624186
 30
0.0
  0
SPLINE
  5
125
100
AcDbEntity
  8
Layer_2
 62
2
100
AcDbSpline
 70
8
 71
3
 72
8
 73
4
 74
0
 40
0
 40
0
 40
0
 40
0
 40
1
 40
1
 40
1
 40
1
 10
-256.082680
 20
317.624186
 30
0.0
 10
-255.731088
 20
317.731552
 30
0.0
 10
-255.341497
 20
317.603180
 30
0.0
 10
-255.139037
 20
317.290414
 30
0.0
  0
SPLINE
  5
126
100
AcDbEntity
  8
Layer_2
 62
2
100
AcDbSpline
 70
8
 71
3
 72
8
 73
4
 74
0
 40
0
 40
0
 40
0
 40
0
 40
1
 40
1
 40
1
 40
1
 10
-255.139037
 20
317.290414
 30
0.0
 10
-254.109100
 20
315.527487
 30
0.0
 10
-253.609637
 20
313.516498
 30
0.0
 10
-253.228934
 20
311.527075
 30
0.0
  0
SPLINE
  5
127
100
AcDbEntity
  8
Layer_2
 62
2
100
AcDbSpline
 70
8
 71
3
 72
8
 73
4
 74
0
 40
0
 40
0
 40
0
 40
0
 40
1
 40
1
 40
1
 40
1
 10
-253.228934
 20
311.527075
 30
0.0
 10
-252.576562
 20
307.961871
 30
0.0
 10
-252.454222
 20
304.315601
 30
0.0
 10
-252.896907
 20
300.722380
 30
0.0
  0
SPLINE
  5
128
100
AcDbEntity
  8
Layer_2
 62
2
100
AcDbSpline
 70
8
 71
3
 72
8
 73
4
 74
0
 40
0
 40
0
 40
0
 40
0
 40
1
 40
1
 40
1
 40
1
 10
-252.896907
 20
300.722380
 30
0.0
 10
-252.954427
 20
299.692549
 30
0.0
 10
-253.364949
 20
298.662308
 30
0.0
 10
-253.103689
 20
297.630962
 30
0.0
  0
SPLINE
  5
129
100
AcDbEntity
  8
Layer_2
 62
2
100
AcDbSpline
 70
8
 71
3
 72
8
 73
4
 74
0
 40
0
 40
0
 40
0
 40
0
 40
1
 40
1
 40
1
 40
1
 10
-253.103689
 20
297.630962
 30
0.0
 10
-252.618373
 20
296.399186
 30
0.0
 10
-251.973649
 20
295.233729
 30
0.0
 10
-251.492645
 20
293.998704
 30
0.0
  0
SPLINE
  5
12a
100
AcDbEntity
  8
Layer_2
 62
2
100
AcDbSpline
 70
8
 71
3
 72
8
 73
4
 74
0
 40
0
 40
0
 40
0
 40
0
 40
1
 40
1
 40
1
 40
1
 10
-251.492645
 20
293.998704
 30
0.0
 10
-250.339754
 20
291.265425
 30
0.0
 10
-249.605768
 20
288.274980
 30
0.0
 10
-249.537224
 20
285.331713
 30
0.0
  0
SPLINE
  5
12b
100
AcDbEntity
  8
Layer_2
 62
2
100
AcDbSpline
 70
8
 71
3
 72
8
 73
4
 74
0
 40
0
 40
0
 40
0
 40
0
 40
1
 40
1
 40
1
 40
1
 10
-249.537224
 20
285.331713
 30
0.0
 10
-249.394288
 20
279.194061
 30
0.0
 10
-250.491330
 20
278.072031
 30
0.0
 10
-252.271147
 20
275.288708
 30
0.0
  0
SPLINE
  5
12c
100
AcDbEntity
  8
Layer_2
 62
2
100
AcDbSpline
 70
8
 71
3
 72
8
 73
4
 74
0
 40
0
 40
0
 40
0
 40
0
 40
1
 40
1
 40
1
 40
1
 10
-252.271147
 20
275.288708
 30
0.0
 10
-254.482037
 20
272.132872
 30
0.0
 10
-258.026907
 20
270.349235
 30
0.0
 10
-261.468452
 20
268.775322
 30
0.0
  0
SPLINE
  5
12d
100
AcDbEntity
  8
Layer_2
 62
2
100
AcDbSpline
 70
8
 71
3
 72
8
 73
4
 74
0
 40
0
 40
0
 40
0
 40
0
 40
1
 40
1
 40
1
 40
1
 10
-261.468452
 20
268.775322
 30
0.0
 10
-261.772575
 20
268.636239
 30
0.0
 10
-260.608077
 20
267.990821
 30
0.0
 10
-260.173165
 20
267.603441
 30
0.0
  0
SPLINE
  5
12e
100
AcDbEntity
  8
Layer_2
 62
2
100
AcDbSpline
 70
8
 71
3
 72
8
 73
4
 74
0
 40
0
 40
0
 40
0
 40
0
 40
1
 40
1
 40
1
 40
1
 10
-260.173165
 20
267.603441
 30
0.0
 10
-257.908962
 20
265.949010
 30
0.0
 10
-255.490656
 20
264.462004
 30
0.0
 10
-253.511221
 20
262.451189
 30
0.0
  0
SPLINE
  5
12f
100
AcDbEntity
  8
Layer_2
 62
2
100
AcDbSpline
 70
8
 71
3
 72
8
 73
4
 74
0
 40
0
 40
0
 40
0
 40
0
 40
1
 40
1
 40
1
 40
1
 10
-253.511221
 20
262.451189
 30
0.0
 10
-251.287173
 20
260.148213
 30
0.0
 10
-249.394661
 20
257.519943
 30
0.0
 10
-248.182833
 20
254.545322
 30
0.0
  0
SPLINE
  5
130
100
AcDbEntity
  8
Layer_2
 62
2
100
AcDbSpline
 70
8
 71
3
 72
8
 73
4
 74
0
 40
0
 40
0
 40
0
 40
0
 40
1
 40
1
 40
1
 40
1
 10
-248.182833
 20
254.545322
 30
0.0
 10
-247.181161
 20
252.300940
 30
0.0
 10
-247.438184
 20
249.678424
 30
0.0
 10
-246.443119
 20
247.469497
 30
0.0
  0
SPLINE
  5
131
100
AcDbEntity
  8
Layer_2
 62
2
100
AcDbSpline
 70
8
 71
3
 72
8
 73
4
 74
0
 40
0
 40
0
 40
0
 40
0
 40
1
 40
1
 40
1
 40
1
 10
-246.443119
 20
247.469497
 30
0.0
 10
-246.175591
 20
246.875627
 30
0.0
 10
-245.389998
 20
247.784129
 30
0.0
 10
-244.854504
 20
248.173782
 30
0.0
  0
SPLINE
  5
132
100
AcDbEntity
  8
Layer_2
 62
2
100
AcDbSpline
 70
8
 71
3
 72
8
 73
4
 74
0
 40
0
 40
0
 40
0
 40
0
 40
1
 40
1
 40
1
 40
1
 10
-244.854504
 20
248.173782
 30
0.0
 10
-243.725291
 20
249.202856
 30
0.0
 10
-242.919335
 20
250.549392
 30
0.0
 10
-242.363958
 20
251.963325
 30
0.0
  0
SPLINE
  5
133
100
AcDbEntity
  8
Layer_2
 62
2
100
AcDbSpline
 70
8
 71
3
 72
8
 73
4
 74
0
 40
0
 40
0
 40
0
 40
0
 40
1
 40
1
 40
1
 40
1
 10
-242.363958
 20
251.963325
 30
0.0
 10
-241.345503
 20
254.521925
 30
0.0
 10
-241.356516
 20
257.353489
 30
0.0
 10
-241.719298
 20
260.044243
 30
0.0
  0
SPLINE
  5
134
100
AcDbEntity
  8
Layer_2
 62
2
100
AcDbSpline
 70
8
 71
3
 72
8
 73
4
 74
0
 40
0
 40
0
 40
0
 40
0
 40
1
 40
1
 40
1
 40
1
 10
-241.719298
 20
260.044243
 30
0.0
 10
-242.187071
 20
263.957023
 30
0.0
 10
-243.688825
 20
267.633342
 30
0.0
 10
-244.590033
 20
271.448640
 30
0.0
  0
SPLINE
  5
135
100
AcDbEntity
  8
Layer_2
 62
2
100
AcDbSpline
 70
8
 71
3
 72
8
 73
4
 74
0
 40
0
 40
0
 40
0
 40
0
 40
1
 40
1
 40
1
 40
1
 10
-244.590033
 20
271.448640
 30
0.0
 10
-245.082214
 20
273.312219
 30
0.0
 10
-245.145366
 20
275.250979
 30
0.0
 10
-245.117979
 20
277.167906
 30
0.0
  0
SPLINE
  5
136
100
AcDbEntity
  8
Layer_2
 62
2
100
AcDbSpline
 70
8
 71
3
 72
8
 73
4
 74
0
 40
0
 40
0
 40
0
 40
0
 40
1
 40
1
 40
1
 40
1
 10
-245.117979
 20
277.167906
 30
0.0
 10
-245.125804
 20
279.524729
 30
0.0
 10
-244.467408
 20
281.924113
 30
0.0
 10
-243.183951
 20
283.925228
 30
0.0
  0
SPLINE
  5
137
100
AcDbEntity
  8
Layer_2
 62
2
100
AcDbSpline
 70
8
 71
3
 72
8
 73
4
 74
0
 40
0
 40
0
 40
0
 40
0
 40
1
 40
1
 40
1
 40
1
 10
-243.183951
 20
283.925228
 30
0.0
 10
-242.247972
 20
285.364243
 30
0.0
 10
-240.902123
 20
286.599705
 30
0.0
 10
-239.287115
 20
287.265905
 30
0.0
  0
SPLINE
  5
138
100
AcDbEntity
  8
Layer_2
 62
2
100
AcDbSpline
 70
8
 71
3
 72
8
 73
4
 74
0
 40
0
 40
0
 40
0
 40
0
 40
1
 40
1
 40
1
 40
1
 10
-239.287115
 20
287.265905
 30
0.0
 10
-238.005254
 20
287.780386
 30
0.0
 10
-236.495206
 20
288.050487
 30
0.0
 10
-235.190321
 20
287.464076
 30
0.0
  0
SPLINE
  5
139
100
AcDbEntity
  8
Layer_2
 62
2
100
AcDbSpline
 70
8
 71
3
 72
8
 73
4
 74
0
 40
0
 40
0
 40
0
 40
0
 40
1
 40
1
 40
1
 40
1
 10
-235.190321
 20
287.464076
 30
0.0
 10
-234.182927
 20
287.054249
 30
0.0
 10
-233.725371
 20
285.875534
 30
0.0
 10
-233.829582
 20
284.848254
 30
0.0
  0
SPLINE
  5
13a
100
AcDbEntity
  8
Layer_2
 62
2
100
AcDbSpline
 70
8
 71
3
 72
8
 73
4
 74
0
 40
0
 40
0
 40
0
 40
0
 40
1
 40
1
 40
1
 40
1
 10
-233.829582
 20
284.848254
 30
0.0
 10
-233.892596
 20
283.743818
 30
0.0
 10
-234.664346
 20
282.854003
 30
0.0
 10
-235.493136
 20
282.198122
 30
0.0
  0
SPLINE
  5
13b
100
AcDbEntity
  8
Layer_2
 62
2
100
AcDbSpline
 70
8
 71
3
 72
8
 73
4
 74
0
 40
0
 40
0
 40
0
 40
0
 40
1
 40
1
 40
1
 40
1
 10
-235.493136
 20
282.198122
 30
0.0
 10
-236.392277
 20
281.540875
 30
0.0
 10
-237.258845
 20
280.794464
 30
0.0
 10
-237.828351
 20
279.822218
 30
0.0
  0
SPLINE
  5
13c
100
AcDbEntity
  8
Layer_2
 62
2
100
AcDbSpline
 70
8
 71
3
 72
8
 73
4
 74
0
 40
0
 40
0
 40
0
 40
0
 40
1
 40
1
 40
1
 40
1
 10
-237.828351
 20
279.822218
 30
0.0
 10
-238.901248
 20
278.043825
 30
0.0
 10
-238.991353
 20
275.841668
 30
0.0
 10
-238.568044
 20
273.852279
 30
0.0
  0
SPLINE
  5
13d
100
AcDbEntity
  8
Layer_2
 62
2
100
AcDbSpline
 70
8
 71
3
 72
8
 73
4
 74
0
 40
0
 40
0
 40
0
 40
0
 40
1
 40
1
 40
1
 40
1
 10
-238.568044
 20
273.852279
 30
0.0
 10
-237.943895
 20
271.110933
 30
0.0
 10
-236.836582
 20
268.513526
 30
0.0
 10
-236.011582
 20
265.831383
 30
0.0
  0
SPLINE
  5
13e
100
AcDbEntity
  8
Layer_2
 62
2
100
AcDbSpline
 70
8
 71
3
 72
8
 73
4
 74
0
 40
0
 40
0
 40
0
 40
0
 40
1
 40
1
 40
1
 40
1
 10
-236.011582
 20
265.831383
 30
0.0
 10
-235.151322
 20
263.075469
 30
0.0
 10
-234.615636
 20
260.194369
 30
0.0
 10
-234.585422
 20
257.312305
 30
0.0
  0
SPLINE
  5
13f
100
AcDbEntity
  8
Layer_2
 62
2
100
AcDbSpline
 70
8
 71
3
 72
8
 73
4
 74
0
 40
0
 40
0
 40
0
 40
0
 40
1
 40
1
 40
1
 40
1
 10
-234.585422
 20
257.312305
 30
0.0
 10
-234.575770
 20
254.637267
 30
0.0
 10
-235.000342
 20
251.952134
 30
0.0
 10
-235.881037
 20
249.405437
 30
0.0
  0
SPLINE
  5
140
100
AcDbEntity
  8
Layer_2
 62
2
100
AcDbSpline
 70
8
 71
3
 72
8
 73
4
 74
0
 40
0
 40
0
 40
0
 40
0
 40
1
 40
1
 40
1
 40
1
 10
-235.881037
 20
249.405437
 30
0.0
 10
-236.699690
 20
246.945973
 30
0.0
 10
-238.100623
 20
244.681907
 30
0.0
 10
-239.964896
 20
242.878107
 30
0.0
  0
SPLINE
  5
141
100
AcDbEntity
  8
Layer_2
 62
2
100
AcDbSpline
 70
8
 71
3
 72
8
 73
4
 74
0
 40
0
 40
0
 40
0
 40
0
 40
1
 40
1
 40
1
 40
1
 10
-239.964896
 20
242.878107
 30
0.0
 10
-241.197875
 20
241.705267
 30
0.0
 10
-242.519654
 20
240.680220
 30
0.0
 10
-243.983909
 20
239.817656
 30
0.0
  0
SPLINE
  5
142
100
AcDbEntity
  8
Layer_2
 62
2
100
AcDbSpline
 70
8
 71
3
 72
8
 73
4
 74
0
 40
0
 40
0
 40
0
 40
0
 40
1
 40
1
 40
1
 40
1
 10
-243.983909
 20
239.817656
 30
0.0
 10
-245.215656
 20
239.095695
 30
0.0
 10
-246.533861
 20
238.529359
 30
0.0
 10
-247.920141
 20
238.216038
 30
0.0
  0
SPLINE
  5
143
100
AcDbEntity
  8
Layer_2
 62
2
100
AcDbSpline
 70
8
 71
3
 72
8
 73
4
 74
0
 40
0
 40
0
 40
0
 40
0
 40
1
 40
1
 40
1
 40
1
 10
-247.920141
 20
238.216038
 30
0.0
 10
-248.670747
 20
238.078776
 30
0.0
 10
-249.400762
 20
237.742460
 30
0.0
 10
-249.907562
 20
237.157865
 30
0.0
  0
SPLINE
  5
144
100
AcDbEntity
  8
Layer_2
 62
2
100
AcDbSpline
 70
8
 71
3
 72
8
 73
4
 74
0
 40
0
 40
0
 40
0
 40
0
 40
1
 40
1
 40
1
 40
1
 10
-249.907562
 20
237.157865
 30
0.0
 10
-251.262695
 20
235.457607
 30
0.0
 10
-252.999453
 20
234.018472
 30
0.0
 10
-254.970080
 20
233.123321
 30
0.0
  0
SPLINE
  5
145
100
AcDbEntity
  8
Layer_2
 62
2
100
AcDbSpline
 70
8
 71
3
 72
8
 73
4
 74
0
 40
0
 40
0
 40
0
 40
0
 40
1
 40
1
 40
1
 40
1
 10
-254.970080
 20
233.123321
 30
0.0
 10
-256.280977
 20
232.520592
 30
0.0
 10
-257.634795
 20
232.150501
 30
0.0
 10
-259.068615
 20
232.059021
 30
0.0
  0
SPLINE
  5
146
100
AcDbEntity
  8
Layer_2
 62
2
100
AcDbSpline
 70
8
 71
3
 72
8
 73
4
 74
0
 40
0
 40
0
 40
0
 40
0
 40
1
 40
1
 40
1
 40
1
 10
-259.068615
 20
232.059021
 30
0.0
 10
-262.527633
 20
231.985958
 30
0.0
 10
-265.988459
 20
231.998338
 30
0.0
 10
-269.447968
 20
232.042448
 30
0.0
  0
SPLINE
  5
147
100
AcDbEntity
  8
Layer_2
 62
2
100
AcDbSpline
 70
8
 71
3
 72
8
 73
4
 74
0
 40
0
 40
0
 40
0
 40
0
 40
1
 40
1
 40
1
 40
1
 10
-269.447968
 20
232.042448
 30
0.0
 10
-272.928435
 20
231.808261
 30
0.0
 10
-272.978672
 20
238.536575
 30
0.0
 10
-266.958316
 20
238.875434
 30
0.0
  0
SPLINE
  5
148
100
AcDbEntity
  8
Layer_2
 62
2
100
AcDbSpline
 70
8
 71
3
 72
8
 73
4
 74
0
 40
0
 40
0
 40
0
 40
0
 40
1
 40
1
 40
1
 40
1
 10
-266.958316
 20
238.875434
 30
0.0
 10
-272.166877
 20
243.723844
 30
0.0
 10
-269.036158
 20
258.918540
 30
0.0
 10
-259.490435
 20
258.558661
 30
0.0
  0
SPLINE
  5
149
100
AcDbEntity
  8
Layer_2
 62
2
100
AcDbSpline
 70
8
 71
3
 72
8
 73
4
 74
0
 40
0
 40
0
 40
0
 40
0
 40
1
 40
1
 40
1
 40
1
 10
-304.363650
 20
302.227222
 30
0.0
 10
-301.516518
 20
305.656669
 30
0.0
 10
-297.407575
 20
306.733399
 30
0.0
 10
-296.487067
 20
307.695263
 30
0.0
  0
SPLINE
  5
14a
100
AcDbEntity
  8
Layer_2
 62
2
100
AcDbSpline
 70
8
 71
3
 72
8
 73
4
 74
0
 40
0
 40
0
 40
0
 40
0
 40
1
 40
1
 40
1
 40
1
 10
-296.487067
 20
307.695263
 30
0.0
 10
-296.119821
 20
308.079009
 30
0.0
 10
-302.570203
 20
314.535893
 30
0.0
 10
-303.745239
 20
313.879357
 30
0.0
  0
SPLINE
  5
14b
100
AcDbEntity
  8
Layer_2
 62
2
100
AcDbSpline
 70
8
 71
3
 72
8
 73
4
 74
0
 40
0
 40
0
 40
0
 40
0
 40
1
 40
1
 40
1
 40
1
 10
-303.745239
 20
313.879357
 30
0.0
 10
-305.323069
 20
312.997763
 30
0.0
 10
-305.416206
 20
300.959389
 30
0.0
 10
-304.363650
 20
302.227222
 30
0.0
  0
LWPOLYLINE
  5
14c
100
AcDbEntity
  8
Layer_2
 62
2
100
AcDbPolyline
 90
1
 70
1
 10
-305.019499
 20
317.912556
 30
0.0
  0
SPLINE
  5
14d
100
AcDbEntity
  8
Layer_2
 62
2
100
AcDbSpline
 70
8
 71
3
 72
8
 73
4
 74
0
 40
0
 40
0
 40
0
 40
0
 40
1
 40
1
 40
1
 40
1
 10
-256.522970
 20
301.810062
 30
0.0
 10
-259.355032
 20
305.353099
 30
0.0
 10
-263.597864
 20
306.600512
 30
0.0
 10
-264.519406
 20
307.599356
 30
0.0
  0
SPLINE
  5
14e
100
AcDbEntity
  8
Layer_2
 62
2
100
AcDbSpline
 70
8
 71
3
 72
8
 73
4
 74
0
 40
0
 40
0
 40
0
 40
0
 40
1
 40
1
 40
1
 40
1
 10
-264.519406
 20
307.599356
 30
0.0
 10
-264.887061
 20
307.997856
 30
0.0
 10
-257.899063
 20
314.172598
 30
0.0
 10
-256.699748
 20
313.467860
 30
0.0
  0
SPLINE
  5
14f
100
AcDbEntity
  8
Layer_2
 62
2
100
AcDbSpline
 70
8
 71
3
 72
8
 73
4
 74
0
 40
0
 40
0
 40
0
 40
0
 40
1
 40
1
 40
1
 40
1
 10
-256.699748
 20
313.467860
 30
0.0
 10
-255.089320
 20
312.521540
 30
0.0
 10
-255.475984
 20
300.500235
 30
0.0
 10
-256.522970
 20
301.810062
 30
0.0
  0
LWPOLYLINE
  5
150
100
AcDbEntity
  8
Layer_2
 62
2
100
AcDbPolyline
 90
1
 70
1
 10
-304.363650
 20
302.227222
 30
0.0
  0
SPLINE
  5
151
100
AcDbEntity
  8
Layer_2
 62
2
100
AcDbSpline
 70
8
 71
3
 72
8
 73
4
 74
0
 40
0
 40
0
 40
0
 40
0
 40
1
 40
1
 40
1
 40
1
 10
-258.861733
 20
277.751225
 30
0.0
 10
-256.216540
 20
276.455641
 30
0.0
 10
-253.502522
 20
274.918672
 30
0.0
 10
-251.637234
 20
273.276461
 30
0.0
  0
SPLINE
  5
152
100
AcDbEntity
  8
Layer_2
 62
2
100
AcDbSpline
 70
8
 71
3
 72
8
 73
4
 74
0
 40
0
 40
0
 40
0
 40
0
 40
1
 40
1
 40
1
 40
1
 10
-257.742471
 20
280.887564
 30
0.0
 10
-254.807527
 20
280.639194
 30
0.0
 10
-250.294750
 20
279.641537
 30
0.0
 10
-247.960970
 20
278.787358
 30
0.0
  0
SPLINE
  5
153
100
AcDbEntity
  8
Layer_2
 62
2
100
AcDbSpline
 70
8
 71
3
 72
8
 73
4
 74
0
 40
0
 40
0
 40
0
 40
0
 40
1
 40
1
 40
1
 40
1
 10
-257.044509
 20
284.268427
 30
0.0
 10
-254.175980
 20
284.937098
 30
0.0
 10
-249.487632
 20
285.226231
 30
0.0
 10
-247.004184
 20
285.133250
 30
0.0
  0
SPLINE
  5
154
100
AcDbEntity
  8
Layer_2
 62
2
100
AcDbSpline
 70
8
 71
3
 72
8
 73
4
 74
0
 40
0
 40
0
 40
0
 40
0
 40
1
 40
1
 40
1
 40
1
 10
-302.936951
 20
278.097724
 30
0.0
 10
-305.864011
 20
276.805083
 30
0.0
 10
-308.184175
 20
275.579544
 30
0.0
 10
-310.248224
 20
273.941065
 30
0.0
  0
SPLINE
  5
155
100
AcDbEntity
  8
Layer_2
 62
2
100
AcDbSpline
 70
8
 71
3
 72
8
 73
4
 74
0
 40
0
 40
0
 40
0
 40
0
 40
1
 40
1
 40
1
 40
1
 10
-304.305669
 20
281.226942
 30
0.0
 10
-307.613181
 20
281.248331
 30
0.0
 10
-315.052557
 20
279.228706
 30
0.0
 10
-317.577274
 20
278.116600
 30
0.0
  0
SPLINE
  5
156
100
AcDbEntity
  8
Layer_2
 62
2
100
AcDbSpline
 70
8
 71
3
 72
8
 73
4
 74
0
 40
0
 40
0
 40
0
 40
0
 40
1
 40
1
 40
1
 40
1
 10
-304.882720
 20
284.144457
 30
0.0
 10
-308.007371
 20
285.133632
 30
0.0
 10
-315.075858
 20
285.582652
 30
0.0
 10
-317.891392
 20
285.051457
 30
0.0
  0
SPLINE
  5
157
100
AcDbEntity
  8
Layer_2
 62
2
100
AcDbSpline
 70
8
 71
3
 72
8
 73
4
 74
0
 40
0
 40
0
 40
0
 40
0
 40
1
 40
1
 40
1
 40
1
 10
-282.182130
 20
235.488271
 30
0.0
 10
-282.712051
 20
234.623131
 30
0.0
 10
-283.766370
 20
233.145766
 30
0.0
 10
-282.273639
 20
231.826251
 30
0.0
  0
SPLINE
  5
158
100
AcDbEntity
  8
Layer_2
 62
2
100
AcDbSpline
 70
8
 71
3
 72
8
 73
4
 74
0
 40
0
 40
0
 40
0
 40
0
 40
1
 40
1
 40
1
 40
1
 10
-279.005680
 20
235.246617
 30
0.0
 10
-279.535708
 20
234.372951
 30
0.0
 10
-280.219973
 20
232.733837
 30
0.0
 10
-278.980397
 20
231.874621
 30
0.0
  0
SPLINE
  5
159
100
AcDbEntity
  8
Layer_2
 62
2
100
AcDbSpline
 70
8
 71
3
 72
8
 73
4
 74
0
 40
0
 40
0
 40
0
 40
0
 40
1
 40
1
 40
1
 40
1
 10
-297.628294
 20
235.617462
 30
0.0
 10
-298.158215
 20
234.752322
 30
0.0
 10
-298.617679
 20
233.421930
 30
0.0
 10
-297.360922
 20
231.988498
 30
0.0
  0
SPLINE
  5
15a
100
AcDbEntity
  8
Layer_2
 62
2
100
AcDbSpline
 70
8
 71
3
 72
8
 73
4
 74
0
 40
0
 40
0
 40
0
 40
0
 40
1
 40
1
 40
1
 40
1
 10
-294.321653
 20
235.465317
 30
0.0
 10
-294.851681
 20
234.591651
 30
0.0
 10
-295.357614
 20
232.882099
 30
0.0
 10
-294.118038
 20
232.022883
 30
0.0
  0
SPLINE
  5
15b
100
AcDbEntity
  8
Layer_2
 62
2
100
AcDbSpline
 70
8
 71
3
 72
8
 73
4
 74
0
 40
0
 40
0
 40
0
 40
0
 40
1
 40
1
 40
1
 40
1
 10
-268.067313
 20
235.527646
 30
0.0
 10
-268.529143
 20
234.540841
 30
0.0
 10
-268.837736
 20
233.775471
 30
0.0
 10
-268.513080
 20
232.031339
 30
0.0
  0
SPLINE
  5
15c
100
AcDbEntity
  8
Layer_2
 62
2
100
AcDbSpline
 70
8
 71
3
 72
8
 73
4
 74
0
 40
0
 40
0
 40
0
 40
0
 40
1
 40
1
 40
1
 40
1
 10
-264.864451
 20
235.438115
 30
0.0
 10
-265.394479
 20
234.564449
 30
0.0
 10
-265.727801
 20
232.371585
 30
0.0
 10
-264.660836
 20
231.995680
 30
0.0
  0
SPLINE
  5
15d
100
AcDbEntity
  8
Layer_2
 62
2
100
AcDbSpline
 70
8
 71
3
 72
8
 73
4
 74
0
 40
0
 40
0
 40
0
 40
0
 40
1
 40
1
 40
1
 40
1
 10
-297.795206
 20
268.170272
 30
0.0
 10
-285.701532
 20
265.588013
 30
0.0
 10
-274.426953
 20
263.471164
 30
0.0
 10
-260.024951
 20
269.459472
 30
0.0
  0
LWPOLYLINE
  5
15e
100
AcDbEntity
  8
Layer_2
 62
2
100
AcDbPolyline
 90
1
 70
1
 10
-256.522970
 20
301.810062
 30
0.0
  0
SPLINE
  5
15f
100
AcDbEntity
  8
Layer_2
 62
2
100
AcDbSpline
 70
8
 71
3
 72
8
 73
4
 74
0
 40
0
 40
0
 40
0
 40
0
 40
1
 40
1
 40
1
 40
1
 10
-275.923866
 20
233.975262
 30
0.0
 10
-273.812664
 20
240.420388
 30
0.0
 10
-272.508489
 20
247.042668
 30
0.0
 10
-271.653045
 20
253.763449
 30
0.0
  0
SPLINE
  5
160
100
AcDbEntity
  8
Layer_2
 62
2
100
AcDbSpline
 70
8
 71
3
 72
8
 73
4
 74
0
 40
0
 40
0
 40
0
 40
0
 40
1
 40
1
 40
1
 40
1
 10
-249.907562
 20
237.167414
 30
0.0
 10
-248.719420
 20
239.463838
 30
0.0
 10
-246.657939
 20
243.480208
 30
0.0
 10
-246.762906
 20
248.326588
 30
0.0
  0
LWPOLYLINE
  5
161
100
AcDbEntity
  8
Layer_2
 62
2
100
AcDbPolyline
 90
2
 70
0
 10
-260.024951
 20
269.459472
 30
0.0
 10
-260.041486
 20
269.451537
 30
0.0
  0
SPLINE
  5
162
100
AcDbEntity
  8
Layer_2
 62
2
100
AcDbSpline
 70
8
 71
3
 72
8
 73
4
 74
0
 40
0
 40
0
 40
0
 40
0
 40
1
 40
1
 40
1
 40
1
 10
-263.667878
 20
250.499657
 30
0.0
 10
-263.308601
 20
250.430462
 30
0.0
 10
-263.075193
 20
250.085322
 30
0.0
 10
-263.144501
 20
249.726063
 30
0.0
  0
LWPOLYLINE
  5
163
100
AcDbEntity
  8
Layer_2
 62
2
100
AcDbPolyline
 90
2
 70
0
 10
-265.024841
 20
250.761419
 30
0.0
 10
-263.667878
 20
250.499657
 30
0.0
  0
SPLINE
  5
164
100
AcDbEntity
  8
Layer_2
 62
2
100
AcDbSpline
 70
8
 71
3
 72
8
 73
4
 74
0
 40
0
 40
0
 40
0
 40
0
 40
1
 40
1
 40
1
 40
1
 10
-263.397612
 20
248.414104
 30
0.0
 10
-263.466806
 20
248.054816
 30
0.0
 10
-263.811943
 20
247.821411
 30
0.0
 10
-264.171205
 20
247.890716
 30
0.0
  0
LWPOLYLINE
  5
165
100
AcDbEntity
  8
Layer_2
 62
2
100
AcDbPolyline
 90
2
 70
0
 10
-263.144501
 20
249.726063
 30
0.0
 10
-263.397612
 20
248.414104
 30
0.0
  0
SPLINE
  5
166
100
AcDbEntity
  8
Layer_2
 62
2
100
AcDbSpline
 70
8
 71
3
 72
8
 73
4
 74
0
 40
0
 40
0
 40
0
 40
0
 40
1
 40
1
 40
1
 40
1
 10
-265.528157
 20
248.152482
 30
0.0
 10
-265.887442
 20
248.221676
 30
0.0
 10
-266.120854
 20
248.566817
 30
0.0
 10
-266.051545
 20
248.926068
 30
0.0
  0
LWPOLYLINE
  5
167
100
AcDbEntity
  8
Layer_2
 62
2
100
AcDbPolyline
 90
2
 70
0
 10
-264.171205
 20
247.890716
 30
0.0
 10
-265.528157
 20
248.152482
 30
0.0
  0
SPLINE
  5
168
100
AcDbEntity
  8
Layer_2
 62
2
100
AcDbSpline
 70
8
 71
3
 72
8
 73
4
 74
0
 40
0
 40
0
 40
0
 40
0
 40
1
 40
1
 40
1
 40
1
 10
-265.798431
 20
250.238031
 30
0.0
 10
-265.729237
 20
250.597315
 30
0.0
 10
-265.384100
 20
250.830731
 30
0.0
 10
-265.024845
 20
250.761415
 30
0.0
  0
LWPOLYLINE
  5
169
100
AcDbEntity
  8
Layer_2
 62
2
100
AcDbPolyline
 90
2
 70
0
 10
-266.051545
 20
248.926068
 30
0.0
 10
-265.798431
 20
250.238031
 30
0.0
  0
LWPOLYLINE
  5
16a
100
AcDbEntity
  8
Layer_2
 62
2
100
AcDbPolyline
 90
1
 70
1
 10
-265.024845
 20
250.761415
 30
0.0
  0
SPLINE
  5
16b
100
AcDbEntity
  8
Layer_2
 62
2
100
AcDbSpline
 70
8
 71
3
 72
8
 73
4
 74
0
 40
0
 40
0
 40
0
 40
0
 40
1
 40
1
 40
1
 40
1
 10
-253.796506
 20
249.063035
 30
0.0
 10
-253.477003
 20
249.097472
 30
0.0
 10
-253.192102
 20
248.867806
 30
0.0
 10
-253.157750
 20
248.548284
 30
0.0
  0
LWPOLYLINE
  5
16c
100
AcDbEntity
  8
Layer_2
 62
2
100
AcDbPolyline
 90
2
 70
0
 10
-255.003358
 20
248.933269
 30
0.0
 10
-253.796506
 20
249.063035
 30
0.0
  0
SPLINE
  5
16d
100
AcDbEntity
  8
Layer_2
 62
2
100
AcDbSpline
 70
8
 71
3
 72
8
 73
4
 74
0
 40
0
 40
0
 40
0
 40
0
 40
1
 40
1
 40
1
 40
1
 10
-253.032313
 20
247.381453
 30
0.0
 10
-252.997877
 20
247.061943
 30
0.0
 10
-253.227539
 20
246.777046
 30
0.0
 10
-253.547057
 20
246.742690
 30
0.0
  0
LWPOLYLINE
  5
16e
100
AcDbEntity
  8
Layer_2
 62
2
100
AcDbPolyline
 90
2
 70
0
 10
-253.157750
 20
248.548284
 30
0.0
 10
-253.032313
 20
247.381453
 30
0.0
  0
SPLINE
  5
16f
100
AcDbEntity
  8
Layer_2
 62
2
100
AcDbSpline
 70
8
 71
3
 72
8
 73
4
 74
0
 40
0
 40
0
 40
0
 40
0
 40
1
 40
1
 40
1
 40
1
 10
-254.753902
 20
246.612931
 30
0.0
 10
-255.073412
 20
246.578495
 30
0.0
 10
-255.358317
 20
246.808157
 30
0.0
 10
-255.392665
 20
247.127671
 30
0.0
  0
LWPOLYLINE
  5
170
100
AcDbEntity
  8
Layer_2
 62
2
100
AcDbPolyline
 90
2
 70
0
 10
-253.547057
 20
246.742690
 30
0.0
 10
-254.753902
 20
246.612931
 30
0.0
  0
SPLINE
  5
171
100
AcDbEntity
  8
Layer_2
 62
2
100
AcDbSpline
 70
8
 71
3
 72
8
 73
4
 74
0
 40
0
 40
0
 40
0
 40
0
 40
1
 40
1
 40
1
 40
1
 10
-255.518098
 20
248.294506
 30
0.0
 10
-255.552571
 20
248.614017
 30
0.0
 10
-255.322876
 20
248.898921
 30
0.0
 10
-255.003358
 20
248.933265
 30
0.0
  0
LWPOLYLINE
  5
172
100
AcDbEntity
  8
Layer_2
 62
2
100
AcDbPolyline
 90
2
 70
0
 10
-255.392665
 20
247.127671
 30
0.0
 10
-255.518098
 20
248.294506
 30
0.0
  0
LWPOLYLINE
  5
173
100
AcDbEntity
  8
Layer_2
 62
2
100
AcDbPolyline
 90
1
 70
1
 10
-255.003358
 20
248.933265
 30
0.0
  0
SPLINE
  5
174
100
AcDbEntity
  8
Layer_2
 62
2
100
AcDbSpline
 70
8
 71
3
 72
8
 73
4
 74
0
 40
0
 40
0
 40
0
 40
0
 40
1
 40
1
 40
1
 40
1
 10
-260.795071
 20
264.132132
 30
0.0
 10
-260.561523
 20
263.941631
 30
0.0
 10
-260.527009
 20
263.600159
 30
0.0
 10
-260.717580
 20
263.366659
 30
0.0
  0
LWPOLYLINE
  5
175
100
AcDbEntity
  8
Layer_2
 62
2
100
AcDbPolyline
 90
2
 70
0
 10
-261.677035
 20
264.851923
 30
0.0
 10
-260.795071
 20
264.132132
 30
0.0
  0
SPLINE
  5
176
100
AcDbEntity
  8
Layer_2
 62
2
100
AcDbSpline
 70
8
 71
3
 72
8
 73
4
 74
0
 40
0
 40
0
 40
0
 40
0
 40
1
 40
1
 40
1
 40
1
 10
-261.413512
 20
262.513957
 30
0.0
 10
-261.604021
 20
262.280409
 30
0.0
 10
-261.945485
 20
262.245898
 30
0.0
 10
-262.178989
 20
262.436466
 30
0.0
  0
LWPOLYLINE
  5
177
100
AcDbEntity
  8
Layer_2
 62
2
100
AcDbPolyline
 90
2
 70
0
 10
-260.717580
 20
263.366659
 30
0.0
 10
-261.413512
 20
262.513957
 30
0.0
  0
SPLINE
  5
178
100
AcDbEntity
  8
Layer_2
 62
2
100
AcDbSpline
 70
8
 71
3
 72
8
 73
4
 74
0
 40
0
 40
0
 40
0
 40
0
 40
1
 40
1
 40
1
 40
1
 10
-263.060946
 20
263.156245
 30
0.0
 10
-263.294494
 20
263.346754
 30
0.0
 10
-263.329008
 20
263.688222
 30
0.0
 10
-263.138444
 20
263.921719
 30
0.0
  0
LWPOLYLINE
  5
179
100
AcDbEntity
  8
Layer_2
 62
2
100
AcDbPolyline
 90
2
 70
0
 10
-262.178989
 20
262.436466
 30
0.0
 10
-263.060946
 20
263.156245
 30
0.0
  0
SPLINE
  5
17a
100
AcDbEntity
  8
Layer_2
 62
2
100
AcDbSpline
 70
8
 71
3
 72
8
 73
4
 74
0
 40
0
 40
0
 40
0
 40
0
 40
1
 40
1
 40
1
 40
1
 10
-262.442508
 20
264.774417
 30
0.0
 10
-262.252026
 20
265.007991
 30
0.0
 10
-261.910532
 20
265.042487
 30
0.0
 10
-261.677035
 20
264.851919
 30
0.0
  0
LWPOLYLINE
  5
17b
100
AcDbEntity
  8
Layer_2
 62
2
100
AcDbPolyline
 90
2
 70
0
 10
-263.138444
 20
263.921719
 30
0.0
 10
-262.442508
 20
264.774417
 30
0.0
  0
LWPOLYLINE
  5
17c
100
AcDbEntity
  8
Layer_2
 62
2
100
AcDbPolyline
 90
1
 70
1
 10
-261.677035
 20
264.851919
 30
0.0
  0
SPLINE
  5
17d
100
AcDbEntity
  8
Layer_2
 62
2
100
AcDbSpline
 70
8
 71
3
 72
8
 73
4
 74
0
 40
0
 40
0
 40
0
 40
0
 40
1
 40
1
 40
1
 40
1
 10
-238.988897
 20
282.055918
 30
0.0
 10
-238.755348
 20
281.865417
 30
0.0
 10
-238.720834
 20
281.523945
 30
0.0
 10
-238.911405
 20
281.290445
 30
0.0
  0
LWPOLYLINE
  5
17e
100
AcDbEntity
  8
Layer_2
 62
2
100
AcDbPolyline
 90
2
 70
0
 10
-239.870861
 20
282.775709
 30
0.0
 10
-238.988897
 20
282.055918
 30
0.0
  0
SPLINE
  5
17f
100
AcDbEntity
  8
Layer_2
 62
2
100
AcDbSpline
 70
8
 71
3
 72
8
 73
4
 74
0
 40
0
 40
0
 40
0
 40
0
 40
1
 40
1
 40
1
 40
1
 10
-239.607338
 20
280.437743
 30
0.0
 10
-239.797846
 20
280.204194
 30
0.0
 10
-240.139311
 20
280.169684
 30
0.0
 10
-240.372815
 20
280.360251
 30
0.0
  0
LWPOLYLINE
  5
180
100
AcDbEntity
  8
Layer_2
 62
2
100
AcDbPolyline
 90
2
 70
0
 10
-238.911405
 20
281.290445
 30
0.0
 10
-239.607338
 20
280.437743
 30
0.0
  0
SPLINE
  5
181
100
AcDbEntity
  8
Layer_2
 62
2
100
AcDbSpline
 70
8
 71
3
 72
8
 73
4
 74
0
 40
0
 40
0
 40
0
 40
0
 40
1
 40
1
 40
1
 40
1
 10
-241.254771
 20
281.080031
 30
0.0
 10
-241.488320
 20
281.270539
 30
0.0
 10
-241.522834
 20
281.612008
 30
0.0
 10
-241.332270
 20
281.845504
 30
0.0
  0
LWPOLYLINE
  5
182
100
AcDbEntity
  8
Layer_2
 62
2
100
AcDbPolyline
 90
2
 70
0
 10
-240.372815
 20
280.360251
 30
0.0
 10
-241.254771
 20
281.080031
 30
0.0
  0
SPLINE
  5
183
100
AcDbEntity
  8
Layer_2
 62
2
100
AcDbSpline
 70
8
 71
3
 72
8
 73
4
 74
0
 40
0
 40
0
 40
0
 40
0
 40
1
 40
1
 40
1
 40
1
 10
-240.636334
 20
282.698203
 30
0.0
 10
-240.445852
 20
282.931777
 30
0.0
 10
-240.104357
 20
282.966273
 30
0.0
 10
-239.870861
 20
282.775705
 30
0.0
  0
LWPOLYLINE
  5
184
100
AcDbEntity
  8
Layer_2
 62
2
100
AcDbPolyline
 90
2
 70
0
 10
-241.332270
 20
281.845504
 30
0.0
 10
-240.636334
 20
282.698203
 30
0.0
  0
LWPOLYLINE
  5
185
100
AcDbEntity
  8
Layer_2
 62
2
100
AcDbPolyline
 90
1
 70
1
 10
-239.870861
 20
282.775705
 30
0.0
  0
SPLINE
  5
186
100
AcDbEntity
  8
Layer_2
 62
2
100
AcDbSpline
 70
8
 71
3
 72
8
 73
4
 74
0
 40
0
 40
0
 40
0
 40
0
 40
1
 40
1
 40
1
 40
1
 10
-239.344539
 20
268.493710
 30
0.0
 10
-239.103768
 20
268.543825
 30
0.0
 10
-238.869586
 20
268.390241
 30
0.0
 10
-238.819514
 20
268.149451
 30
0.0
  0
LWPOLYLINE
  5
187
100
AcDbEntity
  8
Layer_2
 62
2
100
AcDbPolyline
 90
2
 70
0
 10
-240.254024
 20
268.304567
 30
0.0
 10
-239.344539
 20
268.493710
 30
0.0
  0
SPLINE
  5
188
100
AcDbEntity
  8
Layer_2
 62
2
100
AcDbSpline
 70
8
 71
3
 72
8
 73
4
 74
0
 40
0
 40
0
 40
0
 40
0
 40
1
 40
1
 40
1
 40
1
 10
-238.636659
 20
267.270126
 30
0.0
 10
-238.586523
 20
267.029355
 30
0.0
 10
-238.740126
 20
266.795175
 30
0.0
 10
-238.980916
 20
266.745104
 30
0.0
  0
LWPOLYLINE
  5
189
100
AcDbEntity
  8
Layer_2
 62
2
100
AcDbPolyline
 90
2
 70
0
 10
-238.819514
 20
268.149451
 30
0.0
 10
-238.636659
 20
267.270126
 30
0.0
  0
SPLINE
  5
18a
100
AcDbEntity
  8
Layer_2
 62
2
100
AcDbSpline
 70
8
 71
3
 72
8
 73
4
 74
0
 40
0
 40
0
 40
0
 40
0
 40
1
 40
1
 40
1
 40
1
 10
-239.890390
 20
266.555957
 30
0.0
 10
-240.131166
 20
266.505838
 30
0.0
 10
-240.365345
 20
266.659425
 30
0.0
 10
-240.415419
 20
266.900212
 30
0.0
  0
LWPOLYLINE
  5
18b
100
AcDbEntity
  8
Layer_2
 62
2
100
AcDbPolyline
 90
2
 70
0
 10
-238.980916
 20
266.745104
 30
0.0
 10
-239.890390
 20
266.555957
 30
0.0
  0
SPLINE
  5
18c
100
AcDbEntity
  8
Layer_2
 62
2
100
AcDbSpline
 70
8
 71
3
 72
8
 73
4
 74
0
 40
0
 40
0
 40
0
 40
0
 40
1
 40
1
 40
1
 40
1
 10
-240.598271
 20
267.779533
 30
0.0
 10
-240.648436
 20
268.020305
 30
0.0
 10
-240.494808
 20
268.254488
 30
0.0
 10
-240.254022
 20
268.304567
 30
0.0
  0
LWPOLYLINE
  5
18d
100
AcDbEntity
  8
Layer_2
 62
2
100
AcDbPolyline
 90
2
 70
0
 10
-240.415419
 20
266.900212
 30
0.0
 10
-240.598271
 20
267.779533
 30
0.0
  0
LWPOLYLINE
  5
18e
100
AcDbEntity
  8
Layer_2
 62
2
100
AcDbPolyline
 90
1
 70
1
 10
-240.254022
 20
268.304567
 30
0.0
  0
SPLINE
  5
18f
100
AcDbEntity
  8
Layer_2
 62
2
100
AcDbSpline
 70
8
 71
3
 72
8
 73
4
 74
0
 40
0
 40
0
 40
0
 40
0
 40
1
 40
1
 40
1
 40
1
 10
-238.653573
 20
250.137120
 30
0.0
 10
-238.340407
 20
249.982075
 30
0.0
 10
-238.213191
 20
249.605033
 30
0.0
 10
-238.368301
 20
249.291882
 30
0.0
  0
LWPOLYLINE
  5
190
100
AcDbEntity
  8
Layer_2
 62
2
100
AcDbPolyline
 90
2
 70
0
 10
-239.836376
 20
250.722959
 30
0.0
 10
-238.653573
 20
250.137120
 30
0.0
  0
SPLINE
  5
191
100
AcDbEntity
  8
Layer_2
 62
2
100
AcDbSpline
 70
8
 71
3
 72
8
 73
4
 74
0
 40
0
 40
0
 40
0
 40
0
 40
1
 40
1
 40
1
 40
1
 10
-238.934730
 20
248.148318
 30
0.0
 10
-239.089750
 20
247.835134
 30
0.0
 10
-239.466813
 20
247.707940
 30
0.0
 10
-239.779961
 20
247.863049
 30
0.0
  0
LWPOLYLINE
  5
192
100
AcDbEntity
  8
Layer_2
 62
2
100
AcDbPolyline
 90
2
 70
0
 10
-238.368301
 20
249.291882
 30
0.0
 10
-238.934730
 20
248.148318
 30
0.0
  0
SPLINE
  5
193
100
AcDbEntity
  8
Layer_2
 62
2
100
AcDbSpline
 70
8
 71
3
 72
8
 73
4
 74
0
 40
0
 40
0
 40
0
 40
0
 40
1
 40
1
 40
1
 40
1
 10
-240.962754
 20
248.448876
 30
0.0
 10
-241.275929
 20
248.603918
 30
0.0
 10
-241.403137
 20
248.980963
 30
0.0
 10
-241.248035
 20
249.294111
 30
0.0
  0
LWPOLYLINE
  5
194
100
AcDbEntity
  8
Layer_2
 62
2
100
AcDbPolyline
 90
2
 70
0
 10
-239.779961
 20
247.863049
 30
0.0
 10
-240.962754
 20
248.448876
 30
0.0
  0
SPLINE
  5
195
100
AcDbEntity
  8
Layer_2
 62
2
100
AcDbSpline
 70
8
 71
3
 72
8
 73
4
 74
0
 40
0
 40
0
 40
0
 40
0
 40
1
 40
1
 40
1
 40
1
 10
-240.681604
 20
250.437667
 30
0.0
 10
-240.526616
 20
250.750877
 30
0.0
 10
-240.149524
 20
250.878053
 30
0.0
 10
-239.836373
 20
250.722959
 30
0.0
  0
LWPOLYLINE
  5
196
100
AcDbEntity
  8
Layer_2
 62
2
100
AcDbPolyline
 90
2
 70
0
 10
-241.248035
 20
249.294111
 30
0.0
 10
-240.681604
 20
250.437667
 30
0.0
  0
LWPOLYLINE
  5
197
100
AcDbEntity
  8
Layer_2
 62
2
100
AcDbPolyline
 90
1
 70
1
 10
-239.836373
 20
250.722959
 30
0.0
  0
SPLINE
  5
198
100
AcDbEntity
  8
Layer_2
 62
2
100
AcDbSpline
 70
8
 71
3
 72
8
 73
4
 74
0
 40
0
 40
0
 40
0
 40
0
 40
1
 40
1
 40
1
 40
1
 10
-270.587143
 20
304.079609
 30
0.0
 10
-270.273977
 20
303.924564
 30
0.0
 10
-270.146761
 20
303.547522
 30
0.0
 10
-270.301873
 20
303.234371
 30
0.0
  0
LWPOLYLINE
  5
199
100
AcDbEntity
  8
Layer_2
 62
2
100
AcDbPolyline
 90
2
 70
0
 10
-271.769949
 20
304.665448
 30
0.0
 10
-270.587143
 20
304.079609
 30
0.0
  0
SPLINE
  5
19a
100
AcDbEntity
  8
Layer_2
 62
2
100
AcDbSpline
 70
8
 71
3
 72
8
 73
4
 74
0
 40
0
 40
0
 40
0
 40
0
 40
1
 40
1
 40
1
 40
1
 10
-270.868301
 20
302.090807
 30
0.0
 10
-271.023321
 20
301.777623
 30
0.0
 10
-271.400385
 20
301.650429
 30
0.0
 10
-271.713533
 20
301.805538
 30
0.0
  0
LWPOLYLINE
  5
19b
100
AcDbEntity
  8
Layer_2
 62
2
100
AcDbPolyline
 90
2
 70
0
 10
-270.301873
 20
303.234371
 30
0.0
 10
-270.868301
 20
302.090807
 30
0.0
  0
SPLINE
  5
19c
100
AcDbEntity
  8
Layer_2
 62
2
100
AcDbSpline
 70
8
 71
3
 72
8
 73
4
 74
0
 40
0
 40
0
 40
0
 40
0
 40
1
 40
1
 40
1
 40
1
 10
-272.896327
 20
302.391365
 30
0.0
 10
-273.209500
 20
302.546407
 30
0.0
 10
-273.336709
 20
302.923453
 30
0.0
 10
-273.181608
 20
303.236600
 30
0.0
  0
LWPOLYLINE
  5
19d
100
AcDbEntity
  8
Layer_2
 62
2
100
AcDbPolyline
 90
2
 70
0
 10
-271.713533
 20
301.805538
 30
0.0
 10
-272.896327
 20
302.391365
 30
0.0
  0
SPLINE
  5
19e
100
AcDbEntity
  8
Layer_2
 62
2
100
AcDbSpline
 70
8
 71
3
 72
8
 73
4
 74
0
 40
0
 40
0
 40
0
 40
0
 40
1
 40
1
 40
1
 40
1
 10
-272.615176
 20
304.380156
 30
0.0
 10
-272.460186
 20
304.693366
 30
0.0
 10
-272.083096
 20
304.820542
 30
0.0
 10
-271.769945
 20
304.665448
 30
0.0
  0
LWPOLYLINE
  5
19f
100
AcDbEntity
  8
Layer_2
 62
2
100
AcDbPolyline
 90
2
 70
0
 10
-273.181608
 20
303.236600
 30
0.0
 10
-272.615176
 20
304.380156
 30
0.0
  0
LWPOLYLINE
  5
1a0
100
AcDbEntity
  8
Layer_2
 62
2
100
AcDbPolyline
 90
1
 70
1
 10
-271.769945
 20
304.665448
 30
0.0
  0
SPLINE
  5
1a1
100
AcDbEntity
  8
Layer_2
 62
2
100
AcDbSpline
 70
8
 71
3
 72
8
 73
4
 74
0
 40
0
 40
0
 40
0
 40
0
 40
1
 40
1
 40
1
 40
1
 10
-257.211631
 20
294.162276
 30
0.0
 10
-257.040847
 20
294.271067
 30
0.0
 10
-256.815747
 20
294.221088
 30
0.0
 10
-256.706986
 20
294.050276
 30
0.0
  0
LWPOLYLINE
  5
1a2
100
AcDbEntity
  8
Layer_2
 62
2
100
AcDbPolyline
 90
2
 70
0
 10
-257.856784
 20
293.751458
 30
0.0
 10
-257.211631
 20
294.162276
 30
0.0
  0
SPLINE
  5
1a3
100
AcDbEntity
  8
Layer_2
 62
2
100
AcDbSpline
 70
8
 71
3
 72
8
 73
4
 74
0
 40
0
 40
0
 40
0
 40
0
 40
1
 40
1
 40
1
 40
1
 10
-256.309803
 20
293.426513
 30
0.0
 10
-256.200998
 20
293.255738
 30
0.0
 10
-256.250995
 20
293.030634
 30
0.0
 10
-256.421805
 20
292.921871
 30
0.0
  0
LWPOLYLINE
  5
1a4
100
AcDbEntity
  8
Layer_2
 62
2
100
AcDbPolyline
 90
2
 70
0
 10
-256.706986
 20
294.050276
 30
0.0
 10
-256.309803
 20
293.426513
 30
0.0
  0
SPLINE
  5
1a5
100
AcDbEntity
  8
Layer_2
 62
2
100
AcDbSpline
 70
8
 71
3
 72
8
 73
4
 74
0
 40
0
 40
0
 40
0
 40
0
 40
1
 40
1
 40
1
 40
1
 10
-257.066950
 20
292.511056
 30
0.0
 10
-257.237734
 20
292.402260
 30
0.0
 10
-257.462830
 20
292.452244
 30
0.0
 10
-257.571595
 20
292.623049
 30
0.0
  0
LWPOLYLINE
  5
1a6
100
AcDbEntity
  8
Layer_2
 62
2
100
AcDbPolyline
 90
2
 70
0
 10
-256.421805
 20
292.921871
 30
0.0
 10
-257.066950
 20
292.511056
 30
0.0
  0
SPLINE
  5
1a7
100
AcDbEntity
  8
Layer_2
 62
2
100
AcDbSpline
 70
8
 71
3
 72
8
 73
4
 74
0
 40
0
 40
0
 40
0
 40
0
 40
1
 40
1
 40
1
 40
1
 10
-257.968771
 20
293.246812
 30
0.0
 10
-258.077602
 20
293.417579
 30
0.0
 10
-258.027586
 20
293.642693
 30
0.0
 10
-257.856784
 20
293.751461
 30
0.0
  0
LWPOLYLINE
  5
1a8
100
AcDbEntity
  8
Layer_2
 62
2
100
AcDbPolyline
 90
2
 70
0
 10
-257.571595
 20
292.623049
 30
0.0
 10
-257.968771
 20
293.246812
 30
0.0
  0
LWPOLYLINE
  5
1a9
100
AcDbEntity
  8
Layer_2
 62
2
100
AcDbPolyline
 90
1
 70
1
 10
-257.856784
 20
293.751461
 30
0.0
  0
SPLINE
  5
1aa
100
AcDbEntity
  8
Layer_2
 62
2
100
AcDbSpline
 70
8
 71
3
 72
8
 73
4
 74
0
 40
0
 40
0
 40
0
 40
0
 40
1
 40
1
 40
1
 40
1
 10
-260.923254
 20
302.758062
 30
0.0
 10
-260.677046
 20
302.774804
 30
0.0
 10
-260.465370
 20
302.589973
 30
0.0
 10
-260.448676
 20
302.343749
 30
0.0
  0
LWPOLYLINE
  5
1ab
100
AcDbEntity
  8
Layer_2
 62
2
100
AcDbPolyline
 90
2
 70
0
 10
-261.853252
 20
302.694988
 30
0.0
 10
-260.923254
 20
302.758062
 30
0.0
  0
SPLINE
  5
1ac
100
AcDbEntity
  8
Layer_2
 62
2
100
AcDbSpline
 70
8
 71
3
 72
8
 73
4
 74
0
 40
0
 40
0
 40
0
 40
0
 40
1
 40
1
 40
1
 40
1
 10
-260.387712
 20
301.444598
 30
0.0
 10
-260.370955
 20
301.198388
 30
0.0
 10
-260.555802
 20
300.986719
 30
0.0
 10
-260.802025
 20
300.970025
 30
0.0
  0
LWPOLYLINE
  5
1ad
100
AcDbEntity
  8
Layer_2
 62
2
100
AcDbPolyline
 90
2
 70
0
 10
-260.448676
 20
302.343749
 30
0.0
 10
-260.387712
 20
301.444598
 30
0.0
  0
SPLINE
  5
1ae
100
AcDbEntity
  8
Layer_2
 62
2
100
AcDbSpline
 70
8
 71
3
 72
8
 73
4
 74
0
 40
0
 40
0
 40
0
 40
0
 40
1
 40
1
 40
1
 40
1
 10
-261.732008
 20
300.906949
 30
0.0
 10
-261.978220
 20
300.890203
 30
0.0
 10
-262.189889
 20
301.075035
 30
0.0
 10
-262.206587
 20
301.321252
 30
0.0
  0
LWPOLYLINE
  5
1af
100
AcDbEntity
  8
Layer_2
 62
2
100
AcDbPolyline
 90
2
 70
0
 10
-260.802025
 20
300.970025
 30
0.0
 10
-261.732008
 20
300.906949
 30
0.0
  0
SPLINE
  5
1b0
100
AcDbEntity
  8
Layer_2
 62
2
100
AcDbSpline
 70
8
 71
3
 72
8
 73
4
 74
0
 40
0
 40
0
 40
0
 40
0
 40
1
 40
1
 40
1
 40
1
 10
-262.267550
 20
302.220402
 30
0.0
 10
-262.284344
 20
302.466617
 30
0.0
 10
-262.099464
 20
302.678287
 30
0.0
 10
-261.853248
 20
302.694991
 30
0.0
  0
LWPOLYLINE
  5
1b1
100
AcDbEntity
  8
Layer_2
 62
2
100
AcDbPolyline
 90
2
 70
0
 10
-262.206587
 20
301.321252
 30
0.0
 10
-262.267550
 20
302.220402
 30
0.0
  0
LWPOLYLINE
  5
1b2
100
AcDbEntity
  8
Layer_2
 62
2
100
AcDbPolyline
 90
1
 70
1
 10
-261.853248
 20
302.694991
 30
0.0
  0
SPLINE
  5
1b3
100
AcDbEntity
  8
Layer_2
 62
2
100
AcDbSpline
 70
8
 71
3
 72
8
 73
4
 74
0
 40
0
 40
0
 40
0
 40
0
 40
1
 40
1
 40
1
 40
1
 10
-266.732112
 20
298.681320
 30
0.0
 10
-266.535004
 20
298.631365
 30
0.0
 10
-266.416573
 20
298.432388
 30
0.0
 10
-266.466570
 20
298.235278
 30
0.0
  0
LWPOLYLINE
  5
1b4
100
AcDbEntity
  8
Layer_2
 62
2
100
AcDbPolyline
 90
2
 70
0
 10
-267.476610
 20
298.870147
 30
0.0
 10
-266.732112
 20
298.681320
 30
0.0
  0
SPLINE
  5
1b5
100
AcDbEntity
  8
Layer_2
 62
2
100
AcDbSpline
 70
8
 71
3
 72
8
 73
4
 74
0
 40
0
 40
0
 40
0
 40
0
 40
1
 40
1
 40
1
 40
1
 10
-266.649147
 20
297.515478
 30
0.0
 10
-266.699096
 20
297.318365
 30
0.0
 10
-266.898079
 20
297.199942
 30
0.0
 10
-267.095187
 20
297.249939
 30
0.0
  0
LWPOLYLINE
  5
1b6
100
AcDbEntity
  8
Layer_2
 62
2
100
AcDbPolyline
 90
2
 70
0
 10
-266.466570
 20
298.235278
 30
0.0
 10
-266.649147
 20
297.515478
 30
0.0
  0
SPLINE
  5
1b7
100
AcDbEntity
  8
Layer_2
 62
2
100
AcDbSpline
 70
8
 71
3
 72
8
 73
4
 74
0
 40
0
 40
0
 40
0
 40
0
 40
1
 40
1
 40
1
 40
1
 10
-267.839678
 20
297.438762
 30
0.0
 10
-268.036789
 20
297.488718
 30
0.0
 10
-268.155217
 20
297.687690
 30
0.0
 10
-268.105223
 20
297.884796
 30
0.0
  0
LWPOLYLINE
  5
1b8
100
AcDbEntity
  8
Layer_2
 62
2
100
AcDbPolyline
 90
2
 70
0
 10
-267.095187
 20
297.249939
 30
0.0
 10
-267.839678
 20
297.438762
 30
0.0
  0
SPLINE
  5
1b9
100
AcDbEntity
  8
Layer_2
 62
2
100
AcDbSpline
 70
8
 71
3
 72
8
 73
4
 74
0
 40
0
 40
0
 40
0
 40
0
 40
1
 40
1
 40
1
 40
1
 10
-267.922646
 20
298.604595
 30
0.0
 10
-267.872730
 20
298.801724
 30
0.0
 10
-267.673714
 20
298.920137
 30
0.0
 10
-267.476606
 20
298.870149
 30
0.0
  0
LWPOLYLINE
  5
1ba
100
AcDbEntity
  8
Layer_2
 62
2
100
AcDbPolyline
 90
2
 70
0
 10
-268.105223
 20
297.884796
 30
0.0
 10
-267.922646
 20
298.604595
 30
0.0
  0
LWPOLYLINE
  5
1bb
100
AcDbEntity
  8
Layer_2
 62
2
100
AcDbPolyline
 90
1
 70
1
 10
-267.476606
 20
298.870149
 30
0.0
  0
SPLINE
  5
1bc
100
AcDbEntity
  8
Layer_2
 62
2
100
AcDbSpline
 70
8
 71
3
 72
8
 73
4
 74
0
 40
0
 40
0
 40
0
 40
0
 40
1
 40
1
 40
1
 40
1
 10
-252.861810
 20
242.833838
 30
0.0
 10
-252.575669
 20
242.739194
 30
0.0
 10
-252.421598
 20
242.432510
 30
0.0
 10
-252.516322
 20
242.146383
 30
0.0
  0
LWPOLYLINE
  5
1bd
100
AcDbEntity
  8
Layer_2
 62
2
100
AcDbPolyline
 90
2
 70
0
 10
-253.942538
 20
243.191598
 30
0.0
 10
-252.861810
 20
242.833838
 30
0.0
  0
SPLINE
  5
1be
100
AcDbEntity
  8
Layer_2
 62
2
100
AcDbSpline
 70
8
 71
3
 72
8
 73
4
 74
0
 40
0
 40
0
 40
0
 40
0
 40
1
 40
1
 40
1
 40
1
 10
-252.862234
 20
241.101509
 30
0.0
 10
-252.956885
 20
240.815360
 30
0.0
 10
-253.263562
 20
240.661296
 30
0.0
 10
-253.549692
 20
240.756014
 30
0.0
  0
LWPOLYLINE
  5
1bf
100
AcDbEntity
  8
Layer_2
 62
2
100
AcDbPolyline
 90
2
 70
0
 10
-252.516322
 20
242.146383
 30
0.0
 10
-252.862234
 20
241.101509
 30
0.0
  0
SPLINE
  5
1c0
100
AcDbEntity
  8
Layer_2
 62
2
100
AcDbSpline
 70
8
 71
3
 72
8
 73
4
 74
0
 40
0
 40
0
 40
0
 40
0
 40
1
 40
1
 40
1
 40
1
 10
-254.630406
 20
241.113770
 30
0.0
 10
-254.916547
 20
241.208417
 30
0.0
 10
-255.070622
 20
241.515098
 30
0.0
 10
-254.975905
 20
241.801217
 30
0.0
  0
LWPOLYLINE
  5
1c1
100
AcDbEntity
  8
Layer_2
 62
2
100
AcDbPolyline
 90
2
 70
0
 10
-253.549692
 20
240.756014
 30
0.0
 10
-254.630406
 20
241.113770
 30
0.0
  0
SPLINE
  5
1c2
100
AcDbEntity
  8
Layer_2
 62
2
100
AcDbSpline
 70
8
 71
3
 72
8
 73
4
 74
0
 40
0
 40
0
 40
0
 40
0
 40
1
 40
1
 40
1
 40
1
 10
-254.629982
 20
242.846092
 30
0.0
 10
-254.535371
 20
243.132255
 30
0.0
 10
-254.228653
 20
243.286319
 30
0.0
 10
-253.942538
 20
243.191594
 30
0.0
  0
LWPOLYLINE
  5
1c3
100
AcDbEntity
  8
Layer_2
 62
2
100
AcDbPolyline
 90
2
 70
0
 10
-254.975905
 20
241.801217
 30
0.0
 10
-254.629982
 20
242.846092
 30
0.0
  0
LWPOLYLINE
  5
1c4
100
AcDbEntity
  8
Layer_2
 62
2
100
AcDbPolyline
 90
1
 70
1
 10
-253.942538
 20
243.191594
 30
0.0
  0
SPLINE
  5
1c5
100
AcDbEntity
  8
Layer_2
 62
2
100
AcDbSpline
 70
8
 71
3
 72
8
 73
4
 74
0
 40
0
 40
0
 40
0
 40
0
 40
1
 40
1
 40
1
 40
1
 10
-289.825308
 20
261.799378
 30
0.0
 10
-289.603405
 20
261.808089
 30
0.0
 10
-289.417768
 20
261.636364
 30
0.0
 10
-289.409106
 20
261.414449
 30
0.0
  0
LWPOLYLINE
  5
1c6
100
AcDbEntity
  8
Layer_2
 62
2
100
AcDbPolyline
 90
2
 70
0
 10
-290.663494
 20
261.766639
 30
0.0
 10
-289.825308
 20
261.799378
 30
0.0
  0
SPLINE
  5
1c7
100
AcDbEntity
  8
Layer_2
 62
2
100
AcDbSpline
 70
8
 71
3
 72
8
 73
4
 74
0
 40
0
 40
0
 40
0
 40
0
 40
1
 40
1
 40
1
 40
1
 10
-289.377474
 20
260.604068
 30
0.0
 10
-289.368764
 20
260.382157
 30
0.0
 10
-289.540489
 20
260.196528
 30
0.0
 10
-289.762404
 20
260.187858
 30
0.0
  0
LWPOLYLINE
  5
1c8
100
AcDbEntity
  8
Layer_2
 62
2
100
AcDbPolyline
 90
2
 70
0
 10
-289.409106
 20
261.414449
 30
0.0
 10
-289.377474
 20
260.604068
 30
0.0
  0
SPLINE
  5
1c9
100
AcDbEntity
  8
Layer_2
 62
2
100
AcDbSpline
 70
8
 71
3
 72
8
 73
4
 74
0
 40
0
 40
0
 40
0
 40
0
 40
1
 40
1
 40
1
 40
1
 10
-290.600581
 20
260.155119
 30
0.0
 10
-290.822481
 20
260.146408
 30
0.0
 10
-291.008121
 20
260.318133
 30
0.0
 10
-291.016784
 20
260.540041
 30
0.0
  0
LWPOLYLINE
  5
1ca
100
AcDbEntity
  8
Layer_2
 62
2
100
AcDbPolyline
 90
2
 70
0
 10
-289.762404
 20
260.187858
 30
0.0
 10
-290.600581
 20
260.155119
 30
0.0
  0
SPLINE
  5
1cb
100
AcDbEntity
  8
Layer_2
 62
2
100
AcDbSpline
 70
8
 71
3
 72
8
 73
4
 74
0
 40
0
 40
0
 40
0
 40
0
 40
1
 40
1
 40
1
 40
1
 10
-291.048415
 20
261.350429
 30
0.0
 10
-291.057163
 20
261.572337
 30
0.0
 10
-290.885405
 20
261.757973
 30
0.0
 10
-290.663497
 20
261.766636
 30
0.0
  0
LWPOLYLINE
  5
1cc
100
AcDbEntity
  8
Layer_2
 62
2
100
AcDbPolyline
 90
2
 70
0
 10
-291.016784
 20
260.540041
 30
0.0
 10
-291.048415
 20
261.350429
 30
0.0
  0
SPLINE
  5
1cd
100
AcDbEntity
  8
Layer_2
 62
2
100
AcDbSpline
 70
8
 71
3
 72
8
 73
4
 74
0
 40
0
 40
0
 40
0
 40
0
 40
1
 40
1
 40
1
 40
1
 10
-294.839398
 20
258.122325
 30
0.0
 10
-294.839397
 20
258.018833
 30
0.0
 10
-294.938099
 20
257.934935
 30
0.0
 10
-295.059854
 20
257.934935
 30
0.0
  0
SPLINE
  5
1ce
100
AcDbEntity
  8
Layer_2
 62
2
100
AcDbSpline
 70
8
 71
3
 72
8
 73
4
 74
0
 40
0
 40
0
 40
0
 40
0
 40
1
 40
1
 40
1
 40
1
 10
-295.059854
 20
257.934935
 30
0.0
 10
-295.181610
 20
257.934935
 30
0.0
 10
-295.280311
 20
258.018833
 30
0.0
 10
-295.280311
 20
258.122325
 30
0.0
  0
SPLINE
  5
1cf
100
AcDbEntity
  8
Layer_2
 62
2
100
AcDbSpline
 70
8
 71
3
 72
8
 73
4
 74
0
 40
0
 40
0
 40
0
 40
0
 40
1
 40
1
 40
1
 40
1
 10
-295.280311
 20
258.122325
 30
0.0
 10
-295.280311
 20
258.225817
 30
0.0
 10
-295.181610
 20
258.309714
 30
0.0
 10
-295.059854
 20
258.309714
 30
0.0
  0
SPLINE
  5
1d0
100
AcDbEntity
  8
Layer_2
 62
2
100
AcDbSpline
 70
8
 71
3
 72
8
 73
4
 74
0
 40
0
 40
0
 40
0
 40
0
 40
1
 40
1
 40
1
 40
1
 10
-295.059854
 20
258.309714
 30
0.0
 10
-294.938099
 20
258.309714
 30
0.0
 10
-294.839397
 20
258.225817
 30
0.0
 10
-294.839398
 20
258.122325
 30
0.0
  0
LWPOLYLINE
  5
1d1
100
AcDbEntity
  8
Layer_2
 62
2
100
AcDbPolyline
 90
1
 70
1
 10
-290.663497
 20
261.766636
 30
0.0
  0
SPLINE
  5
1d2
100
AcDbEntity
  8
Layer_2
 62
2
100
AcDbSpline
 70
8
 71
3
 72
8
 73
4
 74
0
 40
0
 40
0
 40
0
 40
0
 40
1
 40
1
 40
1
 40
1
 10
-294.118057
 20
264.636844
 30
0.0
 10
-294.118055
 20
264.484501
 30
0.0
 10
-294.263346
 20
264.361002
 30
0.0
 10
-294.442572
 20
264.361001
 30
0.0
  0
SPLINE
  5
1d3
100
AcDbEntity
  8
Layer_2
 62
2
100
AcDbSpline
 70
8
 71
3
 72
8
 73
4
 74
0
 40
0
 40
0
 40
0
 40
0
 40
1
 40
1
 40
1
 40
1
 10
-294.442572
 20
264.361001
 30
0.0
 10
-294.621799
 20
264.361002
 30
0.0
 10
-294.767090
 20
264.484501
 30
0.0
 10
-294.767088
 20
264.636844
 30
0.0
  0
SPLINE
  5
1d4
100
AcDbEntity
  8
Layer_2
 62
2
100
AcDbSpline
 70
8
 71
3
 72
8
 73
4
 74
0
 40
0
 40
0
 40
0
 40
0
 40
1
 40
1
 40
1
 40
1
 10
-294.767088
 20
264.636844
 30
0.0
 10
-294.767090
 20
264.789187
 30
0.0
 10
-294.621799
 20
264.912686
 30
0.0
 10
-294.442572
 20
264.912687
 30
0.0
  0
SPLINE
  5
1d5
100
AcDbEntity
  8
Layer_2
 62
2
100
AcDbSpline
 70
8
 71
3
 72
8
 73
4
 74
0
 40
0
 40
0
 40
0
 40
0
 40
1
 40
1
 40
1
 40
1
 10
-294.442572
 20
264.912687
 30
0.0
 10
-294.263346
 20
264.912686
 30
0.0
 10
-294.118055
 20
264.789187
 30
0.0
 10
-294.118057
 20
264.636844
 30
0.0
  0
LWPOLYLINE
  5
1d6
100
AcDbEntity
  8
Layer_2
 62
2
100
AcDbPolyline
 90
1
 70
1
 10
-294.839398
 20
258.122325
 30
0.0
  0
SPLINE
  5
1d7
100
AcDbEntity
  8
Layer_2
 62
2
100
AcDbSpline
 70
8
 71
3
 72
8
 73
4
 74
0
 40
0
 40
0
 40
0
 40
0
 40
1
 40
1
 40
1
 40
1
 10
-301.253984
 20
300.398346
 30
0.0
 10
-301.253984
 20
300.322361
 30
0.0
 10
-301.326450
 20
300.260762
 30
0.0
 10
-301.415844
 20
300.260761
 30
0.0
  0
SPLINE
  5
1d8
100
AcDbEntity
  8
Layer_2
 62
2
100
AcDbSpline
 70
8
 71
3
 72
8
 73
4
 74
0
 40
0
 40
0
 40
0
 40
0
 40
1
 40
1
 40
1
 40
1
 10
-301.415844
 20
300.260761
 30
0.0
 10
-301.458773
 20
300.260761
 30
0.0
 10
-301.499943
 20
300.275256
 30
0.0
 10
-301.530299
 20
300.301058
 30
0.0
  0
SPLINE
  5
1d9
100
AcDbEntity
  8
Layer_2
 62
2
100
AcDbSpline
 70
8
 71
3
 72
8
 73
4
 74
0
 40
0
 40
0
 40
0
 40
0
 40
1
 40
1
 40
1
 40
1
 10
-301.530299
 20
300.301058
 30
0.0
 10
-301.560654
 20
300.326861
 30
0.0
 10
-301.577707
 20
300.361856
 30
0.0
 10
-301.577707
 20
300.398346
 30
0.0
  0
SPLINE
  5
1da
100
AcDbEntity
  8
Layer_2
 62
2
100
AcDbSpline
 70
8
 71
3
 72
8
 73
4
 74
0
 40
0
 40
0
 40
0
 40
0
 40
1
 40
1
 40
1
 40
1
 10
-301.577707
 20
300.398346
 30
0.0
 10
-301.577707
 20
300.434835
 30
0.0
 10
-301.560654
 20
300.469830
 30
0.0
 10
-301.530299
 20
300.495633
 30
0.0
  0
SPLINE
  5
1db
100
AcDbEntity
  8
Layer_2
 62
2
100
AcDbSpline
 70
8
 71
3
 72
8
 73
4
 74
0
 40
0
 40
0
 40
0
 40
0
 40
1
 40
1
 40
1
 40
1
 10
-301.530299
 20
300.495633
 30
0.0
 10
-301.499943
 20
300.521435
 30
0.0
 10
-301.458773
 20
300.535930
 30
0.0
 10
-301.415844
 20
300.535931
 30
0.0
  0
SPLINE
  5
1dc
100
AcDbEntity
  8
Layer_2
 62
2
100
AcDbSpline
 70
8
 71
3
 72
8
 73
4
 74
0
 40
0
 40
0
 40
0
 40
0
 40
1
 40
1
 40
1
 40
1
 10
-301.415844
 20
300.535931
 30
0.0
 10
-301.326450
 20
300.535929
 30
0.0
 10
-301.253984
 20
300.474330
 30
0.0
 10
-301.253984
 20
300.398346
 30
0.0
  0
LWPOLYLINE
  5
1dd
100
AcDbEntity
  8
Layer_2
 62
2
100
AcDbPolyline
 90
1
 70
1
 10
-294.118057
 20
264.636844
 30
0.0
  0
SPLINE
  5
1de
100
AcDbEntity
  8
Layer_2
 62
2
100
AcDbSpline
 70
8
 71
3
 72
8
 73
4
 74
0
 40
0
 40
0
 40
0
 40
0
 40
1
 40
1
 40
1
 40
1
 10
-294.130078
 20
301.707798
 30
0.0
 10
-294.130076
 20
301.482736
 30
0.0
 10
-294.344717
 20
301.300285
 30
0.0
 10
-294.609496
 20
301.300280
 30
0.0
  0
SPLINE
  5
1df
100
AcDbEntity
  8
Layer_2
 62
2
100
AcDbSpline
 70
8
 71
3
 72
8
 73
4
 74
0
 40
0
 40
0
 40
0
 40
0
 40
1
 40
1
 40
1
 40
1
 10
-294.609496
 20
301.300280
 30
0.0
 10
-294.736648
 20
301.300281
 30
0.0
 10
-294.858592
 20
301.343216
 30
0.0
 10
-294.948502
 20
301.419640
 30
0.0
  0
SPLINE
  5
1e0
100
AcDbEntity
  8
Layer_2
 62
2
100
AcDbSpline
 70
8
 71
3
 72
8
 73
4
 74
0
 40
0
 40
0
 40
0
 40
0
 40
1
 40
1
 40
1
 40
1
 10
-294.948502
 20
301.419640
 30
0.0
 10
-295.038412
 20
301.496065
 30
0.0
 10
-295.088922
 20
301.599718
 30
0.0
 10
-295.088921
 20
301.707798
 30
0.0
  0
SPLINE
  5
1e1
100
AcDbEntity
  8
Layer_2
 62
2
100
AcDbSpline
 70
8
 71
3
 72
8
 73
4
 74
0
 40
0
 40
0
 40
0
 40
0
 40
1
 40
1
 40
1
 40
1
 10
-295.088921
 20
301.707798
 30
0.0
 10
-295.088922
 20
301.815877
 30
0.0
 10
-295.038412
 20
301.919530
 30
0.0
 10
-294.948502
 20
301.995955
 30
0.0
  0
SPLINE
  5
1e2
100
AcDbEntity
  8
Layer_2
 62
2
100
AcDbSpline
 70
8
 71
3
 72
8
 73
4
 74
0
 40
0
 40
0
 40
0
 40
0
 40
1
 40
1
 40
1
 40
1
 10
-294.948502
 20
301.995955
 30
0.0
 10
-294.858592
 20
302.072379
 30
0.0
 10
-294.736648
 20
302.115314
 30
0.0
 10
-294.609496
 20
302.115315
 30
0.0
  0
SPLINE
  5
1e3
100
AcDbEntity
  8
Layer_2
 62
2
100
AcDbSpline
 70
8
 71
3
 72
8
 73
4
 74
0
 40
0
 40
0
 40
0
 40
0
 40
1
 40
1
 40
1
 40
1
 10
-294.609496
 20
302.115315
 30
0.0
 10
-294.344717
 20
302.115310
 30
0.0
 10
-294.130076
 20
301.932859
 30
0.0
 10
-294.130078
 20
301.707798
 30
0.0
  0
LWPOLYLINE
  5
1e4
100
AcDbEntity
  8
Layer_2
 62
2
100
AcDbPolyline
 90
1
 70
1
 10
-301.253984
 20
300.398346
 30
0.0
  0
SPLINE
  5
1e5
100
AcDbEntity
  8
Layer_2
 62
2
100
AcDbSpline
 70
8
 71
3
 72
8
 73
4
 74
0
 40
0
 40
0
 40
0
 40
0
 40
1
 40
1
 40
1
 40
1
 10
-266.006663
 20
304.482587
 30
0.0
 10
-266.006662
 20
304.402967
 30
0.0
 10
-266.082595
 20
304.338421
 30
0.0
 10
-266.176266
 20
304.338418
 30
0.0
  0
SPLINE
  5
1e6
100
AcDbEntity
  8
Layer_2
 62
2
100
AcDbSpline
 70
8
 71
3
 72
8
 73
4
 74
0
 40
0
 40
0
 40
0
 40
0
 40
1
 40
1
 40
1
 40
1
 10
-266.176266
 20
304.338418
 30
0.0
 10
-266.269938
 20
304.338419
 30
0.0
 10
-266.345874
 20
304.402966
 30
0.0
 10
-266.345873
 20
304.482587
 30
0.0
  0
SPLINE
  5
1e7
100
AcDbEntity
  8
Layer_2
 62
2
100
AcDbSpline
 70
8
 71
3
 72
8
 73
4
 74
0
 40
0
 40
0
 40
0
 40
0
 40
1
 40
1
 40
1
 40
1
 10
-266.345873
 20
304.482587
 30
0.0
 10
-266.345873
 20
304.562208
 30
0.0
 10
-266.269938
 20
304.626754
 30
0.0
 10
-266.176266
 20
304.626755
 30
0.0
  0
SPLINE
  5
1e8
100
AcDbEntity
  8
Layer_2
 62
2
100
AcDbSpline
 70
8
 71
3
 72
8
 73
4
 74
0
 40
0
 40
0
 40
0
 40
0
 40
1
 40
1
 40
1
 40
1
 10
-266.176266
 20
304.626755
 30
0.0
 10
-266.082595
 20
304.626753
 30
0.0
 10
-266.006662
 20
304.562207
 30
0.0
 10
-266.006663
 20
304.482587
 30
0.0
  0
LWPOLYLINE
  5
1e9
100
AcDbEntity
  8
Layer_2
 62
2
100
AcDbPolyline
 90
1
 70
1
 10
-294.130078
 20
301.707798
 30
0.0
  0
SPLINE
  5
1ea
100
AcDbEntity
  8
Layer_2
 62
2
100
AcDbSpline
 70
8
 71
3
 72
8
 73
4
 74
0
 40
0
 40
0
 40
0
 40
0
 40
1
 40
1
 40
1
 40
1
 10
-261.587588
 20
296.056894
 30
0.0
 10
-261.587586
 20
295.894554
 30
0.0
 10
-261.742409
 20
295.762950
 30
0.0
 10
-261.933397
 20
295.762945
 30
0.0
  0
SPLINE
  5
1eb
100
AcDbEntity
  8
Layer_2
 62
2
100
AcDbSpline
 70
8
 71
3
 72
8
 73
4
 74
0
 40
0
 40
0
 40
0
 40
0
 40
1
 40
1
 40
1
 40
1
 10
-261.933397
 20
295.762945
 30
0.0
 10
-262.124387
 20
295.762948
 30
0.0
 10
-262.279212
 20
295.894553
 30
0.0
 10
-262.279210
 20
296.056894
 30
0.0
  0
SPLINE
  5
1ec
100
AcDbEntity
  8
Layer_2
 62
2
100
AcDbSpline
 70
8
 71
3
 72
8
 73
4
 74
0
 40
0
 40
0
 40
0
 40
0
 40
1
 40
1
 40
1
 40
1
 10
-262.279210
 20
296.056894
 30
0.0
 10
-262.279211
 20
296.219235
 30
0.0
 10
-262.124386
 20
296.350839
 30
0.0
 10
-261.933397
 20
296.350842
 30
0.0
  0
SPLINE
  5
1ed
100
AcDbEntity
  8
Layer_2
 62
2
100
AcDbSpline
 70
8
 71
3
 72
8
 73
4
 74
0
 40
0
 40
0
 40
0
 40
0
 40
1
 40
1
 40
1
 40
1
 10
-261.933397
 20
296.350842
 30
0.0
 10
-261.742410
 20
296.350838
 30
0.0
 10
-261.587587
 20
296.219234
 30
0.0
 10
-261.587588
 20
296.056894
 30
0.0
  0
LWPOLYLINE
  5
1ee
100
AcDbEntity
  8
Layer_2
 62
2
100
AcDbPolyline
 90
1
 70
1
 10
-266.006663
 20
304.482587
 30
0.0
  0
SPLINE
  5
1ef
100
AcDbEntity
  8
Layer_2
 62
2
100
AcDbSpline
 70
8
 71
3
 72
8
 73
4
 74
0
 40
0
 40
0
 40
0
 40
0
 40
1
 40
1
 40
1
 40
1
 10
-254.319551
 20
258.215314
 30
0.0
 10
-254.319551
 20
258.013217
 30
0.0
 10
-254.512294
 20
257.849384
 30
0.0
 10
-254.750056
 20
257.849383
 30
0.0
  0
SPLINE
  5
1f0
100
AcDbEntity
  8
Layer_2
 62
2
100
AcDbSpline
 70
8
 71
3
 72
8
 73
4
 74
0
 40
0
 40
0
 40
0
 40
0
 40
1
 40
1
 40
1
 40
1
 10
-254.750056
 20
257.849383
 30
0.0
 10
-254.987817
 20
257.849384
 30
0.0
 10
-255.180560
 20
258.013217
 30
0.0
 10
-255.180561
 20
258.215314
 30
0.0
  0
SPLINE
  5
1f1
100
AcDbEntity
  8
Layer_2
 62
2
100
AcDbSpline
 70
8
 71
3
 72
8
 73
4
 74
0
 40
0
 40
0
 40
0
 40
0
 40
1
 40
1
 40
1
 40
1
 10
-255.180561
 20
258.215314
 30
0.0
 10
-255.180564
 20
258.312367
 30
0.0
 10
-255.135209
 20
258.405446
 30
0.0
 10
-255.054473
 20
258.474073
 30
0.0
  0
SPLINE
  5
1f2
100
AcDbEntity
  8
Layer_2
 62
2
100
AcDbSpline
 70
8
 71
3
 72
8
 73
4
 74
0
 40
0
 40
0
 40
0
 40
0
 40
1
 40
1
 40
1
 40
1
 10
-255.054473
 20
258.474073
 30
0.0
 10
-254.973738
 20
258.542701
 30
0.0
 10
-254.864235
 20
258.581257
 30
0.0
 10
-254.750056
 20
258.581257
 30
0.0
  0
SPLINE
  5
1f3
100
AcDbEntity
  8
Layer_2
 62
2
100
AcDbSpline
 70
8
 71
3
 72
8
 73
4
 74
0
 40
0
 40
0
 40
0
 40
0
 40
1
 40
1
 40
1
 40
1
 10
-254.750056
 20
258.581257
 30
0.0
 10
-254.635876
 20
258.581257
 30
0.0
 10
-254.526373
 20
258.542701
 30
0.0
 10
-254.445638
 20
258.474073
 30
0.0
  0
SPLINE
  5
1f4
100
AcDbEntity
  8
Layer_2
 62
2
100
AcDbSpline
 70
8
 71
3
 72
8
 73
4
 74
0
 40
0
 40
0
 40
0
 40
0
 40
1
 40
1
 40
1
 40
1
 10
-254.445638
 20
258.474073
 30
0.0
 10
-254.364902
 20
258.405446
 30
0.0
 10
-254.319547
 20
258.312367
 30
0.0
 10
-254.319551
 20
258.215314
 30
0.0
  0
LWPOLYLINE
  5
1f5
100
AcDbEntity
  8
Layer_2
 62
2
100
AcDbPolyline
 90
1
 70
1
 10
-261.587588
 20
296.056894
 30
0.0
  0
SPLINE
  5
1f6
100
AcDbEntity
  8
Layer_2
 62
2
100
AcDbSpline
 70
8
 71
3
 72
8
 73
4
 74
0
 40
0
 40
0
 40
0
 40
0
 40
1
 40
1
 40
1
 40
1
 10
-255.058102
 20
253.632243
 30
0.0
 10
-255.058102
 20
253.571950
 30
0.0
 10
-255.115603
 20
253.523073
 30
0.0
 10
-255.186536
 20
253.523072
 30
0.0
  0
SPLINE
  5
1f7
100
AcDbEntity
  8
Layer_2
 62
2
100
AcDbSpline
 70
8
 71
3
 72
8
 73
4
 74
0
 40
0
 40
0
 40
0
 40
0
 40
1
 40
1
 40
1
 40
1
 10
-255.186536
 20
253.523072
 30
0.0
 10
-255.257469
 20
253.523073
 30
0.0
 10
-255.314971
 20
253.571950
 30
0.0
 10
-255.314970
 20
253.632243
 30
0.0
  0
SPLINE
  5
1f8
100
AcDbEntity
  8
Layer_2
 62
2
100
AcDbSpline
 70
8
 71
3
 72
8
 73
4
 74
0
 40
0
 40
0
 40
0
 40
0
 40
1
 40
1
 40
1
 40
1
 10
-255.314970
 20
253.632243
 30
0.0
 10
-255.314972
 20
253.661198
 30
0.0
 10
-255.301441
 20
253.688966
 30
0.0
 10
-255.277355
 20
253.709441
 30
0.0
  0
SPLINE
  5
1f9
100
AcDbEntity
  8
Layer_2
 62
2
100
AcDbSpline
 70
8
 71
3
 72
8
 73
4
 74
0
 40
0
 40
0
 40
0
 40
0
 40
1
 40
1
 40
1
 40
1
 10
-255.277355
 20
253.709441
 30
0.0
 10
-255.253269
 20
253.729915
 30
0.0
 10
-255.220600
 20
253.741418
 30
0.0
 10
-255.186536
 20
253.741418
 30
0.0
  0
SPLINE
  5
1fa
100
AcDbEntity
  8
Layer_2
 62
2
100
AcDbSpline
 70
8
 71
3
 72
8
 73
4
 74
0
 40
0
 40
0
 40
0
 40
0
 40
1
 40
1
 40
1
 40
1
 10
-255.186536
 20
253.741418
 30
0.0
 10
-255.152472
 20
253.741418
 30
0.0
 10
-255.119804
 20
253.729915
 30
0.0
 10
-255.095718
 20
253.709441
 30
0.0
  0
SPLINE
  5
1fb
100
AcDbEntity
  8
Layer_2
 62
2
100
AcDbSpline
 70
8
 71
3
 72
8
 73
4
 74
0
 40
0
 40
0
 40
0
 40
0
 40
1
 40
1
 40
1
 40
1
 10
-255.095718
 20
253.709441
 30
0.0
 10
-255.071632
 20
253.688966
 30
0.0
 10
-255.058101
 20
253.661198
 30
0.0
 10
-255.058102
 20
253.632243
 30
0.0
  0
LWPOLYLINE
  5
1fc
100
AcDbEntity
  8
Layer_2
 62
2
100
AcDbPolyline
 90
1
 70
1
 10
-254.319551
 20
258.215314
 30
0.0
  0
SPLINE
  5
1fd
100
AcDbEntity
  8
Layer_2
 62
2
100
AcDbSpline
 70
8
 71
3
 72
8
 73
4
 74
0
 40
0
 40
0
 40
0
 40
0
 40
1
 40
1
 40
1
 40
1
 10
-260.358258
 20
245.276697
 30
0.0
 10
-260.358258
 20
245.216404
 30
0.0
 10
-260.415760
 20
245.167526
 30
0.0
 10
-260.486692
 20
245.167526
 30
0.0
  0
SPLINE
  5
1fe
100
AcDbEntity
  8
Layer_2
 62
2
100
AcDbSpline
 70
8
 71
3
 72
8
 73
4
 74
0
 40
0
 40
0
 40
0
 40
0
 40
1
 40
1
 40
1
 40
1
 10
-260.486692
 20
245.167526
 30
0.0
 10
-260.557625
 20
245.167526
 30
0.0
 10
-260.615127
 20
245.216404
 30
0.0
 10
-260.615126
 20
245.276697
 30
0.0
  0
SPLINE
  5
1ff
100
AcDbEntity
  8
Layer_2
 62
2
100
AcDbSpline
 70
8
 71
3
 72
8
 73
4
 74
0
 40
0
 40
0
 40
0
 40
0
 40
1
 40
1
 40
1
 40
1
 10
-260.615126
 20
245.276697
 30
0.0
 10
-260.615128
 20
245.305651
 30
0.0
 10
-260.601597
 20
245.333420
 30
0.0
 10
-260.577511
 20
245.353894
 30
0.0
  0
SPLINE
  5
200
100
AcDbEntity
  8
Layer_2
 62
2
100
AcDbSpline
 70
8
 71
3
 72
8
 73
4
 74
0
 40
0
 40
0
 40
0
 40
0
 40
1
 40
1
 40
1
 40
1
 10
-260.577511
 20
245.353894
 30
0.0
 10
-260.553425
 20
245.374368
 30
0.0
 10
-260.520756
 20
245.385871
 30
0.0
 10
-260.486692
 20
245.385871
 30
0.0
  0
SPLINE
  5
201
100
AcDbEntity
  8
Layer_2
 62
2
100
AcDbSpline
 70
8
 71
3
 72
8
 73
4
 74
0
 40
0
 40
0
 40
0
 40
0
 40
1
 40
1
 40
1
 40
1
 10
-260.486692
 20
245.385871
 30
0.0
 10
-260.452629
 20
245.385871
 30
0.0
 10
-260.419960
 20
245.374368
 30
0.0
 10
-260.395874
 20
245.353894
 30
0.0
  0
SPLINE
  5
202
100
AcDbEntity
  8
Layer_2
 62
2
100
AcDbSpline
 70
8
 71
3
 72
8
 73
4
 74
0
 40
0
 40
0
 40
0
 40
0
 40
1
 40
1
 40
1
 40
1
 10
-260.395874
 20
245.353894
 30
0.0
 10
-260.371788
 20
245.333420
 30
0.0
 10
-260.358257
 20
245.305651
 30
0.0
 10
-260.358258
 20
245.276697
 30
0.0
  0
LWPOLYLINE
  5
203
100
AcDbEntity
  8
Layer_2
 62
2
100
AcDbPolyline
 90
1
 70
1
 10
-255.058102
 20
253.632243
 30
0.0
  0
SPLINE
  5
204
100
AcDbEntity
  8
Layer_2
 62
2
100
AcDbSpline
 70
8
 71
3
 72
8
 73
4
 74
0
 40
0
 40
0
 40
0
 40
0
 40
1
 40
1
 40
1
 40
1
 10
-258.425260
 20
241.223635
 30
0.0
 10
-258.425259
 20
241.163342
 30
0.0
 10
-258.482761
 20
241.114465
 30
0.0
 10
-258.553694
 20
241.114464
 30
0.0
  0
SPLINE
  5
205
100
AcDbEntity
  8
Layer_2
 62
2
100
AcDbSpline
 70
8
 71
3
 72
8
 73
4
 74
0
 40
0
 40
0
 40
0
 40
0
 40
1
 40
1
 40
1
 40
1
 10
-258.553694
 20
241.114464
 30
0.0
 10
-258.624627
 20
241.114465
 30
0.0
 10
-258.682128
 20
241.163342
 30
0.0
 10
-258.682128
 20
241.223635
 30
0.0
  0
SPLINE
  5
206
100
AcDbEntity
  8
Layer_2
 62
2
100
AcDbSpline
 70
8
 71
3
 72
8
 73
4
 74
0
 40
0
 40
0
 40
0
 40
0
 40
1
 40
1
 40
1
 40
1
 10
-258.682128
 20
241.223635
 30
0.0
 10
-258.682129
 20
241.252589
 30
0.0
 10
-258.668599
 20
241.280358
 30
0.0
 10
-258.644512
 20
241.300832
 30
0.0
  0
SPLINE
  5
207
100
AcDbEntity
  8
Layer_2
 62
2
100
AcDbSpline
 70
8
 71
3
 72
8
 73
4
 74
0
 40
0
 40
0
 40
0
 40
0
 40
1
 40
1
 40
1
 40
1
 10
-258.644512
 20
241.300832
 30
0.0
 10
-258.620426
 20
241.321307
 30
0.0
 10
-258.587758
 20
241.332809
 30
0.0
 10
-258.553694
 20
241.332809
 30
0.0
  0
SPLINE
  5
208
100
AcDbEntity
  8
Layer_2
 62
2
100
AcDbSpline
 70
8
 71
3
 72
8
 73
4
 74
0
 40
0
 40
0
 40
0
 40
0
 40
1
 40
1
 40
1
 40
1
 10
-258.553694
 20
241.332809
 30
0.0
 10
-258.519630
 20
241.332809
 30
0.0
 10
-258.486962
 20
241.321307
 30
0.0
 10
-258.462875
 20
241.300832
 30
0.0
  0
SPLINE
  5
209
100
AcDbEntity
  8
Layer_2
 62
2
100
AcDbSpline
 70
8
 71
3
 72
8
 73
4
 74
0
 40
0
 40
0
 40
0
 40
0
 40
1
 40
1
 40
1
 40
1
 10
-258.462875
 20
241.300832
 30
0.0
 10
-258.438789
 20
241.280358
 30
0.0
 10
-258.425259
 20
241.252589
 30
0.0
 10
-258.425260
 20
241.223635
 30
0.0
  0
LWPOLYLINE
  5
20a
100
AcDbEntity
  8
Layer_2
 62
2
100
AcDbPolyline
 90
1
 70
1
 10
-260.358258
 20
245.276697
 30
0.0
  0
SPLINE
  5
20b
100
AcDbEntity
  8
Layer_2
 62
2
100
AcDbSpline
 70
8
 71
3
 72
8
 73
4
 74
0
 40
0
 40
0
 40
0
 40
0
 40
1
 40
1
 40
1
 40
1
 10
-244.146012
 20
242.751326
 30
0.0
 10
-244.146011
 20
242.691034
 30
0.0
 10
-244.203513
 20
242.642156
 30
0.0
 10
-244.274446
 20
242.642155
 30
0.0
  0
SPLINE
  5
20c
100
AcDbEntity
  8
Layer_2
 62
2
100
AcDbSpline
 70
8
 71
3
 72
8
 73
4
 74
0
 40
0
 40
0
 40
0
 40
0
 40
1
 40
1
 40
1
 40
1
 10
-244.274446
 20
242.642155
 30
0.0
 10
-244.345378
 20
242.642156
 30
0.0
 10
-244.402880
 20
242.691034
 30
0.0
 10
-244.402880
 20
242.751326
 30
0.0
  0
SPLINE
  5
20d
100
AcDbEntity
  8
Layer_2
 62
2
100
AcDbSpline
 70
8
 71
3
 72
8
 73
4
 74
0
 40
0
 40
0
 40
0
 40
0
 40
1
 40
1
 40
1
 40
1
 10
-244.402880
 20
242.751326
 30
0.0
 10
-244.402882
 20
242.780281
 30
0.0
 10
-244.389352
 20
242.808051
 30
0.0
 10
-244.365266
 20
242.828526
 30
0.0
  0
SPLINE
  5
20e
100
AcDbEntity
  8
Layer_2
 62
2
100
AcDbSpline
 70
8
 71
3
 72
8
 73
4
 74
0
 40
0
 40
0
 40
0
 40
0
 40
1
 40
1
 40
1
 40
1
 10
-244.365266
 20
242.828526
 30
0.0
 10
-244.341179
 20
242.849001
 30
0.0
 10
-244.308510
 20
242.860504
 30
0.0
 10
-244.274446
 20
242.860505
 30
0.0
  0
SPLINE
  5
20f
100
AcDbEntity
  8
Layer_2
 62
2
100
AcDbSpline
 70
8
 71
3
 72
8
 73
4
 74
0
 40
0
 40
0
 40
0
 40
0
 40
1
 40
1
 40
1
 40
1
 10
-244.274446
 20
242.860505
 30
0.0
 10
-244.240381
 20
242.860504
 30
0.0
 10
-244.207712
 20
242.849001
 30
0.0
 10
-244.183625
 20
242.828526
 30
0.0
  0
SPLINE
  5
210
100
AcDbEntity
  8
Layer_2
 62
2
100
AcDbSpline
 70
8
 71
3
 72
8
 73
4
 74
0
 40
0
 40
0
 40
0
 40
0
 40
1
 40
1
 40
1
 40
1
 10
-244.183625
 20
242.828526
 30
0.0
 10
-244.159539
 20
242.808051
 30
0.0
 10
-244.146009
 20
242.780281
 30
0.0
 10
-244.146012
 20
242.751326
 30
0.0
  0
LWPOLYLINE
  5
211
100
AcDbEntity
  8
Layer_2
 62
2
100
AcDbPolyline
 90
1
 70
1
 10
-258.425260
 20
241.223635
 30
0.0
  0
SPLINE
  5
212
100
AcDbEntity
  8
Layer_2
 62
2
100
AcDbSpline
 70
8
 71
3
 72
8
 73
4
 74
0
 40
0
 40
0
 40
0
 40
0
 40
1
 40
1
 40
1
 40
1
 10
-238.371231
 20
263.359583
 30
0.0
 10
-238.371231
 20
263.237479
 30
0.0
 10
-238.487683
 20
263.138493
 30
0.0
 10
-238.631336
 20
263.138492
 30
0.0
  0
SPLINE
  5
213
100
AcDbEntity
  8
Layer_2
 62
2
100
AcDbSpline
 70
8
 71
3
 72
8
 73
4
 74
0
 40
0
 40
0
 40
0
 40
0
 40
1
 40
1
 40
1
 40
1
 10
-238.631336
 20
263.138492
 30
0.0
 10
-238.774988
 20
263.138493
 30
0.0
 10
-238.891441
 20
263.237479
 30
0.0
 10
-238.891440
 20
263.359583
 30
0.0
  0
SPLINE
  5
214
100
AcDbEntity
  8
Layer_2
 62
2
100
AcDbSpline
 70
8
 71
3
 72
8
 73
4
 74
0
 40
0
 40
0
 40
0
 40
0
 40
1
 40
1
 40
1
 40
1
 10
-238.891440
 20
263.359583
 30
0.0
 10
-238.891445
 20
263.418223
 30
0.0
 10
-238.864044
 20
263.474462
 30
0.0
 10
-238.815264
 20
263.515927
 30
0.0
  0
SPLINE
  5
215
100
AcDbEntity
  8
Layer_2
 62
2
100
AcDbSpline
 70
8
 71
3
 72
8
 73
4
 74
0
 40
0
 40
0
 40
0
 40
0
 40
1
 40
1
 40
1
 40
1
 10
-238.815264
 20
263.515927
 30
0.0
 10
-238.766485
 20
263.557393
 30
0.0
 10
-238.700323
 20
263.580689
 30
0.0
 10
-238.631336
 20
263.580690
 30
0.0
  0
SPLINE
  5
216
100
AcDbEntity
  8
Layer_2
 62
2
100
AcDbSpline
 70
8
 71
3
 72
8
 73
4
 74
0
 40
0
 40
0
 40
0
 40
0
 40
1
 40
1
 40
1
 40
1
 10
-238.631336
 20
263.580690
 30
0.0
 10
-238.562348
 20
263.580689
 30
0.0
 10
-238.496187
 20
263.557393
 30
0.0
 10
-238.447408
 20
263.515927
 30
0.0
  0
SPLINE
  5
217
100
AcDbEntity
  8
Layer_2
 62
2
100
AcDbSpline
 70
8
 71
3
 72
8
 73
4
 74
0
 40
0
 40
0
 40
0
 40
0
 40
1
 40
1
 40
1
 40
1
 10
-238.447408
 20
263.515927
 30
0.0
 10
-238.398628
 20
263.474462
 30
0.0
 10
-238.371227
 20
263.418223
 30
0.0
 10
-238.371231
 20
263.359583
 30
0.0
  0
LWPOLYLINE
  5
218
100
AcDbEntity
  8
Layer_2
 62
2
100
AcDbPolyline
 90
1
 70
1
 10
-244.146012
 20
242.751326
 30
0.0
  0
SPLINE
  5
219
100
AcDbEntity
  8
Layer_2
 62
2
100
AcDbSpline
 70
8
 71
3
 72
8
 73
4
 74
0
 40
0
 40
0
 40
0
 40
0
 40
1
 40
1
 40
1
 40
1
 10
-241.457794
 20
274.022254
 30
0.0
 10
-241.457794
 20
273.900150
 30
0.0
 10
-241.574246
 20
273.801164
 30
0.0
 10
-241.717899
 20
273.801163
 30
0.0
  0
SPLINE
  5
21a
100
AcDbEntity
  8
Layer_2
 62
2
100
AcDbSpline
 70
8
 71
3
 72
8
 73
4
 74
0
 40
0
 40
0
 40
0
 40
0
 40
1
 40
1
 40
1
 40
1
 10
-241.717899
 20
273.801163
 30
0.0
 10
-241.861551
 20
273.801164
 30
0.0
 10
-241.978004
 20
273.900150
 30
0.0
 10
-241.978003
 20
274.022254
 30
0.0
  0
SPLINE
  5
21b
100
AcDbEntity
  8
Layer_2
 62
2
100
AcDbSpline
 70
8
 71
3
 72
8
 73
4
 74
0
 40
0
 40
0
 40
0
 40
0
 40
1
 40
1
 40
1
 40
1
 10
-241.978003
 20
274.022254
 30
0.0
 10
-241.978008
 20
274.080894
 30
0.0
 10
-241.950606
 20
274.137133
 30
0.0
 10
-241.901827
 20
274.178598
 30
0.0
  0
SPLINE
  5
21c
100
AcDbEntity
  8
Layer_2
 62
2
100
AcDbSpline
 70
8
 71
3
 72
8
 73
4
 74
0
 40
0
 40
0
 40
0
 40
0
 40
1
 40
1
 40
1
 40
1
 10
-241.901827
 20
274.178598
 30
0.0
 10
-241.853047
 20
274.220064
 30
0.0
 10
-241.786886
 20
274.243360
 30
0.0
 10
-241.717899
 20
274.243361
 30
0.0
  0
SPLINE
  5
21d
100
AcDbEntity
  8
Layer_2
 62
2
100
AcDbSpline
 70
8
 71
3
 72
8
 73
4
 74
0
 40
0
 40
0
 40
0
 40
0
 40
1
 40
1
 40
1
 40
1
 10
-241.717899
 20
274.243361
 30
0.0
 10
-241.648911
 20
274.243360
 30
0.0
 10
-241.582750
 20
274.220064
 30
0.0
 10
-241.533971
 20
274.178598
 30
0.0
  0
SPLINE
  5
21e
100
AcDbEntity
  8
Layer_2
 62
2
100
AcDbSpline
 70
8
 71
3
 72
8
 73
4
 74
0
 40
0
 40
0
 40
0
 40
0
 40
1
 40
1
 40
1
 40
1
 10
-241.533971
 20
274.178598
 30
0.0
 10
-241.485191
 20
274.137133
 30
0.0
 10
-241.457789
 20
274.080894
 30
0.0
 10
-241.457794
 20
274.022254
 30
0.0
  0
LWPOLYLINE
  5
21f
100
AcDbEntity
  8
Layer_2
 62
2
100
AcDbPolyline
 90
1
 70
1
 10
-238.371231
 20
263.359583
 30
0.0
  0
SPLINE
  5
220
100
AcDbEntity
  8
Layer_2
 62
2
100
AcDbSpline
 70
8
 71
3
 72
8
 73
4
 74
0
 40
0
 40
0
 40
0
 40
0
 40
1
 40
1
 40
1
 40
1
 10
-237.266011
 20
284.560224
 30
0.0
 10
-237.266010
 20
284.504722
 30
0.0
 10
-237.318943
 20
284.459728
 30
0.0
 10
-237.384240
 20
284.459728
 30
0.0
  0
SPLINE
  5
221
100
AcDbEntity
  8
Layer_2
 62
2
100
AcDbSpline
 70
8
 71
3
 72
8
 73
4
 74
0
 40
0
 40
0
 40
0
 40
0
 40
1
 40
1
 40
1
 40
1
 10
-237.384240
 20
284.459728
 30
0.0
 10
-237.449536
 20
284.459728
 30
0.0
 10
-237.502469
 20
284.504722
 30
0.0
 10
-237.502468
 20
284.560224
 30
0.0
  0
SPLINE
  5
222
100
AcDbEntity
  8
Layer_2
 62
2
100
AcDbSpline
 70
8
 71
3
 72
8
 73
4
 74
0
 40
0
 40
0
 40
0
 40
0
 40
1
 40
1
 40
1
 40
1
 10
-237.502468
 20
284.560224
 30
0.0
 10
-237.502471
 20
284.586878
 30
0.0
 10
-237.490015
 20
284.612441
 30
0.0
 10
-237.467843
 20
284.631289
 30
0.0
  0
SPLINE
  5
223
100
AcDbEntity
  8
Layer_2
 62
2
100
AcDbSpline
 70
8
 71
3
 72
8
 73
4
 74
0
 40
0
 40
0
 40
0
 40
0
 40
1
 40
1
 40
1
 40
1
 10
-237.467843
 20
284.631289
 30
0.0
 10
-237.445670
 20
284.650137
 30
0.0
 10
-237.415597
 20
284.660726
 30
0.0
 10
-237.384240
 20
284.660726
 30
0.0
  0
SPLINE
  5
224
100
AcDbEntity
  8
Layer_2
 62
2
100
AcDbSpline
 70
8
 71
3
 72
8
 73
4
 74
0
 40
0
 40
0
 40
0
 40
0
 40
1
 40
1
 40
1
 40
1
 10
-237.384240
 20
284.660726
 30
0.0
 10
-237.352882
 20
284.660726
 30
0.0
 10
-237.322809
 20
284.650137
 30
0.0
 10
-237.300636
 20
284.631289
 30
0.0
  0
SPLINE
  5
225
100
AcDbEntity
  8
Layer_2
 62
2
100
AcDbSpline
 70
8
 71
3
 72
8
 73
4
 74
0
 40
0
 40
0
 40
0
 40
0
 40
1
 40
1
 40
1
 40
1
 10
-237.300636
 20
284.631289
 30
0.0
 10
-237.278464
 20
284.612441
 30
0.0
 10
-237.266008
 20
284.586878
 30
0.0
 10
-237.266011
 20
284.560224
 30
0.0
  0
LWPOLYLINE
  5
226
100
AcDbEntity
  8
Layer_2
 62
2
100
AcDbPolyline
 90
1
 70
1
 10
-241.457794
 20
274.022254
 30
0.0
  0
LWPOLYLINE
  5
227
100
AcDbEntity
  8
Layer_2
 62
2
100
AcDbPolyline
 90
1
 70
1
 10
-237.266011
 20
284.560224
 30
0.0
  0
SPLINE
  5
228
100
AcDbEntity
  8
Layer_2
 62
2
100
AcDbSpline
 70
8
 71
3
 72
8
 73
4
 74
0
 40
0
 40
0
 40
0
 40
0
 40
1
 40
1
 40
1
 40
1
 10
-288.622668
 20
305.172590
 30
0.0
 10
-288.361286
 20
305.308658
 30
0.0
 10
-288.041273
 20
305.207654
 30
0.0
 10
-287.905250
 20
304.946222
 30
0.0
  0
LWPOLYLINE
  5
229
100
AcDbEntity
  8
Layer_2
 62
2
100
AcDbPolyline
 90
2
 70
0
 10
-289.610089
 20
304.658802
 30
0.0
 10
-288.622668
 20
305.172590
 30
0.0
  0
SPLINE
  5
22a
100
AcDbEntity
  8
Layer_2
 62
2
100
AcDbSpline
 70
8
 71
3
 72
8
 73
4
 74
0
 40
0
 40
0
 40
0
 40
0
 40
1
 40
1
 40
1
 40
1
 10
-287.408519
 20
303.991544
 30
0.0
 10
-287.272441
 20
303.730157
 30
0.0
 10
-287.373492
 20
303.410151
 30
0.0
 10
-287.634892
 20
303.274130
 30
0.0
  0
LWPOLYLINE
  5
22b
100
AcDbEntity
  8
Layer_2
 62
2
100
AcDbPolyline
 90
2
 70
0
 10
-287.905250
 20
304.946222
 30
0.0
 10
-287.408519
 20
303.991544
 30
0.0
  0
SPLINE
  5
22c
100
AcDbEntity
  8
Layer_2
 62
2
100
AcDbSpline
 70
8
 71
3
 72
8
 73
4
 74
0
 40
0
 40
0
 40
0
 40
0
 40
1
 40
1
 40
1
 40
1
 10
-288.622299
 20
302.760343
 30
0.0
 10
-288.883692
 20
302.624273
 30
0.0
 10
-289.203693
 20
302.725275
 30
0.0
 10
-289.339716
 20
302.986699
 30
0.0
  0
LWPOLYLINE
  5
22d
100
AcDbEntity
  8
Layer_2
 62
2
100
AcDbPolyline
 90
2
 70
0
 10
-287.634892
 20
303.274130
 30
0.0
 10
-288.622299
 20
302.760343
 30
0.0
  0
SPLINE
  5
22e
100
AcDbEntity
  8
Layer_2
 62
2
100
AcDbSpline
 70
8
 71
3
 72
8
 73
4
 74
0
 40
0
 40
0
 40
0
 40
0
 40
1
 40
1
 40
1
 40
1
 10
-289.836440
 20
303.941377
 30
0.0
 10
-289.972574
 20
304.202749
 30
0.0
 10
-289.871541
 20
304.522776
 30
0.0
 10
-289.610089
 20
304.658807
 30
0.0
  0
LWPOLYLINE
  5
22f
100
AcDbEntity
  8
Layer_2
 62
2
100
AcDbPolyline
 90
2
 70
0
 10
-289.339716
 20
302.986699
 30
0.0
 10
-289.836440
 20
303.941377
 30
0.0
  0
LWPOLYLINE
  5
230
100
AcDbEntity
  8
Layer_2
 62
2
100
AcDbPolyline
 90
1
 70
1
 10
-289.610089
 20
304.658807
 30
0.0
  0
SPLINE
  5
231
100
AcDbEntity
  8
Layer_2
 62
2
100
AcDbSpline
 70
8
 71
3
 72
8
 73
4
 74
0
 40
0
 40
0
 40
0
 40
0
 40
1
 40
1
 40
1
 40
1
 10
-304.662625
 20
296.067054
 30
0.0
 10
-304.469167
 20
296.018285
 30
0.0
 10
-304.352722
 20
295.823198
 30
0.0
 10
-304.401542
 20
295.629739
 30
0.0
  0
LWPOLYLINE
  5
232
100
AcDbEntity
  8
Layer_2
 62
2
100
AcDbPolyline
 90
2
 70
0
 10
-305.393330
 20
296.251416
 30
0.0
 10
-304.662625
 20
296.067054
 30
0.0
  0
SPLINE
  5
233
100
AcDbEntity
  8
Layer_2
 62
2
100
AcDbSpline
 70
8
 71
3
 72
8
 73
4
 74
0
 40
0
 40
0
 40
0
 40
0
 40
1
 40
1
 40
1
 40
1
 10
-304.579796
 20
294.923275
 30
0.0
 10
-304.628579
 20
294.729814
 30
0.0
 10
-304.823672
 20
294.613393
 30
0.0
 10
-305.017115
 20
294.662196
 30
0.0
  0
LWPOLYLINE
  5
234
100
AcDbEntity
  8
Layer_2
 62
2
100
AcDbPolyline
 90
2
 70
0
 10
-304.401542
 20
295.629739
 30
0.0
 10
-304.579796
 20
294.923275
 30
0.0
  0
SPLINE
  5
235
100
AcDbEntity
  8
Layer_2
 62
2
100
AcDbSpline
 70
8
 71
3
 72
8
 73
4
 74
0
 40
0
 40
0
 40
0
 40
0
 40
1
 40
1
 40
1
 40
1
 10
-305.747808
 20
294.846553
 30
0.0
 10
-305.941269
 20
294.895327
 30
0.0
 10
-306.057712
 20
295.090407
 30
0.0
 10
-306.008895
 20
295.283861
 30
0.0
  0
LWPOLYLINE
  5
236
100
AcDbEntity
  8
Layer_2
 62
2
100
AcDbPolyline
 90
2
 70
0
 10
-305.017115
 20
294.662196
 30
0.0
 10
-305.747808
 20
294.846553
 30
0.0
  0
SPLINE
  5
237
100
AcDbEntity
  8
Layer_2
 62
2
100
AcDbSpline
 70
8
 71
3
 72
8
 73
4
 74
0
 40
0
 40
0
 40
0
 40
0
 40
1
 40
1
 40
1
 40
1
 10
-305.830637
 20
295.990322
 30
0.0
 10
-305.781909
 20
296.183800
 30
0.0
 10
-305.586794
 20
296.300240
 30
0.0
 10
-305.393322
 20
296.251419
 30
0.0
  0
LWPOLYLINE
  5
238
100
AcDbEntity
  8
Layer_2
 62
2
100
AcDbPolyline
 90
2
 70
0
 10
-306.008895
 20
295.283861
 30
0.0
 10
-305.830637
 20
295.990322
 30
0.0
  0
SPLINE
  5
239
100
AcDbEntity
  8
Layer_2
 62
2
100
AcDbSpline
 70
8
 71
3
 72
8
 73
4
 74
0
 40
0
 40
0
 40
0
 40
0
 40
1
 40
1
 40
1
 40
1
 10
-287.135794
 20
278.813804
 30
0.0
 10
-286.510470
 20
277.220310
 30
0.0
 10
-282.841769
 20
273.750752
 30
0.0
 10
-280.192372
 20
277.829309
 30
0.0
  0
SPLINE
  5
23a
100
AcDbEntity
  8
Layer_2
 62
2
100
AcDbSpline
 70
8
 71
3
 72
8
 73
4
 74
0
 40
0
 40
0
 40
0
 40
0
 40
1
 40
1
 40
1
 40
1
 10
-280.192372
 20
277.829309
 30
0.0
 10
-277.860179
 20
274.140007
 30
0.0
 10
-274.664096
 20
276.111221
 30
0.0
 10
-273.300619
 20
278.979471
 30
0.0
  0
LWPOLYLINE
  5
23b
100
AcDbEntity
  8
Layer_2
 62
2
100
AcDbPolyline
 90
1
 70
1
 10
-305.393322
 20
296.251419
 30
0.0
  0
SPLINE
  5
23c
100
AcDbEntity
  8
Layer_2
 62
2
100
AcDbSpline
 70
8
 71
3
 72
8
 73
4
 74
0
 40
0
 40
0
 40
0
 40
0
 40
1
 40
1
 40
1
 40
1
 10
-280.311239
 20
280.157055
 30
0.0
 10
-278.792350
 20
281.142037
 30
0.0
 10
-278.001516
 20
282.214386
 30
0.0
 10
-277.952342
 20
283.375734
 30
0.0
  0
SPLINE
  5
23d
100
AcDbEntity
  8
Layer_2
 62
2
100
AcDbSpline
 70
8
 71
3
 72
8
 73
4
 74
0
 40
0
 40
0
 40
0
 40
0
 40
1
 40
1
 40
1
 40
1
 10
-277.952342
 20
283.375734
 30
0.0
 10
-279.282095
 20
283.708695
 30
0.0
 10
-280.644594
 20
283.979803
 30
0.0
 10
-282.493764
 20
283.331643
 30
0.0
  0
SPLINE
  5
23e
100
AcDbEntity
  8
Layer_2
 62
2
100
AcDbSpline
 70
8
 71
3
 72
8
 73
4
 74
0
 40
0
 40
0
 40
0
 40
0
 40
1
 40
1
 40
1
 40
1
 10
-282.493764
 20
283.331643
 30
0.0
 10
-282.833708
 20
282.671785
 30
0.0
 10
-282.190128
 20
281.639782
 30
0.0
 10
-280.355346
 20
280.157055
 30
0.0
  0
LWPOLYLINE
  5
23f
100
AcDbEntity
  8
Layer_2
 62
2
100
AcDbPolyline
 90
2
 70
0
 10
-280.245093
 20
278.150891
 30
0.0
 10
-280.311239
 20
280.157055
 30
0.0
  0
LWPOLYLINE
  5
240
100
AcDbEntity
  8
Layer_2
 62
2
100
AcDbPolyline
 90
3
 70
0
 10
-281.656036
 20
282.339584
 30
0.0
 10
-279.164848
 20
282.295493
 30
0.0
 10
-280.399427
 20
281.281388
 30
0.0
  0
ENDSEC
  0
SECTION
  2
OBJECTS
  0
DICTIONARY
  5
C
330
0
100
AcDbDictionary
  3
ACAD_GROUP
350
D
  3
ACAD_MLINESTYLE
350
17
  0
DICTIONARY
  5
D
330
C
100
AcDbDictionary
  0
DICTIONARY
  5
1A
330
C
100
AcDbDictionary
  0
DICTIONARY
  5
17
330
C
100
AcDbDictionary
  3
STANDARD
350
18
  0
DICTIONARY
  5
19
330
C
100
AcDbDictionary
  0
ENDSEC
  0
EOF
