  0
SECTION
  2
HEADER
  9
$ACADVER
  1
AC1014
  9
$HANDSEED
  5
FFFF
  9
$INSUNITS
 70
     4
  9
$MEASUREMENT
 70
     1
  0
ENDSEC
  0
SECTION
  2
TABLES
  0
TABLE
  2
VPORT
  5
8
330
0
100
AcDbSymbolTable
 70
     4
  0
VPORT
  5
2E
330
8
100
AcDbSymbolTableRecord
100
AcDbViewportTableRecord
  2
*ACTIVE
 70
     0
 10
0.0
 20
0.0
 11
1.0
 21
1.0
 12
210.0
 22
148.5
 13
0.0
 23
0.0
 14
10.0
 24
10.0
 15
10.0
 25
10.0
 16
0.0
 26
0.0
 36
1.0
 17
0.0
 27
0.0
 37
0.0
 40
341.0
 41
1.24
 42
50.0
 43
0.0
 44
0.0
 50
0.0
 51
0.0
 71
     0
 72
   100
 73
     1
 74
     3
 75
     0
 76
     0
 77
     0
 78
     0
  0
ENDTAB
  0
TABLE
  2
LTYPE
  5
5
330
0
100
AcDbSymbolTable
 70
     1
  0
LTYPE
  5
14
330
5
100
AcDbSymbolTableRecord
100
AcDbLinetypeTableRecord
  2
BYBLOCK
 70
     0
  3

 72
    65
 73
     0
 40
0.0
  0
LTYPE
  5
15
330
5
100
AcDbSymbolTableRecord
100
AcDbLinetypeTableRecord
  2
BYLAYER
 70
     0
  3

 72
    65
 73
     0
 40
0.0
  0
LTYPE
  5
16
330
5
100
AcDbSymbolTableRecord
100
AcDbLinetypeTableRecord
  2
CONTINUOUS
 70
     0
  3
Solid line
 72
    65
 73
     0
 40
0.0
  0
ENDTAB
  0
TABLE
  2
LAYER
  5
2
100
AcDbSymbolTable
 70
3
  0
LAYER
  5
50
100
AcDbSymbolTableRecord
100
AcDbLayerTableRecord
  2
0
 70
0
  6
CONTINUOUS
  0
LAYER
  5
51
100
AcDbSymbolTableRecord
100
AcDbLayerTableRecord
  2
Image
 70
0
  6
CONTINUOUS
  0
LAYER
  5
52
100
AcDbSymbolTableRecord
100
AcDbLayerTableRecord
  2
Edgecut
 70
0
  6
CONTINUOUS
  0
ENDTAB
  0
TABLE
  2
STYLE
  5
3
330
0
100
AcDbSymbolTable
 70
     1
  0
STYLE
  5
11
330
3
100
AcDbSymbolTableRecord
100
AcDbTextStyleTableRecord
  2
STANDARD
 70
     0
 40
0.0
 41
1.0
 50
0.0
 71
     0
 42
2.5
  3
txt
  4

  0
ENDTAB
  0
TABLE
  2
VIEW
  5
6
330
0
100
AcDbSymbolTable
 70
     0
  0
ENDTAB
  0
TABLE
  2
UCS
  5
7
330
0
100
AcDbSymbolTable
 70
     0
  0
ENDTAB
  0
TABLE
  2
APPID
  5
9
330
0
100
AcDbSymbolTable
 70
     2
  0
APPID
  5
12
330
9
100
AcDbSymbolTableRecord
100
AcDbRegAppTableRecord
  2
ACAD
 70
     0
  0
ENDTAB
  0
TABLE
  2
DIMSTYLE
  5
A
330
0
100
AcDbSymbolTable
 70
     1
  0
DIMSTYLE
105
27
330
A
100
AcDbSymbolTableRecord
100
AcDbDimStyleTableRecord
  2
ISO-25
 70
     0
  3

  4

  5

  6

  7

 40
1.0
 41
2.5
 42
0.625
 43
3.75
 44
1.25
 45
0.0
 46
0.0
 47
0.0
 48
0.0
140
2.5
141
2.5
142
0.0
143
0.03937007874016
144
1.0
145
0.0
146
1.0
147
0.625
 71
     0
 72
     0
 73
     0
 74
     0
 75
     0
 76
     0
 77
     1
 78
     8
170
     0
171
     3
172
     1
173
     0
174
     0
175
     0
176
     0
177
     0
178
     0
270
     2
271
     2
272
     2
273
     2
274
     3
340
11
275
     0
280
     0
281
     0
282
     0
283
     0
284
     8
285
     0
286
     0
287
     3
288
     0
  0
ENDTAB
  0
TABLE
  2
BLOCK_RECORD
  5
1
330
0
100
AcDbSymbolTable
 70
     1
  0
BLOCK_RECORD
  5
1F
330
1
100
AcDbSymbolTableRecord
100
AcDbBlockTableRecord
  2
*MODEL_SPACE
  0
BLOCK_RECORD
  5
1B
330
1
100
AcDbSymbolTableRecord
100
AcDbBlockTableRecord
  2
*PAPER_SPACE
  0
ENDTAB
  0
ENDSEC
  0
SECTION
  2
BLOCKS
  0
BLOCK
  5
20
330
1F
100
AcDbEntity
  8
0
100
AcDbBlockBegin
  2
*MODEL_SPACE
 70
     0
 10
0.0
 20
0.0
 30
0.0
  3
*MODEL_SPACE
  1

  0
ENDBLK
  5
21
330
1F
100
AcDbEntity
  8
0
100
AcDbBlockEnd
  0
BLOCK
  5
1C
330
1B
100
AcDbEntity
 67
     1
  8
0
100
AcDbBlockBegin
  2
*PAPER_SPACE
  1

  0
ENDBLK
  5
1D
330
1B
100
AcDbEntity
 67
     1
  8
0
100
AcDbBlockEnd
  0
ENDSEC
  0
SECTION
  2
ENTITIES
  0
SPLINE
  5
100
100
AcDbEntity
  8
Edgecut
 62
6
100
AcDbSpline
 70
8
 71
3
 72
8
 73
4
 74
0
 40
0
 40
0
 40
0
 40
0
 40
1
 40
1
 40
1
 40
1
 10
-304.969390
 20
319.107846
 30
0.0
 10
-304.992690
 20
319.107817
 30
0.0
 10
-305.016090
 20
319.107440
 30
0.0
 10
-305.039390
 20
319.106886
 30
0.0
  0
SPLINE
  5
101
100
AcDbEntity
  8
Edgecut
 62
6
100
AcDbSpline
 70
8
 71
3
 72
8
 73
4
 74
0
 40
0
 40
0
 40
0
 40
0
 40
1
 40
1
 40
1
 40
1
 10
-305.039390
 20
319.106886
 30
0.0
 10
-305.943250
 20
319.052496
 30
0.0
 10
-306.579920
 20
318.280322
 30
0.0
 10
-306.965810
 20
317.531988
 30
0.0
  0
SPLINE
  5
102
100
AcDbEntity
  8
Edgecut
 62
6
100
AcDbSpline
 70
8
 71
3
 72
8
 73
4
 74
0
 40
0
 40
0
 40
0
 40
0
 40
1
 40
1
 40
1
 40
1
 10
-306.965810
 20
317.531988
 30
0.0
 10
-307.782840
 20
315.939358
 30
0.0
 10
-308.280940
 20
314.206779
 30
0.0
 10
-308.730110
 20
312.480945
 30
0.0
  0
SPLINE
  5
103
100
AcDbEntity
  8
Edgecut
 62
6
100
AcDbSpline
 70
8
 71
3
 72
8
 73
4
 74
0
 40
0
 40
0
 40
0
 40
0
 40
1
 40
1
 40
1
 40
1
 10
-308.730110
 20
312.480945
 30
0.0
 10
-309.572060
 20
308.978963
 30
0.0
 10
-309.695450
 20
305.341160
 30
0.0
 10
-309.470350
 20
301.758596
 30
0.0
  0
SPLINE
  5
104
100
AcDbEntity
  8
Edgecut
 62
6
100
AcDbSpline
 70
8
 71
3
 72
8
 73
4
 74
0
 40
0
 40
0
 40
0
 40
0
 40
1
 40
1
 40
1
 40
1
 10
-309.470350
 20
301.758596
 30
0.0
 10
-309.401950
 20
300.771824
 30
0.0
 10
-309.203320
 20
299.788947
 30
0.0
 10
-309.035850
 20
298.826047
 30
0.0
  0
SPLINE
  5
105
100
AcDbEntity
  8
Edgecut
 62
6
100
AcDbSpline
 70
8
 71
3
 72
8
 73
4
 74
0
 40
0
 40
0
 40
0
 40
0
 40
1
 40
1
 40
1
 40
1
 10
-309.035850
 20
298.826047
 30
0.0
 10
-309.019650
 20
298.444034
 30
0.0
 10
-309.306700
 20
298.139024
 30
0.0
 10
-309.428390
 20
297.792073
 30
0.0
  0
SPLINE
  5
106
100
AcDbEntity
  8
Edgecut
 62
6
100
AcDbSpline
 70
8
 71
3
 72
8
 73
4
 74
0
 40
0
 40
0
 40
0
 40
0
 40
1
 40
1
 40
1
 40
1
 10
-309.428390
 20
297.792073
 30
0.0
 10
-310.507260
 20
295.543855
 30
0.0
 10
-311.566300
 20
293.269031
 30
0.0
 10
-312.212160
 20
290.852185
 30
0.0
  0
SPLINE
  5
107
100
AcDbEntity
  8
Edgecut
 62
6
100
AcDbSpline
 70
8
 71
3
 72
8
 73
4
 74
0
 40
0
 40
0
 40
0
 40
0
 40
1
 40
1
 40
1
 40
1
 10
-312.212160
 20
290.852185
 30
0.0
 10
-312.552390
 20
289.632844
 30
0.0
 10
-312.843210
 20
288.396756
 30
0.0
 10
-313.042620
 20
287.146969
 30
0.0
  0
SPLINE
  5
108
100
AcDbEntity
  8
Edgecut
 62
6
100
AcDbSpline
 70
8
 71
3
 72
8
 73
4
 74
0
 40
0
 40
0
 40
0
 40
0
 40
1
 40
1
 40
1
 40
1
 10
-313.042620
 20
287.146969
 30
0.0
 10
-313.066320
 20
286.981316
 30
0.0
 10
-312.963720
 20
286.684918
 30
0.0
 10
-313.231640
 20
286.709422
 30
0.0
  0
SPLINE
  5
109
100
AcDbEntity
  8
Edgecut
 62
6
100
AcDbSpline
 70
8
 71
3
 72
8
 73
4
 74
0
 40
0
 40
0
 40
0
 40
0
 40
1
 40
1
 40
1
 40
1
 10
-313.231640
 20
286.709422
 30
0.0
 10
-314.089680
 20
286.619932
 30
0.0
 10
-314.956950
 20
286.626142
 30
0.0
 10
-315.819340
 20
286.589644
 30
0.0
  0
SPLINE
  5
10a
100
AcDbEntity
  8
Edgecut
 62
6
100
AcDbSpline
 70
8
 71
3
 72
8
 73
4
 74
0
 40
0
 40
0
 40
0
 40
0
 40
1
 40
1
 40
1
 40
1
 10
-315.819340
 20
286.589644
 30
0.0
 10
-316.640810
 20
286.557204
 30
0.0
 10
-317.474790
 20
286.532944
 30
0.0
 10
-318.275810
 20
286.336157
 30
0.0
  0
SPLINE
  5
10b
100
AcDbEntity
  8
Edgecut
 62
6
100
AcDbSpline
 70
8
 71
3
 72
8
 73
4
 74
0
 40
0
 40
0
 40
0
 40
0
 40
1
 40
1
 40
1
 40
1
 10
-318.275810
 20
286.336157
 30
0.0
 10
-318.922720
 20
286.144571
 30
0.0
 10
-319.449910
 20
285.482345
 30
0.0
 10
-319.304070
 20
284.788724
 30
0.0
  0
SPLINE
  5
10c
100
AcDbEntity
  8
Edgecut
 62
6
100
AcDbSpline
 70
8
 71
3
 72
8
 73
4
 74
0
 40
0
 40
0
 40
0
 40
0
 40
1
 40
1
 40
1
 40
1
 10
-319.304070
 20
284.788724
 30
0.0
 10
-319.188210
 20
284.029309
 30
0.0
 10
-318.455190
 20
283.488958
 30
0.0
 10
-317.709520
 20
283.461398
 30
0.0
  0
SPLINE
  5
10d
100
AcDbEntity
  8
Edgecut
 62
6
100
AcDbSpline
 70
8
 71
3
 72
8
 73
4
 74
0
 40
0
 40
0
 40
0
 40
0
 40
1
 40
1
 40
1
 40
1
 10
-317.709520
 20
283.461398
 30
0.0
 10
-316.281210
 20
283.231293
 30
0.0
 10
-314.832230
 20
283.206915
 30
0.0
 10
-313.408070
 20
282.999819
 30
0.0
  0
SPLINE
  5
10e
100
AcDbEntity
  8
Edgecut
 62
6
100
AcDbSpline
 70
8
 71
3
 72
8
 73
4
 74
0
 40
0
 40
0
 40
0
 40
0
 40
1
 40
1
 40
1
 40
1
 10
-313.408070
 20
282.999819
 30
0.0
 10
-313.267110
 20
282.267599
 30
0.0
 10
-313.228700
 20
281.517226
 30
0.0
 10
-313.186060
 20
280.765742
 30
0.0
  0
SPLINE
  5
10f
100
AcDbEntity
  8
Edgecut
 62
6
100
AcDbSpline
 70
8
 71
3
 72
8
 73
4
 74
0
 40
0
 40
0
 40
0
 40
0
 40
1
 40
1
 40
1
 40
1
 10
-313.186060
 20
280.765742
 30
0.0
 10
-314.794860
 20
280.210531
 30
0.0
 10
-316.483880
 20
279.821336
 30
0.0
 10
-317.984370
 20
278.991527
 30
0.0
  0
SPLINE
  5
110
100
AcDbEntity
  8
Edgecut
 62
6
100
AcDbSpline
 70
8
 71
3
 72
8
 73
4
 74
0
 40
0
 40
0
 40
0
 40
0
 40
1
 40
1
 40
1
 40
1
 10
-317.984370
 20
278.991527
 30
0.0
 10
-318.478520
 20
278.650465
 30
0.0
 10
-318.588530
 20
277.838206
 30
0.0
 10
-318.093850
 20
277.446767
 30
0.0
  0
SPLINE
  5
111
100
AcDbEntity
  8
Edgecut
 62
6
100
AcDbSpline
 70
8
 71
3
 72
8
 73
4
 74
0
 40
0
 40
0
 40
0
 40
0
 40
1
 40
1
 40
1
 40
1
 10
-318.093850
 20
277.446767
 30
0.0
 10
-317.658130
 20
277.058010
 30
0.0
 10
-317.045830
 20
277.304717
 30
0.0
 10
-316.562820
 20
277.449667
 30
0.0
  0
SPLINE
  5
112
100
AcDbEntity
  8
Edgecut
 62
6
100
AcDbSpline
 70
8
 71
3
 72
8
 73
4
 74
0
 40
0
 40
0
 40
0
 40
0
 40
1
 40
1
 40
1
 40
1
 10
-316.562820
 20
277.449667
 30
0.0
 10
-315.204570
 20
277.855192
 30
0.0
 10
-313.869970
 20
278.341754
 30
0.0
 10
-312.495400
 20
278.693258
 30
0.0
  0
SPLINE
  5
113
100
AcDbEntity
  8
Edgecut
 62
6
100
AcDbSpline
 70
8
 71
3
 72
8
 73
4
 74
0
 40
0
 40
0
 40
0
 40
0
 40
1
 40
1
 40
1
 40
1
 10
-312.495400
 20
278.693258
 30
0.0
 10
-312.010340
 20
277.337828
 30
0.0
 10
-311.311830
 20
276.058027
 30
0.0
 10
-310.648520
 20
274.792535
 30
0.0
  0
SPLINE
  5
114
100
AcDbEntity
  8
Edgecut
 62
6
100
AcDbSpline
 70
8
 71
3
 72
8
 73
4
 74
0
 40
0
 40
0
 40
0
 40
0
 40
1
 40
1
 40
1
 40
1
 10
-310.648520
 20
274.792535
 30
0.0
 10
-310.996750
 20
274.406156
 30
0.0
 10
-311.539680
 20
274.020611
 30
0.0
 10
-311.468680
 20
273.433167
 30
0.0
  0
SPLINE
  5
115
100
AcDbEntity
  8
Edgecut
 62
6
100
AcDbSpline
 70
8
 71
3
 72
8
 73
4
 74
0
 40
0
 40
0
 40
0
 40
0
 40
1
 40
1
 40
1
 40
1
 10
-311.468680
 20
273.433167
 30
0.0
 10
-311.397380
 20
272.827365
 30
0.0
 10
-310.641190
 20
272.517079
 30
0.0
 10
-310.129530
 20
272.806220
 30
0.0
  0
SPLINE
  5
116
100
AcDbEntity
  8
Edgecut
 62
6
100
AcDbSpline
 70
8
 71
3
 72
8
 73
4
 74
0
 40
0
 40
0
 40
0
 40
0
 40
1
 40
1
 40
1
 40
1
 10
-310.129530
 20
272.806220
 30
0.0
 10
-309.874040
 20
272.899100
 30
0.0
 10
-309.641020
 20
273.043961
 30
0.0
 10
-309.387000
 20
273.140387
 30
0.0
  0
SPLINE
  5
117
100
AcDbEntity
  8
Edgecut
 62
6
100
AcDbSpline
 70
8
 71
3
 72
8
 73
4
 74
0
 40
0
 40
0
 40
0
 40
0
 40
1
 40
1
 40
1
 40
1
 10
-309.387000
 20
273.140387
 30
0.0
 10
-308.544550
 20
272.442470
 30
0.0
 10
-307.758260
 20
271.674303
 30
0.0
 10
-306.845840
 20
271.064430
 30
0.0
  0
SPLINE
  5
118
100
AcDbEntity
  8
Edgecut
 62
6
100
AcDbSpline
 70
8
 71
3
 72
8
 73
4
 74
0
 40
0
 40
0
 40
0
 40
0
 40
1
 40
1
 40
1
 40
1
 10
-306.845840
 20
271.064430
 30
0.0
 10
-304.406360
 20
269.331571
 30
0.0
 10
-301.621410
 20
268.165624
 30
0.0
 10
-298.800260
 20
267.213109
 30
0.0
  0
SPLINE
  5
119
100
AcDbEntity
  8
Edgecut
 62
6
100
AcDbSpline
 70
8
 71
3
 72
8
 73
4
 74
0
 40
0
 40
0
 40
0
 40
0
 40
1
 40
1
 40
1
 40
1
 10
-298.800260
 20
267.213109
 30
0.0
 10
-298.678260
 20
267.123329
 30
0.0
 10
-298.341740
 20
267.150119
 30
0.0
 10
-298.418790
 20
266.946656
 30
0.0
  0
SPLINE
  5
11a
100
AcDbEntity
  8
Edgecut
 62
6
100
AcDbSpline
 70
8
 71
3
 72
8
 73
4
 74
0
 40
0
 40
0
 40
0
 40
0
 40
1
 40
1
 40
1
 40
1
 10
-298.418790
 20
266.946656
 30
0.0
 10
-298.736570
 20
265.444589
 30
0.0
 10
-299.120340
 20
263.956105
 30
0.0
 10
-299.337560
 20
262.434439
 30
0.0
  0
SPLINE
  5
11b
100
AcDbEntity
  8
Edgecut
 62
6
100
AcDbSpline
 70
8
 71
3
 72
8
 73
4
 74
0
 40
0
 40
0
 40
0
 40
0
 40
1
 40
1
 40
1
 40
1
 10
-299.337560
 20
262.434439
 30
0.0
 10
-299.606050
 20
260.814354
 30
0.0
 10
-299.726890
 20
259.167908
 30
0.0
 10
-299.625760
 20
257.526833
 30
0.0
  0
SPLINE
  5
11c
100
AcDbEntity
  8
Edgecut
 62
6
100
AcDbSpline
 70
8
 71
3
 72
8
 73
4
 74
0
 40
0
 40
0
 40
0
 40
0
 40
1
 40
1
 40
1
 40
1
 10
-299.625760
 20
257.526833
 30
0.0
 10
-299.469940
 20
253.799580
 30
0.0
 10
-299.031930
 20
250.090202
 30
0.0
 10
-298.844700
 20
246.364263
 30
0.0
  0
SPLINE
  5
11d
100
AcDbEntity
  8
Edgecut
 62
6
100
AcDbSpline
 70
8
 71
3
 72
8
 73
4
 74
0
 40
0
 40
0
 40
0
 40
0
 40
1
 40
1
 40
1
 40
1
 10
-298.844700
 20
246.364263
 30
0.0
 10
-298.722410
 20
244.169137
 30
0.0
 10
-298.585560
 20
241.959951
 30
0.0
 10
-298.698030
 20
239.758926
 30
0.0
  0
SPLINE
  5
11e
100
AcDbEntity
  8
Edgecut
 62
6
100
AcDbSpline
 70
8
 71
3
 72
8
 73
4
 74
0
 40
0
 40
0
 40
0
 40
0
 40
1
 40
1
 40
1
 40
1
 10
-298.698030
 20
239.758926
 30
0.0
 10
-298.682730
 20
239.452467
 30
0.0
 10
-298.904650
 20
239.242489
 30
0.0
 10
-299.130230
 20
239.072661
 30
0.0
  0
SPLINE
  5
11f
100
AcDbEntity
  8
Edgecut
 62
6
100
AcDbSpline
 70
8
 71
3
 72
8
 73
4
 74
0
 40
0
 40
0
 40
0
 40
0
 40
1
 40
1
 40
1
 40
1
 10
-299.130230
 20
239.072661
 30
0.0
 10
-299.835490
 20
238.524534
 30
0.0
 10
-300.636710
 20
238.067381
 30
0.0
 10
-301.163270
 20
237.324194
 30
0.0
  0
SPLINE
  5
120
100
AcDbEntity
  8
Edgecut
 62
6
100
AcDbSpline
 70
8
 71
3
 72
8
 73
4
 74
0
 40
0
 40
0
 40
0
 40
0
 40
1
 40
1
 40
1
 40
1
 10
-301.163270
 20
237.324194
 30
0.0
 10
-301.792870
 20
236.483293
 30
0.0
 10
-302.236530
 20
235.462171
 30
0.0
 10
-302.269730
 20
234.402516
 30
0.0
  0
SPLINE
  5
121
100
AcDbEntity
  8
Edgecut
 62
6
100
AcDbSpline
 70
8
 71
3
 72
8
 73
4
 74
0
 40
0
 40
0
 40
0
 40
0
 40
1
 40
1
 40
1
 40
1
 10
-302.269730
 20
234.402516
 30
0.0
 10
-302.289030
 20
233.107832
 30
0.0
 10
-301.541780
 20
231.806139
 30
0.0
 10
-300.343690
 20
231.272365
 30
0.0
  0
SPLINE
  5
122
100
AcDbEntity
  8
Edgecut
 62
6
100
AcDbSpline
 70
8
 71
3
 72
8
 73
4
 74
0
 40
0
 40
0
 40
0
 40
0
 40
1
 40
1
 40
1
 40
1
 10
-300.343690
 20
231.272365
 30
0.0
 10
-299.548100
 20
230.852712
 30
0.0
 10
-298.631660
 20
230.819723
 30
0.0
 10
-297.752360
 20
230.832342
 30
0.0
  0
SPLINE
  5
123
100
AcDbEntity
  8
Edgecut
 62
6
100
AcDbSpline
 70
8
 71
3
 72
8
 73
4
 74
0
 40
0
 40
0
 40
0
 40
0
 40
1
 40
1
 40
1
 40
1
 10
-297.752360
 20
230.832342
 30
0.0
 10
-296.254420
 20
230.819792
 30
0.0
 10
-294.753440
 20
230.812742
 30
0.0
 10
-293.258070
 20
230.901392
 30
0.0
  0
SPLINE
  5
124
100
AcDbEntity
  8
Edgecut
 62
6
100
AcDbSpline
 70
8
 71
3
 72
8
 73
4
 74
0
 40
0
 40
0
 40
0
 40
0
 40
1
 40
1
 40
1
 40
1
 10
-293.258070
 20
230.901392
 30
0.0
 10
-292.152060
 20
231.052480
 30
0.0
 10
-291.097930
 20
231.613537
 30
0.0
 10
-290.352610
 20
232.443483
 30
0.0
  0
SPLINE
  5
125
100
AcDbEntity
  8
Edgecut
 62
6
100
AcDbSpline
 70
8
 71
3
 72
8
 73
4
 74
0
 40
0
 40
0
 40
0
 40
0
 40
1
 40
1
 40
1
 40
1
 10
-290.352610
 20
232.443483
 30
0.0
 10
-289.496520
 20
233.444375
 30
0.0
 10
-289.118590
 20
234.764091
 30
0.0
 10
-288.967300
 20
236.049326
 30
0.0
  0
SPLINE
  5
126
100
AcDbEntity
  8
Edgecut
 62
6
100
AcDbSpline
 70
8
 71
3
 72
8
 73
4
 74
0
 40
0
 40
0
 40
0
 40
0
 40
1
 40
1
 40
1
 40
1
 10
-288.967300
 20
236.049326
 30
0.0
 10
-288.855160
 20
237.408782
 30
0.0
 10
-288.899200
 20
238.774129
 30
0.0
 10
-288.888500
 20
240.136583
 30
0.0
  0
SPLINE
  5
127
100
AcDbEntity
  8
Edgecut
 62
6
100
AcDbSpline
 70
8
 71
3
 72
8
 73
4
 74
0
 40
0
 40
0
 40
0
 40
0
 40
1
 40
1
 40
1
 40
1
 10
-288.888500
 20
240.136583
 30
0.0
 10
-287.832000
 20
239.126821
 30
0.0
 10
-286.646860
 20
238.243600
 30
0.0
 10
-285.350370
 20
237.566622
 30
0.0
  0
SPLINE
  5
128
100
AcDbEntity
  8
Edgecut
 62
6
100
AcDbSpline
 70
8
 71
3
 72
8
 73
4
 74
0
 40
0
 40
0
 40
0
 40
0
 40
1
 40
1
 40
1
 40
1
 10
-285.350370
 20
237.566622
 30
0.0
 10
-286.284010
 20
236.443549
 30
0.0
 10
-286.996610
 20
234.999703
 30
0.0
 10
-286.839060
 20
233.504922
 30
0.0
  0
SPLINE
  5
129
100
AcDbEntity
  8
Edgecut
 62
6
100
AcDbSpline
 70
8
 71
3
 72
8
 73
4
 74
0
 40
0
 40
0
 40
0
 40
0
 40
1
 40
1
 40
1
 40
1
 10
-286.839060
 20
233.504922
 30
0.0
 10
-286.705860
 20
232.413026
 30
0.0
 10
-285.928650
 20
231.444023
 30
0.0
 10
-284.896800
 20
231.065805
 30
0.0
  0
SPLINE
  5
12a
100
AcDbEntity
  8
Edgecut
 62
6
100
AcDbSpline
 70
8
 71
3
 72
8
 73
4
 74
0
 40
0
 40
0
 40
0
 40
0
 40
1
 40
1
 40
1
 40
1
 10
-284.896800
 20
231.065805
 30
0.0
 10
-283.635560
 20
230.557765
 30
0.0
 10
-282.247010
 20
230.683353
 30
0.0
 10
-280.917880
 20
230.668120
 30
0.0
  0
SPLINE
  5
12b
100
AcDbEntity
  8
Edgecut
 62
6
100
AcDbSpline
 70
8
 71
3
 72
8
 73
4
 74
0
 40
0
 40
0
 40
0
 40
0
 40
1
 40
1
 40
1
 40
1
 10
-280.917880
 20
230.668120
 30
0.0
 10
-279.865540
 20
230.698200
 30
0.0
 10
-278.799280
 20
230.663820
 30
0.0
 10
-277.761220
 20
230.851800
 30
0.0
  0
SPLINE
  5
12c
100
AcDbEntity
  8
Edgecut
 62
6
100
AcDbSpline
 70
8
 71
3
 72
8
 73
4
 74
0
 40
0
 40
0
 40
0
 40
0
 40
1
 40
1
 40
1
 40
1
 10
-277.761220
 20
230.851800
 30
0.0
 10
-276.626410
 20
231.204130
 30
0.0
 10
-275.558340
 20
231.965030
 30
0.0
 10
-275.070520
 20
233.074052
 30
0.0
  0
SPLINE
  5
12d
100
AcDbEntity
  8
Edgecut
 62
6
100
AcDbSpline
 70
8
 71
3
 72
8
 73
4
 74
0
 40
0
 40
0
 40
0
 40
0
 40
1
 40
1
 40
1
 40
1
 10
-275.070520
 20
233.074052
 30
0.0
 10
-274.230490
 20
232.731362
 30
0.0
 10
-273.332890
 20
232.549122
 30
0.0
 10
-272.432850
 20
232.457025
 30
0.0
  0
SPLINE
  5
12e
100
AcDbEntity
  8
Edgecut
 62
6
100
AcDbSpline
 70
8
 71
3
 72
8
 73
4
 74
0
 40
0
 40
0
 40
0
 40
0
 40
1
 40
1
 40
1
 40
1
 10
-272.432850
 20
232.457025
 30
0.0
 10
-271.929450
 20
231.457827
 30
0.0
 10
-270.786600
 20
230.892371
 30
0.0
 10
-269.694090
 20
230.887277
 30
0.0
  0
SPLINE
  5
12f
100
AcDbEntity
  8
Edgecut
 62
6
100
AcDbSpline
 70
8
 71
3
 72
8
 73
4
 74
0
 40
0
 40
0
 40
0
 40
0
 40
1
 40
1
 40
1
 40
1
 10
-269.694090
 20
230.887277
 30
0.0
 10
-267.994950
 20
230.812937
 30
0.0
 10
-266.293150
 20
230.861477
 30
0.0
 10
-264.592880
 20
230.845887
 30
0.0
  0
SPLINE
  5
130
100
AcDbEntity
  8
Edgecut
 62
6
100
AcDbSpline
 70
8
 71
3
 72
8
 73
4
 74
0
 40
0
 40
0
 40
0
 40
0
 40
1
 40
1
 40
1
 40
1
 10
-264.592880
 20
230.845887
 30
0.0
 10
-262.613110
 20
230.853587
 30
0.0
 10
-260.630800
 20
230.816177
 30
0.0
 10
-258.653020
 20
230.913217
 30
0.0
  0
SPLINE
  5
131
100
AcDbEntity
  8
Edgecut
 62
6
100
AcDbSpline
 70
8
 71
3
 72
8
 73
4
 74
0
 40
0
 40
0
 40
0
 40
0
 40
1
 40
1
 40
1
 40
1
 10
-258.653020
 20
230.913217
 30
0.0
 10
-256.517270
 20
231.106413
 30
0.0
 10
-254.463270
 20
231.914028
 30
0.0
 10
-252.663560
 20
233.061274
 30
0.0
  0
SPLINE
  5
132
100
AcDbEntity
  8
Edgecut
 62
6
100
AcDbSpline
 70
8
 71
3
 72
8
 73
4
 74
0
 40
0
 40
0
 40
0
 40
0
 40
1
 40
1
 40
1
 40
1
 10
-252.663560
 20
233.061274
 30
0.0
 10
-251.276380
 20
233.952685
 30
0.0
 10
-250.065080
 20
235.099395
 30
0.0
 10
-249.043600
 20
236.390166
 30
0.0
  0
SPLINE
  5
133
100
AcDbEntity
  8
Edgecut
 62
6
100
AcDbSpline
 70
8
 71
3
 72
8
 73
4
 74
0
 40
0
 40
0
 40
0
 40
0
 40
1
 40
1
 40
1
 40
1
 10
-249.043600
 20
236.390166
 30
0.0
 10
-248.673000
 20
236.818947
 30
0.0
 10
-248.124910
 20
237.016110
 30
0.0
 10
-247.578570
 20
237.096650
 30
0.0
  0
SPLINE
  5
134
100
AcDbEntity
  8
Edgecut
 62
6
100
AcDbSpline
 70
8
 71
3
 72
8
 73
4
 74
0
 40
0
 40
0
 40
0
 40
0
 40
1
 40
1
 40
1
 40
1
 10
-247.578570
 20
237.096650
 30
0.0
 10
-244.954920
 20
237.702452
 30
0.0
 10
-242.598670
 20
239.136060
 30
0.0
 10
-240.526910
 20
240.818079
 30
0.0
  0
SPLINE
  5
135
100
AcDbEntity
  8
Edgecut
 62
6
100
AcDbSpline
 70
8
 71
3
 72
8
 73
4
 74
0
 40
0
 40
0
 40
0
 40
0
 40
1
 40
1
 40
1
 40
1
 10
-240.526910
 20
240.818079
 30
0.0
 10
-238.594080
 20
242.389063
 30
0.0
 10
-236.923860
 20
244.314843
 30
0.0
 10
-235.815000
 20
246.555764
 30
0.0
  0
SPLINE
  5
136
100
AcDbEntity
  8
Edgecut
 62
6
100
AcDbSpline
 70
8
 71
3
 72
8
 73
4
 74
0
 40
0
 40
0
 40
0
 40
0
 40
1
 40
1
 40
1
 40
1
 10
-235.815000
 20
246.555764
 30
0.0
 10
-234.376040
 20
249.380167
 30
0.0
 10
-233.678920
 20
252.533508
 30
0.0
 10
-233.446450
 20
255.679566
 30
0.0
  0
SPLINE
  5
137
100
AcDbEntity
  8
Edgecut
 62
6
100
AcDbSpline
 70
8
 71
3
 72
8
 73
4
 74
0
 40
0
 40
0
 40
0
 40
0
 40
1
 40
1
 40
1
 40
1
 10
-233.446450
 20
255.679566
 30
0.0
 10
-233.310080
 20
257.819687
 30
0.0
 10
-233.512150
 20
259.969197
 30
0.0
 10
-233.867020
 20
262.079296
 30
0.0
  0
SPLINE
  5
138
100
AcDbEntity
  8
Edgecut
 62
6
100
AcDbSpline
 70
8
 71
3
 72
8
 73
4
 74
0
 40
0
 40
0
 40
0
 40
0
 40
1
 40
1
 40
1
 40
1
 10
-233.867020
 20
262.079296
 30
0.0
 10
-234.467460
 20
265.489891
 30
0.0
 10
-235.767290
 20
268.717516
 30
0.0
 10
-236.866520
 20
271.983965
 30
0.0
  0
SPLINE
  5
139
100
AcDbEntity
  8
Edgecut
 62
6
100
AcDbSpline
 70
8
 71
3
 72
8
 73
4
 74
0
 40
0
 40
0
 40
0
 40
0
 40
1
 40
1
 40
1
 40
1
 10
-236.866520
 20
271.983965
 30
0.0
 10
-237.365880
 20
273.709988
 30
0.0
 10
-237.893250
 20
275.531166
 30
0.0
 10
-237.514250
 20
277.336945
 30
0.0
  0
SPLINE
  5
13a
100
AcDbEntity
  8
Edgecut
 62
6
100
AcDbSpline
 70
8
 71
3
 72
8
 73
4
 74
0
 40
0
 40
0
 40
0
 40
0
 40
1
 40
1
 40
1
 40
1
 10
-237.514250
 20
277.336945
 30
0.0
 10
-237.307260
 20
278.537643
 30
0.0
 10
-236.727600
 20
279.691418
 30
0.0
 10
-235.776090
 20
280.471864
 30
0.0
  0
SPLINE
  5
13b
100
AcDbEntity
  8
Edgecut
 62
6
100
AcDbSpline
 70
8
 71
3
 72
8
 73
4
 74
0
 40
0
 40
0
 40
0
 40
0
 40
1
 40
1
 40
1
 40
1
 10
-235.776090
 20
280.471864
 30
0.0
 10
-234.922840
 20
281.209699
 30
0.0
 10
-233.925630
 20
281.828855
 30
0.0
 10
-233.328770
 20
282.815995
 30
0.0
  0
SPLINE
  5
13c
100
AcDbEntity
  8
Edgecut
 62
6
100
AcDbSpline
 70
8
 71
3
 72
8
 73
4
 74
0
 40
0
 40
0
 40
0
 40
0
 40
1
 40
1
 40
1
 40
1
 10
-233.328770
 20
282.815995
 30
0.0
 10
-232.716410
 20
283.723177
 30
0.0
 10
-232.517510
 20
284.868212
 30
0.0
 10
-232.723760
 20
285.937371
 30
0.0
  0
SPLINE
  5
13d
100
AcDbEntity
  8
Edgecut
 62
6
100
AcDbSpline
 70
8
 71
3
 72
8
 73
4
 74
0
 40
0
 40
0
 40
0
 40
0
 40
1
 40
1
 40
1
 40
1
 10
-232.723760
 20
285.937371
 30
0.0
 10
-232.884510
 20
286.967647
 30
0.0
 10
-233.505820
 20
287.930172
 30
0.0
 10
-234.441520
 20
288.415590
 30
0.0
  0
SPLINE
  5
13e
100
AcDbEntity
  8
Edgecut
 62
6
100
AcDbSpline
 70
8
 71
3
 72
8
 73
4
 74
0
 40
0
 40
0
 40
0
 40
0
 40
1
 40
1
 40
1
 40
1
 10
-234.441520
 20
288.415590
 30
0.0
 10
-235.824830
 20
289.178891
 30
0.0
 10
-237.513740
 20
289.083850
 30
0.0
 10
-238.982340
 20
288.633983
 30
0.0
  0
SPLINE
  5
13f
100
AcDbEntity
  8
Edgecut
 62
6
100
AcDbSpline
 70
8
 71
3
 72
8
 73
4
 74
0
 40
0
 40
0
 40
0
 40
0
 40
1
 40
1
 40
1
 40
1
 10
-238.982340
 20
288.633983
 30
0.0
 10
-241.396680
 20
287.892041
 30
0.0
 10
-243.391310
 20
286.076288
 30
0.0
 10
-244.584410
 20
283.875148
 30
0.0
  0
SPLINE
  5
140
100
AcDbEntity
  8
Edgecut
 62
6
100
AcDbSpline
 70
8
 71
3
 72
8
 73
4
 74
0
 40
0
 40
0
 40
0
 40
0
 40
1
 40
1
 40
1
 40
1
 10
-244.584410
 20
283.875148
 30
0.0
 10
-245.483150
 20
282.251479
 30
0.0
 10
-246.051480
 20
280.439063
 30
0.0
 10
-246.229120
 20
278.591981
 30
0.0
  0
SPLINE
  5
141
100
AcDbEntity
  8
Edgecut
 62
6
100
AcDbSpline
 70
8
 71
3
 72
8
 73
4
 74
0
 40
0
 40
0
 40
0
 40
0
 40
1
 40
1
 40
1
 40
1
 10
-246.229120
 20
278.591981
 30
0.0
 10
-246.340610
 20
276.849929
 30
0.0
 10
-246.325620
 20
275.095605
 30
0.0
 10
-246.154320
 20
273.358399
 30
0.0
  0
SPLINE
  5
142
100
AcDbEntity
  8
Edgecut
 62
6
100
AcDbSpline
 70
8
 71
3
 72
8
 73
4
 74
0
 40
0
 40
0
 40
0
 40
0
 40
1
 40
1
 40
1
 40
1
 10
-246.154320
 20
273.358399
 30
0.0
 10
-245.764520
 20
270.634308
 30
0.0
 10
-244.846940
 20
268.025751
 30
0.0
 10
-244.091710
 20
265.389117
 30
0.0
  0
SPLINE
  5
143
100
AcDbEntity
  8
Edgecut
 62
6
100
AcDbSpline
 70
8
 71
3
 72
8
 73
4
 74
0
 40
0
 40
0
 40
0
 40
0
 40
1
 40
1
 40
1
 40
1
 10
-244.091710
 20
265.389117
 30
0.0
 10
-243.434350
 20
263.173321
 30
0.0
 10
-242.906490
 20
260.894775
 30
0.0
 10
-242.740550
 20
258.577593
 30
0.0
  0
SPLINE
  5
144
100
AcDbEntity
  8
Edgecut
 62
6
100
AcDbSpline
 70
8
 71
3
 72
8
 73
4
 74
0
 40
0
 40
0
 40
0
 40
0
 40
1
 40
1
 40
1
 40
1
 10
-242.740550
 20
258.577593
 30
0.0
 10
-242.586770
 20
256.811974
 30
0.0
 10
-242.634060
 20
255.006541
 30
0.0
 10
-243.142430
 20
253.283936
 30
0.0
  0
SPLINE
  5
145
100
AcDbEntity
  8
Edgecut
 62
6
100
AcDbSpline
 70
8
 71
3
 72
8
 73
4
 74
0
 40
0
 40
0
 40
0
 40
0
 40
1
 40
1
 40
1
 40
1
 10
-243.142430
 20
253.283936
 30
0.0
 10
-243.563110
 20
251.858168
 30
0.0
 10
-244.287750
 20
250.515148
 30
0.0
 10
-245.258440
 20
249.389132
 30
0.0
  0
SPLINE
  5
146
100
AcDbEntity
  8
Edgecut
 62
6
100
AcDbSpline
 70
8
 71
3
 72
8
 73
4
 74
0
 40
0
 40
0
 40
0
 40
0
 40
1
 40
1
 40
1
 40
1
 10
-245.258440
 20
249.389132
 30
0.0
 10
-245.389580
 20
249.260606
 30
0.0
 10
-245.664800
 20
248.873039
 30
0.0
 10
-245.706670
 20
249.026545
 30
0.0
  0
SPLINE
  5
147
100
AcDbEntity
  8
Edgecut
 62
6
100
AcDbSpline
 70
8
 71
3
 72
8
 73
4
 74
0
 40
0
 40
0
 40
0
 40
0
 40
1
 40
1
 40
1
 40
1
 10
-245.706670
 20
249.026545
 30
0.0
 10
-246.065920
 20
250.343666
 30
0.0
 10
-246.022350
 20
251.748983
 30
0.0
 10
-246.424020
 20
253.061158
 30
0.0
  0
SPLINE
  5
148
100
AcDbEntity
  8
Edgecut
 62
6
100
AcDbSpline
 70
8
 71
3
 72
8
 73
4
 74
0
 40
0
 40
0
 40
0
 40
0
 40
1
 40
1
 40
1
 40
1
 10
-246.424020
 20
253.061158
 30
0.0
 10
-247.417510
 20
256.588011
 30
0.0
 10
-249.468730
 20
259.726953
 30
0.0
 10
-251.876560
 20
262.451989
 30
0.0
  0
SPLINE
  5
149
100
AcDbEntity
  8
Edgecut
 62
6
100
AcDbSpline
 70
8
 71
3
 72
8
 73
4
 74
0
 40
0
 40
0
 40
0
 40
0
 40
1
 40
1
 40
1
 40
1
 10
-251.876560
 20
262.451989
 30
0.0
 10
-253.884260
 20
264.685169
 30
0.0
 10
-256.362320
 20
266.416296
 30
0.0
 10
-258.847340
 20
268.071419
 30
0.0
  0
SPLINE
  5
14a
100
AcDbEntity
  8
Edgecut
 62
6
100
AcDbSpline
 70
8
 71
3
 72
8
 73
4
 74
0
 40
0
 40
0
 40
0
 40
0
 40
1
 40
1
 40
1
 40
1
 10
-258.847340
 20
268.071419
 30
0.0
 10
-259.060590
 20
268.227484
 30
0.0
 10
-259.288550
 20
268.366909
 30
0.0
 10
-259.475630
 20
268.555505
 30
0.0
  0
SPLINE
  5
14b
100
AcDbEntity
  8
Edgecut
 62
6
100
AcDbSpline
 70
8
 71
3
 72
8
 73
4
 74
0
 40
0
 40
0
 40
0
 40
0
 40
1
 40
1
 40
1
 40
1
 10
-259.475630
 20
268.555505
 30
0.0
 10
-258.416930
 20
269.161333
 30
0.0
 10
-257.302880
 20
269.667713
 30
0.0
 10
-256.279100
 20
270.335061
 30
0.0
  0
SPLINE
  5
14c
100
AcDbEntity
  8
Edgecut
 62
6
100
AcDbSpline
 70
8
 71
3
 72
8
 73
4
 74
0
 40
0
 40
0
 40
0
 40
0
 40
1
 40
1
 40
1
 40
1
 10
-256.279100
 20
270.335061
 30
0.0
 10
-255.119760
 20
271.040478
 30
0.0
 10
-254.077940
 20
271.913586
 30
0.0
 10
-253.039090
 20
272.780095
 30
0.0
  0
SPLINE
  5
14d
100
AcDbEntity
  8
Edgecut
 62
6
100
AcDbSpline
 70
8
 71
3
 72
8
 73
4
 74
0
 40
0
 40
0
 40
0
 40
0
 40
1
 40
1
 40
1
 40
1
 10
-253.039090
 20
272.780095
 30
0.0
 10
-252.906090
 20
272.898419
 30
0.0
 10
-252.735620
 20
272.948228
 30
0.0
 10
-252.586470
 20
272.824345
 30
0.0
  0
SPLINE
  5
14e
100
AcDbEntity
  8
Edgecut
 62
6
100
AcDbSpline
 70
8
 71
3
 72
8
 73
4
 74
0
 40
0
 40
0
 40
0
 40
0
 40
1
 40
1
 40
1
 40
1
 10
-252.586470
 20
272.824345
 30
0.0
 10
-252.218730
 20
272.605007
 30
0.0
 10
-251.704200
 20
272.388492
 30
0.0
 10
-251.326670
 20
272.709335
 30
0.0
  0
SPLINE
  5
14f
100
AcDbEntity
  8
Edgecut
 62
6
100
AcDbSpline
 70
8
 71
3
 72
8
 73
4
 74
0
 40
0
 40
0
 40
0
 40
0
 40
1
 40
1
 40
1
 40
1
 10
-251.326670
 20
272.709335
 30
0.0
 10
-250.965100
 20
272.991840
 30
0.0
 10
-250.983810
 20
273.540739
 30
0.0
 10
-251.265970
 20
273.872053
 30
0.0
  0
SPLINE
  5
150
100
AcDbEntity
  8
Edgecut
 62
6
100
AcDbSpline
 70
8
 71
3
 72
8
 73
4
 74
0
 40
0
 40
0
 40
0
 40
0
 40
1
 40
1
 40
1
 40
1
 10
-251.265970
 20
273.872053
 30
0.0
 10
-251.342270
 20
274.039334
 30
0.0
 10
-251.657160
 20
274.198768
 30
0.0
 10
-251.474440
 20
274.380742
 30
0.0
  0
SPLINE
  5
151
100
AcDbEntity
  8
Edgecut
 62
6
100
AcDbSpline
 70
8
 71
3
 72
8
 73
4
 74
0
 40
0
 40
0
 40
0
 40
0
 40
1
 40
1
 40
1
 40
1
 10
-251.474440
 20
274.380742
 30
0.0
 10
-250.682730
 20
275.602453
 30
0.0
 10
-249.912720
 20
276.846300
 30
0.0
 10
-249.348510
 20
278.192395
 30
0.0
  0
SPLINE
  5
152
100
AcDbEntity
  8
Edgecut
 62
6
100
AcDbSpline
 70
8
 71
3
 72
8
 73
4
 74
0
 40
0
 40
0
 40
0
 40
0
 40
1
 40
1
 40
1
 40
1
 10
-249.348510
 20
278.192395
 30
0.0
 10
-248.825460
 20
278.211365
 30
0.0
 10
-248.299090
 20
277.802875
 30
0.0
 10
-247.786390
 20
278.048201
 30
0.0
  0
SPLINE
  5
153
100
AcDbEntity
  8
Edgecut
 62
6
100
AcDbSpline
 70
8
 71
3
 72
8
 73
4
 74
0
 40
0
 40
0
 40
0
 40
0
 40
1
 40
1
 40
1
 40
1
 10
-247.786390
 20
278.048201
 30
0.0
 10
-247.322800
 20
278.296882
 30
0.0
 10
-247.054230
 20
279.027169
 30
0.0
 10
-247.487890
 20
279.423971
 30
0.0
  0
SPLINE
  5
154
100
AcDbEntity
  8
Edgecut
 62
6
100
AcDbSpline
 70
8
 71
3
 72
8
 73
4
 74
0
 40
0
 40
0
 40
0
 40
0
 40
1
 40
1
 40
1
 40
1
 10
-247.487890
 20
279.423971
 30
0.0
 10
-247.818990
 20
279.733682
 30
0.0
 10
-248.275830
 20
279.848039
 30
0.0
 10
-248.699630
 20
279.946203
 30
0.0
  0
SPLINE
  5
155
100
AcDbEntity
  8
Edgecut
 62
6
100
AcDbSpline
 70
8
 71
3
 72
8
 73
4
 74
0
 40
0
 40
0
 40
0
 40
0
 40
1
 40
1
 40
1
 40
1
 10
-248.699630
 20
279.946203
 30
0.0
 10
-248.853190
 20
280.050162
 30
0.0
 10
-248.703630
 20
280.294292
 30
0.0
 10
-248.713030
 20
280.452220
 30
0.0
  0
SPLINE
  5
156
100
AcDbEntity
  8
Edgecut
 62
6
100
AcDbSpline
 70
8
 71
3
 72
8
 73
4
 74
0
 40
0
 40
0
 40
0
 40
0
 40
1
 40
1
 40
1
 40
1
 10
-248.713030
 20
280.452220
 30
0.0
 10
-248.461360
 20
281.649397
 30
0.0
 10
-248.403560
 20
282.860588
 30
0.0
 10
-248.248020
 20
284.076374
 30
0.0
  0
SPLINE
  5
157
100
AcDbEntity
  8
Edgecut
 62
6
100
AcDbSpline
 70
8
 71
3
 72
8
 73
4
 74
0
 40
0
 40
0
 40
0
 40
0
 40
1
 40
1
 40
1
 40
1
 10
-248.248020
 20
284.076374
 30
0.0
 10
-248.235920
 20
284.316795
 30
0.0
 10
-247.865910
 20
284.164794
 30
0.0
 10
-247.698890
 20
284.213515
 30
0.0
  0
SPLINE
  5
158
100
AcDbEntity
  8
Edgecut
 62
6
100
AcDbSpline
 70
8
 71
3
 72
8
 73
4
 74
0
 40
0
 40
0
 40
0
 40
0
 40
1
 40
1
 40
1
 40
1
 10
-247.698890
 20
284.213515
 30
0.0
 10
-247.229680
 20
284.218315
 30
0.0
 10
-246.623570
 20
284.216815
 30
0.0
 10
-246.346960
 20
284.666508
 30
0.0
  0
SPLINE
  5
159
100
AcDbEntity
  8
Edgecut
 62
6
100
AcDbSpline
 70
8
 71
3
 72
8
 73
4
 74
0
 40
0
 40
0
 40
0
 40
0
 40
1
 40
1
 40
1
 40
1
 10
-246.346960
 20
284.666508
 30
0.0
 10
-246.087010
 20
285.121805
 30
0.0
 10
-246.399660
 20
285.746184
 30
0.0
 10
-246.905440
 20
285.849637
 30
0.0
  0
SPLINE
  5
15a
100
AcDbEntity
  8
Edgecut
 62
6
100
AcDbSpline
 70
8
 71
3
 72
8
 73
4
 74
0
 40
0
 40
0
 40
0
 40
0
 40
1
 40
1
 40
1
 40
1
 10
-246.905440
 20
285.849637
 30
0.0
 10
-247.356090
 20
286.002911
 30
0.0
 10
-247.842430
 20
285.994865
 30
0.0
 10
-248.291700
 20
286.073751
 30
0.0
  0
SPLINE
  5
15b
100
AcDbEntity
  8
Edgecut
 62
6
100
AcDbSpline
 70
8
 71
3
 72
8
 73
4
 74
0
 40
0
 40
0
 40
0
 40
0
 40
1
 40
1
 40
1
 40
1
 10
-248.291700
 20
286.073751
 30
0.0
 10
-248.646510
 20
287.863313
 30
0.0
 10
-248.893650
 20
289.701796
 30
0.0
 10
-249.402540
 20
291.471357
 30
0.0
  0
SPLINE
  5
15c
100
AcDbEntity
  8
Edgecut
 62
6
100
AcDbSpline
 70
8
 71
3
 72
8
 73
4
 74
0
 40
0
 40
0
 40
0
 40
0
 40
1
 40
1
 40
1
 40
1
 10
-249.402540
 20
291.471357
 30
0.0
 10
-249.929460
 20
293.425057
 30
0.0
 10
-250.699250
 20
295.305287
 30
0.0
 10
-251.606860
 20
297.110815
 30
0.0
  0
SPLINE
  5
15d
100
AcDbEntity
  8
Edgecut
 62
6
100
AcDbSpline
 70
8
 71
3
 72
8
 73
4
 74
0
 40
0
 40
0
 40
0
 40
0
 40
1
 40
1
 40
1
 40
1
 10
-251.606860
 20
297.110815
 30
0.0
 10
-251.815090
 20
297.564355
 30
0.0
 10
-252.122840
 20
298.026107
 30
0.0
 10
-252.010270
 20
298.549337
 30
0.0
  0
SPLINE
  5
15e
100
AcDbEntity
  8
Edgecut
 62
6
100
AcDbSpline
 70
8
 71
3
 72
8
 73
4
 74
0
 40
0
 40
0
 40
0
 40
0
 40
1
 40
1
 40
1
 40
1
 10
-252.010270
 20
298.549337
 30
0.0
 10
-251.907650
 20
299.518902
 30
0.0
 10
-251.707310
 20
300.475828
 30
0.0
 10
-251.630890
 20
301.448889
 30
0.0
  0
SPLINE
  5
15f
100
AcDbEntity
  8
Edgecut
 62
6
100
AcDbSpline
 70
8
 71
3
 72
8
 73
4
 74
0
 40
0
 40
0
 40
0
 40
0
 40
1
 40
1
 40
1
 40
1
 10
-251.630890
 20
301.448889
 30
0.0
 10
-251.304410
 20
304.765604
 30
0.0
 10
-251.453460
 20
308.124566
 30
0.0
 10
-251.998060
 20
311.409824
 30
0.0
  0
SPLINE
  5
160
100
AcDbEntity
  8
Edgecut
 62
6
100
AcDbSpline
 70
8
 71
3
 72
8
 73
4
 74
0
 40
0
 40
0
 40
0
 40
0
 40
1
 40
1
 40
1
 40
1
 10
-251.998060
 20
311.409824
 30
0.0
 10
-252.374480
 20
313.410269
 30
0.0
 10
-252.865560
 20
315.414457
 30
0.0
 10
-253.757970
 20
317.253562
 30
0.0
  0
SPLINE
  5
161
100
AcDbEntity
  8
Edgecut
 62
6
100
AcDbSpline
 70
8
 71
3
 72
8
 73
4
 74
0
 40
0
 40
0
 40
0
 40
0
 40
1
 40
1
 40
1
 40
1
 10
-253.757970
 20
317.253562
 30
0.0
 10
-254.091980
 20
317.913739
 30
0.0
 10
-254.561730
 20
318.658739
 30
0.0
 10
-255.353080
 20
318.788787
 30
0.0
  0
SPLINE
  5
162
100
AcDbEntity
  8
Edgecut
 62
6
100
AcDbSpline
 70
8
 71
3
 72
8
 73
4
 74
0
 40
0
 40
0
 40
0
 40
0
 40
1
 40
1
 40
1
 40
1
 10
-255.353080
 20
318.788787
 30
0.0
 10
-256.006010
 20
318.916847
 30
0.0
 10
-256.680860
 20
318.774607
 30
0.0
 10
-257.268250
 20
318.477317
 30
0.0
  0
SPLINE
  5
163
100
AcDbEntity
  8
Edgecut
 62
6
100
AcDbSpline
 70
8
 71
3
 72
8
 73
4
 74
0
 40
0
 40
0
 40
0
 40
0
 40
1
 40
1
 40
1
 40
1
 10
-257.268250
 20
318.477317
 30
0.0
 10
-261.130840
 20
316.672239
 30
0.0
 10
-264.403050
 20
313.858575
 30
0.0
 10
-267.433090
 20
310.904948
 30
0.0
  0
SPLINE
  5
164
100
AcDbEntity
  8
Edgecut
 62
6
100
AcDbSpline
 70
8
 71
3
 72
8
 73
4
 74
0
 40
0
 40
0
 40
0
 40
0
 40
1
 40
1
 40
1
 40
1
 10
-267.433090
 20
310.904948
 30
0.0
 10
-267.762000
 20
310.607299
 30
0.0
 10
-268.067710
 20
310.279230
 30
0.0
 10
-268.431970
 20
310.023753
 30
0.0
  0
SPLINE
  5
165
100
AcDbEntity
  8
Edgecut
 62
6
100
AcDbSpline
 70
8
 71
3
 72
8
 73
4
 74
0
 40
0
 40
0
 40
0
 40
0
 40
1
 40
1
 40
1
 40
1
 10
-268.431970
 20
310.023753
 30
0.0
 10
-269.808060
 20
310.546380
 30
0.0
 10
-271.234930
 20
310.921591
 30
0.0
 10
-272.665520
 20
311.261623
 30
0.0
  0
SPLINE
  5
166
100
AcDbEntity
  8
Edgecut
 62
6
100
AcDbSpline
 70
8
 71
3
 72
8
 73
4
 74
0
 40
0
 40
0
 40
0
 40
0
 40
1
 40
1
 40
1
 40
1
 10
-272.665520
 20
311.261623
 30
0.0
 10
-274.979110
 20
311.802827
 30
0.0
 10
-277.351990
 20
312.090907
 30
0.0
 10
-279.729380
 20
312.079875
 30
0.0
  0
SPLINE
  5
167
100
AcDbEntity
  8
Edgecut
 62
6
100
AcDbSpline
 70
8
 71
3
 72
8
 73
4
 74
0
 40
0
 40
0
 40
0
 40
0
 40
1
 40
1
 40
1
 40
1
 10
-279.729380
 20
312.079875
 30
0.0
 10
-281.636380
 20
312.110165
 30
0.0
 10
-283.551150
 20
312.044115
 30
0.0
 10
-285.433310
 20
311.717288
 30
0.0
  0
SPLINE
  5
168
100
AcDbEntity
  8
Edgecut
 62
6
100
AcDbSpline
 70
8
 71
3
 72
8
 73
4
 74
0
 40
0
 40
0
 40
0
 40
0
 40
1
 40
1
 40
1
 40
1
 10
-285.433310
 20
311.717288
 30
0.0
 10
-287.643240
 20
311.402030
 30
0.0
 10
-289.819070
 20
310.867430
 30
0.0
 10
-291.929360
 20
310.141246
 30
0.0
  0
SPLINE
  5
169
100
AcDbEntity
  8
Edgecut
 62
6
100
AcDbSpline
 70
8
 71
3
 72
8
 73
4
 74
0
 40
0
 40
0
 40
0
 40
0
 40
1
 40
1
 40
1
 40
1
 10
-291.929360
 20
310.141246
 30
0.0
 10
-292.102720
 20
310.105746
 30
0.0
 10
-292.310740
 20
309.946738
 30
0.0
 10
-292.425080
 20
310.161656
 30
0.0
  0
SPLINE
  5
16a
100
AcDbEntity
  8
Edgecut
 62
6
100
AcDbSpline
 70
8
 71
3
 72
8
 73
4
 74
0
 40
0
 40
0
 40
0
 40
0
 40
1
 40
1
 40
1
 40
1
 10
-292.425080
 20
310.161656
 30
0.0
 10
-293.832090
 20
311.519562
 30
0.0
 10
-295.147310
 20
312.973768
 30
0.0
 10
-296.645280
 20
314.235371
 30
0.0
  0
SPLINE
  5
16b
100
AcDbEntity
  8
Edgecut
 62
6
100
AcDbSpline
 70
8
 71
3
 72
8
 73
4
 74
0
 40
0
 40
0
 40
0
 40
0
 40
1
 40
1
 40
1
 40
1
 10
-296.645280
 20
314.235371
 30
0.0
 10
-298.562960
 20
315.899578
 30
0.0
 10
-300.601650
 20
317.470751
 30
0.0
 10
-302.905390
 20
318.564293
 30
0.0
  0
SPLINE
  5
16c
100
AcDbEntity
  8
Edgecut
 62
6
100
AcDbSpline
 70
8
 71
3
 72
8
 73
4
 74
0
 40
0
 40
0
 40
0
 40
0
 40
1
 40
1
 40
1
 40
1
 10
-302.905390
 20
318.564293
 30
0.0
 10
-303.554690
 20
318.858976
 30
0.0
 10
-304.248040
 20
319.108770
 30
0.0
 10
-304.969330
 20
319.107887
 30
0.0
  0
SPLINE
  5
16d
100
AcDbEntity
  8
Edgecut
 62
6
100
AcDbSpline
 70
8
 71
3
 72
8
 73
4
 74
0
 40
0
 40
0
 40
0
 40
0
 40
1
 40
1
 40
1
 40
1
 10
-280.017260
 20
305.183747
 30
0.0
 10
-278.345820
 20
305.183779
 30
0.0
 10
-277.013850
 20
307.810357
 30
0.0
 10
-277.059920
 20
305.747664
 30
0.0
  0
SPLINE
  5
16e
100
AcDbEntity
  8
Edgecut
 62
6
100
AcDbSpline
 70
8
 71
3
 72
8
 73
4
 74
0
 40
0
 40
0
 40
0
 40
0
 40
1
 40
1
 40
1
 40
1
 10
-277.059920
 20
305.747664
 30
0.0
 10
-277.059880
 20
304.076221
 30
0.0
 10
-278.414870
 20
302.721242
 30
0.0
 10
-280.086310
 20
302.721274
 30
0.0
  0
SPLINE
  5
16f
100
AcDbEntity
  8
Edgecut
 62
6
100
AcDbSpline
 70
8
 71
3
 72
8
 73
4
 74
0
 40
0
 40
0
 40
0
 40
0
 40
1
 40
1
 40
1
 40
1
 10
-280.086310
 20
302.721274
 30
0.0
 10
-281.757750
 20
302.721242
 30
0.0
 10
-283.112730
 20
304.076221
 30
0.0
 10
-283.112700
 20
305.747664
 30
0.0
  0
SPLINE
  5
170
100
AcDbEntity
  8
Edgecut
 62
6
100
AcDbSpline
 70
8
 71
3
 72
8
 73
4
 74
0
 40
0
 40
0
 40
0
 40
0
 40
1
 40
1
 40
1
 40
1
 10
-283.112700
 20
305.747664
 30
0.0
 10
-283.135700
 20
307.620538
 30
0.0
 10
-281.688700
 20
305.183779
 30
0.0
 10
-280.017260
 20
305.183747
 30
0.0
  0
LWPOLYLINE
  5
171
100
AcDbEntity
  8
Edgecut
 62
6
100
AcDbPolyline
 90
1
 70
1
 10
-304.969330
 20
319.107887
 30
0.0
  0
SPLINE
  5
172
100
AcDbEntity
  8
Edgecut
 62
6
100
AcDbSpline
 70
8
 71
3
 72
8
 73
4
 74
0
 40
0
 40
0
 40
0
 40
0
 40
1
 40
1
 40
1
 40
1
 10
-294.664490
 20
294.628201
 30
0.0
 10
-297.146343
 20
294.628201
 30
0.0
 10
-299.383817
 20
293.128727
 30
0.0
 10
-300.333581
 20
290.828981
 30
0.0
  0
SPLINE
  5
173
100
AcDbEntity
  8
Edgecut
 62
6
100
AcDbSpline
 70
8
 71
3
 72
8
 73
4
 74
0
 40
0
 40
0
 40
0
 40
0
 40
1
 40
1
 40
1
 40
1
 10
-300.333581
 20
290.828981
 30
0.0
 10
-301.283345
 20
288.529235
 30
0.0
 10
-300.758359
 20
285.882112
 30
0.0
 10
-299.003424
 20
284.121963
 30
0.0
  0
SPLINE
  5
174
100
AcDbEntity
  8
Edgecut
 62
6
100
AcDbSpline
 70
8
 71
3
 72
8
 73
4
 74
0
 40
0
 40
0
 40
0
 40
0
 40
1
 40
1
 40
1
 40
1
 10
-299.003424
 20
284.121963
 30
0.0
 10
-297.248489
 20
282.361813
 30
0.0
 10
-294.609209
 20
281.835268
 30
0.0
 10
-292.316276
 20
282.787854
 30
0.0
  0
SPLINE
  5
175
100
AcDbEntity
  8
Edgecut
 62
6
100
AcDbSpline
 70
8
 71
3
 72
8
 73
4
 74
0
 40
0
 40
0
 40
0
 40
0
 40
1
 40
1
 40
1
 40
1
 10
-292.316276
 20
282.787854
 30
0.0
 10
-290.023343
 20
283.740440
 30
0.0
 10
-288.528311
 20
285.984562
 30
0.0
 10
-288.528311
 20
288.473789
 30
0.0
  0
SPLINE
  5
176
100
AcDbEntity
  8
Edgecut
 62
6
100
AcDbSpline
 70
8
 71
3
 72
8
 73
4
 74
0
 40
0
 40
0
 40
0
 40
0
 40
1
 40
1
 40
1
 40
1
 10
-288.528311
 20
288.473789
 30
0.0
 10
-288.528311
 20
290.106041
 30
0.0
 10
-289.174799
 20
291.671439
 30
0.0
 10
-290.325556
 20
292.825616
 30
0.0
  0
SPLINE
  5
177
100
AcDbEntity
  8
Edgecut
 62
6
100
AcDbSpline
 70
8
 71
3
 72
8
 73
4
 74
0
 40
0
 40
0
 40
0
 40
0
 40
1
 40
1
 40
1
 40
1
 10
-290.325556
 20
292.825616
 30
0.0
 10
-291.476313
 20
293.979792
 30
0.0
 10
-293.037074
 20
294.628201
 30
0.0
 10
-294.664490
 20
294.628201
 30
0.0
  0
LWPOLYLINE
  5
178
100
AcDbEntity
  8
Edgecut
 62
6
100
AcDbPolyline
 90
1
 70
1
 10
-280.017260
 20
305.183747
 30
0.0
  0
SPLINE
  5
179
100
AcDbEntity
  8
Edgecut
 62
6
100
AcDbSpline
 70
8
 71
3
 72
8
 73
4
 74
0
 40
0
 40
0
 40
0
 40
0
 40
1
 40
1
 40
1
 40
1
 10
-266.209990
 20
294.628201
 30
0.0
 10
-268.691843
 20
294.628201
 30
0.0
 10
-270.929317
 20
293.128727
 30
0.0
 10
-271.879081
 20
290.828981
 30
0.0
  0
SPLINE
  5
17a
100
AcDbEntity
  8
Edgecut
 62
6
100
AcDbSpline
 70
8
 71
3
 72
8
 73
4
 74
0
 40
0
 40
0
 40
0
 40
0
 40
1
 40
1
 40
1
 40
1
 10
-271.879081
 20
290.828981
 30
0.0
 10
-272.828845
 20
288.529235
 30
0.0
 10
-272.303859
 20
285.882112
 30
0.0
 10
-270.548924
 20
284.121963
 30
0.0
  0
SPLINE
  5
17b
100
AcDbEntity
  8
Edgecut
 62
6
100
AcDbSpline
 70
8
 71
3
 72
8
 73
4
 74
0
 40
0
 40
0
 40
0
 40
0
 40
1
 40
1
 40
1
 40
1
 10
-270.548924
 20
284.121963
 30
0.0
 10
-268.793989
 20
282.361813
 30
0.0
 10
-266.154709
 20
281.835268
 30
0.0
 10
-263.861776
 20
282.787854
 30
0.0
  0
SPLINE
  5
17c
100
AcDbEntity
  8
Edgecut
 62
6
100
AcDbSpline
 70
8
 71
3
 72
8
 73
4
 74
0
 40
0
 40
0
 40
0
 40
0
 40
1
 40
1
 40
1
 40
1
 10
-263.861776
 20
282.787854
 30
0.0
 10
-261.568843
 20
283.740440
 30
0.0
 10
-260.073811
 20
285.984562
 30
0.0
 10
-260.073811
 20
288.473789
 30
0.0
  0
SPLINE
  5
17d
100
AcDbEntity
  8
Edgecut
 62
6
100
AcDbSpline
 70
8
 71
3
 72
8
 73
4
 74
0
 40
0
 40
0
 40
0
 40
0
 40
1
 40
1
 40
1
 40
1
 10
-260.073811
 20
288.473789
 30
0.0
 10
-260.073811
 20
290.106041
 30
0.0
 10
-260.720299
 20
291.671439
 30
0.0
 10
-261.871056
 20
292.825616
 30
0.0
  0
SPLINE
  5
17e
100
AcDbEntity
  8
Edgecut
 62
6
100
AcDbSpline
 70
8
 71
3
 72
8
 73
4
 74
0
 40
0
 40
0
 40
0
 40
0
 40
1
 40
1
 40
1
 40
1
 10
-261.871056
 20
292.825616
 30
0.0
 10
-263.021813
 20
293.979792
 30
0.0
 10
-264.582574
 20
294.628201
 30
0.0
 10
-266.209990
 20
294.628201
 30
0.0
  0
LWPOLYLINE
  5
17f
100
AcDbEntity
  8
Edgecut
 62
6
100
AcDbPolyline
 90
1
 70
1
 10
-294.664490
 20
294.628201
 30
0.0
  0
SPLINE
  5
180
100
AcDbEntity
  8
Edgecut
 62
6
100
AcDbSpline
 70
8
 71
3
 72
8
 73
4
 74
0
 40
0
 40
0
 40
0
 40
0
 40
1
 40
1
 40
1
 40
1
 10
-268.295070
 20
291.150676
 30
0.0
 10
-269.474142
 20
291.150676
 30
0.0
 10
-270.537116
 20
290.413574
 30
0.0
 10
-270.988327
 20
289.283080
 30
0.0
  0
SPLINE
  5
181
100
AcDbEntity
  8
Edgecut
 62
6
100
AcDbSpline
 70
8
 71
3
 72
8
 73
4
 74
0
 40
0
 40
0
 40
0
 40
0
 40
1
 40
1
 40
1
 40
1
 10
-270.988327
 20
289.283080
 30
0.0
 10
-271.439538
 20
288.152585
 30
0.0
 10
-271.190130
 20
286.851330
 30
0.0
 10
-270.356400
 20
285.986087
 30
0.0
  0
SPLINE
  5
182
100
AcDbEntity
  8
Edgecut
 62
6
100
AcDbSpline
 70
8
 71
3
 72
8
 73
4
 74
0
 40
0
 40
0
 40
0
 40
0
 40
1
 40
1
 40
1
 40
1
 10
-270.356400
 20
285.986087
 30
0.0
 10
-269.522670
 20
285.120844
 30
0.0
 10
-268.268807
 20
284.862008
 30
0.0
 10
-267.179486
 20
285.330274
 30
0.0
  0
SPLINE
  5
183
100
AcDbEntity
  8
Edgecut
 62
6
100
AcDbSpline
 70
8
 71
3
 72
8
 73
4
 74
0
 40
0
 40
0
 40
0
 40
0
 40
1
 40
1
 40
1
 40
1
 10
-267.179486
 20
285.330274
 30
0.0
 10
-266.090166
 20
285.798540
 30
0.0
 10
-265.379910
 20
286.901692
 30
0.0
 10
-265.379910
 20
288.125330
 30
0.0
  0
SPLINE
  5
184
100
AcDbEntity
  8
Edgecut
 62
6
100
AcDbSpline
 70
8
 71
3
 72
8
 73
4
 74
0
 40
0
 40
0
 40
0
 40
0
 40
1
 40
1
 40
1
 40
1
 10
-265.379910
 20
288.125330
 30
0.0
 10
-265.379910
 20
288.927702
 30
0.0
 10
-265.687042
 20
289.697210
 30
0.0
 10
-266.233740
 20
290.264573
 30
0.0
  0
SPLINE
  5
185
100
AcDbEntity
  8
Edgecut
 62
6
100
AcDbSpline
 70
8
 71
3
 72
8
 73
4
 74
0
 40
0
 40
0
 40
0
 40
0
 40
1
 40
1
 40
1
 40
1
 10
-266.233740
 20
290.264573
 30
0.0
 10
-266.780439
 20
290.831936
 30
0.0
 10
-267.521921
 20
291.150676
 30
0.0
 10
-268.295070
 20
291.150676
 30
0.0
  0
LWPOLYLINE
  5
186
100
AcDbEntity
  8
Edgecut
 62
6
100
AcDbPolyline
 90
1
 70
1
 10
-266.209990
 20
294.628201
 30
0.0
  0
SPLINE
  5
187
100
AcDbEntity
  8
Edgecut
 62
6
100
AcDbSpline
 70
8
 71
3
 72
8
 73
4
 74
0
 40
0
 40
0
 40
0
 40
0
 40
1
 40
1
 40
1
 40
1
 10
-292.537050
 20
291.401458
 30
0.0
 10
-293.764889
 20
291.401458
 30
0.0
 10
-294.871827
 20
290.634979
 30
0.0
 10
-295.341700
 20
289.459430
 30
0.0
  0
SPLINE
  5
188
100
AcDbEntity
  8
Edgecut
 62
6
100
AcDbSpline
 70
8
 71
3
 72
8
 73
4
 74
0
 40
0
 40
0
 40
0
 40
0
 40
1
 40
1
 40
1
 40
1
 10
-295.341700
 20
289.459430
 30
0.0
 10
-295.811574
 20
288.283882
 30
0.0
 10
-295.551850
 20
286.930766
 30
0.0
 10
-294.683637
 20
286.031040
 30
0.0
  0
SPLINE
  5
189
100
AcDbEntity
  8
Edgecut
 62
6
100
AcDbSpline
 70
8
 71
3
 72
8
 73
4
 74
0
 40
0
 40
0
 40
0
 40
0
 40
1
 40
1
 40
1
 40
1
 10
-294.683637
 20
286.031040
 30
0.0
 10
-293.815423
 20
285.131314
 30
0.0
 10
-292.509701
 20
284.862163
 30
0.0
 10
-291.375326
 20
285.349091
 30
0.0
  0
SPLINE
  5
18a
100
AcDbEntity
  8
Edgecut
 62
6
100
AcDbSpline
 70
8
 71
3
 72
8
 73
4
 74
0
 40
0
 40
0
 40
0
 40
0
 40
1
 40
1
 40
1
 40
1
 10
-291.375326
 20
285.349091
 30
0.0
 10
-290.240951
 20
285.836019
 30
0.0
 10
-289.501318
 20
286.983135
 30
0.0
 10
-289.501318
 20
288.255540
 30
0.0
  0
SPLINE
  5
18b
100
AcDbEntity
  8
Edgecut
 62
6
100
AcDbSpline
 70
8
 71
3
 72
8
 73
4
 74
0
 40
0
 40
0
 40
0
 40
0
 40
1
 40
1
 40
1
 40
1
 10
-289.501318
 20
288.255540
 30
0.0
 10
-289.501318
 20
289.089889
 30
0.0
 10
-289.821153
 20
289.890066
 30
0.0
 10
-290.390463
 20
290.480040
 30
0.0
  0
SPLINE
  5
18c
100
AcDbEntity
  8
Edgecut
 62
6
100
AcDbSpline
 70
8
 71
3
 72
8
 73
4
 74
0
 40
0
 40
0
 40
0
 40
0
 40
1
 40
1
 40
1
 40
1
 10
-290.390463
 20
290.480040
 30
0.0
 10
-290.959774
 20
291.070014
 30
0.0
 10
-291.731924
 20
291.401458
 30
0.0
 10
-292.537050
 20
291.401458
 30
0.0
  0
LWPOLYLINE
  5
18d
100
AcDbEntity
  8
Edgecut
 62
6
100
AcDbPolyline
 90
1
 70
1
 10
-268.295070
 20
291.150676
 30
0.0
  0
LWPOLYLINE
  5
18e
100
AcDbEntity
  8
Edgecut
 62
6
100
AcDbPolyline
 90
1
 70
1
 10
-292.537050
 20
291.401458
 30
0.0
  0
ENDSEC
  0
SECTION
  2
OBJECTS
  0
DICTIONARY
  5
C
330
0
100
AcDbDictionary
  3
ACAD_GROUP
350
D
  3
ACAD_MLINESTYLE
350
17
  0
DICTIONARY
  5
D
330
C
100
AcDbDictionary
  0
DICTIONARY
  5
1A
330
C
100
AcDbDictionary
  0
DICTIONARY
  5
17
330
C
100
AcDbDictionary
  3
STANDARD
350
18
  0
DICTIONARY
  5
19
330
C
100
AcDbDictionary
  0
ENDSEC
  0
EOF
